<svg width="63" height="63" viewBox="0 0 63 63" fill="none" xmlns="http://www.w3.org/2000/svg">
<rect width="58" height="58" rx="5" fill="#00C2FF"/>
<rect x="5" y="5" width="58" height="58" rx="5" fill="#AD00FF" fill-opacity="0.63"/>
<path d="M11.435 13.3289C11.713 13.0858 12.0812 12.9691 12.4502 13.007L42.3846 15.5919C43.0466 15.6644 43.5475 15.565 43.5474 16.2238V40.7215C44.7316 40.0205 46.0871 39.6535 47.4671 39.6604C51.0693 39.6604 54 41.979 54 44.8302C54 47.6813 51.0693 50 47.4672 50C43.8651 50 36.6372 47.4651 36.6372 44.6126C36.6372 44.6126 36.6372 24.9064 36.6372 23.9388C36.6372 21.8531 29.7269 29.4929 27.288 29.4929C24.8491 29.4929 17.7066 19.0552 17.7066 21.8531C17.7066 22.8959 17.7066 38.1327 17.7066 38.1327C18.8911 37.4332 20.2467 37.0675 21.6263 37.0755C25.2285 37.0755 28.1591 39.3942 28.1591 42.2453C28.1591 45.0964 25.2284 47.4151 21.6263 47.4151C18.0241 47.4151 11 45.0977 11 42.2453V28.6746V14.2918C11 13.9242 11.1582 13.574 11.435 13.3289Z" fill="white"/>
</svg>
