<svg width="246" height="63" viewBox="0 0 246 63" fill="none" xmlns="http://www.w3.org/2000/svg">
<rect width="58" height="58" rx="5" fill="#00C2FF"/>
<rect x="5" y="5" width="58" height="58" rx="5" fill="#AD00FF" fill-opacity="0.63"/>
<path d="M11.435 13.3289C11.713 13.0858 12.0812 12.9691 12.4502 13.007L42.3846 15.5919C43.0466 15.6644 43.5475 15.565 43.5474 16.2238V40.7215C44.7316 40.0205 46.0871 39.6535 47.4671 39.6604C51.0693 39.6604 54 41.979 54 44.8302C54 47.6813 51.0693 50 47.4672 50C43.8651 50 36.6372 47.4651 36.6372 44.6126C36.6372 44.6126 36.6372 24.9064 36.6372 23.9388C36.6372 21.8531 29.7269 29.4929 27.288 29.4929C24.8491 29.4929 17.7066 19.0552 17.7066 21.8531C17.7066 22.8959 17.7066 38.1327 17.7066 38.1327C18.8911 37.4332 20.2467 37.0675 21.6263 37.0755C25.2285 37.0755 28.1591 39.3942 28.1591 42.2453C28.1591 45.0964 25.2284 47.4151 21.6263 47.4151C18.0241 47.4151 11 45.0977 11 42.2453V28.6746V14.2918C11 13.9242 11.1582 13.574 11.435 13.3289Z" fill="white"/>
<rect width="58" height="58" rx="5" fill="#00C2FF"/>
<rect x="5" y="5" width="58" height="58" rx="5" fill="#AD00FF" fill-opacity="0.63"/>
<path d="M11.435 13.3289C11.713 13.0858 12.0812 12.9691 12.4502 13.007L42.3846 15.5919C43.0466 15.6644 43.5475 15.565 43.5474 16.2238V40.7215C44.7316 40.0205 46.0871 39.6535 47.4671 39.6604C51.0693 39.6604 54 41.979 54 44.8302C54 47.6813 51.0693 50 47.4672 50C43.8651 50 36.6372 47.4651 36.6372 44.6126C36.6372 44.6126 36.6372 24.9064 36.6372 23.9388C36.6372 21.8531 29.7269 29.4929 27.288 29.4929C24.8491 29.4929 17.7066 19.0552 17.7066 21.8531C17.7066 22.8959 17.7066 38.1327 17.7066 38.1327C18.8911 37.4332 20.2467 37.0675 21.6263 37.0755C25.2285 37.0755 28.1591 39.3942 28.1591 42.2453C28.1591 45.0964 25.2284 47.4151 21.6263 47.4151C18.0241 47.4151 11 45.0977 11 42.2453V28.6746V14.2918C11 13.9242 11.1582 13.574 11.435 13.3289Z" fill="white"/>
<rect width="58" height="58" rx="5" fill="#00C2FF"/>
<rect x="5" y="5" width="58" height="58" rx="5" fill="#AD00FF" fill-opacity="0.63"/>
<path d="M11.435 13.3289C11.713 13.0858 12.0812 12.9691 12.4502 13.007L42.3846 15.5919C43.0466 15.6644 43.5475 15.565 43.5474 16.2238V40.7215C44.7316 40.0205 46.0871 39.6535 47.4671 39.6604C51.0693 39.6604 54 41.979 54 44.8302C54 47.6813 51.0693 50 47.4672 50C43.8651 50 36.6372 47.4651 36.6372 44.6126C36.6372 44.6126 36.6372 24.9064 36.6372 23.9388C36.6372 21.8531 29.7269 29.4929 27.288 29.4929C24.8491 29.4929 17.7066 19.0552 17.7066 21.8531C17.7066 22.8959 17.7066 38.1327 17.7066 38.1327C18.8911 37.4332 20.2467 37.0675 21.6263 37.0755C25.2285 37.0755 28.1591 39.3942 28.1591 42.2453C28.1591 45.0964 25.2284 47.4151 21.6263 47.4151C18.0241 47.4151 11 45.0977 11 42.2453V28.6746V14.2918C11 13.9242 11.1582 13.574 11.435 13.3289Z" fill="white"/>
<path d="M95.8828 16.4922V38.8281C95.8828 41.3594 95.3438 43.5547 94.2656 45.4141C93.1875 47.2578 91.6406 48.6641 89.625 49.6328C87.6094 50.6016 85.2266 51.0859 82.4766 51.0859C78.3203 51.0859 75.0469 50.0078 72.6562 47.8516C70.2656 45.6953 69.0469 42.7422 69 38.9922V16.4922H77.2734V39.1562C77.3672 42.8906 79.1016 44.7578 82.4766 44.7578C84.1797 44.7578 85.4688 44.2891 86.3438 43.3516C87.2188 42.4141 87.6562 40.8906 87.6562 38.7812V16.4922H95.8828Z" fill="url(#paint0_linear)"/>
<path d="M118.641 41.5469C118.641 40.3438 118.211 39.4062 117.352 38.7344C116.508 38.0625 115.016 37.3672 112.875 36.6484C110.734 35.9297 108.984 35.2344 107.625 34.5625C103.203 32.3906 100.992 29.4062 100.992 25.6094C100.992 23.7188 101.539 22.0547 102.633 20.6172C103.742 19.1641 105.305 18.0391 107.32 17.2422C109.336 16.4297 111.602 16.0234 114.117 16.0234C116.57 16.0234 118.766 16.4609 120.703 17.3359C122.656 18.2109 124.172 19.4609 125.25 21.0859C126.328 22.6953 126.867 24.5391 126.867 26.6172H118.664C118.664 25.2266 118.234 24.1484 117.375 23.3828C116.531 22.6172 115.383 22.2344 113.93 22.2344C112.461 22.2344 111.297 22.5625 110.438 23.2188C109.594 23.8594 109.172 24.6797 109.172 25.6797C109.172 26.5547 109.641 27.3516 110.578 28.0703C111.516 28.7734 113.164 29.5078 115.523 30.2734C117.883 31.0234 119.82 31.8359 121.336 32.7109C125.023 34.8359 126.867 37.7656 126.867 41.5C126.867 44.4844 125.742 46.8281 123.492 48.5312C121.242 50.2344 118.156 51.0859 114.234 51.0859C111.469 51.0859 108.961 50.5938 106.711 49.6094C104.477 48.6094 102.789 47.25 101.648 45.5312C100.523 43.7969 99.9609 41.8047 99.9609 39.5547H108.211C108.211 41.3828 108.68 42.7344 109.617 43.6094C110.57 44.4688 112.109 44.8984 114.234 44.8984C115.594 44.8984 116.664 44.6094 117.445 44.0312C118.242 43.4375 118.641 42.6094 118.641 41.5469Z" fill="url(#paint1_linear)"/>
<path d="M139.312 39.0391V50.6172H131.086V16.4922H144.703C147.312 16.4922 149.617 16.9766 151.617 17.9453C153.633 18.8984 155.188 20.2656 156.281 22.0469C157.391 23.8125 157.945 25.8203 157.945 28.0703C157.945 31.3984 156.75 34.0625 154.359 36.0625C151.984 38.0469 148.719 39.0391 144.562 39.0391H139.312ZM139.312 32.6875H144.703C146.297 32.6875 147.508 32.2891 148.336 31.4922C149.18 30.6953 149.602 29.5703 149.602 28.1172C149.602 26.5234 149.172 25.25 148.312 24.2969C147.453 23.3438 146.281 22.8594 144.797 22.8438H139.312V32.6875Z" fill="url(#paint2_linear)"/>
<path d="M177.562 44.2422H166.289L164.32 50.6172H155.531L168.047 16.4922H175.781L188.391 50.6172H179.555L177.562 44.2422ZM168.258 37.8906H175.594L171.914 26.0547L168.258 37.8906Z" fill="url(#paint3_linear)"/>
<path d="M217.992 39.0625C217.883 41.4375 217.242 43.5391 216.07 45.3672C214.898 47.1797 213.25 48.5859 211.125 49.5859C209.016 50.5859 206.602 51.0859 203.883 51.0859C199.398 51.0859 195.867 49.625 193.289 46.7031C190.711 43.7812 189.422 39.6562 189.422 34.3281V32.6406C189.422 29.2969 190 26.375 191.156 23.875C192.328 21.3594 194.008 19.4219 196.195 18.0625C198.383 16.6875 200.914 16 203.789 16C207.93 16 211.258 17.0938 213.773 19.2812C216.289 21.4531 217.719 24.4531 218.062 28.2812H209.859C209.797 26.2031 209.273 24.7109 208.289 23.8047C207.305 22.8984 205.805 22.4453 203.789 22.4453C201.742 22.4453 200.242 23.2109 199.289 24.7422C198.336 26.2734 197.836 28.7188 197.789 32.0781V34.4922C197.789 38.1328 198.242 40.7344 199.148 42.2969C200.07 43.8594 201.648 44.6406 203.883 44.6406C205.773 44.6406 207.219 44.1953 208.219 43.3047C209.219 42.4141 209.75 41 209.812 39.0625H217.992Z" fill="url(#paint4_linear)"/>
<path d="M243.047 36.1562H230.109V44.2891H245.391V50.6172H221.883V16.4922H245.438V22.8438H230.109V30.0391H243.047V36.1562Z" fill="url(#paint5_linear)"/>
<defs>
<linearGradient id="paint0_linear" x1="260.504" y1="36.6172" x2="5.50401" y2="36.6172" gradientUnits="userSpaceOnUse">
<stop stop-color="#00C2FF"/>
<stop offset="0.0001" stop-color="#00C2FF"/>
<stop offset="1" stop-color="#B10DFF"/>
</linearGradient>
<linearGradient id="paint1_linear" x1="260.504" y1="36.6172" x2="5.50401" y2="36.6172" gradientUnits="userSpaceOnUse">
<stop stop-color="#00C2FF"/>
<stop offset="0.0001" stop-color="#00C2FF"/>
<stop offset="1" stop-color="#B10DFF"/>
</linearGradient>
<linearGradient id="paint2_linear" x1="260.504" y1="36.6172" x2="5.50401" y2="36.6172" gradientUnits="userSpaceOnUse">
<stop stop-color="#00C2FF"/>
<stop offset="0.0001" stop-color="#00C2FF"/>
<stop offset="1" stop-color="#B10DFF"/>
</linearGradient>
<linearGradient id="paint3_linear" x1="260.504" y1="36.6172" x2="5.50401" y2="36.6172" gradientUnits="userSpaceOnUse">
<stop stop-color="#00C2FF"/>
<stop offset="0.0001" stop-color="#00C2FF"/>
<stop offset="1" stop-color="#B10DFF"/>
</linearGradient>
<linearGradient id="paint4_linear" x1="260.504" y1="36.6172" x2="5.50401" y2="36.6172" gradientUnits="userSpaceOnUse">
<stop stop-color="#00C2FF"/>
<stop offset="0.0001" stop-color="#00C2FF"/>
<stop offset="1" stop-color="#B10DFF"/>
</linearGradient>
<linearGradient id="paint5_linear" x1="260.504" y1="36.6172" x2="5.50401" y2="36.6172" gradientUnits="userSpaceOnUse">
<stop stop-color="#00C2FF"/>
<stop offset="0.0001" stop-color="#00C2FF"/>
<stop offset="1" stop-color="#B10DFF"/>
</linearGradient>
</defs>
</svg>
