<svg width="1440" height="1024" viewBox="0 0 1440 1024" fill="none" xmlns="http://www.w3.org/2000/svg">
<rect width="1440" height="1024" fill="black"/>
<rect x="529" y="93" width="90.2716" height="90.2716" rx="5" fill="#00C2FF"/>
<rect x="536.782" y="100.781" width="90.2716" height="90.2716" rx="5" fill="#AD00FF" fill-opacity="0.63"/>
<path d="M546.797 113.745C547.23 113.366 547.803 113.185 548.377 113.244L594.967 117.267C595.998 117.38 596.777 117.225 596.777 118.25V156.379C598.62 155.288 600.73 154.716 602.878 154.727C608.484 154.727 613.046 158.336 613.046 162.773C613.046 167.211 608.484 170.82 602.878 170.82C597.272 170.82 586.022 166.874 586.022 162.435C586.022 162.435 586.022 131.764 586.022 130.258C586.022 127.012 575.267 138.902 571.471 138.902C567.675 138.902 556.558 122.657 556.558 127.012C556.558 128.635 556.558 152.35 556.558 152.35C558.402 151.261 560.512 150.692 562.659 150.704C568.265 150.704 572.827 154.313 572.827 158.75C572.827 163.188 568.265 166.797 562.659 166.797C557.053 166.797 546.12 163.19 546.12 158.75V137.629V115.243C546.12 114.671 546.366 114.126 546.797 113.745Z" fill="white"/>
<rect x="529" y="93" width="90.2716" height="90.2716" rx="5" fill="#00C2FF"/>
<rect x="536.782" y="100.781" width="90.2716" height="90.2716" rx="5" fill="#AD00FF" fill-opacity="0.63"/>
<path d="M546.797 113.745C547.23 113.366 547.803 113.185 548.377 113.244L594.967 117.267C595.998 117.38 596.777 117.225 596.777 118.25V156.379C598.62 155.288 600.73 154.716 602.878 154.727C608.484 154.727 613.046 158.336 613.046 162.773C613.046 167.211 608.484 170.82 602.878 170.82C597.272 170.82 586.022 166.874 586.022 162.435C586.022 162.435 586.022 131.764 586.022 130.258C586.022 127.012 575.267 138.902 571.471 138.902C567.675 138.902 556.558 122.657 556.558 127.012C556.558 128.635 556.558 152.35 556.558 152.35C558.402 151.261 560.512 150.692 562.659 150.704C568.265 150.704 572.827 154.313 572.827 158.75C572.827 163.188 568.265 166.797 562.659 166.797C557.053 166.797 546.12 163.19 546.12 158.75V137.629V115.243C546.12 114.671 546.366 114.126 546.797 113.745Z" fill="white"/>
<rect x="529" y="93" width="90.2716" height="90.2716" rx="5" fill="#00C2FF"/>
<rect x="536.782" y="100.781" width="90.2716" height="90.2716" rx="5" fill="#AD00FF" fill-opacity="0.63"/>
<path d="M546.797 113.745C547.23 113.366 547.803 113.185 548.377 113.244L594.967 117.267C595.998 117.38 596.777 117.225 596.777 118.25V156.379C598.62 155.288 600.73 154.716 602.878 154.727C608.484 154.727 613.046 158.336 613.046 162.773C613.046 167.211 608.484 170.82 602.878 170.82C597.272 170.82 586.022 166.874 586.022 162.435C586.022 162.435 586.022 131.764 586.022 130.258C586.022 127.012 575.267 138.902 571.471 138.902C567.675 138.902 556.558 122.657 556.558 127.012C556.558 128.635 556.558 152.35 556.558 152.35C558.402 151.261 560.512 150.692 562.659 150.704C568.265 150.704 572.827 154.313 572.827 158.75C572.827 163.188 568.265 166.797 562.659 166.797C557.053 166.797 546.12 163.19 546.12 158.75V137.629V115.243C546.12 114.671 546.366 114.126 546.797 113.745Z" fill="white"/>
<path d="M678.232 118.669V153.433C678.232 157.373 677.393 160.789 675.715 163.683C674.037 166.553 671.629 168.742 668.492 170.249C665.355 171.757 661.646 172.511 657.366 172.511C650.897 172.511 645.803 170.833 642.082 167.477C638.361 164.121 636.464 159.525 636.391 153.688V118.669H649.268V153.944C649.414 159.756 652.113 162.662 657.366 162.662C660.017 162.662 662.023 161.932 663.385 160.473C664.747 159.014 665.428 156.643 665.428 153.36V118.669H678.232Z" fill="url(#paint0_linear)"/>
<path d="M713.652 157.664C713.652 155.792 712.983 154.333 711.646 153.287C710.333 152.241 708.01 151.159 704.678 150.04C701.347 148.922 698.623 147.84 696.507 146.794C689.625 143.414 686.184 138.769 686.184 132.859C686.184 129.917 687.035 127.327 688.737 125.089C690.464 122.828 692.896 121.077 696.033 119.836C699.17 118.572 702.697 117.94 706.612 117.94C710.43 117.94 713.847 118.62 716.862 119.982C719.902 121.344 722.261 123.29 723.939 125.819C725.617 128.324 726.456 131.193 726.456 134.428H713.689C713.689 132.263 713.02 130.585 711.682 129.394C710.369 128.202 708.582 127.606 706.32 127.606C704.034 127.606 702.222 128.117 700.885 129.138C699.572 130.135 698.915 131.412 698.915 132.969C698.915 134.33 699.644 135.571 701.104 136.689C702.563 137.784 705.128 138.927 708.801 140.118C712.473 141.286 715.488 142.55 717.847 143.912C723.586 147.219 726.456 151.779 726.456 157.591C726.456 162.236 724.705 165.884 721.203 168.535C717.701 171.186 712.898 172.511 706.794 172.511C702.49 172.511 698.587 171.745 695.085 170.213C691.607 168.657 688.981 166.541 687.205 163.866C685.454 161.166 684.579 158.066 684.579 154.564H697.419C697.419 157.409 698.149 159.513 699.608 160.874C701.091 162.212 703.487 162.881 706.794 162.881C708.91 162.881 710.576 162.431 711.792 161.531C713.032 160.607 713.652 159.318 713.652 157.664Z" fill="url(#paint1_linear)"/>
<path d="M745.826 153.761V171.781H733.022V118.669H754.216C758.277 118.669 761.864 119.423 764.977 120.931C768.114 122.414 770.534 124.542 772.236 127.314C773.963 130.062 774.826 133.187 774.826 136.689C774.826 141.869 772.966 146.016 769.245 149.128C765.549 152.217 760.466 153.761 753.997 153.761H745.826ZM745.826 143.876H754.216C756.697 143.876 758.581 143.255 759.87 142.015C761.183 140.775 761.84 139.024 761.84 136.762C761.84 134.282 761.171 132.3 759.834 130.816C758.496 129.333 756.672 128.579 754.362 128.555H745.826V143.876Z" fill="url(#paint2_linear)"/>
<path d="M805.359 161.859H787.813L784.748 171.781H771.069L790.548 118.669H802.586L822.212 171.781H808.459L805.359 161.859ZM790.877 151.974H802.294L796.567 133.552L790.877 151.974Z" fill="url(#paint3_linear)"/>
<path d="M868.284 153.798C868.113 157.494 867.116 160.765 865.292 163.61C863.469 166.431 860.903 168.62 857.596 170.176C854.312 171.733 850.555 172.511 846.324 172.511C839.344 172.511 833.848 170.237 829.836 165.69C825.823 161.142 823.817 154.722 823.817 146.429V143.803C823.817 138.598 824.716 134.051 826.516 130.16C828.34 126.244 830.954 123.229 834.359 121.113C837.763 118.973 841.703 117.903 846.178 117.903C852.622 117.903 857.802 119.605 861.718 123.01C865.633 126.39 867.858 131.06 868.393 137.018H855.626C855.528 133.783 854.714 131.461 853.182 130.05C851.65 128.64 849.315 127.935 846.178 127.935C842.992 127.935 840.657 129.126 839.174 131.509C837.691 133.893 836.912 137.699 836.839 142.927V146.684C836.839 152.351 837.545 156.4 838.955 158.832C840.39 161.264 842.846 162.48 846.324 162.48C849.266 162.48 851.516 161.786 853.072 160.4C854.629 159.014 855.455 156.813 855.553 153.798H868.284Z" fill="url(#paint4_linear)"/>
<path d="M907.279 149.274H887.143V161.932H910.927V171.781H874.339V118.669H911V128.555H887.143V139.754H907.279V149.274Z" fill="url(#paint5_linear)"/>
<path d="M686.879 240.705H695.588V244H682.777V224.094H686.879V240.705ZM697.078 236.467C697.078 234.999 697.361 233.691 697.926 232.543C698.491 231.395 699.302 230.506 700.359 229.877C701.426 229.248 702.661 228.934 704.064 228.934C706.061 228.934 707.688 229.544 708.945 230.766C710.212 231.987 710.919 233.646 711.064 235.742L711.092 236.754C711.092 239.023 710.458 240.846 709.191 242.223C707.924 243.59 706.225 244.273 704.092 244.273C701.959 244.273 700.255 243.59 698.979 242.223C697.712 240.855 697.078 238.996 697.078 236.645V236.467ZM701.029 236.754C701.029 238.158 701.294 239.233 701.822 239.98C702.351 240.719 703.107 241.088 704.092 241.088C705.049 241.088 705.796 240.723 706.334 239.994C706.872 239.256 707.141 238.08 707.141 236.467C707.141 235.09 706.872 234.024 706.334 233.268C705.796 232.511 705.04 232.133 704.064 232.133C703.098 232.133 702.351 232.511 701.822 233.268C701.294 234.015 701.029 235.177 701.029 236.754ZM712.951 236.494C712.951 234.225 713.489 232.397 714.564 231.012C715.649 229.626 717.107 228.934 718.939 228.934C720.562 228.934 721.824 229.49 722.727 230.602L722.891 229.207H726.473V243.508C726.473 244.802 726.176 245.928 725.584 246.885C725.001 247.842 724.176 248.571 723.109 249.072C722.043 249.574 720.794 249.824 719.363 249.824C718.279 249.824 717.221 249.605 716.191 249.168C715.161 248.74 714.382 248.184 713.854 247.5L715.604 245.094C716.588 246.197 717.782 246.748 719.186 246.748C720.234 246.748 721.049 246.465 721.633 245.9C722.216 245.344 722.508 244.551 722.508 243.521V242.729C721.596 243.758 720.398 244.273 718.912 244.273C717.135 244.273 715.695 243.581 714.592 242.195C713.498 240.801 712.951 238.955 712.951 236.658V236.494ZM716.902 236.781C716.902 238.121 717.171 239.174 717.709 239.939C718.247 240.696 718.985 241.074 719.924 241.074C721.127 241.074 721.988 240.623 722.508 239.721V233.5C721.979 232.598 721.127 232.146 719.951 232.146C719.003 232.146 718.256 232.534 717.709 233.309C717.171 234.083 716.902 235.241 716.902 236.781ZM740.664 244H736.699V229.207H740.664V244ZM736.467 225.379C736.467 224.786 736.663 224.299 737.055 223.916C737.456 223.533 737.998 223.342 738.682 223.342C739.356 223.342 739.894 223.533 740.295 223.916C740.696 224.299 740.896 224.786 740.896 225.379C740.896 225.98 740.691 226.473 740.281 226.855C739.88 227.238 739.347 227.43 738.682 227.43C738.016 227.43 737.479 227.238 737.068 226.855C736.667 226.473 736.467 225.98 736.467 225.379ZM747.568 229.207L747.691 230.916C748.749 229.594 750.166 228.934 751.943 228.934C753.511 228.934 754.678 229.394 755.443 230.314C756.209 231.235 756.601 232.611 756.619 234.443V244H752.668V234.539C752.668 233.701 752.486 233.094 752.121 232.721C751.757 232.338 751.15 232.146 750.303 232.146C749.191 232.146 748.357 232.62 747.801 233.568V244H743.85V229.207H747.568Z" fill="#00C2FF"/>
<rect x="531.5" y="265.5" width="379" height="51" rx="6.5" fill="black" stroke="#00C2FF"/>
<path d="M552.877 291.687H548.939V294.353H553.561V296H546.889V286.047H553.547V287.708H548.939V290.08H552.877V291.687ZM556.486 288.604L556.548 289.431C557.072 288.788 557.781 288.467 558.674 288.467C559.626 288.467 560.28 288.843 560.636 289.595C561.155 288.843 561.896 288.467 562.857 288.467C563.66 288.467 564.257 288.701 564.648 289.171C565.04 289.636 565.236 290.338 565.236 291.276V296H563.254V291.283C563.254 290.864 563.172 290.559 563.008 290.367C562.844 290.171 562.554 290.073 562.14 290.073C561.547 290.073 561.137 290.356 560.909 290.921L560.916 296H558.94V291.29C558.94 290.862 558.856 290.552 558.688 290.36C558.519 290.169 558.232 290.073 557.826 290.073C557.266 290.073 556.86 290.306 556.609 290.771V296H554.634V288.604H556.486ZM571.047 296C570.956 295.822 570.89 295.601 570.849 295.337C570.37 295.87 569.748 296.137 568.982 296.137C568.258 296.137 567.656 295.927 567.178 295.508C566.704 295.089 566.467 294.56 566.467 293.922C566.467 293.138 566.756 292.536 567.335 292.117C567.918 291.698 568.759 291.486 569.857 291.481H570.767V291.058C570.767 290.716 570.678 290.442 570.5 290.237C570.327 290.032 570.051 289.93 569.673 289.93C569.34 289.93 569.078 290.009 568.887 290.169C568.7 290.328 568.606 290.547 568.606 290.825H566.631C566.631 290.397 566.763 290 567.027 289.636C567.292 289.271 567.665 288.986 568.148 288.781C568.632 288.572 569.174 288.467 569.775 288.467C570.687 288.467 571.409 288.697 571.942 289.157C572.48 289.613 572.749 290.256 572.749 291.085V294.291C572.754 294.993 572.852 295.524 573.043 295.884V296H571.047ZM569.413 294.626C569.705 294.626 569.974 294.562 570.22 294.435C570.466 294.302 570.648 294.127 570.767 293.908V292.637H570.028C569.039 292.637 568.513 292.979 568.449 293.662L568.442 293.778C568.442 294.024 568.529 294.227 568.702 294.387C568.875 294.546 569.112 294.626 569.413 294.626ZM576.352 296H574.369V288.604H576.352V296ZM574.253 286.689C574.253 286.393 574.351 286.149 574.547 285.958C574.747 285.767 575.019 285.671 575.36 285.671C575.698 285.671 575.966 285.767 576.167 285.958C576.368 286.149 576.468 286.393 576.468 286.689C576.468 286.99 576.365 287.236 576.16 287.428C575.96 287.619 575.693 287.715 575.36 287.715C575.028 287.715 574.759 287.619 574.554 287.428C574.353 287.236 574.253 286.99 574.253 286.689ZM580.07 296H578.088V285.5H580.07V296ZM582.217 298.495L581.185 297.955L581.431 297.511C581.736 296.955 581.893 296.401 581.902 295.85V294.318H583.57L583.563 295.686C583.559 296.191 583.431 296.702 583.181 297.217C582.93 297.732 582.609 298.158 582.217 298.495ZM588.301 292.233C588.301 291.5 588.442 290.846 588.725 290.271C589.007 289.697 589.413 289.253 589.941 288.938C590.475 288.624 591.092 288.467 591.794 288.467C592.792 288.467 593.605 288.772 594.234 289.383C594.868 289.993 595.221 290.823 595.294 291.871L595.308 292.377C595.308 293.512 594.991 294.423 594.357 295.111C593.724 295.795 592.874 296.137 591.808 296.137C590.741 296.137 589.889 295.795 589.251 295.111C588.618 294.428 588.301 293.498 588.301 292.322V292.233ZM590.276 292.377C590.276 293.079 590.409 293.617 590.673 293.99C590.937 294.359 591.315 294.544 591.808 294.544C592.286 294.544 592.66 294.362 592.929 293.997C593.198 293.628 593.332 293.04 593.332 292.233C593.332 291.545 593.198 291.012 592.929 290.634C592.66 290.256 592.282 290.066 591.794 290.066C591.311 290.066 590.937 290.256 590.673 290.634C590.409 291.007 590.276 291.589 590.276 292.377ZM600.681 290.456C600.412 290.42 600.175 290.401 599.97 290.401C599.222 290.401 598.732 290.654 598.5 291.16V296H596.524V288.604H598.391L598.445 289.485C598.842 288.806 599.391 288.467 600.093 288.467C600.312 288.467 600.517 288.496 600.708 288.556L600.681 290.456ZM609.554 295.248C609.066 295.84 608.392 296.137 607.53 296.137C606.737 296.137 606.131 295.909 605.712 295.453C605.297 294.997 605.085 294.33 605.076 293.45V288.604H607.052V293.382C607.052 294.152 607.403 294.537 608.104 294.537C608.774 294.537 609.235 294.305 609.485 293.84V288.604H611.468V296H609.608L609.554 295.248ZM616.964 293.956C616.964 293.715 616.843 293.525 616.602 293.389C616.365 293.247 615.982 293.122 615.453 293.013C613.694 292.644 612.814 291.896 612.814 290.771C612.814 290.114 613.086 289.567 613.628 289.13C614.175 288.688 614.888 288.467 615.768 288.467C616.706 288.467 617.456 288.688 618.017 289.13C618.582 289.572 618.864 290.146 618.864 290.853H616.889C616.889 290.57 616.798 290.338 616.615 290.155C616.433 289.968 616.148 289.875 615.761 289.875C615.428 289.875 615.171 289.95 614.988 290.101C614.806 290.251 614.715 290.442 614.715 290.675C614.715 290.894 614.817 291.071 615.022 291.208C615.232 291.34 615.583 291.456 616.075 291.557C616.567 291.652 616.982 291.762 617.319 291.885C618.363 292.268 618.885 292.931 618.885 293.874C618.885 294.549 618.595 295.095 618.017 295.515C617.438 295.929 616.69 296.137 615.774 296.137C615.155 296.137 614.603 296.027 614.12 295.809C613.642 295.585 613.266 295.282 612.992 294.899C612.719 294.512 612.582 294.095 612.582 293.648H614.455C614.473 293.999 614.603 294.268 614.845 294.455C615.086 294.642 615.41 294.735 615.815 294.735C616.194 294.735 616.479 294.665 616.67 294.523C616.866 294.378 616.964 294.188 616.964 293.956ZM623.567 296.137C622.483 296.137 621.599 295.804 620.915 295.139C620.236 294.473 619.896 293.587 619.896 292.479V292.288C619.896 291.545 620.04 290.882 620.327 290.299C620.614 289.711 621.02 289.26 621.544 288.945C622.073 288.626 622.674 288.467 623.349 288.467C624.36 288.467 625.156 288.786 625.734 289.424C626.318 290.062 626.609 290.966 626.609 292.138V292.944H621.899C621.963 293.427 622.155 293.815 622.474 294.106C622.797 294.398 623.205 294.544 623.697 294.544C624.458 294.544 625.053 294.268 625.481 293.717L626.452 294.804C626.156 295.223 625.755 295.551 625.249 295.788C624.743 296.021 624.183 296.137 623.567 296.137ZM623.342 290.066C622.95 290.066 622.631 290.199 622.385 290.463C622.143 290.727 621.988 291.105 621.92 291.598H624.668V291.44C624.659 291.003 624.54 290.666 624.312 290.429C624.085 290.187 623.761 290.066 623.342 290.066ZM631.894 290.456C631.625 290.42 631.388 290.401 631.183 290.401C630.435 290.401 629.945 290.654 629.713 291.16V296H627.737V288.604H629.604L629.658 289.485C630.055 288.806 630.604 288.467 631.306 288.467C631.524 288.467 631.729 288.496 631.921 288.556L631.894 290.456ZM634.669 288.604L634.73 289.458C635.259 288.797 635.968 288.467 636.856 288.467C637.64 288.467 638.224 288.697 638.606 289.157C638.989 289.618 639.185 290.306 639.194 291.222V296H637.219V291.27C637.219 290.85 637.128 290.547 636.945 290.36C636.763 290.169 636.46 290.073 636.036 290.073C635.48 290.073 635.063 290.31 634.785 290.784V296H632.81V288.604H634.669ZM644.984 296C644.893 295.822 644.827 295.601 644.786 295.337C644.308 295.87 643.686 296.137 642.92 296.137C642.195 296.137 641.594 295.927 641.115 295.508C640.641 295.089 640.404 294.56 640.404 293.922C640.404 293.138 640.694 292.536 641.272 292.117C641.856 291.698 642.697 291.486 643.795 291.481H644.704V291.058C644.704 290.716 644.615 290.442 644.438 290.237C644.264 290.032 643.989 289.93 643.61 289.93C643.278 289.93 643.016 290.009 642.824 290.169C642.637 290.328 642.544 290.547 642.544 290.825H640.568C640.568 290.397 640.701 290 640.965 289.636C641.229 289.271 641.603 288.986 642.086 288.781C642.569 288.572 643.111 288.467 643.713 288.467C644.624 288.467 645.347 288.697 645.88 289.157C646.418 289.613 646.687 290.256 646.687 291.085V294.291C646.691 294.993 646.789 295.524 646.98 295.884V296H644.984ZM643.351 294.626C643.642 294.626 643.911 294.562 644.157 294.435C644.403 294.302 644.586 294.127 644.704 293.908V292.637H643.966C642.977 292.637 642.451 292.979 642.387 293.662L642.38 293.778C642.38 294.024 642.466 294.227 642.64 294.387C642.813 294.546 643.05 294.626 643.351 294.626ZM650.057 288.604L650.118 289.431C650.642 288.788 651.351 288.467 652.244 288.467C653.197 288.467 653.851 288.843 654.206 289.595C654.726 288.843 655.466 288.467 656.428 288.467C657.23 288.467 657.827 288.701 658.219 289.171C658.611 289.636 658.807 290.338 658.807 291.276V296H656.824V291.283C656.824 290.864 656.742 290.559 656.578 290.367C656.414 290.171 656.125 290.073 655.71 290.073C655.118 290.073 654.707 290.356 654.479 290.921L654.486 296H652.511V291.29C652.511 290.862 652.426 290.552 652.258 290.36C652.089 290.169 651.802 290.073 651.396 290.073C650.836 290.073 650.43 290.306 650.18 290.771V296H648.204V288.604H650.057ZM663.735 296.137C662.651 296.137 661.767 295.804 661.083 295.139C660.404 294.473 660.064 293.587 660.064 292.479V292.288C660.064 291.545 660.208 290.882 660.495 290.299C660.782 289.711 661.188 289.26 661.712 288.945C662.241 288.626 662.842 288.467 663.517 288.467C664.528 288.467 665.324 288.786 665.902 289.424C666.486 290.062 666.777 290.966 666.777 292.138V292.944H662.067C662.131 293.427 662.323 293.815 662.642 294.106C662.965 294.398 663.373 294.544 663.865 294.544C664.626 294.544 665.221 294.268 665.649 293.717L666.62 294.804C666.324 295.223 665.923 295.551 665.417 295.788C664.911 296.021 664.351 296.137 663.735 296.137ZM663.51 290.066C663.118 290.066 662.799 290.199 662.553 290.463C662.311 290.727 662.156 291.105 662.088 291.598H664.836V291.44C664.827 291.003 664.708 290.666 664.48 290.429C664.253 290.187 663.929 290.066 663.51 290.066Z" fill="#727272"/>
<rect x="530.5" y="344.5" width="379" height="51" rx="6.5" fill="black" stroke="#B10DFF"/>
<path d="M547.939 371.493V375H545.889V365.047H549.771C550.519 365.047 551.175 365.184 551.74 365.457C552.31 365.73 552.747 366.12 553.053 366.626C553.358 367.127 553.511 367.699 553.511 368.342C553.511 369.317 553.176 370.087 552.506 370.652C551.84 371.213 550.918 371.493 549.737 371.493H547.939ZM547.939 369.832H549.771C550.314 369.832 550.726 369.704 551.009 369.449C551.296 369.194 551.439 368.829 551.439 368.355C551.439 367.868 551.296 367.474 551.009 367.173C550.722 366.872 550.325 366.717 549.819 366.708H547.939V369.832ZM559 375C558.909 374.822 558.843 374.601 558.802 374.337C558.323 374.87 557.701 375.137 556.936 375.137C556.211 375.137 555.609 374.927 555.131 374.508C554.657 374.089 554.42 373.56 554.42 372.922C554.42 372.138 554.709 371.536 555.288 371.117C555.871 370.698 556.712 370.486 557.811 370.481H558.72V370.058C558.72 369.716 558.631 369.442 558.453 369.237C558.28 369.032 558.004 368.93 557.626 368.93C557.293 368.93 557.031 369.009 556.84 369.169C556.653 369.328 556.56 369.547 556.56 369.825H554.584C554.584 369.397 554.716 369 554.98 368.636C555.245 368.271 555.618 367.986 556.102 367.781C556.585 367.572 557.127 367.467 557.729 367.467C558.64 367.467 559.362 367.697 559.896 368.157C560.433 368.613 560.702 369.256 560.702 370.085V373.291C560.707 373.993 560.805 374.524 560.996 374.884V375H559ZM557.366 373.626C557.658 373.626 557.927 373.562 558.173 373.435C558.419 373.302 558.601 373.127 558.72 372.908V371.637H557.981C556.993 371.637 556.466 371.979 556.402 372.662L556.396 372.778C556.396 373.024 556.482 373.227 556.655 373.387C556.828 373.546 557.065 373.626 557.366 373.626ZM566.226 372.956C566.226 372.715 566.105 372.525 565.863 372.389C565.626 372.247 565.243 372.122 564.715 372.013C562.956 371.644 562.076 370.896 562.076 369.771C562.076 369.114 562.347 368.567 562.89 368.13C563.437 367.688 564.15 367.467 565.029 367.467C565.968 367.467 566.718 367.688 567.278 368.13C567.843 368.572 568.126 369.146 568.126 369.853H566.15C566.15 369.57 566.059 369.338 565.877 369.155C565.695 368.968 565.41 368.875 565.022 368.875C564.69 368.875 564.432 368.95 564.25 369.101C564.068 369.251 563.977 369.442 563.977 369.675C563.977 369.894 564.079 370.071 564.284 370.208C564.494 370.34 564.845 370.456 565.337 370.557C565.829 370.652 566.244 370.762 566.581 370.885C567.625 371.268 568.146 371.931 568.146 372.874C568.146 373.549 567.857 374.095 567.278 374.515C566.7 374.929 565.952 375.137 565.036 375.137C564.416 375.137 563.865 375.027 563.382 374.809C562.903 374.585 562.527 374.282 562.254 373.899C561.98 373.512 561.844 373.095 561.844 372.648H563.717C563.735 372.999 563.865 373.268 564.106 373.455C564.348 373.642 564.672 373.735 565.077 373.735C565.455 373.735 565.74 373.665 565.932 373.523C566.128 373.378 566.226 373.188 566.226 372.956ZM573.431 372.956C573.431 372.715 573.31 372.525 573.068 372.389C572.831 372.247 572.449 372.122 571.92 372.013C570.161 371.644 569.281 370.896 569.281 369.771C569.281 369.114 569.552 368.567 570.095 368.13C570.642 367.688 571.355 367.467 572.234 367.467C573.173 367.467 573.923 367.688 574.483 368.13C575.049 368.572 575.331 369.146 575.331 369.853H573.355C573.355 369.57 573.264 369.338 573.082 369.155C572.9 368.968 572.615 368.875 572.228 368.875C571.895 368.875 571.637 368.95 571.455 369.101C571.273 369.251 571.182 369.442 571.182 369.675C571.182 369.894 571.284 370.071 571.489 370.208C571.699 370.34 572.05 370.456 572.542 370.557C573.034 370.652 573.449 370.762 573.786 370.885C574.83 371.268 575.352 371.931 575.352 372.874C575.352 373.549 575.062 374.095 574.483 374.515C573.905 374.929 573.157 375.137 572.241 375.137C571.621 375.137 571.07 375.027 570.587 374.809C570.108 374.585 569.732 374.282 569.459 373.899C569.186 373.512 569.049 373.095 569.049 372.648H570.922C570.94 372.999 571.07 373.268 571.312 373.455C571.553 373.642 571.877 373.735 572.282 373.735C572.66 373.735 572.945 373.665 573.137 373.523C573.333 373.378 573.431 373.188 573.431 372.956ZM583.062 372.313L584.033 367.604H585.94L584.054 375H582.399L580.998 370.345L579.597 375H577.949L576.062 367.604H577.97L578.934 372.307L580.287 367.604H581.716L583.062 372.313ZM586.617 371.233C586.617 370.5 586.758 369.846 587.041 369.271C587.324 368.697 587.729 368.253 588.258 367.938C588.791 367.624 589.409 367.467 590.11 367.467C591.108 367.467 591.922 367.772 592.551 368.383C593.184 368.993 593.537 369.823 593.61 370.871L593.624 371.377C593.624 372.512 593.307 373.423 592.674 374.111C592.04 374.795 591.19 375.137 590.124 375.137C589.058 375.137 588.205 374.795 587.567 374.111C586.934 373.428 586.617 372.498 586.617 371.322V371.233ZM588.593 371.377C588.593 372.079 588.725 372.617 588.989 372.99C589.254 373.359 589.632 373.544 590.124 373.544C590.603 373.544 590.976 373.362 591.245 372.997C591.514 372.628 591.648 372.04 591.648 371.233C591.648 370.545 591.514 370.012 591.245 369.634C590.976 369.256 590.598 369.066 590.11 369.066C589.627 369.066 589.254 369.256 588.989 369.634C588.725 370.007 588.593 370.589 588.593 371.377ZM598.997 369.456C598.728 369.42 598.491 369.401 598.286 369.401C597.539 369.401 597.049 369.654 596.816 370.16V375H594.841V367.604H596.707L596.762 368.485C597.158 367.806 597.707 367.467 598.409 367.467C598.628 367.467 598.833 367.496 599.024 367.556L598.997 369.456ZM599.51 371.247C599.51 370.094 599.767 369.176 600.282 368.492C600.802 367.809 601.51 367.467 602.408 367.467C603.128 367.467 603.723 367.736 604.192 368.273V364.5H606.175V375H604.391L604.295 374.214C603.803 374.829 603.169 375.137 602.395 375.137C601.524 375.137 600.825 374.795 600.296 374.111C599.772 373.423 599.51 372.468 599.51 371.247ZM601.485 371.391C601.485 372.083 601.606 372.614 601.848 372.983C602.089 373.353 602.44 373.537 602.9 373.537C603.511 373.537 603.942 373.28 604.192 372.765V369.846C603.946 369.331 603.52 369.073 602.914 369.073C601.962 369.073 601.485 369.846 601.485 371.391Z" fill="#727272"/>
<rect x="530" y="500" width="380" height="63" rx="31.5" fill="white"/>
<path d="M645.779 533.882H651.378V536H643.143V523.203H645.779V533.882ZM652.336 531.157C652.336 530.214 652.518 529.373 652.881 528.635C653.244 527.896 653.766 527.325 654.445 526.921C655.131 526.517 655.925 526.314 656.827 526.314C658.11 526.314 659.156 526.707 659.965 527.492C660.779 528.277 661.233 529.344 661.327 530.691L661.345 531.342C661.345 532.801 660.938 533.973 660.123 534.857C659.309 535.736 658.216 536.176 656.845 536.176C655.474 536.176 654.378 535.736 653.558 534.857C652.743 533.979 652.336 532.783 652.336 531.271V531.157ZM654.876 531.342C654.876 532.244 655.046 532.936 655.386 533.416C655.726 533.891 656.212 534.128 656.845 534.128C657.46 534.128 657.94 533.894 658.286 533.425C658.632 532.95 658.805 532.194 658.805 531.157C658.805 530.272 658.632 529.587 658.286 529.101C657.94 528.614 657.454 528.371 656.827 528.371C656.206 528.371 655.726 528.614 655.386 529.101C655.046 529.581 654.876 530.328 654.876 531.342ZM662.54 531.175C662.54 529.716 662.886 528.541 663.577 527.65C664.274 526.76 665.212 526.314 666.39 526.314C667.433 526.314 668.244 526.672 668.824 527.387L668.93 526.49H671.232V535.684C671.232 536.516 671.042 537.239 670.661 537.854C670.286 538.47 669.756 538.938 669.07 539.261C668.385 539.583 667.582 539.744 666.662 539.744C665.965 539.744 665.285 539.604 664.623 539.322C663.961 539.047 663.46 538.689 663.12 538.25L664.245 536.703C664.878 537.412 665.646 537.767 666.548 537.767C667.222 537.767 667.746 537.585 668.121 537.222C668.496 536.864 668.684 536.354 668.684 535.692V535.183C668.098 535.845 667.327 536.176 666.372 536.176C665.229 536.176 664.304 535.73 663.595 534.84C662.892 533.943 662.54 532.757 662.54 531.28V531.175ZM665.08 531.359C665.08 532.221 665.253 532.897 665.599 533.39C665.944 533.876 666.419 534.119 667.022 534.119C667.796 534.119 668.35 533.829 668.684 533.249V529.25C668.344 528.67 667.796 528.38 667.04 528.38C666.431 528.38 665.95 528.629 665.599 529.127C665.253 529.625 665.08 530.369 665.08 531.359ZM675.873 536H673.324V526.49H675.873V536ZM673.175 524.029C673.175 523.648 673.301 523.335 673.553 523.089C673.811 522.843 674.159 522.72 674.599 522.72C675.032 522.72 675.378 522.843 675.636 523.089C675.894 523.335 676.022 523.648 676.022 524.029C676.022 524.416 675.891 524.732 675.627 524.979C675.369 525.225 675.026 525.348 674.599 525.348C674.171 525.348 673.825 525.225 673.562 524.979C673.304 524.732 673.175 524.416 673.175 524.029ZM680.312 526.49L680.391 527.589C681.07 526.739 681.981 526.314 683.124 526.314C684.132 526.314 684.882 526.61 685.374 527.202C685.866 527.794 686.118 528.679 686.13 529.856V536H683.59V529.918C683.59 529.379 683.473 528.989 683.238 528.749C683.004 528.503 682.614 528.38 682.069 528.38C681.354 528.38 680.818 528.685 680.461 529.294V536H677.921V526.49H680.312ZM702.68 532.309L704.402 523.203H707.03L704.191 536H701.537L699.454 527.439L697.371 536H694.717L691.878 523.203H694.506L696.237 532.291L698.347 523.203H700.579L702.68 532.309ZM710.977 536H708.428V526.49H710.977V536ZM708.278 524.029C708.278 523.648 708.404 523.335 708.656 523.089C708.914 522.843 709.263 522.72 709.702 522.72C710.136 522.72 710.481 522.843 710.739 523.089C710.997 523.335 711.126 523.648 711.126 524.029C711.126 524.416 710.994 524.732 710.73 524.979C710.473 525.225 710.13 525.348 709.702 525.348C709.274 525.348 708.929 525.225 708.665 524.979C708.407 524.732 708.278 524.416 708.278 524.029ZM716.118 524.152V526.49H717.744V528.354H716.118V533.1C716.118 533.451 716.186 533.703 716.32 533.855C716.455 534.008 716.713 534.084 717.094 534.084C717.375 534.084 717.624 534.063 717.841 534.022V535.947C717.343 536.1 716.83 536.176 716.303 536.176C714.521 536.176 713.613 535.276 713.578 533.478V528.354H712.189V526.49H713.578V524.152H716.118ZM721.638 527.527C722.312 526.719 723.158 526.314 724.178 526.314C726.24 526.314 727.286 527.513 727.315 529.909V536H724.775V529.979C724.775 529.435 724.658 529.033 724.424 528.775C724.189 528.512 723.8 528.38 723.255 528.38C722.511 528.38 721.972 528.667 721.638 529.241V536H719.098V522.5H721.638V527.527ZM744.006 534.383C743.531 534.951 742.86 535.394 741.993 535.71C741.126 536.021 740.165 536.176 739.11 536.176C738.003 536.176 737.03 535.936 736.192 535.455C735.36 534.969 734.716 534.266 734.259 533.346C733.808 532.426 733.576 531.345 733.564 530.103V529.232C733.564 527.955 733.778 526.851 734.206 525.919C734.64 524.981 735.261 524.267 736.069 523.774C736.884 523.276 737.836 523.027 738.926 523.027C740.443 523.027 741.63 523.391 742.485 524.117C743.341 524.838 743.848 525.89 744.006 527.272H741.439C741.322 526.54 741.062 526.004 740.657 525.664C740.259 525.324 739.708 525.154 739.005 525.154C738.108 525.154 737.426 525.491 736.957 526.165C736.488 526.839 736.251 527.841 736.245 529.171V529.988C736.245 531.33 736.5 532.344 737.01 533.029C737.52 533.715 738.267 534.058 739.251 534.058C740.241 534.058 740.947 533.847 741.369 533.425V531.219H738.97V529.276H744.006V534.383ZM745.588 531.157C745.588 530.214 745.77 529.373 746.133 528.635C746.496 527.896 747.018 527.325 747.697 526.921C748.383 526.517 749.177 526.314 750.079 526.314C751.362 526.314 752.408 526.707 753.217 527.492C754.031 528.277 754.485 529.344 754.579 530.691L754.597 531.342C754.597 532.801 754.189 533.973 753.375 534.857C752.561 535.736 751.468 536.176 750.097 536.176C748.726 536.176 747.63 535.736 746.81 534.857C745.995 533.979 745.588 532.783 745.588 531.271V531.157ZM748.128 531.342C748.128 532.244 748.298 532.936 748.638 533.416C748.978 533.891 749.464 534.128 750.097 534.128C750.712 534.128 751.192 533.894 751.538 533.425C751.884 532.95 752.057 532.194 752.057 531.157C752.057 530.272 751.884 529.587 751.538 529.101C751.192 528.614 750.706 528.371 750.079 528.371C749.458 528.371 748.978 528.614 748.638 529.101C748.298 529.581 748.128 530.328 748.128 531.342ZM755.766 531.157C755.766 530.214 755.947 529.373 756.311 528.635C756.674 527.896 757.195 527.325 757.875 526.921C758.561 526.517 759.354 526.314 760.257 526.314C761.54 526.314 762.586 526.707 763.395 527.492C764.209 528.277 764.663 529.344 764.757 530.691L764.774 531.342C764.774 532.801 764.367 533.973 763.553 534.857C762.738 535.736 761.646 536.176 760.274 536.176C758.903 536.176 757.808 535.736 756.987 534.857C756.173 533.979 755.766 532.783 755.766 531.271V531.157ZM758.306 531.342C758.306 532.244 758.476 532.936 758.815 533.416C759.155 533.891 759.642 534.128 760.274 534.128C760.89 534.128 761.37 533.894 761.716 533.425C762.062 532.95 762.234 532.194 762.234 531.157C762.234 530.272 762.062 529.587 761.716 529.101C761.37 528.614 760.884 528.371 760.257 528.371C759.636 528.371 759.155 528.614 758.815 529.101C758.476 529.581 758.306 530.328 758.306 531.342ZM765.97 531.175C765.97 529.716 766.315 528.541 767.007 527.65C767.704 526.76 768.642 526.314 769.819 526.314C770.862 526.314 771.674 526.672 772.254 527.387L772.359 526.49H774.662V535.684C774.662 536.516 774.472 537.239 774.091 537.854C773.716 538.47 773.186 538.938 772.5 539.261C771.814 539.583 771.012 539.744 770.092 539.744C769.395 539.744 768.715 539.604 768.053 539.322C767.391 539.047 766.89 538.689 766.55 538.25L767.675 536.703C768.308 537.412 769.075 537.767 769.978 537.767C770.651 537.767 771.176 537.585 771.551 537.222C771.926 536.864 772.113 536.354 772.113 535.692V535.183C771.527 535.845 770.757 536.176 769.802 536.176C768.659 536.176 767.733 535.73 767.024 534.84C766.321 533.943 765.97 532.757 765.97 531.28V531.175ZM768.51 531.359C768.51 532.221 768.683 532.897 769.028 533.39C769.374 533.876 769.849 534.119 770.452 534.119C771.226 534.119 771.779 533.829 772.113 533.249V529.25C771.773 528.67 771.226 528.38 770.47 528.38C769.86 528.38 769.38 528.629 769.028 529.127C768.683 529.625 768.51 530.369 768.51 531.359ZM779.303 536H776.754V522.5H779.303V536ZM785.78 536.176C784.386 536.176 783.249 535.748 782.37 534.893C781.497 534.037 781.061 532.897 781.061 531.474V531.228C781.061 530.272 781.245 529.42 781.614 528.67C781.983 527.914 782.505 527.334 783.179 526.93C783.858 526.52 784.632 526.314 785.499 526.314C786.8 526.314 787.822 526.725 788.566 527.545C789.316 528.365 789.691 529.528 789.691 531.034V532.071H783.636C783.718 532.692 783.964 533.19 784.374 533.565C784.79 533.94 785.314 534.128 785.947 534.128C786.926 534.128 787.69 533.773 788.241 533.064L789.489 534.462C789.108 535.001 788.593 535.423 787.942 535.728C787.292 536.026 786.571 536.176 785.78 536.176ZM785.49 528.371C784.986 528.371 784.576 528.541 784.26 528.881C783.949 529.221 783.75 529.707 783.662 530.34H787.195V530.138C787.184 529.575 787.031 529.142 786.738 528.837C786.445 528.526 786.029 528.371 785.49 528.371Z" fill="#6D48FF"/>
<rect x="529" y="423" width="380" height="63" rx="31.5" fill="#6D48FF"/>
<path d="M696.779 458.882H702.378V461H694.143V448.203H696.779V458.882ZM703.336 456.157C703.336 455.214 703.518 454.373 703.881 453.635C704.244 452.896 704.766 452.325 705.445 451.921C706.131 451.517 706.925 451.314 707.827 451.314C709.11 451.314 710.156 451.707 710.965 452.492C711.779 453.277 712.233 454.344 712.327 455.691L712.345 456.342C712.345 457.801 711.938 458.973 711.123 459.857C710.309 460.736 709.216 461.176 707.845 461.176C706.474 461.176 705.378 460.736 704.558 459.857C703.743 458.979 703.336 457.783 703.336 456.271V456.157ZM705.876 456.342C705.876 457.244 706.046 457.936 706.386 458.416C706.726 458.891 707.212 459.128 707.845 459.128C708.46 459.128 708.94 458.894 709.286 458.425C709.632 457.95 709.805 457.194 709.805 456.157C709.805 455.272 709.632 454.587 709.286 454.101C708.94 453.614 708.454 453.371 707.827 453.371C707.206 453.371 706.726 453.614 706.386 454.101C706.046 454.581 705.876 455.328 705.876 456.342ZM713.54 456.175C713.54 454.716 713.886 453.541 714.577 452.65C715.274 451.76 716.212 451.314 717.39 451.314C718.433 451.314 719.244 451.672 719.824 452.387L719.93 451.49H722.232V460.684C722.232 461.516 722.042 462.239 721.661 462.854C721.286 463.47 720.756 463.938 720.07 464.261C719.385 464.583 718.582 464.744 717.662 464.744C716.965 464.744 716.285 464.604 715.623 464.322C714.961 464.047 714.46 463.689 714.12 463.25L715.245 461.703C715.878 462.412 716.646 462.767 717.548 462.767C718.222 462.767 718.746 462.585 719.121 462.222C719.496 461.864 719.684 461.354 719.684 460.692V460.183C719.098 460.845 718.327 461.176 717.372 461.176C716.229 461.176 715.304 460.73 714.595 459.84C713.892 458.943 713.54 457.757 713.54 456.28V456.175ZM716.08 456.359C716.08 457.221 716.253 457.897 716.599 458.39C716.944 458.876 717.419 459.119 718.022 459.119C718.796 459.119 719.35 458.829 719.684 458.249V454.25C719.344 453.67 718.796 453.38 718.04 453.38C717.431 453.38 716.95 453.629 716.599 454.127C716.253 454.625 716.08 455.369 716.08 456.359ZM731.355 461H728.807V451.49H731.355V461ZM728.657 449.029C728.657 448.648 728.783 448.335 729.035 448.089C729.293 447.843 729.642 447.72 730.081 447.72C730.515 447.72 730.86 447.843 731.118 448.089C731.376 448.335 731.505 448.648 731.505 449.029C731.505 449.416 731.373 449.732 731.109 449.979C730.852 450.225 730.509 450.348 730.081 450.348C729.653 450.348 729.308 450.225 729.044 449.979C728.786 449.732 728.657 449.416 728.657 449.029ZM735.794 451.49L735.873 452.589C736.553 451.739 737.464 451.314 738.606 451.314C739.614 451.314 740.364 451.61 740.856 452.202C741.349 452.794 741.601 453.679 741.612 454.856V461H739.072V454.918C739.072 454.379 738.955 453.989 738.721 453.749C738.486 453.503 738.097 453.38 737.552 453.38C736.837 453.38 736.301 453.685 735.943 454.294V461H733.403V451.49H735.794Z" fill="white"/>
<path d="M594.629 590.359H587.998V597H586.797V582.781H595.605V583.807H587.998V589.334H594.629V590.359ZM596.914 591.561C596.914 590.545 597.109 589.63 597.5 588.816C597.897 588.003 598.454 587.371 599.17 586.922C599.893 586.466 600.71 586.238 601.621 586.238C603.027 586.238 604.167 586.733 605.039 587.723C605.911 588.706 606.348 590.011 606.348 591.639V591.883C606.348 592.905 606.149 593.826 605.752 594.646C605.361 595.46 604.808 596.089 604.092 596.531C603.376 596.974 602.559 597.195 601.641 597.195C600.241 597.195 599.102 596.704 598.223 595.721C597.35 594.731 596.914 593.423 596.914 591.795V591.561ZM598.086 591.883C598.086 593.146 598.411 594.184 599.062 594.998C599.72 595.805 600.579 596.209 601.641 596.209C602.695 596.209 603.548 595.805 604.199 594.998C604.857 594.184 605.186 593.113 605.186 591.785V591.561C605.186 590.753 605.036 590.014 604.736 589.344C604.437 588.673 604.017 588.156 603.477 587.791C602.936 587.42 602.318 587.234 601.621 587.234C600.579 587.234 599.73 587.645 599.072 588.465C598.415 589.279 598.086 590.346 598.086 591.668V591.883ZM613.652 587.43C613.405 587.384 613.141 587.361 612.861 587.361C612.132 587.361 611.514 587.566 611.006 587.977C610.505 588.38 610.146 588.969 609.932 589.744V597H608.77V586.434H609.912L609.932 588.113C610.55 586.863 611.543 586.238 612.91 586.238C613.236 586.238 613.493 586.281 613.682 586.365L613.652 587.43ZM614.844 591.619C614.844 589.965 615.208 588.657 615.938 587.693C616.673 586.723 617.669 586.238 618.926 586.238C620.365 586.238 621.458 586.811 622.207 587.957L622.266 586.434H623.359V596.785C623.359 598.146 622.979 599.223 622.217 600.018C621.455 600.812 620.423 601.209 619.121 601.209C618.385 601.209 617.682 601.043 617.012 600.711C616.348 600.385 615.824 599.949 615.439 599.402L616.094 598.699C616.921 599.715 617.904 600.223 619.043 600.223C620.02 600.223 620.781 599.933 621.328 599.354C621.875 598.781 622.158 597.983 622.178 596.961V595.633C621.429 596.674 620.339 597.195 618.906 597.195C617.682 597.195 616.699 596.707 615.957 595.73C615.215 594.754 614.844 593.436 614.844 591.775V591.619ZM616.025 591.824C616.025 593.172 616.296 594.236 616.836 595.018C617.376 595.792 618.138 596.18 619.121 596.18C620.56 596.18 621.579 595.535 622.178 594.246V589.334C621.904 588.657 621.51 588.143 620.996 587.791C620.482 587.433 619.863 587.254 619.141 587.254C618.158 587.254 617.393 587.641 616.846 588.416C616.299 589.184 616.025 590.32 616.025 591.824ZM625.762 591.561C625.762 590.545 625.957 589.63 626.348 588.816C626.745 588.003 627.301 587.371 628.018 586.922C628.74 586.466 629.557 586.238 630.469 586.238C631.875 586.238 633.014 586.733 633.887 587.723C634.759 588.706 635.195 590.011 635.195 591.639V591.883C635.195 592.905 634.997 593.826 634.6 594.646C634.209 595.46 633.656 596.089 632.939 596.531C632.223 596.974 631.406 597.195 630.488 597.195C629.089 597.195 627.949 596.704 627.07 595.721C626.198 594.731 625.762 593.423 625.762 591.795V591.561ZM626.934 591.883C626.934 593.146 627.259 594.184 627.91 594.998C628.568 595.805 629.427 596.209 630.488 596.209C631.543 596.209 632.396 595.805 633.047 594.998C633.704 594.184 634.033 593.113 634.033 591.785V591.561C634.033 590.753 633.883 590.014 633.584 589.344C633.285 588.673 632.865 588.156 632.324 587.791C631.784 587.42 631.165 587.234 630.469 587.234C629.427 587.234 628.577 587.645 627.92 588.465C627.262 589.279 626.934 590.346 626.934 591.668V591.883ZM639.434 583.729V586.434H641.621V587.391H639.434V594.432C639.434 595.018 639.538 595.454 639.746 595.74C639.961 596.027 640.316 596.17 640.811 596.17C641.006 596.17 641.322 596.137 641.758 596.072L641.807 597.029C641.501 597.14 641.084 597.195 640.557 597.195C639.756 597.195 639.173 596.964 638.809 596.502C638.444 596.033 638.262 595.346 638.262 594.441V587.391H636.318V586.434H638.262V583.729H639.434ZM657.402 591.824C657.402 593.471 657.038 594.78 656.309 595.75C655.579 596.714 654.603 597.195 653.379 597.195C651.934 597.195 650.827 596.688 650.059 595.672V601.062H648.896V586.434H649.98L650.039 587.928C650.801 586.801 651.904 586.238 653.35 586.238C654.613 586.238 655.602 586.717 656.318 587.674C657.041 588.631 657.402 589.959 657.402 591.658V591.824ZM656.23 591.619C656.23 590.271 655.954 589.207 655.4 588.426C654.847 587.645 654.076 587.254 653.086 587.254C652.37 587.254 651.755 587.426 651.24 587.771C650.726 588.117 650.332 588.618 650.059 589.275V594.344C650.339 594.949 650.739 595.411 651.26 595.73C651.781 596.049 652.396 596.209 653.105 596.209C654.089 596.209 654.854 595.818 655.4 595.037C655.954 594.249 656.23 593.11 656.23 591.619ZM666.67 597C666.553 596.668 666.478 596.176 666.445 595.525C666.035 596.059 665.511 596.473 664.873 596.766C664.242 597.052 663.571 597.195 662.861 597.195C661.846 597.195 661.022 596.912 660.391 596.346C659.766 595.779 659.453 595.063 659.453 594.197C659.453 593.169 659.88 592.355 660.732 591.756C661.592 591.157 662.786 590.857 664.316 590.857H666.436V589.656C666.436 588.901 666.201 588.309 665.732 587.879C665.27 587.443 664.593 587.225 663.701 587.225C662.887 587.225 662.214 587.433 661.68 587.85C661.146 588.266 660.879 588.768 660.879 589.354L659.707 589.344C659.707 588.504 660.098 587.778 660.879 587.166C661.66 586.548 662.62 586.238 663.76 586.238C664.938 586.238 665.866 586.535 666.543 587.127C667.227 587.713 667.578 588.533 667.598 589.588V594.588C667.598 595.61 667.705 596.375 667.92 596.883V597H666.67ZM662.998 596.16C663.779 596.16 664.476 595.971 665.088 595.594C665.706 595.216 666.156 594.712 666.436 594.08V591.756H664.346C663.18 591.769 662.269 591.984 661.611 592.4C660.954 592.811 660.625 593.377 660.625 594.1C660.625 594.692 660.843 595.184 661.279 595.574C661.722 595.965 662.295 596.16 662.998 596.16ZM677.051 594.314C677.051 593.735 676.816 593.27 676.348 592.918C675.885 592.566 675.186 592.293 674.248 592.098C673.311 591.896 672.581 591.668 672.061 591.414C671.546 591.154 671.162 590.838 670.908 590.467C670.661 590.096 670.537 589.646 670.537 589.119C670.537 588.286 670.885 587.599 671.582 587.059C672.279 586.512 673.171 586.238 674.258 586.238C675.436 586.238 676.38 586.531 677.09 587.117C677.806 587.697 678.164 588.455 678.164 589.393H676.992C676.992 588.774 676.732 588.26 676.211 587.85C675.697 587.439 675.046 587.234 674.258 587.234C673.49 587.234 672.871 587.407 672.402 587.752C671.94 588.09 671.709 588.533 671.709 589.08C671.709 589.607 671.901 590.018 672.285 590.311C672.676 590.597 673.382 590.861 674.404 591.102C675.433 591.342 676.201 591.6 676.709 591.873C677.223 592.146 677.604 592.475 677.852 592.859C678.099 593.243 678.223 593.709 678.223 594.256C678.223 595.148 677.861 595.861 677.139 596.395C676.423 596.928 675.485 597.195 674.326 597.195C673.096 597.195 672.096 596.899 671.328 596.307C670.566 595.708 670.186 594.952 670.186 594.041H671.357C671.403 594.725 671.689 595.258 672.217 595.643C672.751 596.02 673.454 596.209 674.326 596.209C675.14 596.209 675.798 596.03 676.299 595.672C676.8 595.314 677.051 594.861 677.051 594.314ZM687.188 594.314C687.188 593.735 686.953 593.27 686.484 592.918C686.022 592.566 685.322 592.293 684.385 592.098C683.447 591.896 682.718 591.668 682.197 591.414C681.683 591.154 681.299 590.838 681.045 590.467C680.798 590.096 680.674 589.646 680.674 589.119C680.674 588.286 681.022 587.599 681.719 587.059C682.415 586.512 683.307 586.238 684.395 586.238C685.573 586.238 686.517 586.531 687.227 587.117C687.943 587.697 688.301 588.455 688.301 589.393H687.129C687.129 588.774 686.868 588.26 686.348 587.85C685.833 587.439 685.182 587.234 684.395 587.234C683.626 587.234 683.008 587.407 682.539 587.752C682.077 588.09 681.846 588.533 681.846 589.08C681.846 589.607 682.038 590.018 682.422 590.311C682.812 590.597 683.519 590.861 684.541 591.102C685.57 591.342 686.338 591.6 686.846 591.873C687.36 592.146 687.741 592.475 687.988 592.859C688.236 593.243 688.359 593.709 688.359 594.256C688.359 595.148 687.998 595.861 687.275 596.395C686.559 596.928 685.622 597.195 684.463 597.195C683.232 597.195 682.233 596.899 681.465 596.307C680.703 595.708 680.322 594.952 680.322 594.041H681.494C681.54 594.725 681.826 595.258 682.354 595.643C682.887 596.02 683.59 596.209 684.463 596.209C685.277 596.209 685.934 596.03 686.436 595.672C686.937 595.314 687.188 594.861 687.188 594.314ZM693.525 594.568L693.701 595.477L693.936 594.52L696.475 586.434H697.471L699.98 594.451L700.254 595.564L700.479 594.539L702.646 586.434H703.857L700.781 597H699.785L697.07 588.621L696.943 588.045L696.816 588.631L694.15 597H693.154L690.088 586.434H691.289L693.525 594.568ZM705.43 591.561C705.43 590.545 705.625 589.63 706.016 588.816C706.413 588.003 706.969 587.371 707.686 586.922C708.408 586.466 709.225 586.238 710.137 586.238C711.543 586.238 712.682 586.733 713.555 587.723C714.427 588.706 714.863 590.011 714.863 591.639V591.883C714.863 592.905 714.665 593.826 714.268 594.646C713.877 595.46 713.324 596.089 712.607 596.531C711.891 596.974 711.074 597.195 710.156 597.195C708.757 597.195 707.617 596.704 706.738 595.721C705.866 594.731 705.43 593.423 705.43 591.795V591.561ZM706.602 591.883C706.602 593.146 706.927 594.184 707.578 594.998C708.236 595.805 709.095 596.209 710.156 596.209C711.211 596.209 712.064 595.805 712.715 594.998C713.372 594.184 713.701 593.113 713.701 591.785V591.561C713.701 590.753 713.551 590.014 713.252 589.344C712.952 588.673 712.533 588.156 711.992 587.791C711.452 587.42 710.833 587.234 710.137 587.234C709.095 587.234 708.245 587.645 707.588 588.465C706.93 589.279 706.602 590.346 706.602 591.668V591.883ZM722.168 587.43C721.921 587.384 721.657 587.361 721.377 587.361C720.648 587.361 720.029 587.566 719.521 587.977C719.02 588.38 718.662 588.969 718.447 589.744V597H717.285V586.434H718.428L718.447 588.113C719.066 586.863 720.059 586.238 721.426 586.238C721.751 586.238 722.008 586.281 722.197 586.365L722.168 587.43ZM723.359 591.619C723.359 589.979 723.724 588.673 724.453 587.703C725.189 586.727 726.185 586.238 727.441 586.238C728.867 586.238 729.954 586.801 730.703 587.928V582H731.865V597H730.771L730.723 595.594C729.974 596.661 728.874 597.195 727.422 597.195C726.204 597.195 725.221 596.707 724.473 595.73C723.73 594.747 723.359 593.423 723.359 591.756V591.619ZM724.541 591.824C724.541 593.172 724.811 594.236 725.352 595.018C725.892 595.792 726.654 596.18 727.637 596.18C729.076 596.18 730.098 595.545 730.703 594.275V589.314C730.098 587.941 729.082 587.254 727.656 587.254C726.673 587.254 725.908 587.641 725.361 588.416C724.814 589.184 724.541 590.32 724.541 591.824Z" fill="#00C2FF"/>
<path d="M793.844 593.504C793.844 592.716 793.567 592.094 793.014 591.639C792.46 591.176 791.448 590.74 789.977 590.33C788.505 589.913 787.431 589.461 786.754 588.973C785.79 588.283 785.309 587.378 785.309 586.258C785.309 585.171 785.755 584.288 786.646 583.611C787.545 582.928 788.691 582.586 790.084 582.586C791.028 582.586 791.871 582.768 792.613 583.133C793.362 583.497 793.941 584.005 794.352 584.656C794.762 585.307 794.967 586.033 794.967 586.834H793.756C793.756 585.864 793.424 585.086 792.76 584.5C792.096 583.908 791.204 583.611 790.084 583.611C788.997 583.611 788.131 583.855 787.486 584.344C786.842 584.826 786.52 585.457 786.52 586.238C786.52 586.961 786.809 587.55 787.389 588.006C787.968 588.462 788.896 588.865 790.172 589.217C791.448 589.562 792.415 589.923 793.072 590.301C793.73 590.672 794.225 591.118 794.557 591.639C794.889 592.16 795.055 592.775 795.055 593.484C795.055 594.604 794.605 595.503 793.707 596.18C792.815 596.857 791.637 597.195 790.172 597.195C789.169 597.195 788.248 597.016 787.408 596.658C786.575 596.3 785.94 595.799 785.504 595.154C785.074 594.51 784.859 593.771 784.859 592.938H786.061C786.061 593.94 786.435 594.731 787.184 595.311C787.932 595.89 788.928 596.18 790.172 596.18C791.279 596.18 792.167 595.936 792.838 595.447C793.508 594.959 793.844 594.311 793.844 593.504ZM798.688 597H797.516V586.434H798.688V597ZM797.311 583.377C797.311 583.156 797.382 582.97 797.525 582.82C797.669 582.664 797.864 582.586 798.111 582.586C798.359 582.586 798.554 582.664 798.697 582.82C798.847 582.97 798.922 583.156 798.922 583.377C798.922 583.598 798.847 583.784 798.697 583.934C798.554 584.083 798.359 584.158 798.111 584.158C797.864 584.158 797.669 584.083 797.525 583.934C797.382 583.784 797.311 583.598 797.311 583.377ZM801.402 591.619C801.402 589.965 801.767 588.657 802.496 587.693C803.232 586.723 804.228 586.238 805.484 586.238C806.923 586.238 808.017 586.811 808.766 587.957L808.824 586.434H809.918V596.785C809.918 598.146 809.537 599.223 808.775 600.018C808.014 600.812 806.982 601.209 805.68 601.209C804.944 601.209 804.241 601.043 803.57 600.711C802.906 600.385 802.382 599.949 801.998 599.402L802.652 598.699C803.479 599.715 804.462 600.223 805.602 600.223C806.578 600.223 807.34 599.933 807.887 599.354C808.434 598.781 808.717 597.983 808.736 596.961V595.633C807.988 596.674 806.897 597.195 805.465 597.195C804.241 597.195 803.258 596.707 802.516 595.73C801.773 594.754 801.402 593.436 801.402 591.775V591.619ZM802.584 591.824C802.584 593.172 802.854 594.236 803.395 595.018C803.935 595.792 804.697 596.18 805.68 596.18C807.118 596.18 808.137 595.535 808.736 594.246V589.334C808.463 588.657 808.069 588.143 807.555 587.791C807.04 587.433 806.422 587.254 805.699 587.254C804.716 587.254 803.951 587.641 803.404 588.416C802.857 589.184 802.584 590.32 802.584 591.824ZM814.078 586.434L814.117 588.24C814.514 587.589 815.009 587.094 815.602 586.756C816.194 586.411 816.848 586.238 817.564 586.238C818.697 586.238 819.54 586.557 820.094 587.195C820.647 587.833 820.927 588.79 820.934 590.066V597H819.771V590.057C819.765 589.113 819.563 588.41 819.166 587.947C818.775 587.485 818.147 587.254 817.281 587.254C816.559 587.254 815.917 587.482 815.357 587.938C814.804 588.387 814.394 588.995 814.127 589.764V597H812.965V586.434H814.078ZM835.621 595.662C834.918 596.684 833.795 597.195 832.252 597.195C831.126 597.195 830.27 596.87 829.684 596.219C829.098 595.561 828.798 594.591 828.785 593.309V586.434H829.947V593.162C829.947 595.174 830.761 596.18 832.389 596.18C834.081 596.18 835.152 595.48 835.602 594.08V586.434H836.773V597H835.641L835.621 595.662ZM848.316 591.824C848.316 593.471 847.952 594.78 847.223 595.75C846.493 596.714 845.517 597.195 844.293 597.195C842.848 597.195 841.741 596.688 840.973 595.672V601.062H839.811V586.434H840.895L840.953 587.928C841.715 586.801 842.818 586.238 844.264 586.238C845.527 586.238 846.516 586.717 847.232 587.674C847.955 588.631 848.316 589.959 848.316 591.658V591.824ZM847.145 591.619C847.145 590.271 846.868 589.207 846.314 588.426C845.761 587.645 844.99 587.254 844 587.254C843.284 587.254 842.669 587.426 842.154 587.771C841.64 588.117 841.246 588.618 840.973 589.275V594.344C841.253 594.949 841.653 595.411 842.174 595.73C842.695 596.049 843.31 596.209 844.02 596.209C845.003 596.209 845.768 595.818 846.314 595.037C846.868 594.249 847.145 593.11 847.145 591.619Z" fill="#00C2FF"/>
<ellipse cx="758.319" cy="591.286" rx="4.31883" ry="4.28571" fill="#393939"/>
<defs>
<linearGradient id="paint0_linear" x1="934.449" y1="149.992" x2="537.565" y2="149.992" gradientUnits="userSpaceOnUse">
<stop stop-color="#00C2FF"/>
<stop offset="0.0001" stop-color="#00C2FF"/>
<stop offset="1" stop-color="#B10DFF"/>
</linearGradient>
<linearGradient id="paint1_linear" x1="934.449" y1="149.992" x2="537.565" y2="149.992" gradientUnits="userSpaceOnUse">
<stop stop-color="#00C2FF"/>
<stop offset="0.0001" stop-color="#00C2FF"/>
<stop offset="1" stop-color="#B10DFF"/>
</linearGradient>
<linearGradient id="paint2_linear" x1="934.449" y1="149.992" x2="537.565" y2="149.992" gradientUnits="userSpaceOnUse">
<stop stop-color="#00C2FF"/>
<stop offset="0.0001" stop-color="#00C2FF"/>
<stop offset="1" stop-color="#B10DFF"/>
</linearGradient>
<linearGradient id="paint3_linear" x1="934.449" y1="149.992" x2="537.565" y2="149.992" gradientUnits="userSpaceOnUse">
<stop stop-color="#00C2FF"/>
<stop offset="0.0001" stop-color="#00C2FF"/>
<stop offset="1" stop-color="#B10DFF"/>
</linearGradient>
<linearGradient id="paint4_linear" x1="934.449" y1="149.992" x2="537.565" y2="149.992" gradientUnits="userSpaceOnUse">
<stop stop-color="#00C2FF"/>
<stop offset="0.0001" stop-color="#00C2FF"/>
<stop offset="1" stop-color="#B10DFF"/>
</linearGradient>
<linearGradient id="paint5_linear" x1="934.449" y1="149.992" x2="537.565" y2="149.992" gradientUnits="userSpaceOnUse">
<stop stop-color="#00C2FF"/>
<stop offset="0.0001" stop-color="#00C2FF"/>
<stop offset="1" stop-color="#B10DFF"/>
</linearGradient>
</defs>
</svg>
