<svg width="1440" height="1024" viewBox="0 0 1440 1024" fill="none" xmlns="http://www.w3.org/2000/svg">
<g clip-path="url(#clip0)">
<rect width="1440" height="1024" fill="white"/>
<rect x="328" width="1112" height="98" fill="url(#paint0_angular)"/>
<rect x="328" width="1112" height="98" fill="url(#paint1_linear)"/>
<rect x="362" y="25" width="969" height="48" rx="24" fill="#D1C5FF"/>
<path fill-rule="evenodd" clip-rule="evenodd" d="M1301.38 51.5H1300.39L1300.04 51.1625C1301.26 49.7375 1302 47.8875 1302 45.875C1302 41.3875 1298.36 37.75 1293.88 37.75C1289.39 37.75 1285.75 41.3875 1285.75 45.875C1285.75 50.3625 1289.39 54 1293.88 54C1295.89 54 1297.74 53.2625 1299.16 52.0375L1299.5 52.3875V53.375L1305.75 59.6125L1307.61 57.75L1301.38 51.5ZM1293.88 51.5C1290.76 51.5 1288.25 48.9875 1288.25 45.875C1288.25 42.7625 1290.76 40.25 1293.88 40.25C1296.99 40.25 1299.5 42.7625 1299.5 45.875C1299.5 48.9875 1296.99 51.5 1293.88 51.5Z" fill="black"/>
<path fill-rule="evenodd" clip-rule="evenodd" d="M1377.39 62.7097C1379.07 62.7097 1380.45 61.3307 1380.45 59.6452H1374.32C1374.32 61.3307 1375.69 62.7097 1377.39 62.7097ZM1386.58 53.5161V45.8549C1386.58 41.1508 1384.07 37.2129 1379.69 36.171V35.129C1379.69 33.8573 1378.66 32.8307 1377.39 32.8307C1376.12 32.8307 1375.09 33.8573 1375.09 35.129V36.171C1370.69 37.2129 1368.19 41.1355 1368.19 45.8549V53.5161L1365.13 56.5807V58.1129H1389.65V56.5807L1386.58 53.5161Z" fill="white"/>
<circle cx="1387.19" cy="55.9677" r="9.80645" fill="url(#paint2_linear)"/>
<path d="M1389.04 50.9443V52.5713H1388.84C1387.95 52.585 1387.23 52.8174 1386.68 53.2686C1386.14 53.7197 1385.82 54.3464 1385.71 55.1484C1386.24 54.6107 1386.9 54.3418 1387.71 54.3418C1388.58 54.3418 1389.26 54.6517 1389.77 55.2715C1390.28 55.8913 1390.54 56.707 1390.54 57.7188C1390.54 58.3659 1390.4 58.9515 1390.12 59.4756C1389.84 59.9997 1389.44 60.4076 1388.93 60.6992C1388.42 60.9909 1387.84 61.1367 1387.19 61.1367C1386.14 61.1367 1385.29 60.7721 1384.65 60.043C1384 59.3138 1383.68 58.3408 1383.68 57.124V56.4131C1383.68 55.333 1383.89 54.3805 1384.29 53.5557C1384.7 52.7262 1385.29 52.0859 1386.05 51.6348C1386.81 51.179 1387.7 50.9489 1388.71 50.9443H1389.04ZM1387.11 55.9277C1386.79 55.9277 1386.5 56.012 1386.24 56.1807C1385.98 56.3447 1385.79 56.5635 1385.67 56.8369V57.4385C1385.67 58.0993 1385.8 58.6165 1386.06 58.9902C1386.32 59.3594 1386.68 59.5439 1387.15 59.5439C1387.57 59.5439 1387.92 59.3776 1388.17 59.0449C1388.44 58.7077 1388.57 58.2725 1388.57 57.7393C1388.57 57.1969 1388.44 56.7594 1388.17 56.4268C1387.91 56.0941 1387.56 55.9277 1387.11 55.9277Z" fill="white"/>
<path d="M392.008 49.3945C390.078 48.8398 388.672 48.1602 387.789 47.3555C386.914 46.543 386.477 45.543 386.477 44.3555C386.477 43.0117 387.012 41.9023 388.082 41.0273C389.16 40.1445 390.559 39.7031 392.277 39.7031C393.449 39.7031 394.492 39.9297 395.406 40.3828C396.328 40.8359 397.039 41.4609 397.539 42.2578C398.047 43.0547 398.301 43.9258 398.301 44.8711H396.039C396.039 43.8398 395.711 43.0312 395.055 42.4453C394.398 41.8516 393.473 41.5547 392.277 41.5547C391.168 41.5547 390.301 41.8008 389.676 42.293C389.059 42.7773 388.75 43.4531 388.75 44.3203C388.75 45.0156 389.043 45.6055 389.629 46.0898C390.223 46.5664 391.227 47.0039 392.641 47.4023C394.062 47.8008 395.172 48.2422 395.969 48.7266C396.773 49.2031 397.367 49.7617 397.75 50.4023C398.141 51.043 398.336 51.7969 398.336 52.6641C398.336 54.0469 397.797 55.1562 396.719 55.9922C395.641 56.8203 394.199 57.2344 392.395 57.2344C391.223 57.2344 390.129 57.0117 389.113 56.5664C388.098 56.1133 387.312 55.4961 386.758 54.7148C386.211 53.9336 385.938 53.0469 385.938 52.0547H388.199C388.199 53.0859 388.578 53.9023 389.336 54.5039C390.102 55.0977 391.121 55.3945 392.395 55.3945C393.582 55.3945 394.492 55.1523 395.125 54.668C395.758 54.1836 396.074 53.5234 396.074 52.6875C396.074 51.8516 395.781 51.207 395.195 50.7539C394.609 50.293 393.547 49.8398 392.008 49.3945ZM406.402 57.2344C404.684 57.2344 403.285 56.6719 402.207 55.5469C401.129 54.4141 400.59 52.9023 400.59 51.0117V50.6133C400.59 49.3555 400.828 48.2344 401.305 47.25C401.789 46.2578 402.461 45.4844 403.32 44.9297C404.188 44.3672 405.125 44.0859 406.133 44.0859C407.781 44.0859 409.062 44.6289 409.977 45.7148C410.891 46.8008 411.348 48.3555 411.348 50.3789V51.2812H402.758C402.789 52.5312 403.152 53.543 403.848 54.3164C404.551 55.082 405.441 55.4648 406.52 55.4648C407.285 55.4648 407.934 55.3086 408.465 54.9961C408.996 54.6836 409.461 54.2695 409.859 53.7539L411.184 54.7852C410.121 56.418 408.527 57.2344 406.402 57.2344ZM406.133 45.8672C405.258 45.8672 404.523 46.1875 403.93 46.8281C403.336 47.4609 402.969 48.3516 402.828 49.5H409.18V49.3359C409.117 48.2344 408.82 47.3828 408.289 46.7812C407.758 46.1719 407.039 45.8672 406.133 45.8672ZM421.945 57C421.82 56.75 421.719 56.3047 421.641 55.6641C420.633 56.7109 419.43 57.2344 418.031 57.2344C416.781 57.2344 415.754 56.8828 414.949 56.1797C414.152 55.4688 413.754 54.5703 413.754 53.4844C413.754 52.1641 414.254 51.1406 415.254 50.4141C416.262 49.6797 417.676 49.3125 419.496 49.3125H421.605V48.3164C421.605 47.5586 421.379 46.957 420.926 46.5117C420.473 46.0586 419.805 45.832 418.922 45.832C418.148 45.832 417.5 46.0273 416.977 46.418C416.453 46.8086 416.191 47.2812 416.191 47.8359H414.012C414.012 47.2031 414.234 46.5938 414.68 46.0078C415.133 45.4141 415.742 44.9453 416.508 44.6016C417.281 44.2578 418.129 44.0859 419.051 44.0859C420.512 44.0859 421.656 44.4531 422.484 45.1875C423.312 45.9141 423.742 46.918 423.773 48.1992V54.0352C423.773 55.1992 423.922 56.125 424.219 56.8125V57H421.945ZM418.348 55.3477C419.027 55.3477 419.672 55.1719 420.281 54.8203C420.891 54.4688 421.332 54.0117 421.605 53.4492V50.8477H419.906C417.25 50.8477 415.922 51.625 415.922 53.1797C415.922 53.8594 416.148 54.3906 416.602 54.7734C417.055 55.1562 417.637 55.3477 418.348 55.3477ZM433.551 46.2656C433.223 46.2109 432.867 46.1836 432.484 46.1836C431.062 46.1836 430.098 46.7891 429.59 48V57H427.422V44.3203H429.531L429.566 45.7852C430.277 44.6523 431.285 44.0859 432.59 44.0859C433.012 44.0859 433.332 44.1406 433.551 44.25V46.2656ZM440.656 55.4648C441.43 55.4648 442.105 55.2305 442.684 54.7617C443.262 54.293 443.582 53.707 443.645 53.0039H445.695C445.656 53.7305 445.406 54.4219 444.945 55.0781C444.484 55.7344 443.867 56.2578 443.094 56.6484C442.328 57.0391 441.516 57.2344 440.656 57.2344C438.93 57.2344 437.555 56.6602 436.531 55.5117C435.516 54.3555 435.008 52.7773 435.008 50.7773V50.4141C435.008 49.1797 435.234 48.082 435.688 47.1211C436.141 46.1602 436.789 45.4141 437.633 44.8828C438.484 44.3516 439.488 44.0859 440.645 44.0859C442.066 44.0859 443.246 44.5117 444.184 45.3633C445.129 46.2148 445.633 47.3203 445.695 48.6797H443.645C443.582 47.8594 443.27 47.1875 442.707 46.6641C442.152 46.1328 441.465 45.8672 440.645 45.8672C439.543 45.8672 438.688 46.2656 438.078 47.0625C437.477 47.8516 437.176 48.9961 437.176 50.4961V50.9062C437.176 52.3672 437.477 53.4922 438.078 54.2812C438.68 55.0703 439.539 55.4648 440.656 55.4648ZM450.551 45.8555C451.512 44.6758 452.762 44.0859 454.301 44.0859C456.98 44.0859 458.332 45.5977 458.355 48.6211V57H456.188V48.6094C456.18 47.6953 455.969 47.0195 455.555 46.582C455.148 46.1445 454.512 45.9258 453.645 45.9258C452.941 45.9258 452.324 46.1133 451.793 46.4883C451.262 46.8633 450.848 47.3555 450.551 47.9648V57H448.383V39H450.551V45.8555Z" fill="black"/>
<g filter="url(#filter0_d)">
<rect x="672" y="926" width="768" height="98" fill="#B10DFF"/>
<rect x="672" y="926" width="768" height="98" fill="url(#paint3_linear)"/>
</g>
<rect x="682.36" y="953" width="709.986" height="48" rx="24" fill="#D1C5FF"/>
<path d="M705.006 977.242L710.221 967.938H711.885L705.721 978.578V985H704.28V978.578L698.127 967.938H699.838L705.006 977.242ZM712.745 978.473C712.745 977.254 712.979 976.156 713.448 975.18C713.924 974.203 714.592 973.445 715.452 972.906C716.319 972.359 717.299 972.086 718.393 972.086C720.081 972.086 721.448 972.68 722.495 973.867C723.542 975.047 724.065 976.613 724.065 978.566V978.859C724.065 980.086 723.827 981.191 723.35 982.176C722.881 983.152 722.217 983.906 721.358 984.438C720.499 984.969 719.518 985.234 718.417 985.234C716.737 985.234 715.37 984.645 714.315 983.465C713.268 982.277 712.745 980.707 712.745 978.754V978.473ZM714.151 978.859C714.151 980.375 714.542 981.621 715.323 982.598C716.112 983.566 717.143 984.051 718.417 984.051C719.682 984.051 720.706 983.566 721.487 982.598C722.276 981.621 722.67 980.336 722.67 978.742V978.473C722.67 977.504 722.491 976.617 722.131 975.812C721.772 975.008 721.268 974.387 720.62 973.949C719.971 973.504 719.229 973.281 718.393 973.281C717.143 973.281 716.124 973.773 715.334 974.758C714.545 975.734 714.151 977.016 714.151 978.602V978.859ZM735.377 983.395C734.534 984.621 733.186 985.234 731.334 985.234C729.983 985.234 728.956 984.844 728.252 984.062C727.549 983.273 727.19 982.109 727.174 980.57V972.32H728.569V980.395C728.569 982.809 729.545 984.016 731.499 984.016C733.53 984.016 734.815 983.176 735.354 981.496V972.32H736.76V985H735.401L735.377 983.395ZM746.526 973.516C746.229 973.461 745.913 973.434 745.577 973.434C744.702 973.434 743.959 973.68 743.35 974.172C742.749 974.656 742.319 975.363 742.061 976.293V985H740.667V972.32H742.038L742.061 974.336C742.803 972.836 743.995 972.086 745.635 972.086C746.026 972.086 746.334 972.137 746.561 972.238L746.526 973.516ZM757.327 967.938L763.62 982.996L769.936 967.938H771.858V985H770.417V977.57L770.534 969.953L764.182 985H763.069L756.741 970.012L756.858 977.523V985H755.417V967.938H757.327ZM781.014 985.234C779.936 985.234 778.959 984.969 778.084 984.438C777.217 983.906 776.542 983.168 776.057 982.223C775.573 981.27 775.331 980.203 775.331 979.023V978.52C775.331 977.301 775.565 976.203 776.034 975.227C776.51 974.25 777.17 973.484 778.014 972.93C778.858 972.367 779.772 972.086 780.756 972.086C782.295 972.086 783.514 972.613 784.413 973.668C785.319 974.715 785.772 976.148 785.772 977.969V978.754H776.725V979.023C776.725 980.461 777.135 981.66 777.956 982.621C778.784 983.574 779.823 984.051 781.073 984.051C781.823 984.051 782.483 983.914 783.053 983.641C783.631 983.367 784.155 982.93 784.624 982.328L785.502 982.996C784.471 984.488 782.975 985.234 781.014 985.234ZM780.756 973.281C779.702 973.281 778.811 973.668 778.084 974.441C777.366 975.215 776.928 976.254 776.772 977.559H784.377V977.406C784.338 976.188 783.991 975.195 783.334 974.43C782.678 973.664 781.819 973.281 780.756 973.281ZM796.346 981.777C796.346 981.082 796.065 980.523 795.502 980.102C794.948 979.68 794.108 979.352 792.983 979.117C791.858 978.875 790.983 978.602 790.358 978.297C789.741 977.984 789.28 977.605 788.975 977.16C788.678 976.715 788.53 976.176 788.53 975.543C788.53 974.543 788.948 973.719 789.784 973.07C790.62 972.414 791.69 972.086 792.995 972.086C794.409 972.086 795.542 972.438 796.393 973.141C797.252 973.836 797.682 974.746 797.682 975.871H796.276C796.276 975.129 795.963 974.512 795.338 974.02C794.721 973.527 793.94 973.281 792.995 973.281C792.073 973.281 791.331 973.488 790.768 973.902C790.213 974.309 789.936 974.84 789.936 975.496C789.936 976.129 790.167 976.621 790.627 976.973C791.096 977.316 791.944 977.633 793.17 977.922C794.405 978.211 795.327 978.52 795.936 978.848C796.553 979.176 797.01 979.57 797.307 980.031C797.604 980.492 797.752 981.051 797.752 981.707C797.752 982.777 797.319 983.633 796.452 984.273C795.592 984.914 794.467 985.234 793.077 985.234C791.6 985.234 790.401 984.879 789.479 984.168C788.565 983.449 788.108 982.543 788.108 981.449H789.514C789.569 982.27 789.913 982.91 790.545 983.371C791.186 983.824 792.03 984.051 793.077 984.051C794.053 984.051 794.842 983.836 795.444 983.406C796.045 982.977 796.346 982.434 796.346 981.777ZM808.76 981.777C808.76 981.082 808.479 980.523 807.917 980.102C807.362 979.68 806.522 979.352 805.397 979.117C804.272 978.875 803.397 978.602 802.772 978.297C802.155 977.984 801.694 977.605 801.389 977.16C801.092 976.715 800.944 976.176 800.944 975.543C800.944 974.543 801.362 973.719 802.198 973.07C803.034 972.414 804.104 972.086 805.409 972.086C806.823 972.086 807.956 972.438 808.807 973.141C809.667 973.836 810.096 974.746 810.096 975.871H808.69C808.69 975.129 808.377 974.512 807.752 974.02C807.135 973.527 806.354 973.281 805.409 973.281C804.487 973.281 803.745 973.488 803.182 973.902C802.627 974.309 802.35 974.84 802.35 975.496C802.35 976.129 802.581 976.621 803.042 976.973C803.51 977.316 804.358 977.633 805.584 977.922C806.819 978.211 807.741 978.52 808.35 978.848C808.967 979.176 809.424 979.57 809.721 980.031C810.018 980.492 810.167 981.051 810.167 981.707C810.167 982.777 809.733 983.633 808.866 984.273C808.006 984.914 806.881 985.234 805.491 985.234C804.014 985.234 802.815 984.879 801.893 984.168C800.979 983.449 800.522 982.543 800.522 981.449H801.928C801.983 982.27 802.327 982.91 802.959 983.371C803.6 983.824 804.444 984.051 805.491 984.051C806.467 984.051 807.256 983.836 807.858 983.406C808.459 982.977 808.76 982.434 808.76 981.777ZM821.584 985C821.444 984.602 821.354 984.012 821.315 983.23C820.823 983.871 820.194 984.367 819.428 984.719C818.67 985.062 817.866 985.234 817.014 985.234C815.795 985.234 814.807 984.895 814.049 984.215C813.299 983.535 812.924 982.676 812.924 981.637C812.924 980.402 813.436 979.426 814.459 978.707C815.491 977.988 816.924 977.629 818.76 977.629H821.303V976.188C821.303 975.281 821.022 974.57 820.459 974.055C819.905 973.531 819.092 973.27 818.022 973.27C817.045 973.27 816.237 973.52 815.596 974.02C814.956 974.52 814.635 975.121 814.635 975.824L813.229 975.812C813.229 974.805 813.698 973.934 814.635 973.199C815.573 972.457 816.725 972.086 818.092 972.086C819.506 972.086 820.62 972.441 821.432 973.152C822.252 973.855 822.674 974.84 822.698 976.105V982.105C822.698 983.332 822.827 984.25 823.084 984.859V985H821.584ZM817.178 983.992C818.116 983.992 818.952 983.766 819.686 983.312C820.428 982.859 820.967 982.254 821.303 981.496V978.707H818.795C817.397 978.723 816.303 978.98 815.514 979.48C814.725 979.973 814.331 980.652 814.331 981.52C814.331 982.23 814.592 982.82 815.116 983.289C815.647 983.758 816.334 983.992 817.178 983.992ZM826.135 978.543C826.135 976.559 826.573 974.988 827.448 973.832C828.331 972.668 829.526 972.086 831.034 972.086C832.76 972.086 834.073 972.773 834.971 974.148L835.042 972.32H836.354V984.742C836.354 986.375 835.897 987.668 834.983 988.621C834.069 989.574 832.831 990.051 831.268 990.051C830.385 990.051 829.542 989.852 828.737 989.453C827.94 989.062 827.311 988.539 826.85 987.883L827.635 987.039C828.627 988.258 829.807 988.867 831.174 988.867C832.346 988.867 833.26 988.52 833.917 987.824C834.573 987.137 834.913 986.18 834.936 984.953V983.359C834.038 984.609 832.729 985.234 831.01 985.234C829.542 985.234 828.362 984.648 827.471 983.477C826.581 982.305 826.135 980.723 826.135 978.73V978.543ZM827.553 978.789C827.553 980.406 827.877 981.684 828.526 982.621C829.174 983.551 830.088 984.016 831.268 984.016C832.995 984.016 834.217 983.242 834.936 981.695V975.801C834.608 974.988 834.135 974.371 833.518 973.949C832.901 973.52 832.159 973.305 831.292 973.305C830.112 973.305 829.194 973.77 828.538 974.699C827.881 975.621 827.553 976.984 827.553 978.789ZM845.17 985.234C844.092 985.234 843.116 984.969 842.241 984.438C841.374 983.906 840.698 983.168 840.213 982.223C839.729 981.27 839.487 980.203 839.487 979.023V978.52C839.487 977.301 839.721 976.203 840.19 975.227C840.667 974.25 841.327 973.484 842.17 972.93C843.014 972.367 843.928 972.086 844.913 972.086C846.452 972.086 847.67 972.613 848.569 973.668C849.475 974.715 849.928 976.148 849.928 977.969V978.754H840.881V979.023C840.881 980.461 841.292 981.66 842.112 982.621C842.94 983.574 843.979 984.051 845.229 984.051C845.979 984.051 846.639 983.914 847.209 983.641C847.788 983.367 848.311 982.93 848.78 982.328L849.659 982.996C848.627 984.488 847.131 985.234 845.17 985.234ZM844.913 973.281C843.858 973.281 842.967 973.668 842.241 974.441C841.522 975.215 841.084 976.254 840.928 977.559H848.534V977.406C848.495 976.188 848.147 975.195 847.491 974.43C846.834 973.664 845.975 973.281 844.913 973.281ZM860.389 974.465C860.85 973.707 861.44 973.121 862.159 972.707C862.877 972.293 863.663 972.086 864.514 972.086C865.874 972.086 866.885 972.469 867.549 973.234C868.213 974 868.549 975.148 868.557 976.68V985H867.163V976.668C867.155 975.535 866.913 974.691 866.436 974.137C865.967 973.582 865.213 973.305 864.174 973.305C863.307 973.305 862.538 973.578 861.866 974.125C861.202 974.664 860.709 975.395 860.389 976.316V985H858.995V967H860.389V974.465ZM877.327 985.234C876.249 985.234 875.272 984.969 874.397 984.438C873.53 983.906 872.854 983.168 872.37 982.223C871.885 981.27 871.643 980.203 871.643 979.023V978.52C871.643 977.301 871.877 976.203 872.346 975.227C872.823 974.25 873.483 973.484 874.327 972.93C875.17 972.367 876.084 972.086 877.069 972.086C878.608 972.086 879.827 972.613 880.725 973.668C881.631 974.715 882.084 976.148 882.084 977.969V978.754H873.038V979.023C873.038 980.461 873.448 981.66 874.268 982.621C875.096 983.574 876.135 984.051 877.385 984.051C878.135 984.051 878.795 983.914 879.366 983.641C879.944 983.367 880.467 982.93 880.936 982.328L881.815 982.996C880.784 984.488 879.288 985.234 877.327 985.234ZM877.069 973.281C876.014 973.281 875.124 973.668 874.397 974.441C873.678 975.215 873.241 976.254 873.084 977.559H880.69V977.406C880.651 976.188 880.303 975.195 879.647 974.43C878.991 973.664 878.131 973.281 877.069 973.281ZM890.924 973.516C890.627 973.461 890.311 973.434 889.975 973.434C889.1 973.434 888.358 973.68 887.749 974.172C887.147 974.656 886.717 975.363 886.459 976.293V985H885.065V972.32H886.436L886.459 974.336C887.202 972.836 888.393 972.086 890.034 972.086C890.424 972.086 890.733 972.137 890.959 972.238L890.924 973.516ZM898.077 985.234C896.999 985.234 896.022 984.969 895.147 984.438C894.28 983.906 893.604 983.168 893.12 982.223C892.635 981.27 892.393 980.203 892.393 979.023V978.52C892.393 977.301 892.627 976.203 893.096 975.227C893.573 974.25 894.233 973.484 895.077 972.93C895.92 972.367 896.834 972.086 897.819 972.086C899.358 972.086 900.577 972.613 901.475 973.668C902.381 974.715 902.834 976.148 902.834 977.969V978.754H893.788V979.023C893.788 980.461 894.198 981.66 895.018 982.621C895.846 983.574 896.885 984.051 898.135 984.051C898.885 984.051 899.545 983.914 900.116 983.641C900.694 983.367 901.217 982.93 901.686 982.328L902.565 982.996C901.534 984.488 900.038 985.234 898.077 985.234ZM897.819 973.281C896.764 973.281 895.874 973.668 895.147 974.441C894.428 975.215 893.991 976.254 893.834 977.559H901.44V977.406C901.401 976.188 901.053 975.195 900.397 974.43C899.741 973.664 898.881 973.281 897.819 973.281ZM905.686 984.156C905.686 983.883 905.772 983.652 905.944 983.465C906.124 983.27 906.37 983.172 906.682 983.172C906.995 983.172 907.241 983.27 907.42 983.465C907.6 983.652 907.69 983.883 907.69 984.156C907.69 984.43 907.6 984.656 907.42 984.836C907.241 985.008 906.995 985.094 906.682 985.094C906.37 985.094 906.124 985.008 905.944 984.836C905.772 984.656 905.686 984.43 905.686 984.156ZM911.678 984.156C911.678 983.883 911.764 983.652 911.936 983.465C912.116 983.27 912.362 983.172 912.674 983.172C912.987 983.172 913.233 983.27 913.413 983.465C913.592 983.652 913.682 983.883 913.682 984.156C913.682 984.43 913.592 984.656 913.413 984.836C913.233 985.008 912.987 985.094 912.674 985.094C912.362 985.094 912.116 985.008 911.936 984.836C911.764 984.656 911.678 984.43 911.678 984.156ZM917.67 984.156C917.67 983.883 917.756 983.652 917.928 983.465C918.108 983.27 918.354 983.172 918.667 983.172C918.979 983.172 919.225 983.27 919.405 983.465C919.584 983.652 919.674 983.883 919.674 984.156C919.674 984.43 919.584 984.656 919.405 984.836C919.225 985.008 918.979 985.094 918.667 985.094C918.354 985.094 918.108 985.008 917.928 984.836C917.756 984.656 917.67 984.43 917.67 984.156ZM923.663 984.156C923.663 983.883 923.749 983.652 923.92 983.465C924.1 983.27 924.346 983.172 924.659 983.172C924.971 983.172 925.217 983.27 925.397 983.465C925.577 983.652 925.667 983.883 925.667 984.156C925.667 984.43 925.577 984.656 925.397 984.836C925.217 985.008 924.971 985.094 924.659 985.094C924.346 985.094 924.1 985.008 923.92 984.836C923.749 984.656 923.663 984.43 923.663 984.156Z" fill="black"/>
<path d="M1406.28 967.296L1414.28 972.26L1406.27 970.719L1406.28 967.296ZM1414.27 980.74L1406.27 985.704V982.281L1414.27 980.74ZM1404.15 962.625L1404.14 973.417L1420.12 976.5L1404.14 979.583L1404.15 990.375L1426.5 976.5L1404.15 962.625Z" fill="white"/>
<path fill-rule="evenodd" clip-rule="evenodd" d="M1036.5 198C1057.21 198 1074 181.211 1074 160.5C1074 139.789 1057.21 123 1036.5 123C1015.79 123 999 139.789 999 160.5C999 181.211 1015.79 198 1036.5 198ZM1036.12 161.25C1042.96 161.25 1048.5 155.71 1048.5 148.875C1048.5 142.04 1042.96 136.5 1036.12 136.5C1029.29 136.5 1023.75 142.04 1023.75 148.875C1023.75 155.71 1029.29 161.25 1036.12 161.25ZM1011.75 183.75V176.25C1013.5 172.5 1020.83 165 1036.12 165C1055.25 165 1060.88 174.375 1061.25 175.5C1061.55 176.4 1061.38 181.375 1061.25 183.75H1011.75Z" fill="#6D48FF"/>
<path d="M951.824 209.189H946.199V215H943.27V200.781H952.527V203.154H946.199V206.826H951.824V209.189ZM961.225 207.08C960.84 207.028 960.502 207.002 960.209 207.002C959.141 207.002 958.441 207.363 958.109 208.086V215H955.287V204.434H957.953L958.031 205.693C958.598 204.723 959.382 204.238 960.385 204.238C960.697 204.238 960.99 204.281 961.264 204.365L961.225 207.08ZM967.07 215H964.238V204.434H967.07V215ZM964.072 201.699C964.072 201.276 964.212 200.928 964.492 200.654C964.779 200.381 965.166 200.244 965.654 200.244C966.136 200.244 966.52 200.381 966.807 200.654C967.093 200.928 967.236 201.276 967.236 201.699C967.236 202.129 967.09 202.48 966.797 202.754C966.51 203.027 966.13 203.164 965.654 203.164C965.179 203.164 964.795 203.027 964.502 202.754C964.215 202.48 964.072 202.129 964.072 201.699ZM975.768 215.195C974.218 215.195 972.955 214.72 971.979 213.77C971.008 212.819 970.523 211.553 970.523 209.971V209.697C970.523 208.636 970.729 207.689 971.139 206.855C971.549 206.016 972.128 205.371 972.877 204.922C973.632 204.466 974.492 204.238 975.455 204.238C976.9 204.238 978.036 204.694 978.863 205.605C979.697 206.517 980.113 207.809 980.113 209.482V210.635H973.385C973.476 211.325 973.749 211.878 974.205 212.295C974.667 212.712 975.25 212.92 975.953 212.92C977.04 212.92 977.89 212.526 978.502 211.738L979.889 213.291C979.465 213.89 978.893 214.359 978.17 214.697C977.447 215.029 976.646 215.195 975.768 215.195ZM975.445 206.523C974.885 206.523 974.43 206.712 974.078 207.09C973.733 207.467 973.512 208.008 973.414 208.711H977.34V208.486C977.327 207.861 977.158 207.38 976.832 207.041C976.507 206.696 976.044 206.523 975.445 206.523ZM985.822 204.434L985.91 205.654C986.665 204.71 987.678 204.238 988.947 204.238C990.067 204.238 990.9 204.567 991.447 205.225C991.994 205.882 992.274 206.865 992.287 208.174V215H989.465V208.242C989.465 207.643 989.335 207.21 989.074 206.943C988.814 206.67 988.381 206.533 987.775 206.533C986.981 206.533 986.385 206.872 985.988 207.549V215H983.166V204.434H985.822ZM995.496 209.639C995.496 207.992 995.864 206.68 996.6 205.703C997.342 204.727 998.354 204.238 999.637 204.238C1000.67 204.238 1001.51 204.622 1002.19 205.391V200H1005.02V215H1002.47L1002.33 213.877C1001.63 214.756 1000.72 215.195 999.617 215.195C998.374 215.195 997.374 214.707 996.619 213.73C995.87 212.747 995.496 211.383 995.496 209.639ZM998.318 209.844C998.318 210.833 998.491 211.592 998.836 212.119C999.181 212.646 999.682 212.91 1000.34 212.91C1001.21 212.91 1001.83 212.542 1002.19 211.807V207.637C1001.83 206.901 1001.23 206.533 1000.36 206.533C998.999 206.533 998.318 207.637 998.318 209.844ZM1009.52 205.146L1008.19 204.375C1008.75 203.496 1009.04 202.588 1009.06 201.65V200H1011.3V201.514C1011.3 202.1 1011.14 202.734 1010.81 203.418C1010.49 204.102 1010.06 204.678 1009.52 205.146ZM1018.25 212.08C1018.25 211.735 1018.08 211.465 1017.73 211.27C1017.4 211.068 1016.85 210.889 1016.09 210.732C1013.58 210.205 1012.32 209.137 1012.32 207.529C1012.32 206.592 1012.71 205.811 1013.49 205.186C1014.27 204.554 1015.29 204.238 1016.54 204.238C1017.88 204.238 1018.96 204.554 1019.76 205.186C1020.56 205.817 1020.97 206.637 1020.97 207.646H1018.14C1018.14 207.243 1018.01 206.911 1017.75 206.65C1017.49 206.383 1017.09 206.25 1016.53 206.25C1016.06 206.25 1015.69 206.357 1015.43 206.572C1015.17 206.787 1015.04 207.061 1015.04 207.393C1015.04 207.705 1015.19 207.959 1015.48 208.154C1015.78 208.343 1016.28 208.509 1016.98 208.652C1017.69 208.789 1018.28 208.945 1018.76 209.121C1020.25 209.668 1021 210.615 1021 211.963C1021 212.926 1020.58 213.708 1019.76 214.307C1018.93 214.899 1017.86 215.195 1016.55 215.195C1015.67 215.195 1014.88 215.039 1014.19 214.727C1013.51 214.408 1012.97 213.975 1012.58 213.428C1012.19 212.874 1011.99 212.279 1011.99 211.641H1014.67C1014.69 212.142 1014.88 212.526 1015.22 212.793C1015.57 213.06 1016.03 213.193 1016.61 213.193C1017.15 213.193 1017.56 213.092 1017.83 212.891C1018.11 212.682 1018.25 212.412 1018.25 212.08ZM1041.75 200.781V210.146C1041.75 211.702 1041.26 212.933 1040.29 213.838C1039.32 214.743 1037.99 215.195 1036.3 215.195C1034.64 215.195 1033.32 214.756 1032.35 213.877C1031.37 212.998 1030.87 211.79 1030.85 210.254V200.781H1033.78V210.166C1033.78 211.097 1034 211.777 1034.45 212.207C1034.89 212.63 1035.51 212.842 1036.3 212.842C1037.95 212.842 1038.78 211.976 1038.81 210.244V200.781H1041.75ZM1051.19 212.08C1051.19 211.735 1051.02 211.465 1050.67 211.27C1050.33 211.068 1049.79 210.889 1049.03 210.732C1046.52 210.205 1045.26 209.137 1045.26 207.529C1045.26 206.592 1045.65 205.811 1046.42 205.186C1047.21 204.554 1048.22 204.238 1049.48 204.238C1050.82 204.238 1051.89 204.554 1052.69 205.186C1053.5 205.817 1053.9 206.637 1053.9 207.646H1051.08C1051.08 207.243 1050.95 206.911 1050.69 206.65C1050.43 206.383 1050.02 206.25 1049.47 206.25C1049 206.25 1048.63 206.357 1048.37 206.572C1048.11 206.787 1047.98 207.061 1047.98 207.393C1047.98 207.705 1048.12 207.959 1048.42 208.154C1048.72 208.343 1049.22 208.509 1049.92 208.652C1050.62 208.789 1051.22 208.945 1051.7 209.121C1053.19 209.668 1053.93 210.615 1053.93 211.963C1053.93 212.926 1053.52 213.708 1052.69 214.307C1051.87 214.899 1050.8 215.195 1049.49 215.195C1048.6 215.195 1047.82 215.039 1047.13 214.727C1046.44 214.408 1045.91 213.975 1045.52 213.428C1045.12 212.874 1044.93 212.279 1044.93 211.641H1047.61C1047.63 212.142 1047.82 212.526 1048.16 212.793C1048.51 213.06 1048.97 213.193 1049.55 213.193C1050.09 213.193 1050.5 213.092 1050.77 212.891C1051.05 212.682 1051.19 212.412 1051.19 212.08ZM1062.12 215.195C1060.57 215.195 1059.31 214.72 1058.33 213.77C1057.36 212.819 1056.88 211.553 1056.88 209.971V209.697C1056.88 208.636 1057.08 207.689 1057.49 206.855C1057.9 206.016 1058.48 205.371 1059.23 204.922C1059.99 204.466 1060.85 204.238 1061.81 204.238C1063.26 204.238 1064.39 204.694 1065.22 205.605C1066.05 206.517 1066.47 207.809 1066.47 209.482V210.635H1059.74C1059.83 211.325 1060.1 211.878 1060.56 212.295C1061.02 212.712 1061.61 212.92 1062.31 212.92C1063.4 212.92 1064.25 212.526 1064.86 211.738L1066.24 213.291C1065.82 213.89 1065.25 214.359 1064.53 214.697C1063.8 215.029 1063 215.195 1062.12 215.195ZM1061.8 206.523C1061.24 206.523 1060.79 206.712 1060.43 207.09C1060.09 207.467 1059.87 208.008 1059.77 208.711H1063.7V208.486C1063.68 207.861 1063.51 207.38 1063.19 207.041C1062.86 206.696 1062.4 206.523 1061.8 206.523ZM1075.52 207.08C1075.13 207.028 1074.79 207.002 1074.5 207.002C1073.43 207.002 1072.73 207.363 1072.4 208.086V215H1069.58V204.434H1072.25L1072.32 205.693C1072.89 204.723 1073.68 204.238 1074.68 204.238C1074.99 204.238 1075.28 204.281 1075.56 204.365L1075.52 207.08ZM1080.98 204.434L1081.07 205.654C1081.83 204.71 1082.84 204.238 1084.11 204.238C1085.23 204.238 1086.06 204.567 1086.61 205.225C1087.15 205.882 1087.43 206.865 1087.45 208.174V215H1084.62V208.242C1084.62 207.643 1084.49 207.21 1084.23 206.943C1083.97 206.67 1083.54 206.533 1082.94 206.533C1082.14 206.533 1081.55 206.872 1081.15 207.549V215H1078.33V204.434H1080.98ZM1097.22 215C1097.09 214.746 1096.99 214.43 1096.94 214.053C1096.25 214.814 1095.36 215.195 1094.27 215.195C1093.23 215.195 1092.38 214.896 1091.69 214.297C1091.01 213.698 1090.68 212.943 1090.68 212.031C1090.68 210.911 1091.09 210.052 1091.92 209.453C1092.75 208.854 1093.95 208.551 1095.52 208.545H1096.82V207.939C1096.82 207.451 1096.69 207.061 1096.44 206.768C1096.19 206.475 1095.8 206.328 1095.26 206.328C1094.78 206.328 1094.41 206.442 1094.13 206.67C1093.87 206.898 1093.73 207.21 1093.73 207.607H1090.91C1090.91 206.995 1091.1 206.429 1091.48 205.908C1091.85 205.387 1092.39 204.98 1093.08 204.688C1093.77 204.388 1094.54 204.238 1095.4 204.238C1096.7 204.238 1097.74 204.567 1098.5 205.225C1099.27 205.876 1099.65 206.794 1099.65 207.979V212.559C1099.66 213.561 1099.8 214.32 1100.07 214.834V215H1097.22ZM1094.88 213.037C1095.3 213.037 1095.69 212.946 1096.04 212.764C1096.39 212.575 1096.65 212.324 1096.82 212.012V210.195H1095.76C1094.35 210.195 1093.6 210.684 1093.51 211.66L1093.5 211.826C1093.5 212.178 1093.62 212.467 1093.87 212.695C1094.12 212.923 1094.46 213.037 1094.88 213.037ZM1105.96 204.434L1106.05 205.615C1106.8 204.697 1107.81 204.238 1109.09 204.238C1110.45 204.238 1111.38 204.775 1111.89 205.85C1112.63 204.775 1113.69 204.238 1115.07 204.238C1116.21 204.238 1117.07 204.574 1117.62 205.244C1118.18 205.908 1118.46 206.911 1118.46 208.252V215H1115.63V208.262C1115.63 207.663 1115.52 207.227 1115.28 206.953C1115.05 206.673 1114.63 206.533 1114.04 206.533C1113.19 206.533 1112.61 206.937 1112.28 207.744L1112.29 215H1109.47V208.271C1109.47 207.66 1109.35 207.217 1109.11 206.943C1108.87 206.67 1108.46 206.533 1107.88 206.533C1107.08 206.533 1106.5 206.865 1106.14 207.529V215H1103.32V204.434H1105.96ZM1127.01 215.195C1125.46 215.195 1124.19 214.72 1123.22 213.77C1122.25 212.819 1121.76 211.553 1121.76 209.971V209.697C1121.76 208.636 1121.97 207.689 1122.38 206.855C1122.79 206.016 1123.37 205.371 1124.12 204.922C1124.87 204.466 1125.73 204.238 1126.69 204.238C1128.14 204.238 1129.27 204.694 1130.1 205.605C1130.93 206.517 1131.35 207.809 1131.35 209.482V210.635H1124.62C1124.71 211.325 1124.99 211.878 1125.44 212.295C1125.91 212.712 1126.49 212.92 1127.19 212.92C1128.28 212.92 1129.13 212.526 1129.74 211.738L1131.13 213.291C1130.7 213.89 1130.13 214.359 1129.41 214.697C1128.69 215.029 1127.88 215.195 1127.01 215.195ZM1126.68 206.523C1126.12 206.523 1125.67 206.712 1125.32 207.09C1124.97 207.467 1124.75 208.008 1124.65 208.711H1128.58V208.486C1128.57 207.861 1128.4 207.38 1128.07 207.041C1127.74 206.696 1127.28 206.523 1126.68 206.523Z" fill="black"/>
<path d="M1228 765C1228 753.954 1236.95 745 1248 745H1379.01C1390.06 745 1399.01 753.954 1399.01 764.999C1399.01 767.883 1399.01 770.951 1399.01 774.5V784C1399.01 795.046 1390.04 804 1379 804C1330.49 804 1296.52 804 1248.02 804C1236.97 804 1228 795.046 1228 784V765Z" fill="#00C2FF" fill-opacity="0.5"/>
<path d="M1260.48 774.268L1263.42 768.203H1265.88L1261.59 776.289V781H1259.36V776.289L1255.06 768.203H1257.53L1260.48 774.268ZM1266.33 776.157C1266.33 775.226 1266.52 774.388 1266.89 773.644C1267.26 772.894 1267.77 772.319 1268.44 771.921C1269.11 771.517 1269.88 771.314 1270.75 771.314C1272.03 771.314 1273.07 771.728 1273.87 772.554C1274.67 773.38 1275.1 774.476 1275.17 775.841L1275.17 776.342C1275.17 777.279 1274.99 778.117 1274.63 778.855C1274.27 779.594 1273.76 780.165 1273.08 780.569C1272.42 780.974 1271.64 781.176 1270.76 781.176C1269.42 781.176 1268.35 780.73 1267.54 779.84C1266.73 778.943 1266.33 777.751 1266.33 776.263V776.157ZM1268.47 776.342C1268.47 777.32 1268.67 778.088 1269.08 778.645C1269.48 779.195 1270.04 779.471 1270.76 779.471C1271.48 779.471 1272.04 779.189 1272.44 778.627C1272.85 778.064 1273.05 777.241 1273.05 776.157C1273.05 775.196 1272.84 774.435 1272.42 773.872C1272.01 773.31 1271.45 773.028 1270.75 773.028C1270.05 773.028 1269.49 773.307 1269.08 773.863C1268.67 774.414 1268.47 775.24 1268.47 776.342ZM1282.99 780.068C1282.37 780.807 1281.47 781.176 1280.32 781.176C1279.29 781.176 1278.51 780.874 1277.97 780.271C1277.45 779.667 1277.18 778.794 1277.18 777.651V771.49H1279.32V777.625C1279.32 778.832 1279.82 779.436 1280.82 779.436C1281.86 779.436 1282.56 779.063 1282.92 778.319V771.49H1285.06V781H1283.04L1282.99 780.068ZM1292.46 773.441C1292.18 773.395 1291.89 773.371 1291.59 773.371C1290.61 773.371 1289.95 773.746 1289.61 774.496V781H1287.48V771.49H1289.52L1289.57 772.554C1290.09 771.728 1290.8 771.314 1291.71 771.314C1292.02 771.314 1292.27 771.355 1292.47 771.438L1292.46 773.441ZM1301.88 768.203L1305.57 778.012L1309.26 768.203H1312.13V781H1309.92V776.781L1310.14 771.139L1306.36 781H1304.77L1301 771.147L1301.21 776.781V781H1299V768.203H1301.88ZM1319 781.176C1317.65 781.176 1316.55 780.751 1315.7 779.901C1314.87 779.046 1314.45 777.909 1314.45 776.491V776.228C1314.45 775.278 1314.63 774.432 1314.99 773.688C1315.36 772.938 1315.88 772.354 1316.54 771.938C1317.2 771.522 1317.94 771.314 1318.75 771.314C1320.05 771.314 1321.05 771.728 1321.75 772.554C1322.46 773.38 1322.81 774.549 1322.81 776.061V776.922H1316.6C1316.66 777.707 1316.92 778.328 1317.38 778.785C1317.84 779.242 1318.42 779.471 1319.12 779.471C1320.1 779.471 1320.9 779.075 1321.51 778.284L1322.66 779.383C1322.28 779.951 1321.77 780.394 1321.13 780.71C1320.5 781.021 1319.79 781.176 1319 781.176ZM1318.74 773.028C1318.16 773.028 1317.68 773.233 1317.32 773.644C1316.96 774.054 1316.73 774.625 1316.63 775.357H1320.7V775.199C1320.66 774.484 1320.47 773.945 1320.13 773.582C1319.8 773.213 1319.34 773.028 1318.74 773.028ZM1330.06 778.416C1330.06 778.035 1329.9 777.745 1329.58 777.546C1329.27 777.347 1328.76 777.171 1328.03 777.019C1327.3 776.866 1326.7 776.673 1326.21 776.438C1325.14 775.923 1324.61 775.176 1324.61 774.197C1324.61 773.377 1324.96 772.691 1325.65 772.141C1326.34 771.59 1327.22 771.314 1328.28 771.314C1329.42 771.314 1330.34 771.596 1331.04 772.158C1331.74 772.721 1332.09 773.45 1332.09 774.347H1329.95C1329.95 773.937 1329.8 773.597 1329.5 773.327C1329.19 773.052 1328.79 772.914 1328.28 772.914C1327.82 772.914 1327.43 773.022 1327.13 773.239C1326.84 773.456 1326.69 773.746 1326.69 774.109C1326.69 774.438 1326.83 774.692 1327.11 774.874C1327.38 775.056 1327.94 775.24 1328.78 775.428C1329.61 775.609 1330.27 775.829 1330.75 776.087C1331.23 776.339 1331.58 776.644 1331.81 777.001C1332.04 777.358 1332.16 777.792 1332.16 778.302C1332.16 779.157 1331.81 779.852 1331.1 780.385C1330.39 780.912 1329.46 781.176 1328.31 781.176C1327.53 781.176 1326.84 781.035 1326.23 780.754C1325.62 780.473 1325.14 780.086 1324.8 779.594C1324.46 779.102 1324.29 778.571 1324.29 778.003H1326.37C1326.4 778.507 1326.59 778.896 1326.94 779.172C1327.29 779.441 1327.76 779.576 1328.34 779.576C1328.9 779.576 1329.33 779.471 1329.62 779.26C1329.91 779.043 1330.06 778.762 1330.06 778.416ZM1339.61 778.416C1339.61 778.035 1339.45 777.745 1339.13 777.546C1338.82 777.347 1338.3 777.171 1337.58 777.019C1336.85 776.866 1336.25 776.673 1335.76 776.438C1334.69 775.923 1334.16 775.176 1334.16 774.197C1334.16 773.377 1334.5 772.691 1335.2 772.141C1335.89 771.59 1336.77 771.314 1337.83 771.314C1338.97 771.314 1339.89 771.596 1340.58 772.158C1341.29 772.721 1341.64 773.45 1341.64 774.347H1339.5C1339.5 773.937 1339.35 773.597 1339.05 773.327C1338.74 773.052 1338.34 772.914 1337.83 772.914C1337.36 772.914 1336.98 773.022 1336.68 773.239C1336.39 773.456 1336.24 773.746 1336.24 774.109C1336.24 774.438 1336.38 774.692 1336.66 774.874C1336.93 775.056 1337.49 775.24 1338.33 775.428C1339.16 775.609 1339.82 775.829 1340.29 776.087C1340.77 776.339 1341.13 776.644 1341.36 777.001C1341.59 777.358 1341.71 777.792 1341.71 778.302C1341.71 779.157 1341.35 779.852 1340.65 780.385C1339.94 780.912 1339.01 781.176 1337.86 781.176C1337.08 781.176 1336.39 781.035 1335.78 780.754C1335.17 780.473 1334.69 780.086 1334.35 779.594C1334.01 779.102 1333.84 778.571 1333.84 778.003H1335.92C1335.95 778.507 1336.14 778.896 1336.49 779.172C1336.84 779.441 1337.31 779.576 1337.89 779.576C1338.45 779.576 1338.88 779.471 1339.17 779.26C1339.46 779.043 1339.61 778.762 1339.61 778.416ZM1349.51 781C1349.42 780.818 1349.33 780.522 1349.26 780.112C1348.58 780.821 1347.75 781.176 1346.77 781.176C1345.81 781.176 1345.03 780.903 1344.43 780.358C1343.83 779.813 1343.52 779.14 1343.52 778.337C1343.52 777.323 1343.9 776.547 1344.65 776.008C1345.4 775.463 1346.48 775.19 1347.88 775.19H1349.19V774.566C1349.19 774.074 1349.05 773.682 1348.78 773.389C1348.5 773.09 1348.08 772.94 1347.52 772.94C1347.04 772.94 1346.64 773.063 1346.33 773.31C1346.02 773.55 1345.86 773.857 1345.86 774.232H1343.73C1343.73 773.711 1343.9 773.225 1344.24 772.773C1344.59 772.316 1345.06 771.959 1345.65 771.701C1346.25 771.443 1346.91 771.314 1347.65 771.314C1348.76 771.314 1349.65 771.596 1350.31 772.158C1350.97 772.715 1351.31 773.5 1351.33 774.514V778.803C1351.33 779.658 1351.45 780.341 1351.69 780.851V781H1349.51ZM1347.16 779.462C1347.58 779.462 1347.98 779.359 1348.35 779.154C1348.72 778.949 1349 778.674 1349.19 778.328V776.535H1348.04C1347.25 776.535 1346.66 776.673 1346.26 776.948C1345.86 777.224 1345.66 777.613 1345.66 778.117C1345.66 778.527 1345.79 778.855 1346.06 779.102C1346.34 779.342 1346.71 779.462 1347.16 779.462ZM1353.44 776.175C1353.44 774.698 1353.79 773.521 1354.48 772.642C1355.18 771.757 1356.1 771.314 1357.25 771.314C1358.33 771.314 1359.18 771.692 1359.8 772.448L1359.9 771.49H1361.83V780.71C1361.83 781.958 1361.44 782.942 1360.66 783.663C1359.88 784.384 1358.84 784.744 1357.52 784.744C1356.82 784.744 1356.14 784.598 1355.47 784.305C1354.81 784.018 1354.31 783.64 1353.96 783.171L1354.97 781.888C1355.63 782.667 1356.44 783.057 1357.4 783.057C1358.11 783.057 1358.67 782.863 1359.08 782.477C1359.49 782.096 1359.69 781.533 1359.69 780.789V780.147C1359.08 780.833 1358.25 781.176 1357.23 781.176C1356.12 781.176 1355.21 780.733 1354.5 779.849C1353.79 778.964 1353.44 777.739 1353.44 776.175ZM1355.57 776.359C1355.57 777.314 1355.76 778.067 1356.15 778.618C1356.54 779.163 1357.08 779.436 1357.77 779.436C1358.64 779.436 1359.27 779.066 1359.69 778.328V774.145C1359.29 773.424 1358.65 773.063 1357.79 773.063C1357.09 773.063 1356.54 773.342 1356.15 773.898C1355.76 774.455 1355.57 775.275 1355.57 776.359ZM1368.47 781.176C1367.11 781.176 1366.01 780.751 1365.17 779.901C1364.33 779.046 1363.91 777.909 1363.91 776.491V776.228C1363.91 775.278 1364.09 774.432 1364.46 773.688C1364.83 772.938 1365.34 772.354 1366 771.938C1366.67 771.522 1367.41 771.314 1368.22 771.314C1369.51 771.314 1370.51 771.728 1371.22 772.554C1371.93 773.38 1372.28 774.549 1372.28 776.061V776.922H1366.07C1366.13 777.707 1366.39 778.328 1366.85 778.785C1367.31 779.242 1367.89 779.471 1368.59 779.471C1369.57 779.471 1370.36 779.075 1370.98 778.284L1372.13 779.383C1371.75 779.951 1371.24 780.394 1370.6 780.71C1369.97 781.021 1369.26 781.176 1368.47 781.176ZM1368.21 773.028C1367.62 773.028 1367.15 773.233 1366.79 773.644C1366.43 774.054 1366.2 774.625 1366.1 775.357H1370.17V775.199C1370.12 774.484 1369.93 773.945 1369.6 773.582C1369.27 773.213 1368.8 773.028 1368.21 773.028Z" fill="black"/>
<path d="M698 707C698 695.954 706.954 687 718 687H869C880.046 687 889 695.954 889 707V726C889 737.046 880.046 746 869 746H718C706.954 746 698 737.046 698 726V707Z" fill="#AD00FF" fill-opacity="0.5"/>
<path d="M727.675 717.577H722.524V723H720.301V710.203H728.431V711.996H722.524V715.802H727.675V717.577ZM734.991 715.441C734.71 715.395 734.42 715.371 734.121 715.371C733.143 715.371 732.483 715.746 732.144 716.496V723H730.008V713.49H732.047L732.1 714.554C732.615 713.728 733.33 713.314 734.244 713.314C734.549 713.314 734.801 713.355 735 713.438L734.991 715.441ZM738.862 723H736.727V713.49H738.862V723ZM736.595 711.021C736.595 710.692 736.697 710.42 736.902 710.203C737.113 709.986 737.412 709.878 737.799 709.878C738.186 709.878 738.484 709.986 738.695 710.203C738.906 710.42 739.012 710.692 739.012 711.021C739.012 711.343 738.906 711.612 738.695 711.829C738.484 712.04 738.186 712.146 737.799 712.146C737.412 712.146 737.113 712.04 736.902 711.829C736.697 711.612 736.595 711.343 736.595 711.021ZM745.634 723.176C744.28 723.176 743.182 722.751 742.338 721.901C741.5 721.046 741.081 719.909 741.081 718.491V718.228C741.081 717.278 741.263 716.432 741.626 715.688C741.995 714.938 742.511 714.354 743.173 713.938C743.835 713.522 744.573 713.314 745.388 713.314C746.683 713.314 747.682 713.728 748.385 714.554C749.094 715.38 749.448 716.549 749.448 718.061V718.922H743.234C743.299 719.707 743.56 720.328 744.017 720.785C744.479 721.242 745.06 721.471 745.757 721.471C746.735 721.471 747.532 721.075 748.147 720.284L749.299 721.383C748.918 721.951 748.408 722.394 747.77 722.71C747.137 723.021 746.425 723.176 745.634 723.176ZM745.379 715.028C744.793 715.028 744.318 715.233 743.955 715.644C743.598 716.054 743.369 716.625 743.27 717.357H747.339V717.199C747.292 716.484 747.102 715.945 746.768 715.582C746.434 715.213 745.971 715.028 745.379 715.028ZM753.346 713.49L753.407 714.589C754.11 713.739 755.033 713.314 756.176 713.314C758.156 713.314 759.164 714.448 759.199 716.716V723H757.063V716.839C757.063 716.235 756.932 715.79 756.668 715.503C756.41 715.21 755.985 715.063 755.394 715.063C754.532 715.063 753.891 715.453 753.469 716.232V723H751.333V713.49H753.346ZM761.233 718.175C761.233 716.71 761.573 715.535 762.253 714.65C762.933 713.76 763.844 713.314 764.986 713.314C765.994 713.314 766.809 713.666 767.43 714.369V709.5H769.565V723H767.632L767.526 722.016C766.888 722.789 766.035 723.176 764.969 723.176C763.855 723.176 762.953 722.728 762.262 721.831C761.576 720.935 761.233 719.716 761.233 718.175ZM763.369 718.359C763.369 719.326 763.554 720.082 763.923 720.627C764.298 721.166 764.828 721.436 765.514 721.436C766.387 721.436 767.025 721.046 767.43 720.267V716.206C767.037 715.444 766.404 715.063 765.531 715.063C764.84 715.063 764.307 715.339 763.932 715.89C763.557 716.435 763.369 717.258 763.369 718.359ZM772.487 714L771.397 713.323C771.925 712.556 772.197 711.744 772.215 710.889V709.5H774.087V710.713C774.087 711.316 773.932 711.926 773.621 712.541C773.316 713.15 772.938 713.637 772.487 714ZM779.487 720.416C779.487 720.035 779.329 719.745 779.013 719.546C778.702 719.347 778.184 719.171 777.457 719.019C776.73 718.866 776.124 718.673 775.638 718.438C774.571 717.923 774.038 717.176 774.038 716.197C774.038 715.377 774.384 714.691 775.075 714.141C775.767 713.59 776.646 713.314 777.712 713.314C778.849 713.314 779.766 713.596 780.463 714.158C781.166 714.721 781.518 715.45 781.518 716.347H779.382C779.382 715.937 779.229 715.597 778.925 715.327C778.62 715.052 778.216 714.914 777.712 714.914C777.243 714.914 776.859 715.022 776.561 715.239C776.268 715.456 776.121 715.746 776.121 716.109C776.121 716.438 776.259 716.692 776.534 716.874C776.81 717.056 777.366 717.24 778.204 717.428C779.042 717.609 779.698 717.829 780.173 718.087C780.653 718.339 781.008 718.644 781.236 719.001C781.471 719.358 781.588 719.792 781.588 720.302C781.588 721.157 781.233 721.852 780.524 722.385C779.815 722.912 778.887 723.176 777.738 723.176C776.959 723.176 776.265 723.035 775.655 722.754C775.046 722.473 774.571 722.086 774.231 721.594C773.892 721.102 773.722 720.571 773.722 720.003H775.796C775.825 720.507 776.016 720.896 776.367 721.172C776.719 721.441 777.185 721.576 777.765 721.576C778.327 721.576 778.755 721.471 779.048 721.26C779.341 721.043 779.487 720.762 779.487 720.416ZM791.527 710.203L795.219 720.012L798.901 710.203H801.775V723H799.561V718.781L799.78 713.139L796.001 723H794.41L790.64 713.147L790.859 718.781V723H788.645V710.203H791.527ZM808.644 723.176C807.29 723.176 806.191 722.751 805.348 721.901C804.51 721.046 804.091 719.909 804.091 718.491V718.228C804.091 717.278 804.272 716.432 804.636 715.688C805.005 714.938 805.521 714.354 806.183 713.938C806.845 713.522 807.583 713.314 808.397 713.314C809.692 713.314 810.691 713.728 811.395 714.554C812.104 715.38 812.458 716.549 812.458 718.061V718.922H806.244C806.309 719.707 806.569 720.328 807.026 720.785C807.489 721.242 808.069 721.471 808.767 721.471C809.745 721.471 810.542 721.075 811.157 720.284L812.309 721.383C811.928 721.951 811.418 722.394 810.779 722.71C810.146 723.021 809.435 723.176 808.644 723.176ZM808.389 715.028C807.803 715.028 807.328 715.233 806.965 715.644C806.607 716.054 806.379 716.625 806.279 717.357H810.349V717.199C810.302 716.484 810.111 715.945 809.777 715.582C809.443 715.213 808.98 715.028 808.389 715.028ZM819.704 720.416C819.704 720.035 819.546 719.745 819.229 719.546C818.919 719.347 818.4 719.171 817.674 719.019C816.947 718.866 816.341 718.673 815.854 718.438C814.788 717.923 814.255 717.176 814.255 716.197C814.255 715.377 814.601 714.691 815.292 714.141C815.983 713.59 816.862 713.314 817.929 713.314C819.065 713.314 819.982 713.596 820.68 714.158C821.383 714.721 821.734 715.45 821.734 716.347H819.599C819.599 715.937 819.446 715.597 819.142 715.327C818.837 715.052 818.433 714.914 817.929 714.914C817.46 714.914 817.076 715.022 816.777 715.239C816.484 715.456 816.338 715.746 816.338 716.109C816.338 716.438 816.476 716.692 816.751 716.874C817.026 717.056 817.583 717.24 818.421 717.428C819.259 717.609 819.915 717.829 820.39 718.087C820.87 718.339 821.225 718.644 821.453 719.001C821.688 719.358 821.805 719.792 821.805 720.302C821.805 721.157 821.45 721.852 820.741 722.385C820.032 722.912 819.104 723.176 817.955 723.176C817.176 723.176 816.481 723.035 815.872 722.754C815.263 722.473 814.788 722.086 814.448 721.594C814.108 721.102 813.938 720.571 813.938 720.003H816.013C816.042 720.507 816.232 720.896 816.584 721.172C816.936 721.441 817.401 721.576 817.981 721.576C818.544 721.576 818.972 721.471 819.265 721.26C819.558 721.043 819.704 720.762 819.704 720.416ZM829.253 720.416C829.253 720.035 829.095 719.745 828.778 719.546C828.468 719.347 827.949 719.171 827.223 719.019C826.496 718.866 825.89 718.673 825.403 718.438C824.337 717.923 823.804 717.176 823.804 716.197C823.804 715.377 824.149 714.691 824.841 714.141C825.532 713.59 826.411 713.314 827.478 713.314C828.614 713.314 829.531 713.596 830.229 714.158C830.932 714.721 831.283 715.45 831.283 716.347H829.147C829.147 715.937 828.995 715.597 828.69 715.327C828.386 715.052 827.981 714.914 827.478 714.914C827.009 714.914 826.625 715.022 826.326 715.239C826.033 715.456 825.887 715.746 825.887 716.109C825.887 716.438 826.024 716.692 826.3 716.874C826.575 717.056 827.132 717.24 827.97 717.428C828.808 717.609 829.464 717.829 829.938 718.087C830.419 718.339 830.773 718.644 831.002 719.001C831.236 719.358 831.354 719.792 831.354 720.302C831.354 721.157 830.999 721.852 830.29 722.385C829.581 722.912 828.652 723.176 827.504 723.176C826.725 723.176 826.03 723.035 825.421 722.754C824.812 722.473 824.337 722.086 823.997 721.594C823.657 721.102 823.487 720.571 823.487 720.003H825.562C825.591 720.507 825.781 720.896 826.133 721.172C826.484 721.441 826.95 721.576 827.53 721.576C828.093 721.576 828.521 721.471 828.813 721.26C829.106 721.043 829.253 720.762 829.253 720.416ZM839.153 723C839.06 722.818 838.978 722.522 838.907 722.112C838.228 722.821 837.396 723.176 836.411 723.176C835.456 723.176 834.677 722.903 834.073 722.358C833.47 721.813 833.168 721.14 833.168 720.337C833.168 719.323 833.543 718.547 834.293 718.008C835.049 717.463 836.127 717.19 837.527 717.19H838.837V716.566C838.837 716.074 838.699 715.682 838.424 715.389C838.148 715.09 837.729 714.94 837.167 714.94C836.681 714.94 836.282 715.063 835.972 715.31C835.661 715.55 835.506 715.857 835.506 716.232H833.37C833.37 715.711 833.543 715.225 833.889 714.773C834.234 714.316 834.703 713.959 835.295 713.701C835.893 713.443 836.558 713.314 837.29 713.314C838.403 713.314 839.291 713.596 839.953 714.158C840.615 714.715 840.955 715.5 840.973 716.514V720.803C840.973 721.658 841.093 722.341 841.333 722.851V723H839.153ZM836.807 721.462C837.229 721.462 837.624 721.359 837.993 721.154C838.368 720.949 838.649 720.674 838.837 720.328V718.535H837.686C836.895 718.535 836.3 718.673 835.901 718.948C835.503 719.224 835.304 719.613 835.304 720.117C835.304 720.527 835.438 720.855 835.708 721.102C835.983 721.342 836.35 721.462 836.807 721.462ZM843.086 718.175C843.086 716.698 843.432 715.521 844.123 714.642C844.82 713.757 845.743 713.314 846.892 713.314C847.976 713.314 848.828 713.692 849.449 714.448L849.546 713.49H851.471V722.71C851.471 723.958 851.081 724.942 850.302 725.663C849.528 726.384 848.482 726.744 847.164 726.744C846.467 726.744 845.784 726.598 845.116 726.305C844.454 726.018 843.95 725.64 843.604 725.171L844.615 723.888C845.271 724.667 846.08 725.057 847.041 725.057C847.75 725.057 848.31 724.863 848.72 724.477C849.13 724.096 849.335 723.533 849.335 722.789V722.147C848.72 722.833 847.899 723.176 846.874 723.176C845.761 723.176 844.85 722.733 844.141 721.849C843.438 720.964 843.086 719.739 843.086 718.175ZM845.213 718.359C845.213 719.314 845.406 720.067 845.793 720.618C846.186 721.163 846.728 721.436 847.419 721.436C848.28 721.436 848.919 721.066 849.335 720.328V716.145C848.931 715.424 848.298 715.063 847.437 715.063C846.733 715.063 846.186 715.342 845.793 715.898C845.406 716.455 845.213 717.275 845.213 718.359ZM858.11 723.176C856.757 723.176 855.658 722.751 854.814 721.901C853.977 721.046 853.558 719.909 853.558 718.491V718.228C853.558 717.278 853.739 716.432 854.103 715.688C854.472 714.938 854.987 714.354 855.649 713.938C856.312 713.522 857.05 713.314 857.864 713.314C859.159 713.314 860.158 713.728 860.861 714.554C861.57 715.38 861.925 716.549 861.925 718.061V718.922H855.711C855.775 719.707 856.036 720.328 856.493 720.785C856.956 721.242 857.536 721.471 858.233 721.471C859.212 721.471 860.009 721.075 860.624 720.284L861.775 721.383C861.395 721.951 860.885 722.394 860.246 722.71C859.613 723.021 858.901 723.176 858.11 723.176ZM857.855 715.028C857.27 715.028 856.795 715.233 856.432 715.644C856.074 716.054 855.846 716.625 855.746 717.357H859.815V717.199C859.769 716.484 859.578 715.945 859.244 715.582C858.91 715.213 858.447 715.028 857.855 715.028Z" fill="black"/>
<rect x="328" y="98" width="344" height="926" rx="20" fill="white"/>
<path d="M454.601 136.77H447.734V144H444.769V126.938H455.609V129.328H447.734V134.402H454.601V136.77ZM464.173 133.922C463.798 133.859 463.411 133.828 463.013 133.828C461.708 133.828 460.829 134.328 460.376 135.328V144H457.528V131.32H460.247L460.317 132.738C461.005 131.637 461.958 131.086 463.177 131.086C463.583 131.086 463.919 131.141 464.184 131.25L464.173 133.922ZM469.151 144H466.303V131.32H469.151V144ZM466.127 128.027C466.127 127.59 466.264 127.227 466.538 126.938C466.819 126.648 467.217 126.504 467.733 126.504C468.248 126.504 468.647 126.648 468.928 126.938C469.209 127.227 469.35 127.59 469.35 128.027C469.35 128.457 469.209 128.816 468.928 129.105C468.647 129.387 468.248 129.527 467.733 129.527C467.217 129.527 466.819 129.387 466.538 129.105C466.264 128.816 466.127 128.457 466.127 128.027ZM477.996 144.234C476.191 144.234 474.727 143.668 473.602 142.535C472.484 141.395 471.926 139.879 471.926 137.988V137.637C471.926 136.371 472.168 135.242 472.652 134.25C473.145 133.25 473.832 132.473 474.715 131.918C475.598 131.363 476.582 131.086 477.668 131.086C479.395 131.086 480.727 131.637 481.664 132.738C482.609 133.84 483.082 135.398 483.082 137.414V138.562H474.797C474.883 139.609 475.23 140.438 475.84 141.047C476.457 141.656 477.23 141.961 478.16 141.961C479.465 141.961 480.527 141.434 481.348 140.379L482.883 141.844C482.375 142.602 481.695 143.191 480.844 143.613C480 144.027 479.051 144.234 477.996 144.234ZM477.656 133.371C476.875 133.371 476.242 133.645 475.758 134.191C475.281 134.738 474.977 135.5 474.844 136.477H480.27V136.266C480.207 135.312 479.953 134.594 479.508 134.109C479.062 133.617 478.445 133.371 477.656 133.371ZM488.095 131.32L488.177 132.785C489.115 131.652 490.345 131.086 491.869 131.086C494.509 131.086 495.853 132.598 495.9 135.621V144H493.052V135.785C493.052 134.98 492.877 134.387 492.525 134.004C492.181 133.613 491.615 133.418 490.826 133.418C489.677 133.418 488.822 133.938 488.259 134.977V144H485.412V131.32H488.095ZM498.429 137.566C498.429 135.613 498.882 134.047 499.788 132.867C500.695 131.68 501.909 131.086 503.433 131.086C504.777 131.086 505.863 131.555 506.691 132.492V126H509.538V144H506.96L506.82 142.688C505.968 143.719 504.831 144.234 503.409 144.234C501.925 144.234 500.722 143.637 499.8 142.441C498.886 141.246 498.429 139.621 498.429 137.566ZM501.277 137.812C501.277 139.102 501.523 140.109 502.015 140.836C502.515 141.555 503.222 141.914 504.136 141.914C505.3 141.914 506.152 141.395 506.691 140.355V134.941C506.167 133.926 505.323 133.418 504.159 133.418C503.238 133.418 502.527 133.785 502.027 134.52C501.527 135.246 501.277 136.344 501.277 137.812ZM519.766 140.555C519.766 140.047 519.555 139.66 519.134 139.395C518.72 139.129 518.028 138.895 517.059 138.691C516.091 138.488 515.282 138.23 514.634 137.918C513.212 137.23 512.501 136.234 512.501 134.93C512.501 133.836 512.962 132.922 513.884 132.188C514.805 131.453 515.977 131.086 517.399 131.086C518.915 131.086 520.138 131.461 521.067 132.211C522.005 132.961 522.473 133.934 522.473 135.129H519.626C519.626 134.582 519.423 134.129 519.016 133.77C518.61 133.402 518.071 133.219 517.399 133.219C516.774 133.219 516.263 133.363 515.864 133.652C515.473 133.941 515.278 134.328 515.278 134.812C515.278 135.25 515.462 135.59 515.829 135.832C516.196 136.074 516.938 136.32 518.055 136.57C519.173 136.812 520.048 137.105 520.68 137.449C521.321 137.785 521.794 138.191 522.098 138.668C522.411 139.145 522.567 139.723 522.567 140.402C522.567 141.543 522.095 142.469 521.149 143.18C520.204 143.883 518.966 144.234 517.434 144.234C516.395 144.234 515.47 144.047 514.657 143.672C513.845 143.297 513.212 142.781 512.759 142.125C512.305 141.469 512.079 140.762 512.079 140.004H514.845C514.884 140.676 515.138 141.195 515.606 141.562C516.075 141.922 516.696 142.102 517.47 142.102C518.22 142.102 518.79 141.961 519.18 141.68C519.571 141.391 519.766 141.016 519.766 140.555Z" fill="#212121"/>
<g filter="url(#filter1_d)">
<rect x="336" y="193" width="281" height="99" rx="8" fill="#F2F2F2"/>
<path d="M467.828 235.203V243.632C467.828 245.032 467.389 246.14 466.51 246.954C465.637 247.769 464.441 248.176 462.924 248.176C461.43 248.176 460.243 247.78 459.364 246.989C458.485 246.198 458.037 245.111 458.02 243.729V235.203H460.656V243.649C460.656 244.487 460.855 245.1 461.254 245.486C461.658 245.867 462.215 246.058 462.924 246.058C464.406 246.058 465.159 245.278 465.183 243.72V235.203H467.828ZM475.124 245.372C475.124 245.062 474.968 244.818 474.658 244.643C474.353 244.461 473.861 244.3 473.181 244.159C470.92 243.685 469.789 242.724 469.789 241.276C469.789 240.433 470.137 239.729 470.835 239.167C471.538 238.599 472.455 238.314 473.586 238.314C474.793 238.314 475.756 238.599 476.477 239.167C477.204 239.735 477.567 240.474 477.567 241.382H475.027C475.027 241.019 474.91 240.72 474.675 240.485C474.441 240.245 474.075 240.125 473.577 240.125C473.149 240.125 472.818 240.222 472.584 240.415C472.349 240.608 472.232 240.854 472.232 241.153C472.232 241.435 472.364 241.663 472.628 241.839C472.897 242.009 473.348 242.158 473.981 242.287C474.614 242.41 475.147 242.551 475.581 242.709C476.922 243.201 477.593 244.054 477.593 245.267C477.593 246.134 477.221 246.837 476.477 247.376C475.733 247.909 474.772 248.176 473.594 248.176C472.797 248.176 472.088 248.035 471.467 247.754C470.852 247.467 470.369 247.077 470.017 246.585C469.666 246.087 469.49 245.551 469.49 244.977H471.898C471.921 245.428 472.088 245.773 472.399 246.014C472.71 246.254 473.126 246.374 473.647 246.374C474.133 246.374 474.5 246.283 474.746 246.102C474.998 245.914 475.124 245.671 475.124 245.372ZM483.764 248.176C482.369 248.176 481.233 247.748 480.354 246.893C479.481 246.037 479.044 244.897 479.044 243.474V243.228C479.044 242.272 479.229 241.42 479.598 240.67C479.967 239.914 480.488 239.334 481.162 238.93C481.842 238.52 482.615 238.314 483.483 238.314C484.783 238.314 485.806 238.725 486.55 239.545C487.3 240.365 487.675 241.528 487.675 243.034V244.071H481.619C481.701 244.692 481.947 245.19 482.358 245.565C482.774 245.94 483.298 246.128 483.931 246.128C484.909 246.128 485.674 245.773 486.225 245.064L487.473 246.462C487.092 247.001 486.576 247.423 485.926 247.728C485.276 248.026 484.555 248.176 483.764 248.176ZM483.474 240.371C482.97 240.371 482.56 240.541 482.243 240.881C481.933 241.221 481.734 241.707 481.646 242.34H485.179V242.138C485.167 241.575 485.015 241.142 484.722 240.837C484.429 240.526 484.013 240.371 483.474 240.371ZM494.619 240.872C494.273 240.825 493.969 240.802 493.705 240.802C492.744 240.802 492.114 241.127 491.815 241.777V248H489.275V238.49H491.675L491.745 239.624C492.255 238.751 492.961 238.314 493.863 238.314C494.144 238.314 494.408 238.353 494.654 238.429L494.619 240.872ZM498.337 238.49L498.416 239.589C499.096 238.739 500.007 238.314 501.15 238.314C502.158 238.314 502.908 238.61 503.4 239.202C503.892 239.794 504.144 240.679 504.156 241.856V248H501.616V241.918C501.616 241.379 501.498 240.989 501.264 240.749C501.03 240.503 500.64 240.38 500.095 240.38C499.38 240.38 498.844 240.685 498.487 241.294V248H495.947V238.49H498.337ZM511.75 248C511.633 247.771 511.548 247.487 511.495 247.147C510.88 247.833 510.08 248.176 509.096 248.176C508.164 248.176 507.391 247.906 506.775 247.367C506.166 246.828 505.861 246.148 505.861 245.328C505.861 244.32 506.233 243.547 506.978 243.008C507.728 242.469 508.809 242.196 510.221 242.19H511.39V241.646C511.39 241.206 511.275 240.854 511.047 240.591C510.824 240.327 510.47 240.195 509.983 240.195C509.556 240.195 509.219 240.298 508.973 240.503C508.732 240.708 508.612 240.989 508.612 241.347H506.072C506.072 240.796 506.242 240.286 506.582 239.817C506.922 239.349 507.402 238.982 508.023 238.719C508.645 238.449 509.342 238.314 510.115 238.314C511.287 238.314 512.216 238.61 512.901 239.202C513.593 239.788 513.938 240.614 513.938 241.681V245.803C513.944 246.705 514.07 247.388 514.316 247.851V248H511.75ZM509.649 246.233C510.024 246.233 510.37 246.151 510.687 245.987C511.003 245.817 511.237 245.592 511.39 245.311V243.676H510.44C509.169 243.676 508.492 244.115 508.41 244.994L508.401 245.144C508.401 245.46 508.513 245.721 508.735 245.926C508.958 246.131 509.263 246.233 509.649 246.233ZM518.421 238.49L518.501 239.554C519.174 238.728 520.086 238.314 521.234 238.314C522.459 238.314 523.299 238.798 523.756 239.765C524.424 238.798 525.377 238.314 526.613 238.314C527.644 238.314 528.412 238.616 528.916 239.22C529.42 239.817 529.671 240.72 529.671 241.927V248H527.123V241.936C527.123 241.396 527.017 241.004 526.806 240.758C526.595 240.506 526.223 240.38 525.69 240.38C524.928 240.38 524.401 240.743 524.108 241.47L524.117 248H521.577V241.944C521.577 241.394 521.468 240.995 521.252 240.749C521.035 240.503 520.666 240.38 520.144 240.38C519.423 240.38 518.902 240.679 518.58 241.276V248H516.04V238.49H518.421ZM536.158 248.176C534.764 248.176 533.627 247.748 532.748 246.893C531.875 246.037 531.439 244.897 531.439 243.474V243.228C531.439 242.272 531.623 241.42 531.992 240.67C532.362 239.914 532.883 239.334 533.557 238.93C534.237 238.52 535.01 238.314 535.877 238.314C537.178 238.314 538.2 238.725 538.945 239.545C539.695 240.365 540.07 241.528 540.07 243.034V244.071H534.014C534.096 244.692 534.342 245.19 534.752 245.565C535.168 245.94 535.693 246.128 536.325 246.128C537.304 246.128 538.069 245.773 538.619 245.064L539.867 246.462C539.487 247.001 538.971 247.423 538.321 247.728C537.67 248.026 536.949 248.176 536.158 248.176ZM535.868 240.371C535.364 240.371 534.954 240.541 534.638 240.881C534.327 241.221 534.128 241.707 534.04 242.34H537.573V242.138C537.562 241.575 537.409 241.142 537.116 240.837C536.823 240.526 536.407 240.371 535.868 240.371Z" fill="black"/>
<path fill-rule="evenodd" clip-rule="evenodd" d="M385 271C401.016 271 414 258.016 414 242C414 225.984 401.016 213 385 213C368.984 213 356 225.984 356 242C356 258.016 368.984 271 385 271ZM384.71 242.58C389.995 242.58 394.28 238.295 394.28 233.01C394.28 227.725 389.995 223.44 384.71 223.44C379.425 223.44 375.14 227.725 375.14 233.01C375.14 238.295 379.425 242.58 384.71 242.58ZM365.86 259.98V254.18C367.213 251.28 372.878 245.48 384.71 245.48C399.5 245.48 403.85 252.73 404.14 253.6C404.372 254.296 404.237 258.143 404.14 259.98H365.86Z" fill="#6D48FF"/>
</g>
<g filter="url(#filter2_d)">
<rect x="336" y="333" width="281" height="99" rx="8" fill="#F2F2F2"/>
<path d="M467.828 375.203V383.632C467.828 385.032 467.389 386.14 466.51 386.954C465.637 387.769 464.441 388.176 462.924 388.176C461.43 388.176 460.243 387.78 459.364 386.989C458.485 386.198 458.037 385.111 458.02 383.729V375.203H460.656V383.649C460.656 384.487 460.855 385.1 461.254 385.486C461.658 385.867 462.215 386.058 462.924 386.058C464.406 386.058 465.159 385.278 465.183 383.72V375.203H467.828ZM475.124 385.372C475.124 385.062 474.968 384.818 474.658 384.643C474.353 384.461 473.861 384.3 473.181 384.159C470.92 383.685 469.789 382.724 469.789 381.276C469.789 380.433 470.137 379.729 470.835 379.167C471.538 378.599 472.455 378.314 473.586 378.314C474.793 378.314 475.756 378.599 476.477 379.167C477.204 379.735 477.567 380.474 477.567 381.382H475.027C475.027 381.019 474.91 380.72 474.675 380.485C474.441 380.245 474.075 380.125 473.577 380.125C473.149 380.125 472.818 380.222 472.584 380.415C472.349 380.608 472.232 380.854 472.232 381.153C472.232 381.435 472.364 381.663 472.628 381.839C472.897 382.009 473.348 382.158 473.981 382.287C474.614 382.41 475.147 382.551 475.581 382.709C476.922 383.201 477.593 384.054 477.593 385.267C477.593 386.134 477.221 386.837 476.477 387.376C475.733 387.909 474.772 388.176 473.594 388.176C472.797 388.176 472.088 388.035 471.467 387.754C470.852 387.467 470.369 387.077 470.017 386.585C469.666 386.087 469.49 385.551 469.49 384.977H471.898C471.921 385.428 472.088 385.773 472.399 386.014C472.71 386.254 473.126 386.374 473.647 386.374C474.133 386.374 474.5 386.283 474.746 386.102C474.998 385.914 475.124 385.671 475.124 385.372ZM483.764 388.176C482.369 388.176 481.233 387.748 480.354 386.893C479.481 386.037 479.044 384.897 479.044 383.474V383.228C479.044 382.272 479.229 381.42 479.598 380.67C479.967 379.914 480.488 379.334 481.162 378.93C481.842 378.52 482.615 378.314 483.483 378.314C484.783 378.314 485.806 378.725 486.55 379.545C487.3 380.365 487.675 381.528 487.675 383.034V384.071H481.619C481.701 384.692 481.947 385.19 482.358 385.565C482.774 385.94 483.298 386.128 483.931 386.128C484.909 386.128 485.674 385.773 486.225 385.064L487.473 386.462C487.092 387.001 486.576 387.423 485.926 387.728C485.276 388.026 484.555 388.176 483.764 388.176ZM483.474 380.371C482.97 380.371 482.56 380.541 482.243 380.881C481.933 381.221 481.734 381.707 481.646 382.34H485.179V382.138C485.167 381.575 485.015 381.142 484.722 380.837C484.429 380.526 484.013 380.371 483.474 380.371ZM494.619 380.872C494.273 380.825 493.969 380.802 493.705 380.802C492.744 380.802 492.114 381.127 491.815 381.777V388H489.275V378.49H491.675L491.745 379.624C492.255 378.751 492.961 378.314 493.863 378.314C494.144 378.314 494.408 378.353 494.654 378.429L494.619 380.872ZM498.337 378.49L498.416 379.589C499.096 378.739 500.007 378.314 501.15 378.314C502.158 378.314 502.908 378.61 503.4 379.202C503.892 379.794 504.144 380.679 504.156 381.856V388H501.616V381.918C501.616 381.379 501.498 380.989 501.264 380.749C501.03 380.503 500.64 380.38 500.095 380.38C499.38 380.38 498.844 380.685 498.487 381.294V388H495.947V378.49H498.337ZM511.75 388C511.633 387.771 511.548 387.487 511.495 387.147C510.88 387.833 510.08 388.176 509.096 388.176C508.164 388.176 507.391 387.906 506.775 387.367C506.166 386.828 505.861 386.148 505.861 385.328C505.861 384.32 506.233 383.547 506.978 383.008C507.728 382.469 508.809 382.196 510.221 382.19H511.39V381.646C511.39 381.206 511.275 380.854 511.047 380.591C510.824 380.327 510.47 380.195 509.983 380.195C509.556 380.195 509.219 380.298 508.973 380.503C508.732 380.708 508.612 380.989 508.612 381.347H506.072C506.072 380.796 506.242 380.286 506.582 379.817C506.922 379.349 507.402 378.982 508.023 378.719C508.645 378.449 509.342 378.314 510.115 378.314C511.287 378.314 512.216 378.61 512.901 379.202C513.593 379.788 513.938 380.614 513.938 381.681V385.803C513.944 386.705 514.07 387.388 514.316 387.851V388H511.75ZM509.649 386.233C510.024 386.233 510.37 386.151 510.687 385.987C511.003 385.817 511.237 385.592 511.39 385.311V383.676H510.44C509.169 383.676 508.492 384.115 508.41 384.994L508.401 385.144C508.401 385.46 508.513 385.721 508.735 385.926C508.958 386.131 509.263 386.233 509.649 386.233ZM518.421 378.49L518.501 379.554C519.174 378.728 520.086 378.314 521.234 378.314C522.459 378.314 523.299 378.798 523.756 379.765C524.424 378.798 525.377 378.314 526.613 378.314C527.644 378.314 528.412 378.616 528.916 379.22C529.42 379.817 529.671 380.72 529.671 381.927V388H527.123V381.936C527.123 381.396 527.017 381.004 526.806 380.758C526.595 380.506 526.223 380.38 525.69 380.38C524.928 380.38 524.401 380.743 524.108 381.47L524.117 388H521.577V381.944C521.577 381.394 521.468 380.995 521.252 380.749C521.035 380.503 520.666 380.38 520.144 380.38C519.423 380.38 518.902 380.679 518.58 381.276V388H516.04V378.49H518.421ZM536.158 388.176C534.764 388.176 533.627 387.748 532.748 386.893C531.875 386.037 531.439 384.897 531.439 383.474V383.228C531.439 382.272 531.623 381.42 531.992 380.67C532.362 379.914 532.883 379.334 533.557 378.93C534.237 378.52 535.01 378.314 535.877 378.314C537.178 378.314 538.2 378.725 538.945 379.545C539.695 380.365 540.07 381.528 540.07 383.034V384.071H534.014C534.096 384.692 534.342 385.19 534.752 385.565C535.168 385.94 535.693 386.128 536.325 386.128C537.304 386.128 538.069 385.773 538.619 385.064L539.867 386.462C539.487 387.001 538.971 387.423 538.321 387.728C537.67 388.026 536.949 388.176 536.158 388.176ZM535.868 380.371C535.364 380.371 534.954 380.541 534.638 380.881C534.327 381.221 534.128 381.707 534.04 382.34H537.573V382.138C537.562 381.575 537.409 381.142 537.116 380.837C536.823 380.526 536.407 380.371 535.868 380.371Z" fill="black"/>
<path fill-rule="evenodd" clip-rule="evenodd" d="M385 411C401.016 411 414 398.016 414 382C414 365.984 401.016 353 385 353C368.984 353 356 365.984 356 382C356 398.016 368.984 411 385 411ZM384.71 382.58C389.995 382.58 394.28 378.295 394.28 373.01C394.28 367.725 389.995 363.44 384.71 363.44C379.425 363.44 375.14 367.725 375.14 373.01C375.14 378.295 379.425 382.58 384.71 382.58ZM365.86 399.98V394.18C367.213 391.28 372.878 385.48 384.71 385.48C399.5 385.48 403.85 392.73 404.14 393.6C404.372 394.296 404.237 398.143 404.14 399.98H365.86Z" fill="#6D48FF"/>
</g>
<g filter="url(#filter3_d)">
<rect x="336" y="473" width="281" height="99" rx="8" fill="#F2F2F2"/>
<path d="M467.828 515.203V523.632C467.828 525.032 467.389 526.14 466.51 526.954C465.637 527.769 464.441 528.176 462.924 528.176C461.43 528.176 460.243 527.78 459.364 526.989C458.485 526.198 458.037 525.111 458.02 523.729V515.203H460.656V523.649C460.656 524.487 460.855 525.1 461.254 525.486C461.658 525.867 462.215 526.058 462.924 526.058C464.406 526.058 465.159 525.278 465.183 523.72V515.203H467.828ZM475.124 525.372C475.124 525.062 474.968 524.818 474.658 524.643C474.353 524.461 473.861 524.3 473.181 524.159C470.92 523.685 469.789 522.724 469.789 521.276C469.789 520.433 470.137 519.729 470.835 519.167C471.538 518.599 472.455 518.314 473.586 518.314C474.793 518.314 475.756 518.599 476.477 519.167C477.204 519.735 477.567 520.474 477.567 521.382H475.027C475.027 521.019 474.91 520.72 474.675 520.485C474.441 520.245 474.075 520.125 473.577 520.125C473.149 520.125 472.818 520.222 472.584 520.415C472.349 520.608 472.232 520.854 472.232 521.153C472.232 521.435 472.364 521.663 472.628 521.839C472.897 522.009 473.348 522.158 473.981 522.287C474.614 522.41 475.147 522.551 475.581 522.709C476.922 523.201 477.593 524.054 477.593 525.267C477.593 526.134 477.221 526.837 476.477 527.376C475.733 527.909 474.772 528.176 473.594 528.176C472.797 528.176 472.088 528.035 471.467 527.754C470.852 527.467 470.369 527.077 470.017 526.585C469.666 526.087 469.49 525.551 469.49 524.977H471.898C471.921 525.428 472.088 525.773 472.399 526.014C472.71 526.254 473.126 526.374 473.647 526.374C474.133 526.374 474.5 526.283 474.746 526.102C474.998 525.914 475.124 525.671 475.124 525.372ZM483.764 528.176C482.369 528.176 481.233 527.748 480.354 526.893C479.481 526.037 479.044 524.897 479.044 523.474V523.228C479.044 522.272 479.229 521.42 479.598 520.67C479.967 519.914 480.488 519.334 481.162 518.93C481.842 518.52 482.615 518.314 483.483 518.314C484.783 518.314 485.806 518.725 486.55 519.545C487.3 520.365 487.675 521.528 487.675 523.034V524.071H481.619C481.701 524.692 481.947 525.19 482.358 525.565C482.774 525.94 483.298 526.128 483.931 526.128C484.909 526.128 485.674 525.773 486.225 525.064L487.473 526.462C487.092 527.001 486.576 527.423 485.926 527.728C485.276 528.026 484.555 528.176 483.764 528.176ZM483.474 520.371C482.97 520.371 482.56 520.541 482.243 520.881C481.933 521.221 481.734 521.707 481.646 522.34H485.179V522.138C485.167 521.575 485.015 521.142 484.722 520.837C484.429 520.526 484.013 520.371 483.474 520.371ZM494.619 520.872C494.273 520.825 493.969 520.802 493.705 520.802C492.744 520.802 492.114 521.127 491.815 521.777V528H489.275V518.49H491.675L491.745 519.624C492.255 518.751 492.961 518.314 493.863 518.314C494.144 518.314 494.408 518.353 494.654 518.429L494.619 520.872ZM498.337 518.49L498.416 519.589C499.096 518.739 500.007 518.314 501.15 518.314C502.158 518.314 502.908 518.61 503.4 519.202C503.892 519.794 504.144 520.679 504.156 521.856V528H501.616V521.918C501.616 521.379 501.498 520.989 501.264 520.749C501.03 520.503 500.64 520.38 500.095 520.38C499.38 520.38 498.844 520.685 498.487 521.294V528H495.947V518.49H498.337ZM511.75 528C511.633 527.771 511.548 527.487 511.495 527.147C510.88 527.833 510.08 528.176 509.096 528.176C508.164 528.176 507.391 527.906 506.775 527.367C506.166 526.828 505.861 526.148 505.861 525.328C505.861 524.32 506.233 523.547 506.978 523.008C507.728 522.469 508.809 522.196 510.221 522.19H511.39V521.646C511.39 521.206 511.275 520.854 511.047 520.591C510.824 520.327 510.47 520.195 509.983 520.195C509.556 520.195 509.219 520.298 508.973 520.503C508.732 520.708 508.612 520.989 508.612 521.347H506.072C506.072 520.796 506.242 520.286 506.582 519.817C506.922 519.349 507.402 518.982 508.023 518.719C508.645 518.449 509.342 518.314 510.115 518.314C511.287 518.314 512.216 518.61 512.901 519.202C513.593 519.788 513.938 520.614 513.938 521.681V525.803C513.944 526.705 514.07 527.388 514.316 527.851V528H511.75ZM509.649 526.233C510.024 526.233 510.37 526.151 510.687 525.987C511.003 525.817 511.237 525.592 511.39 525.311V523.676H510.44C509.169 523.676 508.492 524.115 508.41 524.994L508.401 525.144C508.401 525.46 508.513 525.721 508.735 525.926C508.958 526.131 509.263 526.233 509.649 526.233ZM518.421 518.49L518.501 519.554C519.174 518.728 520.086 518.314 521.234 518.314C522.459 518.314 523.299 518.798 523.756 519.765C524.424 518.798 525.377 518.314 526.613 518.314C527.644 518.314 528.412 518.616 528.916 519.22C529.42 519.817 529.671 520.72 529.671 521.927V528H527.123V521.936C527.123 521.396 527.017 521.004 526.806 520.758C526.595 520.506 526.223 520.38 525.69 520.38C524.928 520.38 524.401 520.743 524.108 521.47L524.117 528H521.577V521.944C521.577 521.394 521.468 520.995 521.252 520.749C521.035 520.503 520.666 520.38 520.144 520.38C519.423 520.38 518.902 520.679 518.58 521.276V528H516.04V518.49H518.421ZM536.158 528.176C534.764 528.176 533.627 527.748 532.748 526.893C531.875 526.037 531.439 524.897 531.439 523.474V523.228C531.439 522.272 531.623 521.42 531.992 520.67C532.362 519.914 532.883 519.334 533.557 518.93C534.237 518.52 535.01 518.314 535.877 518.314C537.178 518.314 538.2 518.725 538.945 519.545C539.695 520.365 540.07 521.528 540.07 523.034V524.071H534.014C534.096 524.692 534.342 525.19 534.752 525.565C535.168 525.94 535.693 526.128 536.325 526.128C537.304 526.128 538.069 525.773 538.619 525.064L539.867 526.462C539.487 527.001 538.971 527.423 538.321 527.728C537.67 528.026 536.949 528.176 536.158 528.176ZM535.868 520.371C535.364 520.371 534.954 520.541 534.638 520.881C534.327 521.221 534.128 521.707 534.04 522.34H537.573V522.138C537.562 521.575 537.409 521.142 537.116 520.837C536.823 520.526 536.407 520.371 535.868 520.371Z" fill="black"/>
<path fill-rule="evenodd" clip-rule="evenodd" d="M385 551C401.016 551 414 538.016 414 522C414 505.984 401.016 493 385 493C368.984 493 356 505.984 356 522C356 538.016 368.984 551 385 551ZM384.71 522.58C389.995 522.58 394.28 518.295 394.28 513.01C394.28 507.725 389.995 503.44 384.71 503.44C379.425 503.44 375.14 507.725 375.14 513.01C375.14 518.295 379.425 522.58 384.71 522.58ZM365.86 539.98V534.18C367.213 531.28 372.878 525.48 384.71 525.48C399.5 525.48 403.85 532.73 404.14 533.6C404.372 534.296 404.237 538.143 404.14 539.98H365.86Z" fill="#6D48FF"/>
</g>
<g filter="url(#filter4_d)">
<rect x="336" y="613" width="281" height="99" rx="8" fill="#F2F2F2"/>
<path d="M467.828 655.203V663.632C467.828 665.032 467.389 666.14 466.51 666.954C465.637 667.769 464.441 668.176 462.924 668.176C461.43 668.176 460.243 667.78 459.364 666.989C458.485 666.198 458.037 665.111 458.02 663.729V655.203H460.656V663.649C460.656 664.487 460.855 665.1 461.254 665.486C461.658 665.867 462.215 666.058 462.924 666.058C464.406 666.058 465.159 665.278 465.183 663.72V655.203H467.828ZM475.124 665.372C475.124 665.062 474.968 664.818 474.658 664.643C474.353 664.461 473.861 664.3 473.181 664.159C470.92 663.685 469.789 662.724 469.789 661.276C469.789 660.433 470.137 659.729 470.835 659.167C471.538 658.599 472.455 658.314 473.586 658.314C474.793 658.314 475.756 658.599 476.477 659.167C477.204 659.735 477.567 660.474 477.567 661.382H475.027C475.027 661.019 474.91 660.72 474.675 660.485C474.441 660.245 474.075 660.125 473.577 660.125C473.149 660.125 472.818 660.222 472.584 660.415C472.349 660.608 472.232 660.854 472.232 661.153C472.232 661.435 472.364 661.663 472.628 661.839C472.897 662.009 473.348 662.158 473.981 662.287C474.614 662.41 475.147 662.551 475.581 662.709C476.922 663.201 477.593 664.054 477.593 665.267C477.593 666.134 477.221 666.837 476.477 667.376C475.733 667.909 474.772 668.176 473.594 668.176C472.797 668.176 472.088 668.035 471.467 667.754C470.852 667.467 470.369 667.077 470.017 666.585C469.666 666.087 469.49 665.551 469.49 664.977H471.898C471.921 665.428 472.088 665.773 472.399 666.014C472.71 666.254 473.126 666.374 473.647 666.374C474.133 666.374 474.5 666.283 474.746 666.102C474.998 665.914 475.124 665.671 475.124 665.372ZM483.764 668.176C482.369 668.176 481.233 667.748 480.354 666.893C479.481 666.037 479.044 664.897 479.044 663.474V663.228C479.044 662.272 479.229 661.42 479.598 660.67C479.967 659.914 480.488 659.334 481.162 658.93C481.842 658.52 482.615 658.314 483.483 658.314C484.783 658.314 485.806 658.725 486.55 659.545C487.3 660.365 487.675 661.528 487.675 663.034V664.071H481.619C481.701 664.692 481.947 665.19 482.358 665.565C482.774 665.94 483.298 666.128 483.931 666.128C484.909 666.128 485.674 665.773 486.225 665.064L487.473 666.462C487.092 667.001 486.576 667.423 485.926 667.728C485.276 668.026 484.555 668.176 483.764 668.176ZM483.474 660.371C482.97 660.371 482.56 660.541 482.243 660.881C481.933 661.221 481.734 661.707 481.646 662.34H485.179V662.138C485.167 661.575 485.015 661.142 484.722 660.837C484.429 660.526 484.013 660.371 483.474 660.371ZM494.619 660.872C494.273 660.825 493.969 660.802 493.705 660.802C492.744 660.802 492.114 661.127 491.815 661.777V668H489.275V658.49H491.675L491.745 659.624C492.255 658.751 492.961 658.314 493.863 658.314C494.144 658.314 494.408 658.353 494.654 658.429L494.619 660.872ZM498.337 658.49L498.416 659.589C499.096 658.739 500.007 658.314 501.15 658.314C502.158 658.314 502.908 658.61 503.4 659.202C503.892 659.794 504.144 660.679 504.156 661.856V668H501.616V661.918C501.616 661.379 501.498 660.989 501.264 660.749C501.03 660.503 500.64 660.38 500.095 660.38C499.38 660.38 498.844 660.685 498.487 661.294V668H495.947V658.49H498.337ZM511.75 668C511.633 667.771 511.548 667.487 511.495 667.147C510.88 667.833 510.08 668.176 509.096 668.176C508.164 668.176 507.391 667.906 506.775 667.367C506.166 666.828 505.861 666.148 505.861 665.328C505.861 664.32 506.233 663.547 506.978 663.008C507.728 662.469 508.809 662.196 510.221 662.19H511.39V661.646C511.39 661.206 511.275 660.854 511.047 660.591C510.824 660.327 510.47 660.195 509.983 660.195C509.556 660.195 509.219 660.298 508.973 660.503C508.732 660.708 508.612 660.989 508.612 661.347H506.072C506.072 660.796 506.242 660.286 506.582 659.817C506.922 659.349 507.402 658.982 508.023 658.719C508.645 658.449 509.342 658.314 510.115 658.314C511.287 658.314 512.216 658.61 512.901 659.202C513.593 659.788 513.938 660.614 513.938 661.681V665.803C513.944 666.705 514.07 667.388 514.316 667.851V668H511.75ZM509.649 666.233C510.024 666.233 510.37 666.151 510.687 665.987C511.003 665.817 511.237 665.592 511.39 665.311V663.676H510.44C509.169 663.676 508.492 664.115 508.41 664.994L508.401 665.144C508.401 665.46 508.513 665.721 508.735 665.926C508.958 666.131 509.263 666.233 509.649 666.233ZM518.421 658.49L518.501 659.554C519.174 658.728 520.086 658.314 521.234 658.314C522.459 658.314 523.299 658.798 523.756 659.765C524.424 658.798 525.377 658.314 526.613 658.314C527.644 658.314 528.412 658.616 528.916 659.22C529.42 659.817 529.671 660.72 529.671 661.927V668H527.123V661.936C527.123 661.396 527.017 661.004 526.806 660.758C526.595 660.506 526.223 660.38 525.69 660.38C524.928 660.38 524.401 660.743 524.108 661.47L524.117 668H521.577V661.944C521.577 661.394 521.468 660.995 521.252 660.749C521.035 660.503 520.666 660.38 520.144 660.38C519.423 660.38 518.902 660.679 518.58 661.276V668H516.04V658.49H518.421ZM536.158 668.176C534.764 668.176 533.627 667.748 532.748 666.893C531.875 666.037 531.439 664.897 531.439 663.474V663.228C531.439 662.272 531.623 661.42 531.992 660.67C532.362 659.914 532.883 659.334 533.557 658.93C534.237 658.52 535.01 658.314 535.877 658.314C537.178 658.314 538.2 658.725 538.945 659.545C539.695 660.365 540.07 661.528 540.07 663.034V664.071H534.014C534.096 664.692 534.342 665.19 534.752 665.565C535.168 665.94 535.693 666.128 536.325 666.128C537.304 666.128 538.069 665.773 538.619 665.064L539.867 666.462C539.487 667.001 538.971 667.423 538.321 667.728C537.67 668.026 536.949 668.176 536.158 668.176ZM535.868 660.371C535.364 660.371 534.954 660.541 534.638 660.881C534.327 661.221 534.128 661.707 534.04 662.34H537.573V662.138C537.562 661.575 537.409 661.142 537.116 660.837C536.823 660.526 536.407 660.371 535.868 660.371Z" fill="black"/>
<path fill-rule="evenodd" clip-rule="evenodd" d="M385 691C401.016 691 414 678.016 414 662C414 645.984 401.016 633 385 633C368.984 633 356 645.984 356 662C356 678.016 368.984 691 385 691ZM384.71 662.58C389.995 662.58 394.28 658.295 394.28 653.01C394.28 647.725 389.995 643.44 384.71 643.44C379.425 643.44 375.14 647.725 375.14 653.01C375.14 658.295 379.425 662.58 384.71 662.58ZM365.86 679.98V674.18C367.213 671.28 372.878 665.48 384.71 665.48C399.5 665.48 403.85 672.73 404.14 673.6C404.372 674.296 404.237 678.143 404.14 679.98H365.86Z" fill="#6D48FF"/>
</g>
<g filter="url(#filter5_d)">
<rect x="336" y="753" width="281" height="99" rx="8" fill="#F2F2F2"/>
<path d="M467.828 795.203V803.632C467.828 805.032 467.389 806.14 466.51 806.954C465.637 807.769 464.441 808.176 462.924 808.176C461.43 808.176 460.243 807.78 459.364 806.989C458.485 806.198 458.037 805.111 458.02 803.729V795.203H460.656V803.649C460.656 804.487 460.855 805.1 461.254 805.486C461.658 805.867 462.215 806.058 462.924 806.058C464.406 806.058 465.159 805.278 465.183 803.72V795.203H467.828ZM475.124 805.372C475.124 805.062 474.968 804.818 474.658 804.643C474.353 804.461 473.861 804.3 473.181 804.159C470.92 803.685 469.789 802.724 469.789 801.276C469.789 800.433 470.137 799.729 470.835 799.167C471.538 798.599 472.455 798.314 473.586 798.314C474.793 798.314 475.756 798.599 476.477 799.167C477.204 799.735 477.567 800.474 477.567 801.382H475.027C475.027 801.019 474.91 800.72 474.675 800.485C474.441 800.245 474.075 800.125 473.577 800.125C473.149 800.125 472.818 800.222 472.584 800.415C472.349 800.608 472.232 800.854 472.232 801.153C472.232 801.435 472.364 801.663 472.628 801.839C472.897 802.009 473.348 802.158 473.981 802.287C474.614 802.41 475.147 802.551 475.581 802.709C476.922 803.201 477.593 804.054 477.593 805.267C477.593 806.134 477.221 806.837 476.477 807.376C475.733 807.909 474.772 808.176 473.594 808.176C472.797 808.176 472.088 808.035 471.467 807.754C470.852 807.467 470.369 807.077 470.017 806.585C469.666 806.087 469.49 805.551 469.49 804.977H471.898C471.921 805.428 472.088 805.773 472.399 806.014C472.71 806.254 473.126 806.374 473.647 806.374C474.133 806.374 474.5 806.283 474.746 806.102C474.998 805.914 475.124 805.671 475.124 805.372ZM483.764 808.176C482.369 808.176 481.233 807.748 480.354 806.893C479.481 806.037 479.044 804.897 479.044 803.474V803.228C479.044 802.272 479.229 801.42 479.598 800.67C479.967 799.914 480.488 799.334 481.162 798.93C481.842 798.52 482.615 798.314 483.483 798.314C484.783 798.314 485.806 798.725 486.55 799.545C487.3 800.365 487.675 801.528 487.675 803.034V804.071H481.619C481.701 804.692 481.947 805.19 482.358 805.565C482.774 805.94 483.298 806.128 483.931 806.128C484.909 806.128 485.674 805.773 486.225 805.064L487.473 806.462C487.092 807.001 486.576 807.423 485.926 807.728C485.276 808.026 484.555 808.176 483.764 808.176ZM483.474 800.371C482.97 800.371 482.56 800.541 482.243 800.881C481.933 801.221 481.734 801.707 481.646 802.34H485.179V802.138C485.167 801.575 485.015 801.142 484.722 800.837C484.429 800.526 484.013 800.371 483.474 800.371ZM494.619 800.872C494.273 800.825 493.969 800.802 493.705 800.802C492.744 800.802 492.114 801.127 491.815 801.777V808H489.275V798.49H491.675L491.745 799.624C492.255 798.751 492.961 798.314 493.863 798.314C494.144 798.314 494.408 798.353 494.654 798.429L494.619 800.872ZM498.337 798.49L498.416 799.589C499.096 798.739 500.007 798.314 501.15 798.314C502.158 798.314 502.908 798.61 503.4 799.202C503.892 799.794 504.144 800.679 504.156 801.856V808H501.616V801.918C501.616 801.379 501.498 800.989 501.264 800.749C501.03 800.503 500.64 800.38 500.095 800.38C499.38 800.38 498.844 800.685 498.487 801.294V808H495.947V798.49H498.337ZM511.75 808C511.633 807.771 511.548 807.487 511.495 807.147C510.88 807.833 510.08 808.176 509.096 808.176C508.164 808.176 507.391 807.906 506.775 807.367C506.166 806.828 505.861 806.148 505.861 805.328C505.861 804.32 506.233 803.547 506.978 803.008C507.728 802.469 508.809 802.196 510.221 802.19H511.39V801.646C511.39 801.206 511.275 800.854 511.047 800.591C510.824 800.327 510.47 800.195 509.983 800.195C509.556 800.195 509.219 800.298 508.973 800.503C508.732 800.708 508.612 800.989 508.612 801.347H506.072C506.072 800.796 506.242 800.286 506.582 799.817C506.922 799.349 507.402 798.982 508.023 798.719C508.645 798.449 509.342 798.314 510.115 798.314C511.287 798.314 512.216 798.61 512.901 799.202C513.593 799.788 513.938 800.614 513.938 801.681V805.803C513.944 806.705 514.07 807.388 514.316 807.851V808H511.75ZM509.649 806.233C510.024 806.233 510.37 806.151 510.687 805.987C511.003 805.817 511.237 805.592 511.39 805.311V803.676H510.44C509.169 803.676 508.492 804.115 508.41 804.994L508.401 805.144C508.401 805.46 508.513 805.721 508.735 805.926C508.958 806.131 509.263 806.233 509.649 806.233ZM518.421 798.49L518.501 799.554C519.174 798.728 520.086 798.314 521.234 798.314C522.459 798.314 523.299 798.798 523.756 799.765C524.424 798.798 525.377 798.314 526.613 798.314C527.644 798.314 528.412 798.616 528.916 799.22C529.42 799.817 529.671 800.72 529.671 801.927V808H527.123V801.936C527.123 801.396 527.017 801.004 526.806 800.758C526.595 800.506 526.223 800.38 525.69 800.38C524.928 800.38 524.401 800.743 524.108 801.47L524.117 808H521.577V801.944C521.577 801.394 521.468 800.995 521.252 800.749C521.035 800.503 520.666 800.38 520.144 800.38C519.423 800.38 518.902 800.679 518.58 801.276V808H516.04V798.49H518.421ZM536.158 808.176C534.764 808.176 533.627 807.748 532.748 806.893C531.875 806.037 531.439 804.897 531.439 803.474V803.228C531.439 802.272 531.623 801.42 531.992 800.67C532.362 799.914 532.883 799.334 533.557 798.93C534.237 798.52 535.01 798.314 535.877 798.314C537.178 798.314 538.2 798.725 538.945 799.545C539.695 800.365 540.07 801.528 540.07 803.034V804.071H534.014C534.096 804.692 534.342 805.19 534.752 805.565C535.168 805.94 535.693 806.128 536.325 806.128C537.304 806.128 538.069 805.773 538.619 805.064L539.867 806.462C539.487 807.001 538.971 807.423 538.321 807.728C537.67 808.026 536.949 808.176 536.158 808.176ZM535.868 800.371C535.364 800.371 534.954 800.541 534.638 800.881C534.327 801.221 534.128 801.707 534.04 802.34H537.573V802.138C537.562 801.575 537.409 801.142 537.116 800.837C536.823 800.526 536.407 800.371 535.868 800.371Z" fill="black"/>
<path fill-rule="evenodd" clip-rule="evenodd" d="M385 831C401.016 831 414 818.016 414 802C414 785.984 401.016 773 385 773C368.984 773 356 785.984 356 802C356 818.016 368.984 831 385 831ZM384.71 802.58C389.995 802.58 394.28 798.295 394.28 793.01C394.28 787.725 389.995 783.44 384.71 783.44C379.425 783.44 375.14 787.725 375.14 793.01C375.14 798.295 379.425 802.58 384.71 802.58ZM365.86 819.98V814.18C367.213 811.28 372.878 805.48 384.71 805.48C399.5 805.48 403.85 812.73 404.14 813.6C404.372 814.296 404.237 818.143 404.14 819.98H365.86Z" fill="#6D48FF"/>
</g>
<g filter="url(#filter6_d)">
<rect x="336" y="893" width="281" height="99" rx="8" fill="#F2F2F2"/>
<path d="M467.828 935.203V943.632C467.828 945.032 467.389 946.14 466.51 946.954C465.637 947.769 464.441 948.176 462.924 948.176C461.43 948.176 460.243 947.78 459.364 946.989C458.485 946.198 458.037 945.111 458.02 943.729V935.203H460.656V943.649C460.656 944.487 460.855 945.1 461.254 945.486C461.658 945.867 462.215 946.058 462.924 946.058C464.406 946.058 465.159 945.278 465.183 943.72V935.203H467.828ZM475.124 945.372C475.124 945.062 474.968 944.818 474.658 944.643C474.353 944.461 473.861 944.3 473.181 944.159C470.92 943.685 469.789 942.724 469.789 941.276C469.789 940.433 470.137 939.729 470.835 939.167C471.538 938.599 472.455 938.314 473.586 938.314C474.793 938.314 475.756 938.599 476.477 939.167C477.204 939.735 477.567 940.474 477.567 941.382H475.027C475.027 941.019 474.91 940.72 474.675 940.485C474.441 940.245 474.075 940.125 473.577 940.125C473.149 940.125 472.818 940.222 472.584 940.415C472.349 940.608 472.232 940.854 472.232 941.153C472.232 941.435 472.364 941.663 472.628 941.839C472.897 942.009 473.348 942.158 473.981 942.287C474.614 942.41 475.147 942.551 475.581 942.709C476.922 943.201 477.593 944.054 477.593 945.267C477.593 946.134 477.221 946.837 476.477 947.376C475.733 947.909 474.772 948.176 473.594 948.176C472.797 948.176 472.088 948.035 471.467 947.754C470.852 947.467 470.369 947.077 470.017 946.585C469.666 946.087 469.49 945.551 469.49 944.977H471.898C471.921 945.428 472.088 945.773 472.399 946.014C472.71 946.254 473.126 946.374 473.647 946.374C474.133 946.374 474.5 946.283 474.746 946.102C474.998 945.914 475.124 945.671 475.124 945.372ZM483.764 948.176C482.369 948.176 481.233 947.748 480.354 946.893C479.481 946.037 479.044 944.897 479.044 943.474V943.228C479.044 942.272 479.229 941.42 479.598 940.67C479.967 939.914 480.488 939.334 481.162 938.93C481.842 938.52 482.615 938.314 483.483 938.314C484.783 938.314 485.806 938.725 486.55 939.545C487.3 940.365 487.675 941.528 487.675 943.034V944.071H481.619C481.701 944.692 481.947 945.19 482.358 945.565C482.774 945.94 483.298 946.128 483.931 946.128C484.909 946.128 485.674 945.773 486.225 945.064L487.473 946.462C487.092 947.001 486.576 947.423 485.926 947.728C485.276 948.026 484.555 948.176 483.764 948.176ZM483.474 940.371C482.97 940.371 482.56 940.541 482.243 940.881C481.933 941.221 481.734 941.707 481.646 942.34H485.179V942.138C485.167 941.575 485.015 941.142 484.722 940.837C484.429 940.526 484.013 940.371 483.474 940.371ZM494.619 940.872C494.273 940.825 493.969 940.802 493.705 940.802C492.744 940.802 492.114 941.127 491.815 941.777V948H489.275V938.49H491.675L491.745 939.624C492.255 938.751 492.961 938.314 493.863 938.314C494.144 938.314 494.408 938.353 494.654 938.429L494.619 940.872ZM498.337 938.49L498.416 939.589C499.096 938.739 500.007 938.314 501.15 938.314C502.158 938.314 502.908 938.61 503.4 939.202C503.892 939.794 504.144 940.679 504.156 941.856V948H501.616V941.918C501.616 941.379 501.498 940.989 501.264 940.749C501.03 940.503 500.64 940.38 500.095 940.38C499.38 940.38 498.844 940.685 498.487 941.294V948H495.947V938.49H498.337ZM511.75 948C511.633 947.771 511.548 947.487 511.495 947.147C510.88 947.833 510.08 948.176 509.096 948.176C508.164 948.176 507.391 947.906 506.775 947.367C506.166 946.828 505.861 946.148 505.861 945.328C505.861 944.32 506.233 943.547 506.978 943.008C507.728 942.469 508.809 942.196 510.221 942.19H511.39V941.646C511.39 941.206 511.275 940.854 511.047 940.591C510.824 940.327 510.47 940.195 509.983 940.195C509.556 940.195 509.219 940.298 508.973 940.503C508.732 940.708 508.612 940.989 508.612 941.347H506.072C506.072 940.796 506.242 940.286 506.582 939.817C506.922 939.349 507.402 938.982 508.023 938.719C508.645 938.449 509.342 938.314 510.115 938.314C511.287 938.314 512.216 938.61 512.901 939.202C513.593 939.788 513.938 940.614 513.938 941.681V945.803C513.944 946.705 514.07 947.388 514.316 947.851V948H511.75ZM509.649 946.233C510.024 946.233 510.37 946.151 510.687 945.987C511.003 945.817 511.237 945.592 511.39 945.311V943.676H510.44C509.169 943.676 508.492 944.115 508.41 944.994L508.401 945.144C508.401 945.46 508.513 945.721 508.735 945.926C508.958 946.131 509.263 946.233 509.649 946.233ZM518.421 938.49L518.501 939.554C519.174 938.728 520.086 938.314 521.234 938.314C522.459 938.314 523.299 938.798 523.756 939.765C524.424 938.798 525.377 938.314 526.613 938.314C527.644 938.314 528.412 938.616 528.916 939.22C529.42 939.817 529.671 940.72 529.671 941.927V948H527.123V941.936C527.123 941.396 527.017 941.004 526.806 940.758C526.595 940.506 526.223 940.38 525.69 940.38C524.928 940.38 524.401 940.743 524.108 941.47L524.117 948H521.577V941.944C521.577 941.394 521.468 940.995 521.252 940.749C521.035 940.503 520.666 940.38 520.144 940.38C519.423 940.38 518.902 940.679 518.58 941.276V948H516.04V938.49H518.421ZM536.158 948.176C534.764 948.176 533.627 947.748 532.748 946.893C531.875 946.037 531.439 944.897 531.439 943.474V943.228C531.439 942.272 531.623 941.42 531.992 940.67C532.362 939.914 532.883 939.334 533.557 938.93C534.237 938.52 535.01 938.314 535.877 938.314C537.178 938.314 538.2 938.725 538.945 939.545C539.695 940.365 540.07 941.528 540.07 943.034V944.071H534.014C534.096 944.692 534.342 945.19 534.752 945.565C535.168 945.94 535.693 946.128 536.325 946.128C537.304 946.128 538.069 945.773 538.619 945.064L539.867 946.462C539.487 947.001 538.971 947.423 538.321 947.728C537.67 948.026 536.949 948.176 536.158 948.176ZM535.868 940.371C535.364 940.371 534.954 940.541 534.638 940.881C534.327 941.221 534.128 941.707 534.04 942.34H537.573V942.138C537.562 941.575 537.409 941.142 537.116 940.837C536.823 940.526 536.407 940.371 535.868 940.371Z" fill="black"/>
<path fill-rule="evenodd" clip-rule="evenodd" d="M385 971C401.016 971 414 958.016 414 942C414 925.984 401.016 913 385 913C368.984 913 356 925.984 356 942C356 958.016 368.984 971 385 971ZM384.71 942.58C389.995 942.58 394.28 938.295 394.28 933.01C394.28 927.725 389.995 923.44 384.71 923.44C379.425 923.44 375.14 927.725 375.14 933.01C375.14 938.295 379.425 942.58 384.71 942.58ZM365.86 959.98V954.18C367.213 951.28 372.878 945.48 384.71 945.48C399.5 945.48 403.85 952.73 404.14 953.6C404.372 954.296 404.237 958.143 404.14 959.98H365.86Z" fill="#6D48FF"/>
</g>
<rect x="328.5" y="98.5" width="343" height="925" rx="19.5" stroke="white" stroke-opacity="0.12"/>
<rect x="648" y="985" width="787" height="2" rx="1" transform="rotate(-90 648 985)" fill="#BB86FC" fill-opacity="0.38"/>
<rect x="648" y="985" width="271.57" height="2" rx="1" transform="rotate(-90 648 985)" fill="#6200EE"/>
<path fill-rule="evenodd" clip-rule="evenodd" d="M655 613C655 609.686 652.314 607 649 607C645.686 607 643 609.686 643 613C643 616.314 645.686 619 649 619C652.314 619 655 616.314 655 613Z" fill="#6200EE"/>
</g>
<defs>
<filter id="filter0_d" x="668" y="926" width="776" height="106" filterUnits="userSpaceOnUse" color-interpolation-filters="sRGB">
<feFlood flood-opacity="0" result="BackgroundImageFix"/>
<feColorMatrix in="SourceAlpha" type="matrix" values="0 0 0 0 0 0 0 0 0 0 0 0 0 0 0 0 0 0 127 0"/>
<feOffset dy="4"/>
<feGaussianBlur stdDeviation="2"/>
<feColorMatrix type="matrix" values="0 0 0 0 0 0 0 0 0 0 0 0 0 0 0 0 0 0 0.25 0"/>
<feBlend mode="normal" in2="BackgroundImageFix" result="effect1_dropShadow"/>
<feBlend mode="normal" in="SourceGraphic" in2="effect1_dropShadow" result="shape"/>
</filter>
<filter id="filter1_d" x="332" y="193" width="289" height="107" filterUnits="userSpaceOnUse" color-interpolation-filters="sRGB">
<feFlood flood-opacity="0" result="BackgroundImageFix"/>
<feColorMatrix in="SourceAlpha" type="matrix" values="0 0 0 0 0 0 0 0 0 0 0 0 0 0 0 0 0 0 127 0"/>
<feOffset dy="4"/>
<feGaussianBlur stdDeviation="2"/>
<feColorMatrix type="matrix" values="0 0 0 0 0 0 0 0 0 0 0 0 0 0 0 0 0 0 0.16 0"/>
<feBlend mode="normal" in2="BackgroundImageFix" result="effect1_dropShadow"/>
<feBlend mode="normal" in="SourceGraphic" in2="effect1_dropShadow" result="shape"/>
</filter>
<filter id="filter2_d" x="332" y="333" width="289" height="107" filterUnits="userSpaceOnUse" color-interpolation-filters="sRGB">
<feFlood flood-opacity="0" result="BackgroundImageFix"/>
<feColorMatrix in="SourceAlpha" type="matrix" values="0 0 0 0 0 0 0 0 0 0 0 0 0 0 0 0 0 0 127 0"/>
<feOffset dy="4"/>
<feGaussianBlur stdDeviation="2"/>
<feColorMatrix type="matrix" values="0 0 0 0 0 0 0 0 0 0 0 0 0 0 0 0 0 0 0.16 0"/>
<feBlend mode="normal" in2="BackgroundImageFix" result="effect1_dropShadow"/>
<feBlend mode="normal" in="SourceGraphic" in2="effect1_dropShadow" result="shape"/>
</filter>
<filter id="filter3_d" x="332" y="473" width="289" height="107" filterUnits="userSpaceOnUse" color-interpolation-filters="sRGB">
<feFlood flood-opacity="0" result="BackgroundImageFix"/>
<feColorMatrix in="SourceAlpha" type="matrix" values="0 0 0 0 0 0 0 0 0 0 0 0 0 0 0 0 0 0 127 0"/>
<feOffset dy="4"/>
<feGaussianBlur stdDeviation="2"/>
<feColorMatrix type="matrix" values="0 0 0 0 0 0 0 0 0 0 0 0 0 0 0 0 0 0 0.16 0"/>
<feBlend mode="normal" in2="BackgroundImageFix" result="effect1_dropShadow"/>
<feBlend mode="normal" in="SourceGraphic" in2="effect1_dropShadow" result="shape"/>
</filter>
<filter id="filter4_d" x="332" y="613" width="289" height="107" filterUnits="userSpaceOnUse" color-interpolation-filters="sRGB">
<feFlood flood-opacity="0" result="BackgroundImageFix"/>
<feColorMatrix in="SourceAlpha" type="matrix" values="0 0 0 0 0 0 0 0 0 0 0 0 0 0 0 0 0 0 127 0"/>
<feOffset dy="4"/>
<feGaussianBlur stdDeviation="2"/>
<feColorMatrix type="matrix" values="0 0 0 0 0 0 0 0 0 0 0 0 0 0 0 0 0 0 0.16 0"/>
<feBlend mode="normal" in2="BackgroundImageFix" result="effect1_dropShadow"/>
<feBlend mode="normal" in="SourceGraphic" in2="effect1_dropShadow" result="shape"/>
</filter>
<filter id="filter5_d" x="332" y="753" width="289" height="107" filterUnits="userSpaceOnUse" color-interpolation-filters="sRGB">
<feFlood flood-opacity="0" result="BackgroundImageFix"/>
<feColorMatrix in="SourceAlpha" type="matrix" values="0 0 0 0 0 0 0 0 0 0 0 0 0 0 0 0 0 0 127 0"/>
<feOffset dy="4"/>
<feGaussianBlur stdDeviation="2"/>
<feColorMatrix type="matrix" values="0 0 0 0 0 0 0 0 0 0 0 0 0 0 0 0 0 0 0.16 0"/>
<feBlend mode="normal" in2="BackgroundImageFix" result="effect1_dropShadow"/>
<feBlend mode="normal" in="SourceGraphic" in2="effect1_dropShadow" result="shape"/>
</filter>
<filter id="filter6_d" x="332" y="893" width="289" height="107" filterUnits="userSpaceOnUse" color-interpolation-filters="sRGB">
<feFlood flood-opacity="0" result="BackgroundImageFix"/>
<feColorMatrix in="SourceAlpha" type="matrix" values="0 0 0 0 0 0 0 0 0 0 0 0 0 0 0 0 0 0 127 0"/>
<feOffset dy="4"/>
<feGaussianBlur stdDeviation="2"/>
<feColorMatrix type="matrix" values="0 0 0 0 0 0 0 0 0 0 0 0 0 0 0 0 0 0 0.16 0"/>
<feBlend mode="normal" in2="BackgroundImageFix" result="effect1_dropShadow"/>
<feBlend mode="normal" in="SourceGraphic" in2="effect1_dropShadow" result="shape"/>
</filter>
<radialGradient id="paint0_angular" cx="0" cy="0" r="1" gradientUnits="userSpaceOnUse" gradientTransform="translate(884 49) rotate(90) scale(49 556)">
<stop offset="0.260417" stop-color="#AE19F3"/>
<stop offset="0.755208" stop-color="#19C9FF"/>
<stop offset="0.979167" stop-color="#FFFFFC"/>
</radialGradient>
<linearGradient id="paint1_linear" x1="884" y1="0" x2="884" y2="98" gradientUnits="userSpaceOnUse">
<stop stop-color="#AE19F3" stop-opacity="0.35"/>
<stop offset="0.692708" stop-color="#19C9FF" stop-opacity="0.63"/>
<stop offset="1" stop-color="#FFFFFC" stop-opacity="0"/>
</linearGradient>
<linearGradient id="paint2_linear" x1="1387.19" y1="46.1613" x2="1387.19" y2="65.7742" gradientUnits="userSpaceOnUse">
<stop stop-color="#FA0DFF"/>
<stop offset="1" stop-color="#00C2FF"/>
</linearGradient>
<linearGradient id="paint3_linear" x1="1056" y1="926" x2="1056" y2="1024" gradientUnits="userSpaceOnUse">
<stop stop-color="#B10DFF"/>
<stop offset="1" stop-color="#6D48FF"/>
</linearGradient>
<clipPath id="clip0">
<rect width="1440" height="1024" fill="white"/>
</clipPath>
</defs>
</svg>
