<svg width="1440" height="1024" viewBox="0 0 1440 1024" fill="none" xmlns="http://www.w3.org/2000/svg">
<rect width="1440" height="1024" fill="black"/>
<rect x="529" y="93" width="90.2716" height="90.2716" rx="5" fill="#00C2FF"/>
<rect x="536.782" y="100.781" width="90.2716" height="90.2716" rx="5" fill="#AD00FF" fill-opacity="0.63"/>
<path d="M546.797 113.745C547.23 113.366 547.803 113.185 548.377 113.244L594.967 117.267C595.998 117.38 596.777 117.225 596.777 118.25V156.379C598.62 155.288 600.73 154.716 602.878 154.727C608.484 154.727 613.046 158.336 613.046 162.773C613.046 167.211 608.484 170.82 602.878 170.82C597.272 170.82 586.022 166.874 586.022 162.435C586.022 162.435 586.022 131.764 586.022 130.258C586.022 127.012 575.267 138.902 571.471 138.902C567.675 138.902 556.558 122.657 556.558 127.012C556.558 128.635 556.558 152.35 556.558 152.35C558.402 151.261 560.512 150.692 562.659 150.704C568.265 150.704 572.827 154.313 572.827 158.75C572.827 163.188 568.265 166.797 562.659 166.797C557.053 166.797 546.12 163.19 546.12 158.75V137.629V115.243C546.12 114.671 546.366 114.126 546.797 113.745Z" fill="white"/>
<rect x="529" y="93" width="90.2716" height="90.2716" rx="5" fill="#00C2FF"/>
<rect x="536.782" y="100.781" width="90.2716" height="90.2716" rx="5" fill="#AD00FF" fill-opacity="0.63"/>
<path d="M546.797 113.745C547.23 113.366 547.803 113.185 548.377 113.244L594.967 117.267C595.998 117.38 596.777 117.225 596.777 118.25V156.379C598.62 155.288 600.73 154.716 602.878 154.727C608.484 154.727 613.046 158.336 613.046 162.773C613.046 167.211 608.484 170.82 602.878 170.82C597.272 170.82 586.022 166.874 586.022 162.435C586.022 162.435 586.022 131.764 586.022 130.258C586.022 127.012 575.267 138.902 571.471 138.902C567.675 138.902 556.558 122.657 556.558 127.012C556.558 128.635 556.558 152.35 556.558 152.35C558.402 151.261 560.512 150.692 562.659 150.704C568.265 150.704 572.827 154.313 572.827 158.75C572.827 163.188 568.265 166.797 562.659 166.797C557.053 166.797 546.12 163.19 546.12 158.75V137.629V115.243C546.12 114.671 546.366 114.126 546.797 113.745Z" fill="white"/>
<rect x="529" y="93" width="90.2716" height="90.2716" rx="5" fill="#00C2FF"/>
<rect x="536.782" y="100.781" width="90.2716" height="90.2716" rx="5" fill="#AD00FF" fill-opacity="0.63"/>
<path d="M546.797 113.745C547.23 113.366 547.803 113.185 548.377 113.244L594.967 117.267C595.998 117.38 596.777 117.225 596.777 118.25V156.379C598.62 155.288 600.73 154.716 602.878 154.727C608.484 154.727 613.046 158.336 613.046 162.773C613.046 167.211 608.484 170.82 602.878 170.82C597.272 170.82 586.022 166.874 586.022 162.435C586.022 162.435 586.022 131.764 586.022 130.258C586.022 127.012 575.267 138.902 571.471 138.902C567.675 138.902 556.558 122.657 556.558 127.012C556.558 128.635 556.558 152.35 556.558 152.35C558.402 151.261 560.512 150.692 562.659 150.704C568.265 150.704 572.827 154.313 572.827 158.75C572.827 163.188 568.265 166.797 562.659 166.797C557.053 166.797 546.12 163.19 546.12 158.75V137.629V115.243C546.12 114.671 546.366 114.126 546.797 113.745Z" fill="white"/>
<path d="M678.232 118.669V153.433C678.232 157.373 677.393 160.789 675.715 163.683C674.037 166.553 671.629 168.742 668.492 170.249C665.355 171.757 661.646 172.511 657.366 172.511C650.897 172.511 645.803 170.833 642.082 167.477C638.361 164.121 636.464 159.525 636.391 153.688V118.669H649.268V153.944C649.414 159.756 652.113 162.662 657.366 162.662C660.017 162.662 662.023 161.932 663.385 160.473C664.747 159.014 665.428 156.643 665.428 153.36V118.669H678.232Z" fill="url(#paint0_linear)"/>
<path d="M713.652 157.664C713.652 155.792 712.983 154.333 711.646 153.287C710.333 152.241 708.01 151.159 704.678 150.04C701.347 148.922 698.623 147.84 696.507 146.794C689.625 143.414 686.184 138.769 686.184 132.859C686.184 129.917 687.035 127.327 688.737 125.089C690.464 122.828 692.896 121.077 696.033 119.836C699.17 118.572 702.697 117.94 706.612 117.94C710.43 117.94 713.847 118.62 716.862 119.982C719.902 121.344 722.261 123.29 723.939 125.819C725.617 128.324 726.456 131.193 726.456 134.428H713.689C713.689 132.263 713.02 130.585 711.682 129.394C710.369 128.202 708.582 127.606 706.32 127.606C704.034 127.606 702.222 128.117 700.885 129.138C699.572 130.135 698.915 131.412 698.915 132.969C698.915 134.33 699.644 135.571 701.104 136.689C702.563 137.784 705.128 138.927 708.801 140.118C712.473 141.286 715.488 142.55 717.847 143.912C723.586 147.219 726.456 151.779 726.456 157.591C726.456 162.236 724.705 165.884 721.203 168.535C717.701 171.186 712.898 172.511 706.794 172.511C702.49 172.511 698.587 171.745 695.085 170.213C691.607 168.657 688.981 166.541 687.205 163.866C685.454 161.166 684.579 158.066 684.579 154.564H697.419C697.419 157.409 698.149 159.513 699.608 160.875C701.091 162.212 703.487 162.881 706.794 162.881C708.91 162.881 710.576 162.431 711.792 161.531C713.032 160.607 713.652 159.318 713.652 157.664Z" fill="url(#paint1_linear)"/>
<path d="M745.826 153.761V171.782H733.022V118.669H754.216C758.277 118.669 761.864 119.423 764.977 120.931C768.114 122.414 770.534 124.542 772.236 127.314C773.963 130.063 774.826 133.187 774.826 136.689C774.826 141.869 772.966 146.016 769.245 149.128C765.549 152.217 760.466 153.761 753.997 153.761H745.826ZM745.826 143.876H754.216C756.697 143.876 758.581 143.255 759.87 142.015C761.183 140.775 761.84 139.024 761.84 136.762C761.84 134.282 761.171 132.3 759.834 130.816C758.496 129.333 756.672 128.579 754.362 128.555H745.826V143.876Z" fill="url(#paint2_linear)"/>
<path d="M805.359 161.859H787.813L784.748 171.782H771.069L790.548 118.669H802.586L822.212 171.782H808.459L805.359 161.859ZM790.877 151.974H802.294L796.567 133.552L790.877 151.974Z" fill="url(#paint3_linear)"/>
<path d="M868.284 153.798C868.113 157.494 867.116 160.765 865.292 163.61C863.469 166.431 860.903 168.62 857.596 170.176C854.312 171.733 850.555 172.511 846.324 172.511C839.344 172.511 833.848 170.237 829.836 165.69C825.823 161.142 823.817 154.722 823.817 146.429V143.803C823.817 138.598 824.716 134.051 826.516 130.16C828.34 126.244 830.954 123.229 834.359 121.113C837.763 118.973 841.703 117.903 846.178 117.903C852.622 117.903 857.802 119.605 861.718 123.01C865.633 126.39 867.858 131.06 868.393 137.018H855.626C855.528 133.783 854.714 131.461 853.182 130.05C851.65 128.64 849.315 127.935 846.178 127.935C842.992 127.935 840.657 129.126 839.174 131.509C837.691 133.893 836.912 137.699 836.839 142.927V146.684C836.839 152.351 837.545 156.4 838.955 158.832C840.39 161.264 842.846 162.48 846.324 162.48C849.266 162.48 851.516 161.786 853.072 160.4C854.629 159.014 855.455 156.813 855.553 153.798H868.284Z" fill="url(#paint4_linear)"/>
<path d="M907.279 149.274H887.143V161.932H910.927V171.782H874.339V118.669H911V128.555H887.143V139.754H907.279V149.274Z" fill="url(#paint5_linear)"/>
<path d="M579.377 258.475C579.178 261.229 578.158 263.396 576.318 264.979C574.49 266.561 572.076 267.352 569.076 267.352C565.795 267.352 563.211 266.25 561.324 264.047C559.449 261.832 558.512 258.797 558.512 254.941V253.377C558.512 250.916 558.945 248.748 559.812 246.873C560.68 244.998 561.916 243.562 563.521 242.566C565.139 241.559 567.014 241.055 569.146 241.055C572.1 241.055 574.479 241.846 576.283 243.428C578.088 245.01 579.131 247.23 579.412 250.09H574.139C574.01 248.438 573.547 247.242 572.75 246.504C571.965 245.754 570.764 245.379 569.146 245.379C567.389 245.379 566.07 246.012 565.191 247.277C564.324 248.531 563.879 250.482 563.855 253.131V255.064C563.855 257.83 564.271 259.852 565.104 261.129C565.947 262.406 567.271 263.045 569.076 263.045C570.705 263.045 571.918 262.676 572.715 261.938C573.523 261.188 573.986 260.033 574.104 258.475H579.377ZM593.193 252.744C592.502 252.65 591.893 252.604 591.365 252.604C589.443 252.604 588.184 253.254 587.586 254.555V267H582.506V247.98H587.305L587.445 250.248C588.465 248.502 589.877 247.629 591.682 247.629C592.244 247.629 592.771 247.705 593.264 247.857L593.193 252.744ZM604.057 267.352C601.268 267.352 598.994 266.496 597.236 264.785C595.49 263.074 594.617 260.795 594.617 257.947V257.455C594.617 255.545 594.986 253.84 595.725 252.34C596.463 250.828 597.506 249.668 598.854 248.859C600.213 248.039 601.76 247.629 603.494 247.629C606.096 247.629 608.141 248.449 609.629 250.09C611.129 251.73 611.879 254.057 611.879 257.068V259.143H599.768C599.932 260.385 600.424 261.381 601.244 262.131C602.076 262.881 603.125 263.256 604.391 263.256C606.348 263.256 607.877 262.547 608.979 261.129L611.475 263.924C610.713 265.002 609.682 265.846 608.381 266.455C607.08 267.053 605.639 267.352 604.057 267.352ZM603.477 251.742C602.469 251.742 601.648 252.082 601.016 252.762C600.395 253.441 599.996 254.414 599.82 255.68H606.887V255.275C606.863 254.15 606.559 253.283 605.973 252.674C605.387 252.053 604.555 251.742 603.477 251.742ZM625.801 267C625.566 266.543 625.396 265.975 625.291 265.295C624.061 266.666 622.461 267.352 620.492 267.352C618.629 267.352 617.082 266.812 615.852 265.734C614.633 264.656 614.023 263.297 614.023 261.656C614.023 259.641 614.768 258.094 616.256 257.016C617.756 255.938 619.918 255.393 622.742 255.381H625.08V254.291C625.08 253.412 624.852 252.709 624.395 252.182C623.949 251.654 623.24 251.391 622.268 251.391C621.412 251.391 620.738 251.596 620.246 252.006C619.766 252.416 619.525 252.979 619.525 253.693H614.445C614.445 252.592 614.785 251.572 615.465 250.635C616.145 249.697 617.105 248.965 618.348 248.438C619.59 247.898 620.984 247.629 622.531 247.629C624.875 247.629 626.732 248.221 628.104 249.404C629.486 250.576 630.178 252.229 630.178 254.361V262.605C630.189 264.41 630.441 265.775 630.934 266.701V267H625.801ZM621.6 263.467C622.35 263.467 623.041 263.303 623.674 262.975C624.307 262.635 624.775 262.184 625.08 261.621V258.352H623.182C620.639 258.352 619.285 259.23 619.121 260.988L619.104 261.287C619.104 261.92 619.326 262.441 619.771 262.852C620.217 263.262 620.826 263.467 621.6 263.467ZM640.162 243.305V247.98H643.414V251.707H640.162V261.199C640.162 261.902 640.297 262.406 640.566 262.711C640.836 263.016 641.352 263.168 642.113 263.168C642.676 263.168 643.174 263.127 643.607 263.045V266.895C642.611 267.199 641.586 267.352 640.531 267.352C636.969 267.352 635.152 265.553 635.082 261.955V251.707H632.305V247.98H635.082V243.305H640.162ZM654.998 267.352C652.209 267.352 649.936 266.496 648.178 264.785C646.432 263.074 645.559 260.795 645.559 257.947V257.455C645.559 255.545 645.928 253.84 646.666 252.34C647.404 250.828 648.447 249.668 649.795 248.859C651.154 248.039 652.701 247.629 654.436 247.629C657.037 247.629 659.082 248.449 660.57 250.09C662.07 251.73 662.82 254.057 662.82 257.068V259.143H650.709C650.873 260.385 651.365 261.381 652.186 262.131C653.018 262.881 654.066 263.256 655.332 263.256C657.289 263.256 658.818 262.547 659.92 261.129L662.416 263.924C661.654 265.002 660.623 265.846 659.322 266.455C658.021 267.053 656.58 267.352 654.998 267.352ZM654.418 251.742C653.41 251.742 652.59 252.082 651.957 252.762C651.336 253.441 650.938 254.414 650.762 255.68H657.828V255.275C657.805 254.15 657.5 253.283 656.914 252.674C656.328 252.053 655.496 251.742 654.418 251.742ZM681.787 259.811L685.303 247.98H690.752L683.105 269.953L682.684 270.955C681.547 273.439 679.672 274.682 677.059 274.682C676.32 274.682 675.57 274.57 674.809 274.348V270.498L675.582 270.516C676.543 270.516 677.258 270.369 677.727 270.076C678.207 269.783 678.582 269.297 678.852 268.617L679.449 267.053L672.787 247.98H678.254L681.787 259.811ZM691.684 257.314C691.684 255.428 692.047 253.746 692.773 252.27C693.5 250.793 694.543 249.65 695.902 248.842C697.273 248.033 698.861 247.629 700.666 247.629C703.232 247.629 705.324 248.414 706.941 249.984C708.57 251.555 709.479 253.688 709.666 256.383L709.701 257.684C709.701 260.602 708.887 262.945 707.258 264.715C705.629 266.473 703.443 267.352 700.701 267.352C697.959 267.352 695.768 266.473 694.127 264.715C692.498 262.957 691.684 260.566 691.684 257.543V257.314ZM696.764 257.684C696.764 259.488 697.104 260.871 697.783 261.832C698.463 262.781 699.436 263.256 700.701 263.256C701.932 263.256 702.893 262.787 703.584 261.85C704.275 260.9 704.621 259.389 704.621 257.314C704.621 255.545 704.275 254.174 703.584 253.201C702.893 252.229 701.92 251.742 700.666 251.742C699.424 251.742 698.463 252.229 697.783 253.201C697.104 254.162 696.764 255.656 696.764 257.684ZM724.221 265.066C722.967 266.59 721.232 267.352 719.018 267.352C716.979 267.352 715.42 266.766 714.342 265.594C713.275 264.422 712.73 262.705 712.707 260.443V247.98H717.787V260.268C717.787 262.248 718.689 263.238 720.494 263.238C722.217 263.238 723.4 262.641 724.045 261.445V247.98H729.143V267H724.361L724.221 265.066ZM743.662 252.744C742.971 252.65 742.361 252.604 741.834 252.604C739.912 252.604 738.652 253.254 738.055 254.555V267H732.975V247.98H737.773L737.914 250.248C738.934 248.502 740.346 247.629 742.15 247.629C742.713 247.629 743.24 247.705 743.732 247.857L743.662 252.744ZM766.109 267C765.875 266.543 765.705 265.975 765.6 265.295C764.369 266.666 762.77 267.352 760.801 267.352C758.938 267.352 757.391 266.812 756.16 265.734C754.941 264.656 754.332 263.297 754.332 261.656C754.332 259.641 755.076 258.094 756.564 257.016C758.064 255.938 760.227 255.393 763.051 255.381H765.389V254.291C765.389 253.412 765.16 252.709 764.703 252.182C764.258 251.654 763.549 251.391 762.576 251.391C761.721 251.391 761.047 251.596 760.555 252.006C760.074 252.416 759.834 252.979 759.834 253.693H754.754C754.754 252.592 755.094 251.572 755.773 250.635C756.453 249.697 757.414 248.965 758.656 248.438C759.898 247.898 761.293 247.629 762.84 247.629C765.184 247.629 767.041 248.221 768.412 249.404C769.795 250.576 770.486 252.229 770.486 254.361V262.605C770.498 264.41 770.75 265.775 771.242 266.701V267H766.109ZM761.908 263.467C762.658 263.467 763.35 263.303 763.982 262.975C764.615 262.635 765.084 262.184 765.389 261.621V258.352H763.49C760.947 258.352 759.594 259.23 759.43 260.988L759.412 261.287C759.412 261.92 759.635 262.441 760.08 262.852C760.525 263.262 761.135 263.467 761.908 263.467ZM782.299 263.256C783.236 263.256 783.998 262.998 784.584 262.482C785.17 261.967 785.475 261.281 785.498 260.426H790.262C790.25 261.715 789.898 262.898 789.207 263.977C788.516 265.043 787.566 265.875 786.359 266.473C785.164 267.059 783.84 267.352 782.387 267.352C779.668 267.352 777.523 266.49 775.953 264.768C774.383 263.033 773.598 260.643 773.598 257.596V257.262C773.598 254.332 774.377 251.994 775.936 250.248C777.494 248.502 779.633 247.629 782.352 247.629C784.73 247.629 786.635 248.309 788.064 249.668C789.506 251.016 790.238 252.814 790.262 255.064H785.498C785.475 254.08 785.17 253.283 784.584 252.674C783.998 252.053 783.225 251.742 782.264 251.742C781.08 251.742 780.184 252.176 779.574 253.043C778.977 253.898 778.678 255.293 778.678 257.227V257.754C778.678 259.711 778.977 261.117 779.574 261.973C780.172 262.828 781.08 263.256 782.299 263.256ZM801.072 263.256C802.01 263.256 802.771 262.998 803.357 262.482C803.943 261.967 804.248 261.281 804.271 260.426H809.035C809.023 261.715 808.672 262.898 807.98 263.977C807.289 265.043 806.34 265.875 805.133 266.473C803.938 267.059 802.613 267.352 801.16 267.352C798.441 267.352 796.297 266.49 794.727 264.768C793.156 263.033 792.371 260.643 792.371 257.596V257.262C792.371 254.332 793.15 251.994 794.709 250.248C796.268 248.502 798.406 247.629 801.125 247.629C803.504 247.629 805.408 248.309 806.838 249.668C808.279 251.016 809.012 252.814 809.035 255.064H804.271C804.248 254.08 803.943 253.283 803.357 252.674C802.771 252.053 801.998 251.742 801.037 251.742C799.854 251.742 798.957 252.176 798.348 253.043C797.75 253.898 797.451 255.293 797.451 257.227V257.754C797.451 259.711 797.75 261.117 798.348 261.973C798.945 262.828 799.854 263.256 801.072 263.256ZM811.145 257.314C811.145 255.428 811.508 253.746 812.234 252.27C812.961 250.793 814.004 249.65 815.363 248.842C816.734 248.033 818.322 247.629 820.127 247.629C822.693 247.629 824.785 248.414 826.402 249.984C828.031 251.555 828.939 253.688 829.127 256.383L829.162 257.684C829.162 260.602 828.348 262.945 826.719 264.715C825.09 266.473 822.904 267.352 820.162 267.352C817.42 267.352 815.229 266.473 813.588 264.715C811.959 262.957 811.145 260.566 811.145 257.543V257.314ZM816.225 257.684C816.225 259.488 816.564 260.871 817.244 261.832C817.924 262.781 818.896 263.256 820.162 263.256C821.393 263.256 822.354 262.787 823.045 261.85C823.736 260.9 824.082 259.389 824.082 257.314C824.082 255.545 823.736 254.174 823.045 253.201C822.354 252.229 821.381 251.742 820.127 251.742C818.885 251.742 817.924 252.229 817.244 253.201C816.564 254.162 816.225 255.656 816.225 257.684ZM843.682 265.066C842.428 266.59 840.693 267.352 838.479 267.352C836.439 267.352 834.881 266.766 833.803 265.594C832.736 264.422 832.191 262.705 832.168 260.443V247.98H837.248V260.268C837.248 262.248 838.15 263.238 839.955 263.238C841.678 263.238 842.861 262.641 843.506 261.445V247.98H848.604V267H843.822L843.682 265.066ZM857.111 247.98L857.27 250.178C858.629 248.479 860.451 247.629 862.736 247.629C864.752 247.629 866.252 248.221 867.236 249.404C868.221 250.588 868.725 252.357 868.748 254.713V267H863.668V254.836C863.668 253.758 863.434 252.979 862.965 252.498C862.496 252.006 861.717 251.76 860.627 251.76C859.197 251.76 858.125 252.369 857.41 253.588V267H852.33V247.98H857.111ZM878.697 243.305V247.98H881.949V251.707H878.697V261.199C878.697 261.902 878.832 262.406 879.102 262.711C879.371 263.016 879.887 263.168 880.648 263.168C881.211 263.168 881.709 263.127 882.143 263.045V266.895C881.146 267.199 880.121 267.352 879.066 267.352C875.504 267.352 873.688 265.553 873.617 261.955V251.707H870.84V247.98H873.617V243.305H878.697Z" fill="#00C2FF"/>
<rect x="530.5" y="313.5" width="379" height="51" rx="6.5" fill="black" stroke="#B10DFF"/>
<path d="M551.781 339.399H547.468V342.927H552.479V344H546.155V334.047H552.41V335.127H547.468V338.326H551.781V339.399ZM555.104 336.604L555.138 337.424C555.68 336.786 556.411 336.467 557.332 336.467C558.367 336.467 559.071 336.863 559.444 337.656C559.69 337.301 560.009 337.014 560.401 336.795C560.798 336.576 561.265 336.467 561.803 336.467C563.425 336.467 564.25 337.326 564.277 339.044V344H563.013V339.119C563.013 338.59 562.892 338.196 562.65 337.937C562.409 337.672 562.003 337.54 561.434 337.54C560.964 337.54 560.575 337.681 560.265 337.964C559.955 338.242 559.775 338.618 559.725 339.092V344H558.453V339.153C558.453 338.078 557.927 337.54 556.874 337.54C556.045 337.54 555.477 337.893 555.172 338.6V344H553.907V336.604H555.104ZM570.758 344C570.685 343.854 570.626 343.594 570.58 343.221C569.992 343.831 569.29 344.137 568.475 344.137C567.745 344.137 567.146 343.932 566.677 343.521C566.212 343.107 565.979 342.583 565.979 341.949C565.979 341.179 566.271 340.582 566.854 340.158C567.442 339.73 568.267 339.516 569.329 339.516H570.56V338.935C570.56 338.493 570.427 338.142 570.163 337.882C569.899 337.618 569.509 337.485 568.994 337.485C568.543 337.485 568.165 337.599 567.859 337.827C567.554 338.055 567.401 338.331 567.401 338.654H566.13C566.13 338.285 566.26 337.93 566.52 337.588C566.784 337.242 567.139 336.968 567.586 336.768C568.037 336.567 568.532 336.467 569.069 336.467C569.922 336.467 570.589 336.681 571.072 337.109C571.555 337.533 571.806 338.119 571.824 338.866V342.271C571.824 342.95 571.911 343.49 572.084 343.891V344H570.758ZM568.659 343.036C569.056 343.036 569.432 342.934 569.787 342.729C570.143 342.523 570.4 342.257 570.56 341.929V340.411H569.568C568.019 340.411 567.244 340.865 567.244 341.771C567.244 342.168 567.376 342.478 567.641 342.701C567.905 342.924 568.244 343.036 568.659 343.036ZM575.181 344H573.916V336.604H575.181V344ZM573.813 334.642C573.813 334.437 573.875 334.263 573.998 334.122C574.126 333.981 574.312 333.91 574.559 333.91C574.805 333.91 574.992 333.981 575.119 334.122C575.247 334.263 575.311 334.437 575.311 334.642C575.311 334.847 575.247 335.018 575.119 335.154C574.992 335.291 574.805 335.359 574.559 335.359C574.312 335.359 574.126 335.291 573.998 335.154C573.875 335.018 573.813 334.847 573.813 334.642ZM578.585 344H577.32V333.5H578.585V344Z" fill="#727272"/>
<rect x="530.5" y="375.5" width="379" height="51" rx="6.5" fill="black" stroke="#B10DFF"/>
<path d="M553.477 402.842C553.354 403.895 552.964 404.708 552.308 405.282C551.656 405.852 550.788 406.137 549.703 406.137C548.527 406.137 547.584 405.715 546.873 404.872C546.167 404.029 545.813 402.901 545.813 401.488V400.531C545.813 399.606 545.978 398.793 546.306 398.091C546.638 397.389 547.108 396.851 547.714 396.478C548.32 396.099 549.022 395.91 549.819 395.91C550.877 395.91 551.724 396.206 552.362 396.799C553 397.387 553.372 398.202 553.477 399.246H552.157C552.043 398.453 551.795 397.879 551.412 397.523C551.034 397.168 550.503 396.99 549.819 396.99C548.981 396.99 548.322 397.3 547.844 397.92C547.37 398.54 547.133 399.422 547.133 400.565V401.529C547.133 402.609 547.358 403.468 547.81 404.106C548.261 404.744 548.892 405.063 549.703 405.063C550.432 405.063 550.991 404.899 551.378 404.571C551.77 404.239 552.03 403.662 552.157 402.842H553.477ZM554.741 402.233C554.741 401.509 554.882 400.857 555.165 400.278C555.452 399.7 555.849 399.253 556.354 398.938C556.865 398.624 557.446 398.467 558.098 398.467C559.105 398.467 559.918 398.815 560.538 399.513C561.162 400.21 561.475 401.137 561.475 402.295V402.384C561.475 403.104 561.336 403.751 561.058 404.325C560.784 404.895 560.39 405.339 559.875 405.658C559.365 405.977 558.777 406.137 558.111 406.137C557.109 406.137 556.295 405.788 555.671 405.091C555.051 404.394 554.741 403.471 554.741 402.322V402.233ZM556.013 402.384C556.013 403.204 556.202 403.863 556.58 404.359C556.963 404.856 557.473 405.104 558.111 405.104C558.754 405.104 559.264 404.854 559.643 404.353C560.021 403.847 560.21 403.14 560.21 402.233C560.21 401.422 560.016 400.766 559.629 400.265C559.246 399.759 558.736 399.506 558.098 399.506C557.473 399.506 556.97 399.754 556.587 400.251C556.204 400.748 556.013 401.459 556.013 402.384ZM564.257 398.604L564.298 399.533C564.863 398.822 565.601 398.467 566.513 398.467C568.076 398.467 568.864 399.349 568.878 401.112V406H567.613V401.105C567.609 400.572 567.486 400.178 567.244 399.923C567.007 399.668 566.636 399.54 566.13 399.54C565.72 399.54 565.36 399.649 565.05 399.868C564.74 400.087 564.498 400.374 564.325 400.729V406H563.061V398.604H564.257ZM571.209 406V399.581H570.04V398.604H571.209V397.975C571.209 397.15 571.444 396.507 571.913 396.047C572.387 395.587 573.055 395.356 573.916 395.356C574.426 395.356 575.071 395.495 575.851 395.773L575.639 396.84C575.069 396.612 574.527 396.498 574.012 396.498C573.469 396.498 573.077 396.621 572.836 396.867C572.599 397.109 572.48 397.473 572.48 397.961V398.604H573.991V399.581H572.48V406H571.209ZM576.479 406H575.208V398.604H576.479V406ZM582.112 399.738C581.921 399.706 581.714 399.69 581.49 399.69C580.661 399.69 580.098 400.044 579.802 400.75V406H578.537V398.604H579.768L579.788 399.458C580.203 398.797 580.791 398.467 581.552 398.467C581.798 398.467 581.985 398.499 582.112 398.562V399.738ZM584.471 398.604L584.505 399.424C585.047 398.786 585.779 398.467 586.699 398.467C587.734 398.467 588.438 398.863 588.812 399.656C589.058 399.301 589.377 399.014 589.769 398.795C590.165 398.576 590.632 398.467 591.17 398.467C592.792 398.467 593.617 399.326 593.645 401.044V406H592.38V401.119C592.38 400.59 592.259 400.196 592.018 399.937C591.776 399.672 591.37 399.54 590.801 399.54C590.331 399.54 589.942 399.681 589.632 399.964C589.322 400.242 589.142 400.618 589.092 401.092V406H587.82V401.153C587.82 400.078 587.294 399.54 586.241 399.54C585.412 399.54 584.844 399.893 584.539 400.6V406H583.274V398.604H584.471ZM604.855 401.399H600.542V404.927H605.553V406H599.229V396.047H605.484V397.127H600.542V400.326H604.855V401.399ZM608.178 398.604L608.212 399.424C608.754 398.786 609.486 398.467 610.406 398.467C611.441 398.467 612.145 398.863 612.519 399.656C612.765 399.301 613.084 399.014 613.476 398.795C613.872 398.576 614.339 398.467 614.877 398.467C616.499 398.467 617.324 399.326 617.352 401.044V406H616.087V401.119C616.087 400.59 615.966 400.196 615.725 399.937C615.483 399.672 615.077 399.54 614.508 399.54C614.038 399.54 613.649 399.681 613.339 399.964C613.029 400.242 612.849 400.618 612.799 401.092V406H611.527V401.153C611.527 400.078 611.001 399.54 609.948 399.54C609.119 399.54 608.551 399.893 608.246 400.6V406H606.981V398.604H608.178ZM623.832 406C623.759 405.854 623.7 405.594 623.654 405.221C623.066 405.831 622.365 406.137 621.549 406.137C620.82 406.137 620.22 405.932 619.751 405.521C619.286 405.107 619.054 404.583 619.054 403.949C619.054 403.179 619.345 402.582 619.929 402.158C620.517 401.73 621.341 401.516 622.403 401.516H623.634V400.935C623.634 400.493 623.502 400.142 623.237 399.882C622.973 399.618 622.583 399.485 622.068 399.485C621.617 399.485 621.239 399.599 620.934 399.827C620.628 400.055 620.476 400.331 620.476 400.654H619.204C619.204 400.285 619.334 399.93 619.594 399.588C619.858 399.242 620.214 398.968 620.66 398.768C621.111 398.567 621.606 398.467 622.144 398.467C622.996 398.467 623.663 398.681 624.146 399.109C624.63 399.533 624.88 400.119 624.898 400.866V404.271C624.898 404.95 624.985 405.49 625.158 405.891V406H623.832ZM621.733 405.036C622.13 405.036 622.506 404.934 622.861 404.729C623.217 404.523 623.474 404.257 623.634 403.929V402.411H622.643C621.093 402.411 620.318 402.865 620.318 403.771C620.318 404.168 620.451 404.478 620.715 404.701C620.979 404.924 621.319 405.036 621.733 405.036ZM628.255 406H626.99V398.604H628.255V406ZM626.888 396.642C626.888 396.437 626.949 396.263 627.072 396.122C627.2 395.981 627.387 395.91 627.633 395.91C627.879 395.91 628.066 395.981 628.193 396.122C628.321 396.263 628.385 396.437 628.385 396.642C628.385 396.847 628.321 397.018 628.193 397.154C628.066 397.291 627.879 397.359 627.633 397.359C627.387 397.359 627.2 397.291 627.072 397.154C626.949 397.018 626.888 396.847 626.888 396.642ZM631.659 406H630.395V395.5H631.659V406Z" fill="#727272"/>
<rect x="530.5" y="439.5" width="379" height="51" rx="6.5" fill="black" stroke="#B10DFF"/>
<path d="M551.645 466.604H547.468V471H546.155V461.047H552.321V462.127H547.468V465.531H551.645V466.604ZM555.069 471H553.805V463.604H555.069V471ZM553.702 461.642C553.702 461.437 553.764 461.263 553.887 461.122C554.014 460.981 554.201 460.91 554.447 460.91C554.693 460.91 554.88 460.981 555.008 461.122C555.135 461.263 555.199 461.437 555.199 461.642C555.199 461.847 555.135 462.018 555.008 462.154C554.88 462.291 554.693 462.359 554.447 462.359C554.201 462.359 554.014 462.291 553.887 462.154C553.764 462.018 553.702 461.847 553.702 461.642ZM560.675 464.738C560.483 464.706 560.276 464.69 560.053 464.69C559.223 464.69 558.66 465.044 558.364 465.75V471H557.1V463.604H558.33L558.351 464.458C558.765 463.797 559.353 463.467 560.114 463.467C560.36 463.467 560.547 463.499 560.675 463.562V464.738ZM566.15 469.038C566.15 468.696 566.021 468.432 565.761 468.245C565.506 468.054 565.057 467.89 564.414 467.753C563.776 467.616 563.268 467.452 562.89 467.261C562.516 467.069 562.238 466.841 562.056 466.577C561.878 466.313 561.789 465.998 561.789 465.634C561.789 465.028 562.044 464.515 562.555 464.096C563.07 463.676 563.726 463.467 564.523 463.467C565.362 463.467 566.041 463.683 566.561 464.116C567.085 464.549 567.347 465.103 567.347 465.777H566.075C566.075 465.431 565.927 465.132 565.631 464.882C565.339 464.631 564.97 464.506 564.523 464.506C564.063 464.506 563.703 464.606 563.443 464.807C563.184 465.007 563.054 465.269 563.054 465.593C563.054 465.898 563.174 466.128 563.416 466.283C563.658 466.438 564.093 466.586 564.722 466.728C565.355 466.869 565.868 467.037 566.26 467.233C566.652 467.429 566.941 467.666 567.128 467.944C567.319 468.218 567.415 468.553 567.415 468.949C567.415 469.61 567.151 470.141 566.622 470.542C566.093 470.938 565.408 471.137 564.564 471.137C563.972 471.137 563.448 471.032 562.992 470.822C562.536 470.613 562.179 470.321 561.919 469.947C561.664 469.569 561.536 469.161 561.536 468.724H562.801C562.824 469.147 562.992 469.485 563.307 469.735C563.626 469.981 564.045 470.104 564.564 470.104C565.043 470.104 565.426 470.009 565.713 469.817C566.005 469.621 566.15 469.362 566.15 469.038ZM570.778 461.812V463.604H572.159V464.581H570.778V469.168C570.778 469.464 570.84 469.688 570.963 469.838C571.086 469.984 571.296 470.057 571.592 470.057C571.738 470.057 571.938 470.029 572.193 469.975V471C571.861 471.091 571.537 471.137 571.223 471.137C570.658 471.137 570.231 470.966 569.944 470.624C569.657 470.282 569.514 469.797 569.514 469.168V464.581H568.167V463.604H569.514V461.812H570.778ZM584.963 471H583.644L578.633 463.33V471H577.313V461.047H578.633L583.657 468.751V461.047H584.963V471ZM591.662 471C591.589 470.854 591.53 470.594 591.484 470.221C590.896 470.831 590.195 471.137 589.379 471.137C588.65 471.137 588.05 470.932 587.581 470.521C587.116 470.107 586.884 469.583 586.884 468.949C586.884 468.179 587.175 467.582 587.759 467.158C588.347 466.73 589.172 466.516 590.233 466.516H591.464V465.935C591.464 465.493 591.332 465.142 591.067 464.882C590.803 464.618 590.413 464.485 589.898 464.485C589.447 464.485 589.069 464.599 588.764 464.827C588.458 465.055 588.306 465.331 588.306 465.654H587.034C587.034 465.285 587.164 464.93 587.424 464.588C587.688 464.242 588.044 463.968 588.49 463.768C588.941 463.567 589.436 463.467 589.974 463.467C590.826 463.467 591.493 463.681 591.977 464.109C592.46 464.533 592.71 465.119 592.729 465.866V469.271C592.729 469.95 592.815 470.49 592.988 470.891V471H591.662ZM589.563 470.036C589.96 470.036 590.336 469.934 590.691 469.729C591.047 469.523 591.304 469.257 591.464 468.929V467.411H590.473C588.923 467.411 588.148 467.865 588.148 468.771C588.148 469.168 588.281 469.478 588.545 469.701C588.809 469.924 589.149 470.036 589.563 470.036ZM595.9 463.604L595.935 464.424C596.477 463.786 597.208 463.467 598.129 463.467C599.163 463.467 599.868 463.863 600.241 464.656C600.487 464.301 600.806 464.014 601.198 463.795C601.595 463.576 602.062 463.467 602.6 463.467C604.222 463.467 605.047 464.326 605.074 466.044V471H603.81V466.119C603.81 465.59 603.689 465.196 603.447 464.937C603.206 464.672 602.8 464.54 602.23 464.54C601.761 464.54 601.371 464.681 601.062 464.964C600.752 465.242 600.572 465.618 600.521 466.092V471H599.25V466.153C599.25 465.078 598.724 464.54 597.671 464.54C596.841 464.54 596.274 464.893 595.969 465.6V471H594.704V463.604H595.9ZM610.058 471.137C609.055 471.137 608.239 470.809 607.61 470.152C606.981 469.492 606.667 468.61 606.667 467.507V467.274C606.667 466.541 606.806 465.887 607.084 465.312C607.367 464.734 607.758 464.283 608.26 463.959C608.766 463.631 609.312 463.467 609.9 463.467C610.862 463.467 611.609 463.784 612.143 464.417C612.676 465.05 612.942 465.957 612.942 467.138V467.664H607.932C607.95 468.393 608.162 468.983 608.567 469.435C608.978 469.881 609.497 470.104 610.126 470.104C610.573 470.104 610.951 470.013 611.261 469.831C611.571 469.649 611.842 469.407 612.074 469.106L612.847 469.708C612.227 470.66 611.297 471.137 610.058 471.137ZM609.9 464.506C609.39 464.506 608.962 464.693 608.615 465.066C608.269 465.436 608.055 465.955 607.973 466.625H611.678V466.529C611.641 465.887 611.468 465.39 611.158 465.039C610.848 464.684 610.429 464.506 609.9 464.506Z" fill="#727272"/>
<rect x="530.5" y="503.5" width="379" height="51" rx="6.5" fill="black" stroke="#B10DFF"/>
<path d="M547.475 531.927H552.191V533H546.155V523.047H547.475V531.927ZM558.057 533C557.984 532.854 557.924 532.594 557.879 532.221C557.291 532.831 556.589 533.137 555.773 533.137C555.044 533.137 554.445 532.932 553.976 532.521C553.511 532.107 553.278 531.583 553.278 530.949C553.278 530.179 553.57 529.582 554.153 529.158C554.741 528.73 555.566 528.516 556.628 528.516H557.858V527.935C557.858 527.493 557.726 527.142 557.462 526.882C557.198 526.618 556.808 526.485 556.293 526.485C555.842 526.485 555.464 526.599 555.158 526.827C554.853 527.055 554.7 527.331 554.7 527.654H553.429C553.429 527.285 553.559 526.93 553.818 526.588C554.083 526.242 554.438 525.968 554.885 525.768C555.336 525.567 555.83 525.467 556.368 525.467C557.22 525.467 557.888 525.681 558.371 526.109C558.854 526.533 559.105 527.119 559.123 527.866V531.271C559.123 531.95 559.21 532.49 559.383 532.891V533H558.057ZM555.958 532.036C556.354 532.036 556.73 531.934 557.086 531.729C557.441 531.523 557.699 531.257 557.858 530.929V529.411H556.867C555.318 529.411 554.543 529.865 554.543 530.771C554.543 531.168 554.675 531.478 554.939 531.701C555.204 531.924 555.543 532.036 555.958 532.036ZM565.412 531.038C565.412 530.696 565.282 530.432 565.022 530.245C564.767 530.054 564.318 529.89 563.676 529.753C563.038 529.616 562.53 529.452 562.151 529.261C561.778 529.069 561.5 528.841 561.317 528.577C561.14 528.313 561.051 527.998 561.051 527.634C561.051 527.028 561.306 526.515 561.816 526.096C562.331 525.676 562.988 525.467 563.785 525.467C564.624 525.467 565.303 525.683 565.822 526.116C566.346 526.549 566.608 527.103 566.608 527.777H565.337C565.337 527.431 565.189 527.132 564.893 526.882C564.601 526.631 564.232 526.506 563.785 526.506C563.325 526.506 562.965 526.606 562.705 526.807C562.445 527.007 562.315 527.269 562.315 527.593C562.315 527.898 562.436 528.128 562.678 528.283C562.919 528.438 563.354 528.586 563.983 528.728C564.617 528.869 565.13 529.037 565.521 529.233C565.913 529.429 566.203 529.666 566.39 529.944C566.581 530.218 566.677 530.553 566.677 530.949C566.677 531.61 566.412 532.141 565.884 532.542C565.355 532.938 564.669 533.137 563.826 533.137C563.234 533.137 562.71 533.032 562.254 532.822C561.798 532.613 561.44 532.321 561.181 531.947C560.925 531.569 560.798 531.161 560.798 530.724H562.062C562.085 531.147 562.254 531.485 562.568 531.735C562.887 531.981 563.307 532.104 563.826 532.104C564.305 532.104 564.688 532.009 564.975 531.817C565.266 531.621 565.412 531.362 565.412 531.038ZM570.04 523.812V525.604H571.421V526.581H570.04V531.168C570.04 531.464 570.102 531.688 570.225 531.838C570.348 531.984 570.557 532.057 570.854 532.057C570.999 532.057 571.2 532.029 571.455 531.975V533C571.122 533.091 570.799 533.137 570.484 533.137C569.919 533.137 569.493 532.966 569.206 532.624C568.919 532.282 568.775 531.797 568.775 531.168V526.581H567.429V525.604H568.775V523.812H570.04ZM584.225 533H582.905L577.895 525.33V533H576.575V523.047H577.895L582.919 530.751V523.047H584.225V533ZM590.924 533C590.851 532.854 590.792 532.594 590.746 532.221C590.158 532.831 589.456 533.137 588.641 533.137C587.911 533.137 587.312 532.932 586.843 532.521C586.378 532.107 586.146 531.583 586.146 530.949C586.146 530.179 586.437 529.582 587.021 529.158C587.608 528.73 588.433 528.516 589.495 528.516H590.726V527.935C590.726 527.493 590.593 527.142 590.329 526.882C590.065 526.618 589.675 526.485 589.16 526.485C588.709 526.485 588.331 526.599 588.025 526.827C587.72 527.055 587.567 527.331 587.567 527.654H586.296C586.296 527.285 586.426 526.93 586.686 526.588C586.95 526.242 587.305 525.968 587.752 525.768C588.203 525.567 588.698 525.467 589.235 525.467C590.088 525.467 590.755 525.681 591.238 526.109C591.721 526.533 591.972 527.119 591.99 527.866V531.271C591.99 531.95 592.077 532.49 592.25 532.891V533H590.924ZM588.825 532.036C589.222 532.036 589.598 531.934 589.953 531.729C590.309 531.523 590.566 531.257 590.726 530.929V529.411H589.734C588.185 529.411 587.41 529.865 587.41 530.771C587.41 531.168 587.542 531.478 587.807 531.701C588.071 531.924 588.41 532.036 588.825 532.036ZM595.162 525.604L595.196 526.424C595.739 525.786 596.47 525.467 597.391 525.467C598.425 525.467 599.129 525.863 599.503 526.656C599.749 526.301 600.068 526.014 600.46 525.795C600.856 525.576 601.324 525.467 601.861 525.467C603.484 525.467 604.309 526.326 604.336 528.044V533H603.071V528.119C603.071 527.59 602.951 527.196 602.709 526.937C602.467 526.672 602.062 526.54 601.492 526.54C601.023 526.54 600.633 526.681 600.323 526.964C600.013 527.242 599.833 527.618 599.783 528.092V533H598.512V528.153C598.512 527.078 597.985 526.54 596.933 526.54C596.103 526.54 595.536 526.893 595.23 527.6V533H593.966V525.604H595.162ZM609.319 533.137C608.317 533.137 607.501 532.809 606.872 532.152C606.243 531.492 605.929 530.61 605.929 529.507V529.274C605.929 528.541 606.068 527.887 606.346 527.312C606.628 526.734 607.02 526.283 607.521 525.959C608.027 525.631 608.574 525.467 609.162 525.467C610.124 525.467 610.871 525.784 611.404 526.417C611.938 527.05 612.204 527.957 612.204 529.138V529.664H607.193C607.212 530.393 607.424 530.983 607.829 531.435C608.239 531.881 608.759 532.104 609.388 532.104C609.834 532.104 610.213 532.013 610.522 531.831C610.832 531.649 611.104 531.407 611.336 531.106L612.108 531.708C611.489 532.66 610.559 533.137 609.319 533.137ZM609.162 526.506C608.652 526.506 608.223 526.693 607.877 527.066C607.531 527.436 607.316 527.955 607.234 528.625H610.939V528.529C610.903 527.887 610.73 527.39 610.42 527.039C610.11 526.684 609.691 526.506 609.162 526.506Z" fill="#727272"/>
<rect x="530.5" y="567.5" width="379" height="51" rx="6.5" fill="black" stroke="#B10DFF"/>
<path d="M553.162 587.047V593.814C553.158 594.753 552.861 595.521 552.273 596.118C551.69 596.715 550.897 597.05 549.895 597.123L549.546 597.137C548.457 597.137 547.589 596.843 546.941 596.255C546.294 595.667 545.966 594.858 545.957 593.828V587.047H547.256V593.787C547.256 594.507 547.454 595.068 547.851 595.469C548.247 595.865 548.812 596.063 549.546 596.063C550.289 596.063 550.856 595.865 551.248 595.469C551.645 595.072 551.843 594.514 551.843 593.794V587.047H553.162ZM559.342 595.038C559.342 594.696 559.212 594.432 558.952 594.245C558.697 594.054 558.248 593.89 557.605 593.753C556.967 593.616 556.459 593.452 556.081 593.261C555.707 593.069 555.429 592.841 555.247 592.577C555.069 592.313 554.98 591.998 554.98 591.634C554.98 591.028 555.236 590.515 555.746 590.096C556.261 589.676 556.917 589.467 557.715 589.467C558.553 589.467 559.232 589.683 559.752 590.116C560.276 590.549 560.538 591.103 560.538 591.777H559.267C559.267 591.431 559.118 591.132 558.822 590.882C558.531 590.631 558.161 590.506 557.715 590.506C557.255 590.506 556.895 590.606 556.635 590.807C556.375 591.007 556.245 591.269 556.245 591.593C556.245 591.898 556.366 592.128 556.607 592.283C556.849 592.438 557.284 592.586 557.913 592.728C558.547 592.869 559.059 593.037 559.451 593.233C559.843 593.429 560.132 593.666 560.319 593.944C560.511 594.218 560.606 594.553 560.606 594.949C560.606 595.61 560.342 596.141 559.813 596.542C559.285 596.938 558.599 597.137 557.756 597.137C557.163 597.137 556.639 597.032 556.184 596.822C555.728 596.613 555.37 596.321 555.11 595.947C554.855 595.569 554.728 595.161 554.728 594.724H555.992C556.015 595.147 556.184 595.485 556.498 595.735C556.817 595.981 557.236 596.104 557.756 596.104C558.234 596.104 558.617 596.009 558.904 595.817C559.196 595.621 559.342 595.362 559.342 595.038ZM565.323 597.137C564.321 597.137 563.505 596.809 562.876 596.152C562.247 595.492 561.933 594.61 561.933 593.507V593.274C561.933 592.541 562.072 591.887 562.35 591.312C562.632 590.734 563.024 590.283 563.525 589.959C564.031 589.631 564.578 589.467 565.166 589.467C566.128 589.467 566.875 589.784 567.408 590.417C567.941 591.05 568.208 591.957 568.208 593.138V593.664H563.197C563.215 594.393 563.427 594.983 563.833 595.435C564.243 595.881 564.763 596.104 565.392 596.104C565.838 596.104 566.216 596.013 566.526 595.831C566.836 595.649 567.107 595.407 567.34 595.106L568.112 595.708C567.493 596.66 566.563 597.137 565.323 597.137ZM565.166 590.506C564.656 590.506 564.227 590.693 563.881 591.066C563.535 591.436 563.32 591.955 563.238 592.625H566.943V592.529C566.907 591.887 566.734 591.39 566.424 591.039C566.114 590.684 565.695 590.506 565.166 590.506ZM573.253 590.738C573.062 590.706 572.854 590.69 572.631 590.69C571.801 590.69 571.239 591.044 570.942 591.75V597H569.678V589.604H570.908L570.929 590.458C571.343 589.797 571.931 589.467 572.692 589.467C572.938 589.467 573.125 589.499 573.253 589.562V590.738ZM575.618 589.604L575.659 590.533C576.224 589.822 576.963 589.467 577.874 589.467C579.437 589.467 580.226 590.349 580.239 592.112V597H578.975V592.105C578.97 591.572 578.847 591.178 578.605 590.923C578.368 590.668 577.997 590.54 577.491 590.54C577.081 590.54 576.721 590.649 576.411 590.868C576.101 591.087 575.86 591.374 575.687 591.729V597H574.422V589.604H575.618ZM586.713 597C586.64 596.854 586.581 596.594 586.535 596.221C585.947 596.831 585.245 597.137 584.43 597.137C583.701 597.137 583.101 596.932 582.632 596.521C582.167 596.107 581.935 595.583 581.935 594.949C581.935 594.179 582.226 593.582 582.81 593.158C583.397 592.73 584.222 592.516 585.284 592.516H586.515V591.935C586.515 591.493 586.382 591.142 586.118 590.882C585.854 590.618 585.464 590.485 584.949 590.485C584.498 590.485 584.12 590.599 583.814 590.827C583.509 591.055 583.356 591.331 583.356 591.654H582.085C582.085 591.285 582.215 590.93 582.475 590.588C582.739 590.242 583.094 589.968 583.541 589.768C583.992 589.567 584.487 589.467 585.024 589.467C585.877 589.467 586.544 589.681 587.027 590.109C587.51 590.533 587.761 591.119 587.779 591.866V595.271C587.779 595.95 587.866 596.49 588.039 596.891V597H586.713ZM584.614 596.036C585.011 596.036 585.387 595.934 585.742 595.729C586.098 595.523 586.355 595.257 586.515 594.929V593.411H585.523C583.974 593.411 583.199 593.865 583.199 594.771C583.199 595.168 583.331 595.478 583.596 595.701C583.86 595.924 584.2 596.036 584.614 596.036ZM590.951 589.604L590.985 590.424C591.528 589.786 592.259 589.467 593.18 589.467C594.214 589.467 594.918 589.863 595.292 590.656C595.538 590.301 595.857 590.014 596.249 589.795C596.646 589.576 597.113 589.467 597.65 589.467C599.273 589.467 600.098 590.326 600.125 592.044V597H598.86V592.119C598.86 591.59 598.74 591.196 598.498 590.937C598.257 590.672 597.851 590.54 597.281 590.54C596.812 590.54 596.422 590.681 596.112 590.964C595.802 591.242 595.622 591.618 595.572 592.092V597H594.301V592.153C594.301 591.078 593.774 590.54 592.722 590.54C591.892 590.54 591.325 590.893 591.02 591.6V597H589.755V589.604H590.951ZM605.108 597.137C604.106 597.137 603.29 596.809 602.661 596.152C602.032 595.492 601.718 594.61 601.718 593.507V593.274C601.718 592.541 601.857 591.887 602.135 591.312C602.417 590.734 602.809 590.283 603.311 589.959C603.816 589.631 604.363 589.467 604.951 589.467C605.913 589.467 606.66 589.784 607.193 590.417C607.727 591.05 607.993 591.957 607.993 593.138V593.664H602.982C603.001 594.393 603.213 594.983 603.618 595.435C604.028 595.881 604.548 596.104 605.177 596.104C605.623 596.104 606.002 596.013 606.312 595.831C606.621 595.649 606.893 595.407 607.125 595.106L607.897 595.708C607.278 596.66 606.348 597.137 605.108 597.137ZM604.951 590.506C604.441 590.506 604.012 590.693 603.666 591.066C603.32 591.436 603.105 591.955 603.023 592.625H606.729V592.529C606.692 591.887 606.519 591.39 606.209 591.039C605.899 590.684 605.48 590.506 604.951 590.506Z" fill="#727272"/>
<rect x="530.5" y="629.5" width="379" height="51" rx="6.5" fill="black" stroke="#B10DFF"/>
<path d="M547.468 655.104V659H546.155V649.047H549.826C550.915 649.047 551.768 649.325 552.383 649.881C553.003 650.437 553.312 651.173 553.312 652.089C553.312 653.055 553.009 653.8 552.403 654.324C551.802 654.844 550.938 655.104 549.812 655.104H547.468ZM547.468 654.03H549.826C550.528 654.03 551.066 653.866 551.439 653.538C551.813 653.205 552 652.727 552 652.103C552 651.51 551.813 651.036 551.439 650.681C551.066 650.325 550.553 650.141 549.901 650.127H547.468V654.03ZM559.273 659C559.201 658.854 559.141 658.594 559.096 658.221C558.508 658.831 557.806 659.137 556.99 659.137C556.261 659.137 555.662 658.932 555.192 658.521C554.728 658.107 554.495 657.583 554.495 656.949C554.495 656.179 554.787 655.582 555.37 655.158C555.958 654.73 556.783 654.516 557.845 654.516H559.075V653.935C559.075 653.493 558.943 653.142 558.679 652.882C558.414 652.618 558.025 652.485 557.51 652.485C557.059 652.485 556.68 652.599 556.375 652.827C556.07 653.055 555.917 653.331 555.917 653.654H554.646C554.646 653.285 554.775 652.93 555.035 652.588C555.299 652.242 555.655 651.968 556.102 651.768C556.553 651.567 557.047 651.467 557.585 651.467C558.437 651.467 559.105 651.681 559.588 652.109C560.071 652.533 560.322 653.119 560.34 653.866V657.271C560.34 657.95 560.426 658.49 560.6 658.891V659H559.273ZM557.175 658.036C557.571 658.036 557.947 657.934 558.303 657.729C558.658 657.523 558.916 657.257 559.075 656.929V655.411H558.084C556.535 655.411 555.76 655.865 555.76 656.771C555.76 657.168 555.892 657.478 556.156 657.701C556.421 657.924 556.76 658.036 557.175 658.036ZM566.629 657.038C566.629 656.696 566.499 656.432 566.239 656.245C565.984 656.054 565.535 655.89 564.893 655.753C564.255 655.616 563.746 655.452 563.368 655.261C562.994 655.069 562.716 654.841 562.534 654.577C562.356 654.313 562.268 653.998 562.268 653.634C562.268 653.028 562.523 652.515 563.033 652.096C563.548 651.676 564.204 651.467 565.002 651.467C565.84 651.467 566.52 651.683 567.039 652.116C567.563 652.549 567.825 653.103 567.825 653.777H566.554C566.554 653.431 566.406 653.132 566.109 652.882C565.818 652.631 565.449 652.506 565.002 652.506C564.542 652.506 564.182 652.606 563.922 652.807C563.662 653.007 563.532 653.269 563.532 653.593C563.532 653.898 563.653 654.128 563.895 654.283C564.136 654.438 564.571 654.586 565.2 654.728C565.834 654.869 566.346 655.037 566.738 655.233C567.13 655.429 567.42 655.666 567.606 655.944C567.798 656.218 567.894 656.553 567.894 656.949C567.894 657.61 567.629 658.141 567.101 658.542C566.572 658.938 565.886 659.137 565.043 659.137C564.451 659.137 563.926 659.032 563.471 658.822C563.015 658.613 562.657 658.321 562.397 657.947C562.142 657.569 562.015 657.161 562.015 656.724H563.279C563.302 657.147 563.471 657.485 563.785 657.735C564.104 657.981 564.523 658.104 565.043 658.104C565.521 658.104 565.904 658.009 566.191 657.817C566.483 657.621 566.629 657.362 566.629 657.038ZM573.848 657.038C573.848 656.696 573.718 656.432 573.458 656.245C573.203 656.054 572.754 655.89 572.111 655.753C571.473 655.616 570.965 655.452 570.587 655.261C570.213 655.069 569.935 654.841 569.753 654.577C569.575 654.313 569.486 653.998 569.486 653.634C569.486 653.028 569.742 652.515 570.252 652.096C570.767 651.676 571.423 651.467 572.221 651.467C573.059 651.467 573.738 651.683 574.258 652.116C574.782 652.549 575.044 653.103 575.044 653.777H573.772C573.772 653.431 573.624 653.132 573.328 652.882C573.036 652.631 572.667 652.506 572.221 652.506C571.76 652.506 571.4 652.606 571.141 652.807C570.881 653.007 570.751 653.269 570.751 653.593C570.751 653.898 570.872 654.128 571.113 654.283C571.355 654.438 571.79 654.586 572.419 654.728C573.052 654.869 573.565 655.037 573.957 655.233C574.349 655.429 574.638 655.666 574.825 655.944C575.017 656.218 575.112 656.553 575.112 656.949C575.112 657.61 574.848 658.141 574.319 658.542C573.791 658.938 573.105 659.137 572.262 659.137C571.669 659.137 571.145 659.032 570.689 658.822C570.234 658.613 569.876 658.321 569.616 657.947C569.361 657.569 569.233 657.161 569.233 656.724H570.498C570.521 657.147 570.689 657.485 571.004 657.735C571.323 657.981 571.742 658.104 572.262 658.104C572.74 658.104 573.123 658.009 573.41 657.817C573.702 657.621 573.848 657.362 573.848 657.038ZM583.309 657.257L584.73 651.604H585.995L583.842 659H582.816L581.019 653.395L579.269 659H578.243L576.097 651.604H577.354L578.811 657.141L580.533 651.604H581.552L583.309 657.257ZM586.952 655.233C586.952 654.509 587.093 653.857 587.376 653.278C587.663 652.7 588.06 652.253 588.565 651.938C589.076 651.624 589.657 651.467 590.309 651.467C591.316 651.467 592.129 651.815 592.749 652.513C593.373 653.21 593.686 654.137 593.686 655.295V655.384C593.686 656.104 593.547 656.751 593.269 657.325C592.995 657.895 592.601 658.339 592.086 658.658C591.576 658.977 590.988 659.137 590.322 659.137C589.32 659.137 588.506 658.788 587.882 658.091C587.262 657.394 586.952 656.471 586.952 655.322V655.233ZM588.224 655.384C588.224 656.204 588.413 656.863 588.791 657.359C589.174 657.856 589.684 658.104 590.322 658.104C590.965 658.104 591.475 657.854 591.854 657.353C592.232 656.847 592.421 656.14 592.421 655.233C592.421 654.422 592.227 653.766 591.84 653.265C591.457 652.759 590.947 652.506 590.309 652.506C589.684 652.506 589.181 652.754 588.798 653.251C588.415 653.748 588.224 654.459 588.224 655.384ZM598.847 652.738C598.655 652.706 598.448 652.69 598.225 652.69C597.395 652.69 596.832 653.044 596.536 653.75V659H595.271V651.604H596.502L596.522 652.458C596.937 651.797 597.525 651.467 598.286 651.467C598.532 651.467 598.719 651.499 598.847 651.562V652.738ZM599.571 655.24C599.571 654.105 599.84 653.194 600.378 652.506C600.916 651.813 601.62 651.467 602.49 651.467C603.356 651.467 604.042 651.763 604.548 652.355V648.5H605.812V659H604.65L604.589 658.207C604.083 658.827 603.379 659.137 602.477 659.137C601.62 659.137 600.92 658.786 600.378 658.084C599.84 657.382 599.571 656.466 599.571 655.336V655.24ZM600.836 655.384C600.836 656.222 601.009 656.879 601.355 657.353C601.702 657.826 602.18 658.063 602.791 658.063C603.593 658.063 604.179 657.703 604.548 656.983V653.586C604.17 652.889 603.589 652.54 602.805 652.54C602.185 652.54 601.702 652.779 601.355 653.258C601.009 653.736 600.836 654.445 600.836 655.384Z" fill="#727272"/>
<rect x="530.5" y="749.5" width="379" height="51" rx="6.5" fill="black" stroke="#B10DFF"/>
<path d="M548.377 777.147L550.1 771.604H551.453L548.479 780.142C548.019 781.372 547.288 781.987 546.285 781.987L546.046 781.967L545.574 781.878V780.853L545.916 780.88C546.344 780.88 546.677 780.793 546.914 780.62C547.156 780.447 547.354 780.13 547.509 779.67L547.789 778.918L545.15 771.604H546.531L548.377 777.147ZM555.008 777.147L556.73 771.604H558.084L555.11 780.142C554.65 781.372 553.919 781.987 552.916 781.987L552.677 781.967L552.205 781.878V780.853L552.547 780.88C552.975 780.88 553.308 780.793 553.545 780.62C553.786 780.447 553.985 780.13 554.14 779.67L554.42 778.918L551.781 771.604H553.162L555.008 777.147ZM561.639 777.147L563.361 771.604H564.715L561.741 780.142C561.281 781.372 560.549 781.987 559.547 781.987L559.308 781.967L558.836 781.878V780.853L559.178 780.88C559.606 780.88 559.939 780.793 560.176 780.62C560.417 780.447 560.616 780.13 560.771 779.67L561.051 778.918L558.412 771.604H559.793L561.639 777.147ZM568.27 777.147L569.992 771.604H571.346L568.372 780.142C567.912 781.372 567.18 781.987 566.178 781.987L565.938 781.967L565.467 781.878V780.853L565.809 780.88C566.237 780.88 566.57 780.793 566.807 780.62C567.048 780.447 567.246 780.13 567.401 779.67L567.682 778.918L565.043 771.604H566.424L568.27 777.147ZM575.112 775.288H571.776V774.256H575.112V775.288ZM577.539 771.604L577.573 772.424C578.116 771.786 578.847 771.467 579.768 771.467C580.802 771.467 581.506 771.863 581.88 772.656C582.126 772.301 582.445 772.014 582.837 771.795C583.233 771.576 583.701 771.467 584.238 771.467C585.861 771.467 586.686 772.326 586.713 774.044V779H585.448V774.119C585.448 773.59 585.327 773.196 585.086 772.937C584.844 772.672 584.439 772.54 583.869 772.54C583.4 772.54 583.01 772.681 582.7 772.964C582.39 773.242 582.21 773.618 582.16 774.092V779H580.889V774.153C580.889 773.078 580.362 772.54 579.31 772.54C578.48 772.54 577.913 772.893 577.607 773.6V779H576.343V771.604H577.539ZM589.816 771.604L589.851 772.424C590.393 771.786 591.124 771.467 592.045 771.467C593.079 771.467 593.784 771.863 594.157 772.656C594.403 772.301 594.722 772.014 595.114 771.795C595.511 771.576 595.978 771.467 596.516 771.467C598.138 771.467 598.963 772.326 598.99 774.044V779H597.726V774.119C597.726 773.59 597.605 773.196 597.363 772.937C597.122 772.672 596.716 772.54 596.146 772.54C595.677 772.54 595.287 772.681 594.978 772.964C594.668 773.242 594.488 773.618 594.438 774.092V779H593.166V774.153C593.166 773.078 592.64 772.54 591.587 772.54C590.757 772.54 590.19 772.893 589.885 773.6V779H588.62V771.604H589.816ZM603.536 775.288H600.2V774.256H603.536V775.288ZM604.466 775.24C604.466 774.105 604.735 773.194 605.272 772.506C605.81 771.813 606.514 771.467 607.385 771.467C608.251 771.467 608.937 771.763 609.442 772.355V768.5H610.707V779H609.545L609.483 778.207C608.978 778.827 608.273 779.137 607.371 779.137C606.514 779.137 605.815 778.786 605.272 778.084C604.735 777.382 604.466 776.466 604.466 775.336V775.24ZM605.73 775.384C605.73 776.222 605.904 776.879 606.25 777.353C606.596 777.826 607.075 778.063 607.686 778.063C608.488 778.063 609.073 777.703 609.442 776.983V773.586C609.064 772.889 608.483 772.54 607.699 772.54C607.079 772.54 606.596 772.779 606.25 773.258C605.904 773.736 605.73 774.445 605.73 775.384ZM612.368 775.24C612.368 774.105 612.637 773.194 613.175 772.506C613.713 771.813 614.417 771.467 615.287 771.467C616.153 771.467 616.839 771.763 617.345 772.355V768.5H618.609V779H617.447L617.386 778.207C616.88 778.827 616.176 779.137 615.273 779.137C614.417 779.137 613.717 778.786 613.175 778.084C612.637 777.382 612.368 776.466 612.368 775.336V775.24ZM613.633 775.384C613.633 776.222 613.806 776.879 614.152 777.353C614.499 777.826 614.977 778.063 615.588 778.063C616.39 778.063 616.976 777.703 617.345 776.983V773.586C616.966 772.889 616.385 772.54 615.602 772.54C614.982 772.54 614.499 772.779 614.152 773.258C613.806 773.736 613.633 774.445 613.633 775.384Z" fill="#727272"/>
<path d="M693.711 828.823H690.705V834H689.009V821.203H693.245C694.687 821.203 695.794 821.531 696.567 822.188C697.347 822.844 697.736 823.799 697.736 825.053C697.736 825.85 697.52 826.544 697.086 827.136C696.658 827.728 696.061 828.17 695.293 828.463L698.299 833.895V834H696.488L693.711 828.823ZM690.705 827.443H693.298C694.136 827.443 694.801 827.227 695.293 826.793C695.791 826.359 696.04 825.779 696.04 825.053C696.04 824.262 695.803 823.655 695.328 823.233C694.859 822.812 694.18 822.598 693.289 822.592H690.705V827.443ZM703.801 834.176C702.512 834.176 701.463 833.754 700.654 832.91C699.846 832.061 699.441 830.927 699.441 829.509V829.21C699.441 828.267 699.62 827.426 699.978 826.688C700.341 825.943 700.845 825.363 701.489 824.947C702.14 824.525 702.843 824.314 703.599 824.314C704.835 824.314 705.796 824.722 706.481 825.536C707.167 826.351 707.51 827.517 707.51 829.034V829.711H701.067C701.091 830.648 701.363 831.407 701.885 831.987C702.412 832.562 703.08 832.849 703.889 832.849C704.463 832.849 704.949 832.731 705.348 832.497C705.746 832.263 706.095 831.952 706.394 831.565L707.387 832.339C706.59 833.563 705.395 834.176 703.801 834.176ZM703.599 825.65C702.942 825.65 702.392 825.891 701.946 826.371C701.501 826.846 701.226 827.514 701.12 828.375H705.884V828.252C705.837 827.426 705.614 826.787 705.216 826.336C704.817 825.879 704.278 825.65 703.599 825.65ZM709.013 829.166C709.013 827.684 709.355 826.506 710.041 825.633C710.727 824.754 711.635 824.314 712.766 824.314C713.926 824.314 714.831 824.725 715.481 825.545L715.561 824.49H717.046V833.771C717.046 835.002 716.68 835.972 715.947 836.681C715.221 837.39 714.242 837.744 713.012 837.744C712.326 837.744 711.655 837.598 710.999 837.305C710.343 837.012 709.842 836.61 709.496 836.101L710.34 835.125C711.037 835.986 711.89 836.417 712.897 836.417C713.688 836.417 714.304 836.194 714.743 835.749C715.188 835.304 715.411 834.677 715.411 833.868V833.051C714.761 833.801 713.873 834.176 712.748 834.176C711.635 834.176 710.732 833.728 710.041 832.831C709.355 831.935 709.013 830.713 709.013 829.166ZM710.647 829.351C710.647 830.423 710.867 831.267 711.307 831.882C711.746 832.491 712.361 832.796 713.152 832.796C714.178 832.796 714.931 832.33 715.411 831.398V827.057C714.913 826.148 714.166 825.694 713.17 825.694C712.379 825.694 711.761 826.002 711.315 826.617C710.87 827.232 710.647 828.144 710.647 829.351ZM721.273 834H719.647V824.49H721.273V834ZM719.516 821.968C719.516 821.704 719.595 821.481 719.753 821.3C719.917 821.118 720.157 821.027 720.474 821.027C720.79 821.027 721.03 821.118 721.194 821.3C721.358 821.481 721.44 821.704 721.44 821.968C721.44 822.231 721.358 822.451 721.194 822.627C721.03 822.803 720.79 822.891 720.474 822.891C720.157 822.891 719.917 822.803 719.753 822.627C719.595 822.451 719.516 822.231 719.516 821.968ZM729.421 831.478C729.421 831.038 729.254 830.698 728.92 830.458C728.592 830.212 728.015 830.001 727.188 829.825C726.368 829.649 725.715 829.438 725.229 829.192C724.748 828.946 724.391 828.653 724.156 828.313C723.928 827.974 723.813 827.569 723.813 827.101C723.813 826.321 724.142 825.662 724.798 825.123C725.46 824.584 726.304 824.314 727.329 824.314C728.407 824.314 729.28 824.593 729.948 825.149C730.622 825.706 730.959 826.418 730.959 827.285H729.324C729.324 826.84 729.134 826.456 728.753 826.134C728.378 825.812 727.903 825.65 727.329 825.65C726.737 825.65 726.274 825.779 725.94 826.037C725.606 826.295 725.439 826.632 725.439 827.048C725.439 827.44 725.595 827.736 725.905 827.936C726.216 828.135 726.775 828.325 727.584 828.507C728.398 828.688 729.058 828.905 729.562 829.157C730.065 829.409 730.438 829.714 730.678 830.071C730.924 830.423 731.047 830.854 731.047 831.363C731.047 832.213 730.707 832.896 730.027 833.411C729.348 833.921 728.466 834.176 727.382 834.176C726.62 834.176 725.946 834.041 725.36 833.771C724.774 833.502 724.314 833.127 723.98 832.646C723.652 832.16 723.488 831.636 723.488 831.073H725.114C725.144 831.618 725.36 832.052 725.765 832.374C726.175 832.69 726.714 832.849 727.382 832.849C727.997 832.849 728.489 832.726 728.858 832.479C729.233 832.228 729.421 831.894 729.421 831.478ZM735.371 822.188V824.49H737.146V825.747H735.371V831.645C735.371 832.025 735.45 832.312 735.608 832.506C735.767 832.693 736.036 832.787 736.417 832.787C736.604 832.787 736.862 832.752 737.19 832.682V834C736.763 834.117 736.347 834.176 735.942 834.176C735.216 834.176 734.668 833.956 734.299 833.517C733.93 833.077 733.745 832.453 733.745 831.645V825.747H732.014V824.49H733.745V822.188H735.371ZM743 834.176C741.711 834.176 740.662 833.754 739.854 832.91C739.045 832.061 738.641 830.927 738.641 829.509V829.21C738.641 828.267 738.819 827.426 739.177 826.688C739.54 825.943 740.044 825.363 740.688 824.947C741.339 824.525 742.042 824.314 742.798 824.314C744.034 824.314 744.995 824.722 745.681 825.536C746.366 826.351 746.709 827.517 746.709 829.034V829.711H740.267C740.29 830.648 740.562 831.407 741.084 831.987C741.611 832.562 742.279 832.849 743.088 832.849C743.662 832.849 744.148 832.731 744.547 832.497C744.945 832.263 745.294 831.952 745.593 831.565L746.586 832.339C745.789 833.563 744.594 834.176 743 834.176ZM742.798 825.65C742.142 825.65 741.591 825.891 741.146 826.371C740.7 826.846 740.425 827.514 740.319 828.375H745.083V828.252C745.036 827.426 744.813 826.787 744.415 826.336C744.017 825.879 743.478 825.65 742.798 825.65ZM753.195 825.949C752.949 825.908 752.683 825.888 752.396 825.888C751.329 825.888 750.605 826.342 750.225 827.25V834H748.599V824.49H750.181L750.207 825.589C750.74 824.739 751.496 824.314 752.475 824.314C752.791 824.314 753.031 824.355 753.195 824.438V825.949Z" fill="#00C2FF"/>
<path d="M654.781 733V715.938H660.031C661.531 715.938 662.871 716.277 664.051 716.957C665.238 717.629 666.164 718.59 666.828 719.84C667.492 721.082 667.824 722.496 667.824 724.082V724.867C667.824 726.453 667.496 727.863 666.84 729.098C666.191 730.332 665.273 731.289 664.086 731.969C662.898 732.648 661.559 732.992 660.066 733H654.781ZM658.297 718.785V730.176H659.996C661.371 730.176 662.422 729.727 663.148 728.828C663.875 727.93 664.246 726.645 664.262 724.973V724.07C664.262 722.336 663.902 721.023 663.184 720.133C662.465 719.234 661.414 718.785 660.031 718.785H658.297ZM677.516 733C677.359 732.695 677.246 732.316 677.176 731.863C676.355 732.777 675.289 733.234 673.977 733.234C672.734 733.234 671.703 732.875 670.883 732.156C670.07 731.438 669.664 730.531 669.664 729.438C669.664 728.094 670.16 727.062 671.152 726.344C672.152 725.625 673.594 725.262 675.477 725.254H677.035V724.527C677.035 723.941 676.883 723.473 676.578 723.121C676.281 722.77 675.809 722.594 675.16 722.594C674.59 722.594 674.141 722.73 673.812 723.004C673.492 723.277 673.332 723.652 673.332 724.129H669.945C669.945 723.395 670.172 722.715 670.625 722.09C671.078 721.465 671.719 720.977 672.547 720.625C673.375 720.266 674.305 720.086 675.336 720.086C676.898 720.086 678.137 720.48 679.051 721.27C679.973 722.051 680.434 723.152 680.434 724.574V730.07C680.441 731.273 680.609 732.184 680.938 732.801V733H677.516ZM674.715 730.645C675.215 730.645 675.676 730.535 676.098 730.316C676.52 730.09 676.832 729.789 677.035 729.414V727.234H675.77C674.074 727.234 673.172 727.82 673.062 728.992L673.051 729.191C673.051 729.613 673.199 729.961 673.496 730.234C673.793 730.508 674.199 730.645 674.715 730.645ZM687.09 717.203V720.32H689.258V722.805H687.09V729.133C687.09 729.602 687.18 729.938 687.359 730.141C687.539 730.344 687.883 730.445 688.391 730.445C688.766 730.445 689.098 730.418 689.387 730.363V732.93C688.723 733.133 688.039 733.234 687.336 733.234C684.961 733.234 683.75 732.035 683.703 729.637V722.805H681.852V720.32H683.703V717.203H687.09ZM696.98 733.234C695.121 733.234 693.605 732.664 692.434 731.523C691.27 730.383 690.688 728.863 690.688 726.965V726.637C690.688 725.363 690.934 724.227 691.426 723.227C691.918 722.219 692.613 721.445 693.512 720.906C694.418 720.359 695.449 720.086 696.605 720.086C698.34 720.086 699.703 720.633 700.695 721.727C701.695 722.82 702.195 724.371 702.195 726.379V727.762H694.121C694.23 728.59 694.559 729.254 695.105 729.754C695.66 730.254 696.359 730.504 697.203 730.504C698.508 730.504 699.527 730.031 700.262 729.086L701.926 730.949C701.418 731.668 700.73 732.23 699.863 732.637C698.996 733.035 698.035 733.234 696.98 733.234ZM696.594 722.828C695.922 722.828 695.375 723.055 694.953 723.508C694.539 723.961 694.273 724.609 694.156 725.453H698.867V725.184C698.852 724.434 698.648 723.855 698.258 723.449C697.867 723.035 697.312 722.828 696.594 722.828ZM709.578 726.543C709.578 725.285 709.82 724.164 710.305 723.18C710.789 722.195 711.484 721.434 712.391 720.895C713.305 720.355 714.363 720.086 715.566 720.086C717.277 720.086 718.672 720.609 719.75 721.656C720.836 722.703 721.441 724.125 721.566 725.922L721.59 726.789C721.59 728.734 721.047 730.297 719.961 731.477C718.875 732.648 717.418 733.234 715.59 733.234C713.762 733.234 712.301 732.648 711.207 731.477C710.121 730.305 709.578 728.711 709.578 726.695V726.543ZM712.965 726.789C712.965 727.992 713.191 728.914 713.645 729.555C714.098 730.188 714.746 730.504 715.59 730.504C716.41 730.504 717.051 730.191 717.512 729.566C717.973 728.934 718.203 727.926 718.203 726.543C718.203 725.363 717.973 724.449 717.512 723.801C717.051 723.152 716.402 722.828 715.566 722.828C714.738 722.828 714.098 723.152 713.645 723.801C713.191 724.441 712.965 725.438 712.965 726.789ZM724.602 733V722.805H722.715V720.32H724.602V719.242C724.602 717.82 725.008 716.719 725.82 715.938C726.641 715.148 727.785 714.754 729.254 714.754C729.723 714.754 730.297 714.832 730.977 714.988L730.941 717.613C730.66 717.543 730.316 717.508 729.91 717.508C728.637 717.508 728 718.105 728 719.301V720.32H730.52V722.805H728V733H724.602ZM749.68 726.777C749.68 728.809 749.246 730.395 748.379 731.535C747.512 732.668 746.301 733.234 744.746 733.234C743.371 733.234 742.273 732.707 741.453 731.652L741.301 733H738.254V715H741.641V721.457C742.422 720.543 743.449 720.086 744.723 720.086C746.27 720.086 747.48 720.656 748.355 721.797C749.238 722.93 749.68 724.527 749.68 726.59V726.777ZM746.293 726.531C746.293 725.25 746.09 724.316 745.684 723.73C745.277 723.137 744.672 722.84 743.867 722.84C742.789 722.84 742.047 723.281 741.641 724.164V729.168C742.055 730.059 742.805 730.504 743.891 730.504C744.984 730.504 745.703 729.965 746.047 728.887C746.211 728.371 746.293 727.586 746.293 726.531ZM755.352 733H751.953V720.32H755.352V733ZM751.754 717.039C751.754 716.531 751.922 716.113 752.258 715.785C752.602 715.457 753.066 715.293 753.652 715.293C754.23 715.293 754.691 715.457 755.035 715.785C755.379 716.113 755.551 716.531 755.551 717.039C755.551 717.555 755.375 717.977 755.023 718.305C754.68 718.633 754.223 718.797 753.652 718.797C753.082 718.797 752.621 718.633 752.27 718.305C751.926 717.977 751.754 717.555 751.754 717.039ZM765.277 723.496C764.816 723.434 764.41 723.402 764.059 723.402C762.777 723.402 761.938 723.836 761.539 724.703V733H758.152V720.32H761.352L761.445 721.832C762.125 720.668 763.066 720.086 764.27 720.086C764.645 720.086 764.996 720.137 765.324 720.238L765.277 723.496ZM771.559 717.203V720.32H773.727V722.805H771.559V729.133C771.559 729.602 771.648 729.938 771.828 730.141C772.008 730.344 772.352 730.445 772.859 730.445C773.234 730.445 773.566 730.418 773.855 730.363V732.93C773.191 733.133 772.508 733.234 771.805 733.234C769.43 733.234 768.219 732.035 768.172 729.637V722.805H766.32V720.32H768.172V717.203H771.559ZM778.918 721.703C779.816 720.625 780.945 720.086 782.305 720.086C785.055 720.086 786.449 721.684 786.488 724.879V733H783.102V724.973C783.102 724.246 782.945 723.711 782.633 723.367C782.32 723.016 781.801 722.84 781.074 722.84C780.082 722.84 779.363 723.223 778.918 723.988V733H775.531V715H778.918V721.703Z" fill="#00C2FF"/>
<defs>
<linearGradient id="paint0_linear" x1="934.449" y1="149.992" x2="537.565" y2="149.992" gradientUnits="userSpaceOnUse">
<stop stop-color="#00C2FF"/>
<stop offset="0.0001" stop-color="#00C2FF"/>
<stop offset="1" stop-color="#B10DFF"/>
</linearGradient>
<linearGradient id="paint1_linear" x1="934.449" y1="149.992" x2="537.565" y2="149.992" gradientUnits="userSpaceOnUse">
<stop stop-color="#00C2FF"/>
<stop offset="0.0001" stop-color="#00C2FF"/>
<stop offset="1" stop-color="#B10DFF"/>
</linearGradient>
<linearGradient id="paint2_linear" x1="934.449" y1="149.992" x2="537.565" y2="149.992" gradientUnits="userSpaceOnUse">
<stop stop-color="#00C2FF"/>
<stop offset="0.0001" stop-color="#00C2FF"/>
<stop offset="1" stop-color="#B10DFF"/>
</linearGradient>
<linearGradient id="paint3_linear" x1="934.449" y1="149.992" x2="537.565" y2="149.992" gradientUnits="userSpaceOnUse">
<stop stop-color="#00C2FF"/>
<stop offset="0.0001" stop-color="#00C2FF"/>
<stop offset="1" stop-color="#B10DFF"/>
</linearGradient>
<linearGradient id="paint4_linear" x1="934.449" y1="149.992" x2="537.565" y2="149.992" gradientUnits="userSpaceOnUse">
<stop stop-color="#00C2FF"/>
<stop offset="0.0001" stop-color="#00C2FF"/>
<stop offset="1" stop-color="#B10DFF"/>
</linearGradient>
<linearGradient id="paint5_linear" x1="934.449" y1="149.992" x2="537.565" y2="149.992" gradientUnits="userSpaceOnUse">
<stop stop-color="#00C2FF"/>
<stop offset="0.0001" stop-color="#00C2FF"/>
<stop offset="1" stop-color="#B10DFF"/>
</linearGradient>
</defs>
</svg>
