<svg width="1440" height="1024" viewBox="0 0 1440 1024" fill="none" xmlns="http://www.w3.org/2000/svg">
<rect width="1440" height="1024" fill="black"/>
<rect x="529" y="93" width="90.2716" height="90.2716" rx="5" fill="#00C2FF"/>
<rect x="536.782" y="100.781" width="90.2716" height="90.2716" rx="5" fill="#AD00FF" fill-opacity="0.63"/>
<path d="M546.797 113.745C547.23 113.366 547.803 113.185 548.377 113.244L594.967 117.267C595.998 117.38 596.777 117.225 596.777 118.25V156.379C598.62 155.288 600.73 154.717 602.878 154.727C608.484 154.727 613.046 158.336 613.046 162.774C613.046 167.211 608.484 170.82 602.878 170.82C597.272 170.82 586.022 166.874 586.022 162.435C586.022 162.435 586.022 131.764 586.022 130.258C586.022 127.012 575.267 138.902 571.471 138.902C567.675 138.902 556.558 122.657 556.558 127.012C556.558 128.635 556.558 152.35 556.558 152.35C558.402 151.261 560.512 150.692 562.659 150.704C568.265 150.704 572.827 154.313 572.827 158.75C572.827 163.188 568.265 166.797 562.659 166.797C557.053 166.797 546.12 163.19 546.12 158.75V137.629V115.243C546.12 114.671 546.366 114.126 546.797 113.745Z" fill="white"/>
<rect x="529" y="93" width="90.2716" height="90.2716" rx="5" fill="#00C2FF"/>
<rect x="536.782" y="100.781" width="90.2716" height="90.2716" rx="5" fill="#AD00FF" fill-opacity="0.63"/>
<path d="M546.797 113.745C547.23 113.366 547.803 113.185 548.377 113.244L594.967 117.267C595.998 117.38 596.777 117.225 596.777 118.25V156.379C598.62 155.288 600.73 154.717 602.878 154.727C608.484 154.727 613.046 158.336 613.046 162.774C613.046 167.211 608.484 170.82 602.878 170.82C597.272 170.82 586.022 166.874 586.022 162.435C586.022 162.435 586.022 131.764 586.022 130.258C586.022 127.012 575.267 138.902 571.471 138.902C567.675 138.902 556.558 122.657 556.558 127.012C556.558 128.635 556.558 152.35 556.558 152.35C558.402 151.261 560.512 150.692 562.659 150.704C568.265 150.704 572.827 154.313 572.827 158.75C572.827 163.188 568.265 166.797 562.659 166.797C557.053 166.797 546.12 163.19 546.12 158.75V137.629V115.243C546.12 114.671 546.366 114.126 546.797 113.745Z" fill="white"/>
<rect x="529" y="93" width="90.2716" height="90.2716" rx="5" fill="#00C2FF"/>
<rect x="536.782" y="100.781" width="90.2716" height="90.2716" rx="5" fill="#AD00FF" fill-opacity="0.63"/>
<path d="M546.797 113.745C547.23 113.366 547.803 113.185 548.377 113.244L594.967 117.267C595.998 117.38 596.777 117.225 596.777 118.25V156.379C598.62 155.288 600.73 154.717 602.878 154.727C608.484 154.727 613.046 158.336 613.046 162.774C613.046 167.211 608.484 170.82 602.878 170.82C597.272 170.82 586.022 166.874 586.022 162.435C586.022 162.435 586.022 131.764 586.022 130.258C586.022 127.012 575.267 138.902 571.471 138.902C567.675 138.902 556.558 122.657 556.558 127.012C556.558 128.635 556.558 152.35 556.558 152.35C558.402 151.261 560.512 150.692 562.659 150.704C568.265 150.704 572.827 154.313 572.827 158.75C572.827 163.188 568.265 166.797 562.659 166.797C557.053 166.797 546.12 163.19 546.12 158.75V137.629V115.243C546.12 114.671 546.366 114.126 546.797 113.745Z" fill="white"/>
<path d="M678.232 118.669V153.433C678.232 157.373 677.393 160.789 675.715 163.683C674.037 166.553 671.629 168.742 668.492 170.249C665.355 171.757 661.646 172.511 657.366 172.511C650.897 172.511 645.803 170.833 642.082 167.477C638.361 164.121 636.464 159.525 636.391 153.688V118.669H649.268V153.944C649.414 159.756 652.113 162.662 657.366 162.662C660.017 162.662 662.023 161.932 663.385 160.473C664.747 159.014 665.428 156.643 665.428 153.36V118.669H678.232Z" fill="url(#paint0_linear)"/>
<path d="M713.652 157.664C713.652 155.792 712.983 154.333 711.646 153.287C710.333 152.241 708.01 151.159 704.678 150.04C701.347 148.922 698.623 147.84 696.507 146.794C689.625 143.414 686.184 138.769 686.184 132.859C686.184 129.917 687.035 127.327 688.737 125.089C690.464 122.828 692.896 121.077 696.033 119.836C699.17 118.572 702.697 117.94 706.612 117.94C710.43 117.94 713.847 118.62 716.862 119.982C719.902 121.344 722.261 123.29 723.939 125.819C725.617 128.324 726.456 131.193 726.456 134.428H713.689C713.689 132.263 713.02 130.585 711.682 129.394C710.369 128.202 708.582 127.606 706.32 127.606C704.034 127.606 702.222 128.117 700.885 129.138C699.572 130.135 698.915 131.412 698.915 132.969C698.915 134.33 699.644 135.571 701.104 136.689C702.563 137.784 705.128 138.927 708.801 140.118C712.473 141.286 715.488 142.55 717.847 143.912C723.586 147.219 726.456 151.779 726.456 157.591C726.456 162.236 724.705 165.884 721.203 168.535C717.701 171.186 712.898 172.511 706.794 172.511C702.49 172.511 698.587 171.745 695.085 170.213C691.607 168.657 688.981 166.541 687.205 163.866C685.454 161.166 684.579 158.066 684.579 154.564H697.419C697.419 157.409 698.149 159.513 699.608 160.875C701.091 162.212 703.487 162.881 706.794 162.881C708.91 162.881 710.576 162.431 711.792 161.531C713.032 160.607 713.652 159.318 713.652 157.664Z" fill="url(#paint1_linear)"/>
<path d="M745.826 153.761V171.782H733.022V118.669H754.216C758.277 118.669 761.864 119.423 764.977 120.931C768.114 122.414 770.534 124.542 772.236 127.314C773.963 130.063 774.826 133.187 774.826 136.689C774.826 141.869 772.966 146.016 769.245 149.128C765.549 152.217 760.466 153.761 753.997 153.761H745.826ZM745.826 143.876H754.216C756.697 143.876 758.581 143.255 759.87 142.015C761.183 140.775 761.84 139.024 761.84 136.762C761.84 134.282 761.171 132.3 759.834 130.816C758.496 129.333 756.672 128.579 754.362 128.555H745.826V143.876Z" fill="url(#paint2_linear)"/>
<path d="M805.359 161.859H787.813L784.748 171.782H771.069L790.548 118.669H802.586L822.212 171.782H808.459L805.359 161.859ZM790.877 151.974H802.294L796.567 133.552L790.877 151.974Z" fill="url(#paint3_linear)"/>
<path d="M868.284 153.798C868.113 157.494 867.116 160.765 865.292 163.61C863.469 166.431 860.903 168.62 857.596 170.176C854.312 171.733 850.555 172.511 846.324 172.511C839.344 172.511 833.848 170.237 829.836 165.69C825.823 161.142 823.817 154.722 823.817 146.429V143.803C823.817 138.598 824.716 134.051 826.516 130.16C828.34 126.244 830.954 123.229 834.359 121.113C837.763 118.973 841.703 117.903 846.178 117.903C852.622 117.903 857.802 119.605 861.718 123.01C865.633 126.39 867.858 131.06 868.393 137.018H855.626C855.528 133.783 854.714 131.461 853.182 130.05C851.65 128.64 849.315 127.935 846.178 127.935C842.992 127.935 840.657 129.126 839.174 131.509C837.691 133.893 836.912 137.699 836.839 142.927V146.684C836.839 152.351 837.545 156.4 838.955 158.832C840.39 161.264 842.846 162.48 846.324 162.48C849.266 162.48 851.516 161.786 853.072 160.4C854.629 159.014 855.455 156.813 855.553 153.798H868.284Z" fill="url(#paint4_linear)"/>
<path d="M907.279 149.274H887.143V161.932H910.927V171.782H874.339V118.669H911V128.555H887.143V139.754H907.279V149.274Z" fill="url(#paint5_linear)"/>
<path d="M539.918 323.316C539.785 325.152 539.105 326.598 537.879 327.652C536.66 328.707 535.051 329.234 533.051 329.234C530.863 329.234 529.141 328.5 527.883 327.031C526.633 325.555 526.008 323.531 526.008 320.961V319.918C526.008 318.277 526.297 316.832 526.875 315.582C527.453 314.332 528.277 313.375 529.348 312.711C530.426 312.039 531.676 311.703 533.098 311.703C535.066 311.703 536.652 312.23 537.855 313.285C539.059 314.34 539.754 315.82 539.941 317.727H536.426C536.34 316.625 536.031 315.828 535.5 315.336C534.977 314.836 534.176 314.586 533.098 314.586C531.926 314.586 531.047 315.008 530.461 315.852C529.883 316.688 529.586 317.988 529.57 319.754V321.043C529.57 322.887 529.848 324.234 530.402 325.086C530.965 325.938 531.848 326.363 533.051 326.363C534.137 326.363 534.945 326.117 535.477 325.625C536.016 325.125 536.324 324.355 536.402 323.316H539.918ZM545.309 317.703C546.207 316.625 547.336 316.086 548.695 316.086C551.445 316.086 552.84 317.684 552.879 320.879V329H549.492V320.973C549.492 320.246 549.336 319.711 549.023 319.367C548.711 319.016 548.191 318.84 547.465 318.84C546.473 318.84 545.754 319.223 545.309 319.988V329H541.922V311H545.309V317.703ZM561.27 329.234C559.41 329.234 557.895 328.664 556.723 327.523C555.559 326.383 554.977 324.863 554.977 322.965V322.637C554.977 321.363 555.223 320.227 555.715 319.227C556.207 318.219 556.902 317.445 557.801 316.906C558.707 316.359 559.738 316.086 560.895 316.086C562.629 316.086 563.992 316.633 564.984 317.727C565.984 318.82 566.484 320.371 566.484 322.379V323.762H558.41C558.52 324.59 558.848 325.254 559.395 325.754C559.949 326.254 560.648 326.504 561.492 326.504C562.797 326.504 563.816 326.031 564.551 325.086L566.215 326.949C565.707 327.668 565.02 328.23 564.152 328.637C563.285 329.035 562.324 329.234 561.27 329.234ZM560.883 318.828C560.211 318.828 559.664 319.055 559.242 319.508C558.828 319.961 558.562 320.609 558.445 321.453H563.156V321.184C563.141 320.434 562.938 319.855 562.547 319.449C562.156 319.035 561.602 318.828 560.883 318.828ZM573.691 326.504C574.316 326.504 574.824 326.332 575.215 325.988C575.605 325.645 575.809 325.188 575.824 324.617H579C578.992 325.477 578.758 326.266 578.297 326.984C577.836 327.695 577.203 328.25 576.398 328.648C575.602 329.039 574.719 329.234 573.75 329.234C571.938 329.234 570.508 328.66 569.461 327.512C568.414 326.355 567.891 324.762 567.891 322.73V322.508C567.891 320.555 568.41 318.996 569.449 317.832C570.488 316.668 571.914 316.086 573.727 316.086C575.312 316.086 576.582 316.539 577.535 317.445C578.496 318.344 578.984 319.543 579 321.043H575.824C575.809 320.387 575.605 319.855 575.215 319.449C574.824 319.035 574.309 318.828 573.668 318.828C572.879 318.828 572.281 319.117 571.875 319.695C571.477 320.266 571.277 321.195 571.277 322.484V322.836C571.277 324.141 571.477 325.078 571.875 325.648C572.273 326.219 572.879 326.504 573.691 326.504ZM585.539 323.914L584.32 325.133V329H580.934V311H584.32V320.973L584.977 320.129L588.223 316.32H592.289L587.707 321.605L592.688 329H588.797L585.539 323.914ZM604.465 324.207L606.809 316.32H610.441L605.344 330.969L605.062 331.637C604.305 333.293 603.055 334.121 601.312 334.121C600.82 334.121 600.32 334.047 599.812 333.898V331.332L600.328 331.344C600.969 331.344 601.445 331.246 601.758 331.051C602.078 330.855 602.328 330.531 602.508 330.078L602.906 329.035L598.465 316.32H602.109L604.465 324.207ZM611.062 322.543C611.062 321.285 611.305 320.164 611.789 319.18C612.273 318.195 612.969 317.434 613.875 316.895C614.789 316.355 615.848 316.086 617.051 316.086C618.762 316.086 620.156 316.609 621.234 317.656C622.32 318.703 622.926 320.125 623.051 321.922L623.074 322.789C623.074 324.734 622.531 326.297 621.445 327.477C620.359 328.648 618.902 329.234 617.074 329.234C615.246 329.234 613.785 328.648 612.691 327.477C611.605 326.305 611.062 324.711 611.062 322.695V322.543ZM614.449 322.789C614.449 323.992 614.676 324.914 615.129 325.555C615.582 326.188 616.23 326.504 617.074 326.504C617.895 326.504 618.535 326.191 618.996 325.566C619.457 324.934 619.688 323.926 619.688 322.543C619.688 321.363 619.457 320.449 618.996 319.801C618.535 319.152 617.887 318.828 617.051 318.828C616.223 318.828 615.582 319.152 615.129 319.801C614.676 320.441 614.449 321.438 614.449 322.789ZM632.754 327.711C631.918 328.727 630.762 329.234 629.285 329.234C627.926 329.234 626.887 328.844 626.168 328.062C625.457 327.281 625.094 326.137 625.078 324.629V316.32H628.465V324.512C628.465 325.832 629.066 326.492 630.27 326.492C631.418 326.492 632.207 326.094 632.637 325.297V316.32H636.035V329H632.848L632.754 327.711ZM645.715 319.496C645.254 319.434 644.848 319.402 644.496 319.402C643.215 319.402 642.375 319.836 641.977 320.703V329H638.59V316.32H641.789L641.883 317.832C642.562 316.668 643.504 316.086 644.707 316.086C645.082 316.086 645.434 316.137 645.762 316.238L645.715 319.496ZM659.168 329.234C657.309 329.234 655.793 328.664 654.621 327.523C653.457 326.383 652.875 324.863 652.875 322.965V322.637C652.875 321.363 653.121 320.227 653.613 319.227C654.105 318.219 654.801 317.445 655.699 316.906C656.605 316.359 657.637 316.086 658.793 316.086C660.527 316.086 661.891 316.633 662.883 317.727C663.883 318.82 664.383 320.371 664.383 322.379V323.762H656.309C656.418 324.59 656.746 325.254 657.293 325.754C657.848 326.254 658.547 326.504 659.391 326.504C660.695 326.504 661.715 326.031 662.449 325.086L664.113 326.949C663.605 327.668 662.918 328.23 662.051 328.637C661.184 329.035 660.223 329.234 659.168 329.234ZM658.781 318.828C658.109 318.828 657.562 319.055 657.141 319.508C656.727 319.961 656.461 320.609 656.344 321.453H661.055V321.184C661.039 320.434 660.836 319.855 660.445 319.449C660.055 319.035 659.5 318.828 658.781 318.828ZM669.492 316.32L669.598 317.738C670.496 316.637 671.711 316.086 673.242 316.086C674.875 316.086 675.996 316.73 676.605 318.02C677.496 316.73 678.766 316.086 680.414 316.086C681.789 316.086 682.812 316.488 683.484 317.293C684.156 318.09 684.492 319.293 684.492 320.902V329H681.094V320.914C681.094 320.195 680.953 319.672 680.672 319.344C680.391 319.008 679.895 318.84 679.184 318.84C678.168 318.84 677.465 319.324 677.074 320.293L677.086 329H673.699V320.926C673.699 320.191 673.555 319.66 673.266 319.332C672.977 319.004 672.484 318.84 671.789 318.84C670.828 318.84 670.133 319.238 669.703 320.035V329H666.316V316.32H669.492ZM694.453 329C694.297 328.695 694.184 328.316 694.113 327.863C693.293 328.777 692.227 329.234 690.914 329.234C689.672 329.234 688.641 328.875 687.82 328.156C687.008 327.438 686.602 326.531 686.602 325.438C686.602 324.094 687.098 323.062 688.09 322.344C689.09 321.625 690.531 321.262 692.414 321.254H693.973V320.527C693.973 319.941 693.82 319.473 693.516 319.121C693.219 318.77 692.746 318.594 692.098 318.594C691.527 318.594 691.078 318.73 690.75 319.004C690.43 319.277 690.27 319.652 690.27 320.129H686.883C686.883 319.395 687.109 318.715 687.562 318.09C688.016 317.465 688.656 316.977 689.484 316.625C690.312 316.266 691.242 316.086 692.273 316.086C693.836 316.086 695.074 316.48 695.988 317.27C696.91 318.051 697.371 319.152 697.371 320.574V326.07C697.379 327.273 697.547 328.184 697.875 328.801V329H694.453ZM691.652 326.645C692.152 326.645 692.613 326.535 693.035 326.316C693.457 326.09 693.77 325.789 693.973 325.414V323.234H692.707C691.012 323.234 690.109 323.82 690 324.992L689.988 325.191C689.988 325.613 690.137 325.961 690.434 326.234C690.73 326.508 691.137 326.645 691.652 326.645ZM703.547 329H700.148V316.32H703.547V329ZM699.949 313.039C699.949 312.531 700.117 312.113 700.453 311.785C700.797 311.457 701.262 311.293 701.848 311.293C702.426 311.293 702.887 311.457 703.23 311.785C703.574 312.113 703.746 312.531 703.746 313.039C703.746 313.555 703.57 313.977 703.219 314.305C702.875 314.633 702.418 314.797 701.848 314.797C701.277 314.797 700.816 314.633 700.465 314.305C700.121 313.977 699.949 313.555 699.949 313.039ZM709.922 329H706.523V311H709.922V329Z" fill="#FEFEFE"/>
<path d="M542.404 218.369C542.249 220.511 541.456 222.197 540.025 223.428C538.604 224.658 536.726 225.273 534.393 225.273C531.84 225.273 529.831 224.417 528.363 222.703C526.905 220.98 526.176 218.62 526.176 215.621V214.404C526.176 212.49 526.513 210.804 527.188 209.346C527.862 207.887 528.824 206.771 530.072 205.996C531.33 205.212 532.788 204.82 534.447 204.82C536.744 204.82 538.594 205.436 539.998 206.666C541.402 207.896 542.213 209.624 542.432 211.848H538.33C538.23 210.562 537.87 209.633 537.25 209.059C536.639 208.475 535.705 208.184 534.447 208.184C533.08 208.184 532.055 208.676 531.371 209.66C530.697 210.635 530.35 212.153 530.332 214.213V215.717C530.332 217.868 530.656 219.44 531.303 220.434C531.959 221.427 532.989 221.924 534.393 221.924C535.66 221.924 536.603 221.637 537.223 221.062C537.852 220.479 538.212 219.581 538.303 218.369H542.404ZM553.15 213.912C552.613 213.839 552.139 213.803 551.729 213.803C550.234 213.803 549.254 214.309 548.789 215.32V225H544.838V210.207H548.57L548.68 211.971C549.473 210.613 550.571 209.934 551.975 209.934C552.412 209.934 552.822 209.993 553.205 210.111L553.15 213.912ZM561.6 225.273C559.43 225.273 557.662 224.608 556.295 223.277C554.937 221.947 554.258 220.174 554.258 217.959V217.576C554.258 216.09 554.545 214.764 555.119 213.598C555.693 212.422 556.505 211.52 557.553 210.891C558.61 210.253 559.813 209.934 561.162 209.934C563.186 209.934 564.776 210.572 565.934 211.848C567.1 213.124 567.684 214.933 567.684 217.275V218.889H558.264C558.391 219.855 558.774 220.63 559.412 221.213C560.059 221.796 560.875 222.088 561.859 222.088C563.382 222.088 564.571 221.536 565.428 220.434L567.369 222.607C566.777 223.446 565.975 224.102 564.963 224.576C563.951 225.041 562.83 225.273 561.6 225.273ZM561.148 213.133C560.365 213.133 559.727 213.397 559.234 213.926C558.751 214.454 558.441 215.211 558.305 216.195H563.801V215.881C563.783 215.006 563.546 214.331 563.09 213.857C562.634 213.374 561.987 213.133 561.148 213.133ZM578.512 225C578.329 224.645 578.197 224.202 578.115 223.674C577.158 224.74 575.914 225.273 574.383 225.273C572.934 225.273 571.73 224.854 570.773 224.016C569.826 223.177 569.352 222.12 569.352 220.844C569.352 219.276 569.93 218.073 571.088 217.234C572.255 216.396 573.936 215.972 576.133 215.963H577.951V215.115C577.951 214.432 577.773 213.885 577.418 213.475C577.072 213.064 576.52 212.859 575.764 212.859C575.098 212.859 574.574 213.019 574.191 213.338C573.818 213.657 573.631 214.094 573.631 214.65H569.68C569.68 213.794 569.944 213.001 570.473 212.271C571.001 211.542 571.749 210.973 572.715 210.562C573.681 210.143 574.766 209.934 575.969 209.934C577.792 209.934 579.236 210.394 580.303 211.314C581.378 212.226 581.916 213.511 581.916 215.17V221.582C581.925 222.986 582.121 224.048 582.504 224.768V225H578.512ZM575.244 222.252C575.827 222.252 576.365 222.124 576.857 221.869C577.35 221.605 577.714 221.254 577.951 220.816V218.273H576.475C574.497 218.273 573.444 218.957 573.316 220.324L573.303 220.557C573.303 221.049 573.476 221.454 573.822 221.773C574.169 222.092 574.643 222.252 575.244 222.252ZM589.682 206.57V210.207H592.211V213.105H589.682V220.488C589.682 221.035 589.786 221.427 589.996 221.664C590.206 221.901 590.607 222.02 591.199 222.02C591.637 222.02 592.024 221.988 592.361 221.924V224.918C591.587 225.155 590.789 225.273 589.969 225.273C587.198 225.273 585.785 223.874 585.73 221.076V213.105H583.57V210.207H585.73V206.57H589.682ZM601.221 225.273C599.051 225.273 597.283 224.608 595.916 223.277C594.558 221.947 593.879 220.174 593.879 217.959V217.576C593.879 216.09 594.166 214.764 594.74 213.598C595.314 212.422 596.126 211.52 597.174 210.891C598.231 210.253 599.434 209.934 600.783 209.934C602.807 209.934 604.397 210.572 605.555 211.848C606.721 213.124 607.305 214.933 607.305 217.275V218.889H597.885C598.012 219.855 598.395 220.63 599.033 221.213C599.68 221.796 600.496 222.088 601.48 222.088C603.003 222.088 604.192 221.536 605.049 220.434L606.99 222.607C606.398 223.446 605.596 224.102 604.584 224.576C603.572 225.041 602.451 225.273 601.221 225.273ZM600.77 213.133C599.986 213.133 599.348 213.397 598.855 213.926C598.372 214.454 598.062 215.211 597.926 216.195H603.422V215.881C603.404 215.006 603.167 214.331 602.711 213.857C602.255 213.374 601.608 213.133 600.77 213.133ZM622.057 219.408L624.791 210.207H629.029L623.082 227.297L622.754 228.076C621.87 230.008 620.411 230.975 618.379 230.975C617.805 230.975 617.221 230.888 616.629 230.715V227.721L617.23 227.734C617.978 227.734 618.534 227.62 618.898 227.393C619.272 227.165 619.564 226.786 619.773 226.258L620.238 225.041L615.057 210.207H619.309L622.057 219.408ZM629.754 217.467C629.754 215.999 630.036 214.691 630.602 213.543C631.167 212.395 631.978 211.506 633.035 210.877C634.102 210.248 635.337 209.934 636.74 209.934C638.736 209.934 640.363 210.544 641.621 211.766C642.888 212.987 643.594 214.646 643.74 216.742L643.768 217.754C643.768 220.023 643.134 221.846 641.867 223.223C640.6 224.59 638.9 225.273 636.768 225.273C634.635 225.273 632.93 224.59 631.654 223.223C630.387 221.855 629.754 219.996 629.754 217.645V217.467ZM633.705 217.754C633.705 219.158 633.969 220.233 634.498 220.98C635.027 221.719 635.783 222.088 636.768 222.088C637.725 222.088 638.472 221.723 639.01 220.994C639.548 220.256 639.816 219.08 639.816 217.467C639.816 216.09 639.548 215.024 639.01 214.268C638.472 213.511 637.715 213.133 636.74 213.133C635.774 213.133 635.027 213.511 634.498 214.268C633.969 215.015 633.705 216.177 633.705 217.754ZM655.061 223.496C654.085 224.681 652.736 225.273 651.014 225.273C649.428 225.273 648.215 224.818 647.377 223.906C646.548 222.995 646.124 221.66 646.105 219.9V210.207H650.057V219.764C650.057 221.304 650.758 222.074 652.162 222.074C653.502 222.074 654.423 221.609 654.924 220.68V210.207H658.889V225H655.17L655.061 223.496ZM670.182 213.912C669.644 213.839 669.17 213.803 668.76 213.803C667.265 213.803 666.285 214.309 665.82 215.32V225H661.869V210.207H665.602L665.711 211.971C666.504 210.613 667.602 209.934 669.006 209.934C669.443 209.934 669.854 209.993 670.236 210.111L670.182 213.912ZM687.641 225C687.458 224.645 687.326 224.202 687.244 223.674C686.287 224.74 685.043 225.273 683.512 225.273C682.062 225.273 680.859 224.854 679.902 224.016C678.954 223.177 678.48 222.12 678.48 220.844C678.48 219.276 679.059 218.073 680.217 217.234C681.383 216.396 683.065 215.972 685.262 215.963H687.08V215.115C687.08 214.432 686.902 213.885 686.547 213.475C686.201 213.064 685.649 212.859 684.893 212.859C684.227 212.859 683.703 213.019 683.32 213.338C682.947 213.657 682.76 214.094 682.76 214.65H678.809C678.809 213.794 679.073 213.001 679.602 212.271C680.13 211.542 680.878 210.973 681.844 210.562C682.81 210.143 683.895 209.934 685.098 209.934C686.921 209.934 688.365 210.394 689.432 211.314C690.507 212.226 691.045 213.511 691.045 215.17V221.582C691.054 222.986 691.25 224.048 691.633 224.768V225H687.641ZM684.373 222.252C684.956 222.252 685.494 222.124 685.986 221.869C686.479 221.605 686.843 221.254 687.08 220.816V218.273H685.604C683.626 218.273 682.573 218.957 682.445 220.324L682.432 220.557C682.432 221.049 682.605 221.454 682.951 221.773C683.298 222.092 683.771 222.252 684.373 222.252ZM700.232 222.088C700.962 222.088 701.554 221.887 702.01 221.486C702.465 221.085 702.702 220.552 702.721 219.887H706.426C706.417 220.889 706.143 221.81 705.605 222.648C705.068 223.478 704.329 224.125 703.391 224.59C702.461 225.046 701.431 225.273 700.301 225.273C698.186 225.273 696.518 224.604 695.297 223.264C694.076 221.915 693.465 220.055 693.465 217.686V217.426C693.465 215.147 694.071 213.329 695.283 211.971C696.495 210.613 698.159 209.934 700.273 209.934C702.124 209.934 703.605 210.462 704.717 211.52C705.838 212.568 706.408 213.967 706.426 215.717H702.721C702.702 214.951 702.465 214.331 702.01 213.857C701.554 213.374 700.952 213.133 700.205 213.133C699.285 213.133 698.587 213.47 698.113 214.145C697.648 214.81 697.416 215.895 697.416 217.398V217.809C697.416 219.331 697.648 220.424 698.113 221.09C698.578 221.755 699.285 222.088 700.232 222.088ZM714.834 222.088C715.563 222.088 716.156 221.887 716.611 221.486C717.067 221.085 717.304 220.552 717.322 219.887H721.027C721.018 220.889 720.745 221.81 720.207 222.648C719.669 223.478 718.931 224.125 717.992 224.59C717.062 225.046 716.033 225.273 714.902 225.273C712.788 225.273 711.12 224.604 709.898 223.264C708.677 221.915 708.066 220.055 708.066 217.686V217.426C708.066 215.147 708.673 213.329 709.885 211.971C711.097 210.613 712.76 209.934 714.875 209.934C716.725 209.934 718.206 210.462 719.318 211.52C720.439 212.568 721.009 213.967 721.027 215.717H717.322C717.304 214.951 717.067 214.331 716.611 213.857C716.156 213.374 715.554 213.133 714.807 213.133C713.886 213.133 713.189 213.47 712.715 214.145C712.25 214.81 712.018 215.895 712.018 217.398V217.809C712.018 219.331 712.25 220.424 712.715 221.09C713.18 221.755 713.886 222.088 714.834 222.088ZM722.668 217.467C722.668 215.999 722.951 214.691 723.516 213.543C724.081 212.395 724.892 211.506 725.949 210.877C727.016 210.248 728.251 209.934 729.654 209.934C731.65 209.934 733.277 210.544 734.535 211.766C735.802 212.987 736.508 214.646 736.654 216.742L736.682 217.754C736.682 220.023 736.048 221.846 734.781 223.223C733.514 224.59 731.814 225.273 729.682 225.273C727.549 225.273 725.844 224.59 724.568 223.223C723.301 221.855 722.668 219.996 722.668 217.645V217.467ZM726.619 217.754C726.619 219.158 726.883 220.233 727.412 220.98C727.941 221.719 728.697 222.088 729.682 222.088C730.639 222.088 731.386 221.723 731.924 220.994C732.462 220.256 732.73 219.08 732.73 217.467C732.73 216.09 732.462 215.024 731.924 214.268C731.386 213.511 730.63 213.133 729.654 213.133C728.688 213.133 727.941 213.511 727.412 214.268C726.883 215.015 726.619 216.177 726.619 217.754ZM747.975 223.496C746.999 224.681 745.65 225.273 743.928 225.273C742.342 225.273 741.13 224.818 740.291 223.906C739.462 222.995 739.038 221.66 739.02 219.9V210.207H742.971V219.764C742.971 221.304 743.673 222.074 745.076 222.074C746.416 222.074 747.337 221.609 747.838 220.68V210.207H751.803V225H748.084L747.975 223.496ZM758.42 210.207L758.543 211.916C759.6 210.594 761.018 209.934 762.795 209.934C764.363 209.934 765.529 210.394 766.295 211.314C767.061 212.235 767.452 213.611 767.471 215.443V225H763.52V215.539C763.52 214.701 763.337 214.094 762.973 213.721C762.608 213.338 762.002 213.146 761.154 213.146C760.042 213.146 759.208 213.62 758.652 214.568V225H754.701V210.207H758.42ZM775.209 206.57V210.207H777.738V213.105H775.209V220.488C775.209 221.035 775.314 221.427 775.523 221.664C775.733 221.901 776.134 222.02 776.727 222.02C777.164 222.02 777.551 221.988 777.889 221.924V224.918C777.114 225.155 776.316 225.273 775.496 225.273C772.725 225.273 771.312 223.874 771.258 221.076V213.105H769.098V210.207H771.258V206.57H775.209Z" fill="#6D48FF"/>
<path d="M537.1 262.777C537.1 262.003 536.826 261.41 536.279 261C535.732 260.581 534.748 260.143 533.326 259.688C531.904 259.223 530.779 258.767 529.949 258.32C527.689 257.099 526.559 255.454 526.559 253.385C526.559 252.309 526.859 251.352 527.461 250.514C528.072 249.666 528.942 249.005 530.072 248.531C531.212 248.057 532.488 247.82 533.9 247.82C535.322 247.82 536.589 248.08 537.701 248.6C538.813 249.11 539.674 249.835 540.285 250.773C540.905 251.712 541.215 252.779 541.215 253.973H537.113C537.113 253.061 536.826 252.355 536.252 251.854C535.678 251.343 534.871 251.088 533.832 251.088C532.829 251.088 532.05 251.302 531.494 251.73C530.938 252.15 530.66 252.706 530.66 253.398C530.66 254.046 530.984 254.588 531.631 255.025C532.287 255.463 533.249 255.873 534.516 256.256C536.849 256.958 538.549 257.828 539.615 258.867C540.682 259.906 541.215 261.201 541.215 262.75C541.215 264.473 540.563 265.826 539.26 266.811C537.956 267.786 536.202 268.273 533.996 268.273C532.465 268.273 531.07 267.995 529.812 267.439C528.555 266.874 527.593 266.104 526.928 265.129C526.271 264.154 525.943 263.023 525.943 261.738H530.059C530.059 263.935 531.371 265.033 533.996 265.033C534.971 265.033 535.732 264.837 536.279 264.445C536.826 264.044 537.1 263.488 537.1 262.777ZM548.475 249.57V253.207H551.004V256.105H548.475V263.488C548.475 264.035 548.579 264.427 548.789 264.664C548.999 264.901 549.4 265.02 549.992 265.02C550.43 265.02 550.817 264.988 551.154 264.924V267.918C550.38 268.155 549.582 268.273 548.762 268.273C545.991 268.273 544.578 266.874 544.523 264.076V256.105H542.363V253.207H544.523V249.57H548.475ZM560.014 268.273C557.844 268.273 556.076 267.608 554.709 266.277C553.351 264.947 552.672 263.174 552.672 260.959V260.576C552.672 259.09 552.959 257.764 553.533 256.598C554.107 255.422 554.919 254.52 555.967 253.891C557.024 253.253 558.227 252.934 559.576 252.934C561.6 252.934 563.19 253.572 564.348 254.848C565.514 256.124 566.098 257.933 566.098 260.275V261.889H556.678C556.805 262.855 557.188 263.63 557.826 264.213C558.473 264.796 559.289 265.088 560.273 265.088C561.796 265.088 562.985 264.536 563.842 263.434L565.783 265.607C565.191 266.446 564.389 267.102 563.377 267.576C562.365 268.041 561.244 268.273 560.014 268.273ZM559.562 256.133C558.779 256.133 558.141 256.397 557.648 256.926C557.165 257.454 556.855 258.211 556.719 259.195H562.215V258.881C562.197 258.006 561.96 257.331 561.504 256.857C561.048 256.374 560.401 256.133 559.562 256.133ZM581.67 260.74C581.67 263.019 581.15 264.846 580.111 266.223C579.081 267.59 577.687 268.273 575.928 268.273C574.433 268.273 573.225 267.754 572.305 266.715V273.688H568.354V253.207H572.018L572.154 254.656C573.111 253.508 574.36 252.934 575.9 252.934C577.723 252.934 579.141 253.608 580.152 254.957C581.164 256.306 581.67 258.165 581.67 260.535V260.74ZM577.719 260.453C577.719 259.077 577.473 258.015 576.98 257.268C576.497 256.52 575.791 256.146 574.861 256.146C573.622 256.146 572.77 256.62 572.305 257.568V263.625C572.788 264.6 573.649 265.088 574.889 265.088C576.775 265.088 577.719 263.543 577.719 260.453ZM604.584 268H590.939V265.293L597.379 258.43C598.263 257.464 598.915 256.62 599.334 255.9C599.762 255.18 599.977 254.497 599.977 253.85C599.977 252.965 599.753 252.273 599.307 251.771C598.86 251.261 598.222 251.006 597.393 251.006C596.499 251.006 595.793 251.316 595.273 251.936C594.763 252.546 594.508 253.353 594.508 254.355H590.543C590.543 253.143 590.83 252.036 591.404 251.033C591.988 250.031 592.808 249.247 593.865 248.682C594.923 248.107 596.121 247.82 597.461 247.82C599.512 247.82 601.102 248.312 602.232 249.297C603.372 250.281 603.941 251.671 603.941 253.467C603.941 254.451 603.686 255.454 603.176 256.475C602.665 257.495 601.79 258.685 600.551 260.043L596.025 264.814H604.584V268ZM613.539 260.467C613.539 258.999 613.822 257.691 614.387 256.543C614.952 255.395 615.763 254.506 616.82 253.877C617.887 253.248 619.122 252.934 620.525 252.934C622.521 252.934 624.148 253.544 625.406 254.766C626.673 255.987 627.38 257.646 627.525 259.742L627.553 260.754C627.553 263.023 626.919 264.846 625.652 266.223C624.385 267.59 622.686 268.273 620.553 268.273C618.42 268.273 616.715 267.59 615.439 266.223C614.173 264.855 613.539 262.996 613.539 260.645V260.467ZM617.49 260.754C617.49 262.158 617.755 263.233 618.283 263.98C618.812 264.719 619.568 265.088 620.553 265.088C621.51 265.088 622.257 264.723 622.795 263.994C623.333 263.256 623.602 262.08 623.602 260.467C623.602 259.09 623.333 258.024 622.795 257.268C622.257 256.511 621.501 256.133 620.525 256.133C619.559 256.133 618.812 256.511 618.283 257.268C617.755 258.015 617.49 259.177 617.49 260.754ZM631.066 268V256.105H628.865V253.207H631.066V251.949C631.066 250.29 631.54 249.005 632.488 248.094C633.445 247.173 634.781 246.713 636.494 246.713C637.041 246.713 637.711 246.804 638.504 246.986L638.463 250.049C638.135 249.967 637.734 249.926 637.26 249.926C635.774 249.926 635.031 250.623 635.031 252.018V253.207H637.971V256.105H635.031V268H631.066ZM660.475 268H646.83V265.293L653.27 258.43C654.154 257.464 654.805 256.62 655.225 255.9C655.653 255.18 655.867 254.497 655.867 253.85C655.867 252.965 655.644 252.273 655.197 251.771C654.751 251.261 654.113 251.006 653.283 251.006C652.39 251.006 651.684 251.316 651.164 251.936C650.654 252.546 650.398 253.353 650.398 254.355H646.434C646.434 253.143 646.721 252.036 647.295 251.033C647.878 250.031 648.699 249.247 649.756 248.682C650.813 248.107 652.012 247.82 653.352 247.82C655.402 247.82 656.993 248.312 658.123 249.297C659.262 250.281 659.832 251.671 659.832 253.467C659.832 254.451 659.577 255.454 659.066 256.475C658.556 257.495 657.681 258.685 656.441 260.043L651.916 264.814H660.475V268Z" fill="#6D48FF"/>
<defs>
<linearGradient id="paint0_linear" x1="934.449" y1="149.992" x2="537.565" y2="149.992" gradientUnits="userSpaceOnUse">
<stop stop-color="#00C2FF"/>
<stop offset="0.0001" stop-color="#00C2FF"/>
<stop offset="1" stop-color="#B10DFF"/>
</linearGradient>
<linearGradient id="paint1_linear" x1="934.449" y1="149.992" x2="537.565" y2="149.992" gradientUnits="userSpaceOnUse">
<stop stop-color="#00C2FF"/>
<stop offset="0.0001" stop-color="#00C2FF"/>
<stop offset="1" stop-color="#B10DFF"/>
</linearGradient>
<linearGradient id="paint2_linear" x1="934.449" y1="149.992" x2="537.565" y2="149.992" gradientUnits="userSpaceOnUse">
<stop stop-color="#00C2FF"/>
<stop offset="0.0001" stop-color="#00C2FF"/>
<stop offset="1" stop-color="#B10DFF"/>
</linearGradient>
<linearGradient id="paint3_linear" x1="934.449" y1="149.992" x2="537.565" y2="149.992" gradientUnits="userSpaceOnUse">
<stop stop-color="#00C2FF"/>
<stop offset="0.0001" stop-color="#00C2FF"/>
<stop offset="1" stop-color="#B10DFF"/>
</linearGradient>
<linearGradient id="paint4_linear" x1="934.449" y1="149.992" x2="537.565" y2="149.992" gradientUnits="userSpaceOnUse">
<stop stop-color="#00C2FF"/>
<stop offset="0.0001" stop-color="#00C2FF"/>
<stop offset="1" stop-color="#B10DFF"/>
</linearGradient>
<linearGradient id="paint5_linear" x1="934.449" y1="149.992" x2="537.565" y2="149.992" gradientUnits="userSpaceOnUse">
<stop stop-color="#00C2FF"/>
<stop offset="0.0001" stop-color="#00C2FF"/>
<stop offset="1" stop-color="#B10DFF"/>
</linearGradient>
</defs>
</svg>
