<svg width="1112" height="98" viewBox="0 0 1112 98" fill="none" xmlns="http://www.w3.org/2000/svg">
<rect width="1112" height="98" fill="url(#paint0_angular)"/>
<rect width="1112" height="98" fill="url(#paint1_linear)"/>
<rect x="34" y="25" width="969" height="48" rx="24" fill="#D1C5FF"/>
<path fill-rule="evenodd" clip-rule="evenodd" d="M973.375 51.5H972.387L972.038 51.1625C973.263 49.7375 974 47.8875 974 45.875C974 41.3875 970.363 37.75 965.875 37.75C961.388 37.75 957.75 41.3875 957.75 45.875C957.75 50.3625 961.388 54 965.875 54C967.887 54 969.737 53.2625 971.162 52.0375L971.5 52.3875V53.375L977.75 59.6125L979.612 57.75L973.375 51.5ZM965.875 51.5C962.762 51.5 960.25 48.9875 960.25 45.875C960.25 42.7625 962.762 40.25 965.875 40.25C968.988 40.25 971.5 42.7625 971.5 45.875C971.5 48.9875 968.988 51.5 965.875 51.5Z" fill="black"/>
<path fill-rule="evenodd" clip-rule="evenodd" d="M1049.39 62.7097C1051.07 62.7097 1052.45 61.3307 1052.45 59.6452H1046.32C1046.32 61.3307 1047.69 62.7097 1049.39 62.7097ZM1058.58 53.5162V45.8549C1058.58 41.1509 1056.07 37.2129 1051.69 36.171V35.1291C1051.69 33.8573 1050.66 32.8307 1049.39 32.8307C1048.12 32.8307 1047.09 33.8573 1047.09 35.1291V36.171C1042.69 37.2129 1040.19 41.1355 1040.19 45.8549V53.5162L1037.13 56.5807V58.1129H1061.65V56.5807L1058.58 53.5162Z" fill="white"/>
<circle cx="1059.19" cy="55.9677" r="9.80645" fill="url(#paint2_linear)"/>
<path d="M1061.04 50.9443V52.5713H1060.84C1059.95 52.585 1059.23 52.8174 1058.68 53.2686C1058.14 53.7197 1057.82 54.3464 1057.71 55.1484C1058.24 54.6107 1058.9 54.3418 1059.71 54.3418C1060.58 54.3418 1061.26 54.6517 1061.77 55.2715C1062.28 55.8913 1062.54 56.707 1062.54 57.7188C1062.54 58.3659 1062.4 58.9515 1062.12 59.4756C1061.84 59.9997 1061.44 60.4076 1060.93 60.6992C1060.42 60.9909 1059.84 61.1367 1059.19 61.1367C1058.14 61.1367 1057.29 60.7721 1056.65 60.043C1056 59.3138 1055.68 58.3408 1055.68 57.124V56.4131C1055.68 55.333 1055.89 54.3805 1056.29 53.5557C1056.7 52.7262 1057.29 52.0859 1058.05 51.6348C1058.81 51.179 1059.7 50.9489 1060.71 50.9443H1061.04ZM1059.11 55.9277C1058.79 55.9277 1058.5 56.012 1058.24 56.1807C1057.98 56.3447 1057.79 56.5635 1057.67 56.8369V57.4385C1057.67 58.0993 1057.8 58.6165 1058.06 58.9902C1058.32 59.3594 1058.68 59.5439 1059.15 59.5439C1059.57 59.5439 1059.92 59.3776 1060.17 59.0449C1060.44 58.7077 1060.57 58.2725 1060.57 57.7393C1060.57 57.1969 1060.44 56.7594 1060.17 56.4268C1059.91 56.0941 1059.56 55.9277 1059.11 55.9277Z" fill="white"/>
<path d="M64.0078 49.3945C62.0781 48.8398 60.6719 48.1602 59.7891 47.3555C58.9141 46.543 58.4766 45.543 58.4766 44.3555C58.4766 43.0117 59.0117 41.9023 60.082 41.0273C61.1602 40.1445 62.5586 39.7031 64.2773 39.7031C65.4492 39.7031 66.4922 39.9297 67.4062 40.3828C68.3281 40.8359 69.0391 41.4609 69.5391 42.2578C70.0469 43.0547 70.3008 43.9258 70.3008 44.8711H68.0391C68.0391 43.8398 67.7109 43.0312 67.0547 42.4453C66.3984 41.8516 65.4727 41.5547 64.2773 41.5547C63.168 41.5547 62.3008 41.8008 61.6758 42.293C61.0586 42.7773 60.75 43.4531 60.75 44.3203C60.75 45.0156 61.043 45.6055 61.6289 46.0898C62.2227 46.5664 63.2266 47.0039 64.6406 47.4023C66.0625 47.8008 67.1719 48.2422 67.9688 48.7266C68.7734 49.2031 69.3672 49.7617 69.75 50.4023C70.1406 51.043 70.3359 51.7969 70.3359 52.6641C70.3359 54.0469 69.7969 55.1562 68.7188 55.9922C67.6406 56.8203 66.1992 57.2344 64.3945 57.2344C63.2227 57.2344 62.1289 57.0117 61.1133 56.5664C60.0977 56.1133 59.3125 55.4961 58.7578 54.7148C58.2109 53.9336 57.9375 53.0469 57.9375 52.0547H60.1992C60.1992 53.0859 60.5781 53.9023 61.3359 54.5039C62.1016 55.0977 63.1211 55.3945 64.3945 55.3945C65.582 55.3945 66.4922 55.1523 67.125 54.668C67.7578 54.1836 68.0742 53.5234 68.0742 52.6875C68.0742 51.8516 67.7812 51.207 67.1953 50.7539C66.6094 50.293 65.5469 49.8398 64.0078 49.3945ZM78.4023 57.2344C76.6836 57.2344 75.2852 56.6719 74.207 55.5469C73.1289 54.4141 72.5898 52.9023 72.5898 51.0117V50.6133C72.5898 49.3555 72.8281 48.2344 73.3047 47.25C73.7891 46.2578 74.4609 45.4844 75.3203 44.9297C76.1875 44.3672 77.125 44.0859 78.1328 44.0859C79.7812 44.0859 81.0625 44.6289 81.9766 45.7148C82.8906 46.8008 83.3477 48.3555 83.3477 50.3789V51.2812H74.7578C74.7891 52.5312 75.1523 53.543 75.8477 54.3164C76.5508 55.082 77.4414 55.4648 78.5195 55.4648C79.2852 55.4648 79.9336 55.3086 80.4648 54.9961C80.9961 54.6836 81.4609 54.2695 81.8594 53.7539L83.1836 54.7852C82.1211 56.418 80.5273 57.2344 78.4023 57.2344ZM78.1328 45.8672C77.2578 45.8672 76.5234 46.1875 75.9297 46.8281C75.3359 47.4609 74.9688 48.3516 74.8281 49.5H81.1797V49.3359C81.1172 48.2344 80.8203 47.3828 80.2891 46.7812C79.7578 46.1719 79.0391 45.8672 78.1328 45.8672ZM93.9453 57C93.8203 56.75 93.7188 56.3047 93.6406 55.6641C92.6328 56.7109 91.4297 57.2344 90.0312 57.2344C88.7812 57.2344 87.7539 56.8828 86.9492 56.1797C86.1523 55.4688 85.7539 54.5703 85.7539 53.4844C85.7539 52.1641 86.2539 51.1406 87.2539 50.4141C88.2617 49.6797 89.6758 49.3125 91.4961 49.3125H93.6055V48.3164C93.6055 47.5586 93.3789 46.957 92.9258 46.5117C92.4727 46.0586 91.8047 45.832 90.9219 45.832C90.1484 45.832 89.5 46.0273 88.9766 46.418C88.4531 46.8086 88.1914 47.2812 88.1914 47.8359H86.0117C86.0117 47.2031 86.2344 46.5938 86.6797 46.0078C87.1328 45.4141 87.7422 44.9453 88.5078 44.6016C89.2812 44.2578 90.1289 44.0859 91.0508 44.0859C92.5117 44.0859 93.6562 44.4531 94.4844 45.1875C95.3125 45.9141 95.7422 46.918 95.7734 48.1992V54.0352C95.7734 55.1992 95.9219 56.125 96.2188 56.8125V57H93.9453ZM90.3477 55.3477C91.0273 55.3477 91.6719 55.1719 92.2812 54.8203C92.8906 54.4688 93.332 54.0117 93.6055 53.4492V50.8477H91.9062C89.25 50.8477 87.9219 51.625 87.9219 53.1797C87.9219 53.8594 88.1484 54.3906 88.6016 54.7734C89.0547 55.1562 89.6367 55.3477 90.3477 55.3477ZM105.551 46.2656C105.223 46.2109 104.867 46.1836 104.484 46.1836C103.062 46.1836 102.098 46.7891 101.59 48V57H99.4219V44.3203H101.531L101.566 45.7852C102.277 44.6523 103.285 44.0859 104.59 44.0859C105.012 44.0859 105.332 44.1406 105.551 44.25V46.2656ZM112.656 55.4648C113.43 55.4648 114.105 55.2305 114.684 54.7617C115.262 54.293 115.582 53.707 115.645 53.0039H117.695C117.656 53.7305 117.406 54.4219 116.945 55.0781C116.484 55.7344 115.867 56.2578 115.094 56.6484C114.328 57.0391 113.516 57.2344 112.656 57.2344C110.93 57.2344 109.555 56.6602 108.531 55.5117C107.516 54.3555 107.008 52.7773 107.008 50.7773V50.4141C107.008 49.1797 107.234 48.082 107.688 47.1211C108.141 46.1602 108.789 45.4141 109.633 44.8828C110.484 44.3516 111.488 44.0859 112.645 44.0859C114.066 44.0859 115.246 44.5117 116.184 45.3633C117.129 46.2148 117.633 47.3203 117.695 48.6797H115.645C115.582 47.8594 115.27 47.1875 114.707 46.6641C114.152 46.1328 113.465 45.8672 112.645 45.8672C111.543 45.8672 110.688 46.2656 110.078 47.0625C109.477 47.8516 109.176 48.9961 109.176 50.4961V50.9062C109.176 52.3672 109.477 53.4922 110.078 54.2812C110.68 55.0703 111.539 55.4648 112.656 55.4648ZM122.551 45.8555C123.512 44.6758 124.762 44.0859 126.301 44.0859C128.98 44.0859 130.332 45.5977 130.355 48.6211V57H128.188V48.6094C128.18 47.6953 127.969 47.0195 127.555 46.582C127.148 46.1445 126.512 45.9258 125.645 45.9258C124.941 45.9258 124.324 46.1133 123.793 46.4883C123.262 46.8633 122.848 47.3555 122.551 47.9648V57H120.383V39H122.551V45.8555Z" fill="black"/>
<defs>
<radialGradient id="paint0_angular" cx="0" cy="0" r="1" gradientUnits="userSpaceOnUse" gradientTransform="translate(556 49) rotate(90) scale(49 556)">
<stop offset="0.260417" stop-color="#AE19F3"/>
<stop offset="0.755208" stop-color="#19C9FF"/>
<stop offset="0.979167" stop-color="#FFFFFC"/>
</radialGradient>
<linearGradient id="paint1_linear" x1="556" y1="0" x2="556" y2="98" gradientUnits="userSpaceOnUse">
<stop stop-color="#AE19F3" stop-opacity="0.35"/>
<stop offset="0.692708" stop-color="#19C9FF" stop-opacity="0.63"/>
<stop offset="1" stop-color="#FFFFFC" stop-opacity="0"/>
</linearGradient>
<linearGradient id="paint2_linear" x1="1059.19" y1="46.1613" x2="1059.19" y2="65.7742" gradientUnits="userSpaceOnUse">
<stop stop-color="#FA0DFF"/>
<stop offset="1" stop-color="#00C2FF"/>
</linearGradient>
</defs>
</svg>
