<svg width="328" height="1023" viewBox="0 0 328 1023" fill="none" xmlns="http://www.w3.org/2000/svg">
<rect width="328" height="1023" fill="white"/>
<rect y="927" width="328" height="76" rx="38" fill="white"/>
<path d="M118.402 964.93C118.309 966.883 117.828 968.426 116.961 969.559C116.094 970.684 114.918 971.246 113.434 971.246C112.02 971.246 111.074 970.645 110.598 969.441C110.199 970.035 109.734 970.48 109.203 970.777C108.68 971.074 108.129 971.223 107.551 971.223C106.41 971.223 105.543 970.754 104.949 969.816C104.363 968.879 104.141 967.625 104.281 966.055C104.406 964.781 104.715 963.633 105.207 962.609C105.707 961.586 106.336 960.797 107.094 960.242C107.859 959.68 108.672 959.398 109.531 959.398C110.188 959.398 110.766 959.48 111.266 959.645C111.773 959.809 112.367 960.148 113.047 960.664L112.438 967.262C112.289 968.809 112.734 969.582 113.773 969.582C114.57 969.582 115.223 969.156 115.73 968.305C116.246 967.445 116.527 966.336 116.574 964.977C116.707 962.094 116.148 959.887 114.898 958.355C113.656 956.824 111.785 956.059 109.285 956.059C107.754 956.059 106.395 956.441 105.207 957.207C104.027 957.973 103.09 959.082 102.395 960.535C101.699 961.98 101.316 963.629 101.246 965.48C101.152 967.363 101.375 968.988 101.914 970.355C102.461 971.715 103.293 972.75 104.41 973.461C105.535 974.172 106.906 974.527 108.523 974.527C109.18 974.527 109.863 974.449 110.574 974.293C111.293 974.137 111.902 973.926 112.402 973.66L112.848 975.266C112.371 975.578 111.727 975.828 110.914 976.016C110.109 976.211 109.297 976.309 108.477 976.309C106.492 976.309 104.789 975.887 103.367 975.043C101.945 974.207 100.879 972.992 100.168 971.398C99.4336 969.75 99.1094 967.777 99.1953 965.48C99.2891 963.34 99.7695 961.418 100.637 959.715C101.504 958.004 102.688 956.676 104.188 955.73C105.695 954.785 107.41 954.312 109.332 954.312C111.277 954.312 112.949 954.742 114.348 955.602C115.754 956.453 116.805 957.684 117.5 959.293C118.195 960.895 118.496 962.773 118.402 964.93ZM106.578 966.055C106.477 967.117 106.57 967.926 106.859 968.48C107.148 969.027 107.609 969.301 108.242 969.301C108.664 969.301 109.062 969.117 109.438 968.75C109.812 968.375 110.117 967.863 110.352 967.215L110.879 961.438C110.488 961.289 110.109 961.215 109.742 961.215C108.875 961.215 108.168 961.625 107.621 962.445C107.074 963.258 106.727 964.461 106.578 966.055ZM133.784 953.938V965.34C133.784 967.152 133.202 968.59 132.038 969.652C130.881 970.707 129.338 971.234 127.409 971.234C125.455 971.234 123.905 970.715 122.756 969.676C121.608 968.629 121.034 967.18 121.034 965.328V953.938H123.987V965.352C123.987 966.492 124.276 967.363 124.854 967.965C125.432 968.566 126.284 968.867 127.409 968.867C129.69 968.867 130.83 967.664 130.83 965.258V953.938H133.784ZM143.891 967.555C143.891 967.047 143.68 966.66 143.259 966.395C142.845 966.129 142.153 965.895 141.184 965.691C140.216 965.488 139.407 965.23 138.759 964.918C137.337 964.23 136.626 963.234 136.626 961.93C136.626 960.836 137.087 959.922 138.009 959.188C138.93 958.453 140.102 958.086 141.524 958.086C143.04 958.086 144.263 958.461 145.192 959.211C146.13 959.961 146.598 960.934 146.598 962.129H143.751C143.751 961.582 143.548 961.129 143.141 960.77C142.735 960.402 142.196 960.219 141.524 960.219C140.899 960.219 140.388 960.363 139.989 960.652C139.598 960.941 139.403 961.328 139.403 961.812C139.403 962.25 139.587 962.59 139.954 962.832C140.321 963.074 141.063 963.32 142.18 963.57C143.298 963.812 144.173 964.105 144.805 964.449C145.446 964.785 145.919 965.191 146.223 965.668C146.536 966.145 146.692 966.723 146.692 967.402C146.692 968.543 146.22 969.469 145.274 970.18C144.329 970.883 143.091 971.234 141.559 971.234C140.52 971.234 139.595 971.047 138.782 970.672C137.97 970.297 137.337 969.781 136.884 969.125C136.43 968.469 136.204 967.762 136.204 967.004H138.97C139.009 967.676 139.263 968.195 139.731 968.562C140.2 968.922 140.821 969.102 141.595 969.102C142.345 969.102 142.915 968.961 143.305 968.68C143.696 968.391 143.891 968.016 143.891 967.555ZM154.866 971.234C153.062 971.234 151.597 970.668 150.472 969.535C149.355 968.395 148.796 966.879 148.796 964.988V964.637C148.796 963.371 149.038 962.242 149.523 961.25C150.015 960.25 150.702 959.473 151.585 958.918C152.468 958.363 153.452 958.086 154.538 958.086C156.265 958.086 157.597 958.637 158.534 959.738C159.48 960.84 159.952 962.398 159.952 964.414V965.562H151.667C151.753 966.609 152.101 967.438 152.71 968.047C153.327 968.656 154.101 968.961 155.03 968.961C156.335 968.961 157.398 968.434 158.218 967.379L159.753 968.844C159.245 969.602 158.566 970.191 157.714 970.613C156.87 971.027 155.921 971.234 154.866 971.234ZM154.527 960.371C153.745 960.371 153.112 960.645 152.628 961.191C152.152 961.738 151.847 962.5 151.714 963.477H157.14V963.266C157.077 962.312 156.823 961.594 156.378 961.109C155.933 960.617 155.316 960.371 154.527 960.371ZM168.912 960.922C168.537 960.859 168.15 960.828 167.752 960.828C166.447 960.828 165.568 961.328 165.115 962.328V971H162.267V958.32H164.986L165.056 959.738C165.744 958.637 166.697 958.086 167.916 958.086C168.322 958.086 168.658 958.141 168.923 958.25L168.912 960.922ZM173.453 958.32L173.535 959.785C174.473 958.652 175.703 958.086 177.227 958.086C179.867 958.086 181.211 959.598 181.258 962.621V971H178.41V962.785C178.41 961.98 178.234 961.387 177.883 961.004C177.539 960.613 176.973 960.418 176.184 960.418C175.035 960.418 174.18 960.938 173.617 961.977V971H170.77V958.32H173.453ZM191.846 971C191.721 970.758 191.612 970.363 191.518 969.816C190.612 970.762 189.502 971.234 188.19 971.234C186.916 971.234 185.877 970.871 185.073 970.145C184.268 969.418 183.866 968.52 183.866 967.449C183.866 966.098 184.366 965.062 185.366 964.344C186.373 963.617 187.811 963.254 189.678 963.254H191.424V962.422C191.424 961.766 191.241 961.242 190.873 960.852C190.506 960.453 189.948 960.254 189.198 960.254C188.549 960.254 188.018 960.418 187.604 960.746C187.19 961.066 186.983 961.477 186.983 961.977H184.135C184.135 961.281 184.366 960.633 184.827 960.031C185.287 959.422 185.912 958.945 186.702 958.602C187.498 958.258 188.385 958.086 189.362 958.086C190.846 958.086 192.03 958.461 192.912 959.211C193.795 959.953 194.248 961 194.272 962.352V968.07C194.272 969.211 194.432 970.121 194.752 970.801V971H191.846ZM188.717 968.949C189.28 968.949 189.807 968.812 190.299 968.539C190.799 968.266 191.174 967.898 191.424 967.438V965.047H189.889C188.834 965.047 188.041 965.23 187.51 965.598C186.979 965.965 186.713 966.484 186.713 967.156C186.713 967.703 186.893 968.141 187.252 968.469C187.62 968.789 188.108 968.949 188.717 968.949ZM200.032 958.32L200.114 959.645C201.005 958.605 202.223 958.086 203.77 958.086C205.466 958.086 206.626 958.734 207.251 960.031C208.173 958.734 209.47 958.086 211.141 958.086C212.54 958.086 213.579 958.473 214.259 959.246C214.946 960.02 215.298 961.16 215.313 962.668V971H212.466V962.75C212.466 961.945 212.29 961.355 211.938 960.98C211.587 960.605 211.005 960.418 210.192 960.418C209.544 960.418 209.012 960.594 208.598 960.945C208.192 961.289 207.907 961.742 207.743 962.305L207.755 971H204.907V962.656C204.868 961.164 204.106 960.418 202.622 960.418C201.481 960.418 200.673 960.883 200.196 961.812V971H197.348V958.32H200.032ZM223.921 971.234C222.116 971.234 220.652 970.668 219.527 969.535C218.409 968.395 217.851 966.879 217.851 964.988V964.637C217.851 963.371 218.093 962.242 218.577 961.25C219.07 960.25 219.757 959.473 220.64 958.918C221.523 958.363 222.507 958.086 223.593 958.086C225.32 958.086 226.652 958.637 227.589 959.738C228.534 960.84 229.007 962.398 229.007 964.414V965.562H220.722C220.808 966.609 221.155 967.438 221.765 968.047C222.382 968.656 223.155 968.961 224.085 968.961C225.39 968.961 226.452 968.434 227.273 967.379L228.808 968.844C228.3 969.602 227.62 970.191 226.769 970.613C225.925 971.027 224.976 971.234 223.921 971.234ZM223.581 960.371C222.8 960.371 222.167 960.645 221.683 961.191C221.206 961.738 220.902 962.5 220.769 963.477H226.195V963.266C226.132 962.312 225.878 961.594 225.433 961.109C224.988 960.617 224.37 960.371 223.581 960.371Z" fill="#838383"/>
<path d="M259.102 970.724L262.602 976.779C262.834 977.181 263.217 977.474 263.665 977.594C264.113 977.713 264.591 977.65 264.992 977.418L267.435 976.008C268.45 976.807 269.572 977.464 270.752 977.954V980.75C270.752 981.214 270.936 981.659 271.264 981.987C271.592 982.316 272.038 982.5 272.502 982.5H279.502C279.966 982.5 280.411 982.316 280.739 981.987C281.067 981.659 281.252 981.214 281.252 980.75V977.954C282.44 977.459 283.556 976.804 284.568 976.008L287.011 977.418C287.846 977.899 288.92 977.611 289.401 976.779L292.901 970.724C293.132 970.322 293.194 969.845 293.074 969.397C292.955 968.95 292.663 968.567 292.263 968.334L289.862 966.946C290.049 965.655 290.048 964.344 289.858 963.054L292.259 961.666C293.092 961.185 293.381 960.109 292.898 959.276L289.398 953.221C289.166 952.819 288.783 952.526 288.335 952.406C287.887 952.287 287.409 952.35 287.007 952.582L284.564 953.993C283.554 953.195 282.439 952.54 281.25 952.047V949.25C281.25 948.786 281.066 948.341 280.737 948.013C280.409 947.684 279.964 947.5 279.5 947.5H272.5C272.036 947.5 271.591 947.684 271.262 948.013C270.934 948.341 270.75 948.786 270.75 949.25V952.047C269.561 952.541 268.445 953.196 267.434 953.993L264.992 952.582C264.794 952.467 264.574 952.392 264.346 952.362C264.118 952.331 263.887 952.346 263.665 952.406C263.443 952.465 263.235 952.568 263.052 952.707C262.87 952.847 262.717 953.022 262.602 953.221L259.102 959.276C258.872 959.678 258.809 960.155 258.929 960.603C259.049 961.05 259.34 961.433 259.741 961.666L262.142 963.054C261.953 964.344 261.953 965.656 262.142 966.946L259.741 968.334C258.908 968.815 258.619 969.891 259.102 970.724ZM276 958C279.86 958 283 961.139 283 965C283 968.861 279.86 972 276 972C272.139 972 269 968.861 269 965C269 961.139 272.139 958 276 958Z" fill="#727272"/>
<path fill-rule="evenodd" clip-rule="evenodd" d="M53 999C71.7777 999 87 983.778 87 965C87 946.222 71.7777 931 53 931C34.2223 931 19 946.222 19 965C19 983.778 34.2223 999 53 999ZM52.66 965.68C58.8566 965.68 63.88 960.657 63.88 954.46C63.88 948.263 58.8566 943.24 52.66 943.24C46.4634 943.24 41.44 948.263 41.44 954.46C41.44 960.657 46.4634 965.68 52.66 965.68ZM30.56 986.08V979.28C32.1467 975.88 38.788 969.08 52.66 969.08C70 969.08 75.1 977.58 75.44 978.6C75.712 979.416 75.5533 983.927 75.44 986.08H30.56Z" fill="#6D48FF"/>
<path d="M34 404.505C34 398.982 38.4772 394.505 44 394.505H283.707C289.23 394.505 293.707 398.982 293.707 404.505V470.414C293.707 475.937 289.23 480.414 283.707 480.414H44C38.4772 480.414 34 475.937 34 470.414V404.505Z" fill="white"/>
<path d="M133.578 428.442L138.5 441.521L143.41 428.442H147.242V445.505H144.289V439.88L144.582 432.356L139.543 445.505H137.422L132.395 432.368L132.688 439.88V445.505H129.734V428.442H133.578ZM156.166 445.739C154.362 445.739 152.897 445.173 151.772 444.04C150.655 442.899 150.096 441.384 150.096 439.493V439.142C150.096 437.876 150.338 436.747 150.823 435.755C151.315 434.755 152.002 433.978 152.885 433.423C153.768 432.868 154.752 432.591 155.838 432.591C157.565 432.591 158.897 433.142 159.834 434.243C160.78 435.345 161.252 436.903 161.252 438.919V440.067H152.967C153.053 441.114 153.401 441.942 154.01 442.552C154.627 443.161 155.401 443.466 156.33 443.466C157.635 443.466 158.698 442.938 159.518 441.884L161.053 443.349C160.545 444.106 159.866 444.696 159.014 445.118C158.17 445.532 157.221 445.739 156.166 445.739ZM155.827 434.876C155.045 434.876 154.413 435.149 153.928 435.696C153.452 436.243 153.147 437.005 153.014 437.981H158.44V437.771C158.377 436.817 158.123 436.099 157.678 435.614C157.233 435.122 156.616 434.876 155.827 434.876ZM170.68 442.06C170.68 441.552 170.47 441.165 170.048 440.899C169.634 440.634 168.942 440.399 167.973 440.196C167.005 439.993 166.196 439.735 165.548 439.423C164.126 438.735 163.415 437.739 163.415 436.435C163.415 435.341 163.876 434.427 164.798 433.692C165.72 432.958 166.891 432.591 168.313 432.591C169.829 432.591 171.052 432.966 171.981 433.716C172.919 434.466 173.388 435.438 173.388 436.634H170.54C170.54 436.087 170.337 435.634 169.93 435.274C169.524 434.907 168.985 434.724 168.313 434.724C167.688 434.724 167.177 434.868 166.778 435.157C166.388 435.446 166.192 435.833 166.192 436.317C166.192 436.755 166.376 437.095 166.743 437.337C167.11 437.579 167.852 437.825 168.97 438.075C170.087 438.317 170.962 438.61 171.595 438.954C172.235 439.29 172.708 439.696 173.013 440.173C173.325 440.649 173.481 441.228 173.481 441.907C173.481 443.048 173.009 443.974 172.063 444.685C171.118 445.388 169.88 445.739 168.348 445.739C167.309 445.739 166.384 445.552 165.571 445.177C164.759 444.802 164.126 444.286 163.673 443.63C163.22 442.974 162.993 442.267 162.993 441.509H165.759C165.798 442.181 166.052 442.7 166.52 443.067C166.989 443.427 167.61 443.606 168.384 443.606C169.134 443.606 169.704 443.466 170.095 443.185C170.485 442.896 170.68 442.521 170.68 442.06ZM183.179 442.06C183.179 441.552 182.968 441.165 182.546 440.899C182.132 440.634 181.441 440.399 180.472 440.196C179.503 439.993 178.695 439.735 178.046 439.423C176.624 438.735 175.913 437.739 175.913 436.435C175.913 435.341 176.374 434.427 177.296 433.692C178.218 432.958 179.39 432.591 180.812 432.591C182.327 432.591 183.55 432.966 184.48 433.716C185.417 434.466 185.886 435.438 185.886 436.634H183.038C183.038 436.087 182.835 435.634 182.429 435.274C182.023 434.907 181.484 434.724 180.812 434.724C180.187 434.724 179.675 434.868 179.277 435.157C178.886 435.446 178.691 435.833 178.691 436.317C178.691 436.755 178.874 437.095 179.241 437.337C179.609 437.579 180.351 437.825 181.468 438.075C182.585 438.317 183.46 438.61 184.093 438.954C184.734 439.29 185.206 439.696 185.511 440.173C185.823 440.649 185.98 441.228 185.98 441.907C185.98 443.048 185.507 443.974 184.562 444.685C183.616 445.388 182.378 445.739 180.847 445.739C179.808 445.739 178.882 445.552 178.07 445.177C177.257 444.802 176.624 444.286 176.171 443.63C175.718 442.974 175.491 442.267 175.491 441.509H178.257C178.296 442.181 178.55 442.7 179.019 443.067C179.487 443.427 180.109 443.606 180.882 443.606C181.632 443.606 182.202 443.466 182.593 443.185C182.984 442.896 183.179 442.521 183.179 442.06ZM196.146 445.505C196.021 445.263 195.912 444.868 195.818 444.321C194.912 445.267 193.802 445.739 192.49 445.739C191.216 445.739 190.177 445.376 189.373 444.649C188.568 443.923 188.166 443.024 188.166 441.954C188.166 440.603 188.666 439.567 189.666 438.849C190.673 438.122 192.111 437.759 193.978 437.759H195.724V436.927C195.724 436.271 195.541 435.747 195.173 435.356C194.806 434.958 194.248 434.759 193.498 434.759C192.849 434.759 192.318 434.923 191.904 435.251C191.49 435.571 191.283 435.981 191.283 436.481H188.435C188.435 435.786 188.666 435.138 189.127 434.536C189.588 433.927 190.213 433.45 191.002 433.106C191.798 432.763 192.685 432.591 193.662 432.591C195.146 432.591 196.33 432.966 197.213 433.716C198.095 434.458 198.548 435.505 198.572 436.856V442.575C198.572 443.716 198.732 444.626 199.052 445.306V445.505H196.146ZM193.017 443.454C193.58 443.454 194.107 443.317 194.599 443.044C195.099 442.771 195.474 442.403 195.724 441.942V439.552H194.189C193.134 439.552 192.341 439.735 191.81 440.103C191.279 440.47 191.013 440.989 191.013 441.661C191.013 442.208 191.193 442.646 191.552 442.974C191.92 443.294 192.408 443.454 193.017 443.454ZM201.156 439.071C201.156 437.103 201.617 435.532 202.539 434.36C203.469 433.181 204.699 432.591 206.23 432.591C207.676 432.591 208.812 433.095 209.641 434.103L209.77 432.825H212.336V445.118C212.336 446.782 211.816 448.095 210.777 449.056C209.746 450.017 208.352 450.497 206.594 450.497C205.664 450.497 204.754 450.302 203.863 449.911C202.98 449.528 202.309 449.024 201.848 448.399L203.195 446.688C204.07 447.728 205.148 448.247 206.43 448.247C207.375 448.247 208.121 447.989 208.668 447.474C209.215 446.966 209.488 446.216 209.488 445.224V444.368C208.668 445.282 207.574 445.739 206.207 445.739C204.723 445.739 203.508 445.149 202.562 443.97C201.625 442.79 201.156 441.157 201.156 439.071ZM203.992 439.317C203.992 440.591 204.25 441.595 204.766 442.329C205.289 443.056 206.012 443.419 206.934 443.419C208.082 443.419 208.934 442.927 209.488 441.942V436.364C208.949 435.403 208.105 434.923 206.957 434.923C206.02 434.923 205.289 435.294 204.766 436.036C204.25 436.778 203.992 437.872 203.992 439.317ZM220.955 445.739C219.151 445.739 217.686 445.173 216.561 444.04C215.444 442.899 214.885 441.384 214.885 439.493V439.142C214.885 437.876 215.127 436.747 215.612 435.755C216.104 434.755 216.791 433.978 217.674 433.423C218.557 432.868 219.541 432.591 220.627 432.591C222.354 432.591 223.686 433.142 224.623 434.243C225.569 435.345 226.041 436.903 226.041 438.919V440.067H217.756C217.842 441.114 218.19 441.942 218.799 442.552C219.416 443.161 220.19 443.466 221.12 443.466C222.424 443.466 223.487 442.938 224.307 441.884L225.842 443.349C225.334 444.106 224.655 444.696 223.803 445.118C222.959 445.532 222.01 445.739 220.955 445.739ZM220.616 434.876C219.834 434.876 219.202 435.149 218.717 435.696C218.241 436.243 217.936 437.005 217.803 437.981H223.229V437.771C223.166 436.817 222.912 436.099 222.467 435.614C222.022 435.122 221.405 434.876 220.616 434.876ZM235.47 442.06C235.47 441.552 235.259 441.165 234.837 440.899C234.423 440.634 233.731 440.399 232.762 440.196C231.794 439.993 230.985 439.735 230.337 439.423C228.915 438.735 228.204 437.739 228.204 436.435C228.204 435.341 228.665 434.427 229.587 433.692C230.509 432.958 231.68 432.591 233.102 432.591C234.618 432.591 235.841 432.966 236.77 433.716C237.708 434.466 238.177 435.438 238.177 436.634H235.329C235.329 436.087 235.126 435.634 234.72 435.274C234.313 434.907 233.774 434.724 233.102 434.724C232.477 434.724 231.966 434.868 231.567 435.157C231.177 435.446 230.981 435.833 230.981 436.317C230.981 436.755 231.165 437.095 231.532 437.337C231.899 437.579 232.641 437.825 233.759 438.075C234.876 438.317 235.751 438.61 236.384 438.954C237.024 439.29 237.497 439.696 237.802 440.173C238.114 440.649 238.27 441.228 238.27 441.907C238.27 443.048 237.798 443.974 236.852 444.685C235.907 445.388 234.669 445.739 233.137 445.739C232.098 445.739 231.173 445.552 230.36 445.177C229.548 444.802 228.915 444.286 228.462 443.63C228.009 442.974 227.782 442.267 227.782 441.509H230.548C230.587 442.181 230.841 442.7 231.309 443.067C231.778 443.427 232.399 443.606 233.173 443.606C233.923 443.606 234.493 443.466 234.884 443.185C235.274 442.896 235.47 442.521 235.47 442.06Z" fill="#8162FF"/>
<path d="M96.5725 418.243H68.8705C66.966 418.243 65.4077 419.973 65.4077 422.086V456.676L72.3332 448.99H96.5725C98.477 448.99 100.035 447.26 100.035 445.146V422.086C100.035 419.973 98.477 418.243 96.5725 418.243ZM96.5725 445.146H72.3332L68.8705 448.99V422.086H96.5725V445.146Z" fill="#8162FF"/>
<path d="M34 284.684C34 279.161 38.4772 274.684 44 274.684H283.707C289.23 274.684 293.707 279.161 293.707 284.684V350.593C293.707 356.116 289.23 360.593 283.707 360.593H44C38.4771 360.593 34 356.116 34 350.593V284.684Z" fill="white"/>
<path d="M139.566 318.454H132.699V325.684H129.734V308.622H140.574V311.012H132.699V316.086H139.566V318.454ZM149.088 315.606C148.713 315.543 148.327 315.512 147.928 315.512C146.623 315.512 145.745 316.012 145.291 317.012V325.684H142.444V313.004H145.163L145.233 314.422C145.92 313.321 146.873 312.77 148.092 312.77C148.498 312.77 148.834 312.825 149.1 312.934L149.088 315.606ZM154.016 325.684H151.169V313.004H154.016V325.684ZM150.993 309.711C150.993 309.274 151.13 308.911 151.403 308.622C151.684 308.333 152.083 308.188 152.598 308.188C153.114 308.188 153.513 308.333 153.794 308.622C154.075 308.911 154.216 309.274 154.216 309.711C154.216 310.141 154.075 310.5 153.794 310.79C153.513 311.071 153.114 311.211 152.598 311.211C152.083 311.211 151.684 311.071 151.403 310.79C151.13 310.5 150.993 310.141 150.993 309.711ZM162.812 325.918C161.007 325.918 159.542 325.352 158.417 324.219C157.3 323.079 156.741 321.563 156.741 319.672V319.321C156.741 318.055 156.984 316.926 157.468 315.934C157.96 314.934 158.648 314.157 159.53 313.602C160.413 313.047 161.398 312.77 162.484 312.77C164.21 312.77 165.542 313.321 166.48 314.422C167.425 315.524 167.898 317.083 167.898 319.098V320.247H159.612C159.698 321.293 160.046 322.122 160.655 322.731C161.273 323.34 162.046 323.645 162.976 323.645C164.28 323.645 165.343 323.118 166.163 322.063L167.698 323.528C167.191 324.286 166.511 324.875 165.659 325.297C164.816 325.711 163.866 325.918 162.812 325.918ZM162.472 315.055C161.691 315.055 161.058 315.329 160.573 315.875C160.097 316.422 159.792 317.184 159.659 318.161H165.085V317.95C165.023 316.997 164.769 316.278 164.323 315.793C163.878 315.301 163.261 315.055 162.472 315.055ZM172.861 313.004L172.943 314.469C173.88 313.336 175.111 312.77 176.634 312.77C179.275 312.77 180.619 314.282 180.666 317.305V325.684H177.818V317.469C177.818 316.665 177.642 316.071 177.291 315.688C176.947 315.297 176.38 315.102 175.591 315.102C174.443 315.102 173.588 315.622 173.025 316.661V325.684H170.177V313.004H172.861ZM183.145 319.25C183.145 317.297 183.598 315.731 184.504 314.551C185.41 313.364 186.625 312.77 188.148 312.77C189.492 312.77 190.578 313.239 191.406 314.176V307.684H194.254V325.684H191.676L191.535 324.372C190.684 325.403 189.547 325.918 188.125 325.918C186.641 325.918 185.438 325.321 184.516 324.125C183.602 322.93 183.145 321.305 183.145 319.25ZM185.992 319.497C185.992 320.786 186.238 321.793 186.73 322.52C187.23 323.239 187.938 323.598 188.852 323.598C190.016 323.598 190.867 323.079 191.406 322.04V316.625C190.883 315.61 190.039 315.102 188.875 315.102C187.953 315.102 187.242 315.469 186.742 316.204C186.242 316.93 185.992 318.028 185.992 319.497ZM204.432 322.239C204.432 321.731 204.221 321.344 203.799 321.079C203.385 320.813 202.694 320.579 201.725 320.375C200.756 320.172 199.948 319.915 199.299 319.602C197.877 318.915 197.166 317.918 197.166 316.614C197.166 315.52 197.627 314.606 198.549 313.872C199.471 313.137 200.643 312.77 202.065 312.77C203.58 312.77 204.803 313.145 205.733 313.895C206.67 314.645 207.139 315.618 207.139 316.813H204.291C204.291 316.266 204.088 315.813 203.682 315.454C203.276 315.086 202.737 314.903 202.065 314.903C201.44 314.903 200.928 315.047 200.53 315.336C200.139 315.625 199.944 316.012 199.944 316.497C199.944 316.934 200.127 317.274 200.495 317.516C200.862 317.758 201.604 318.004 202.721 318.254C203.838 318.497 204.713 318.79 205.346 319.133C205.987 319.469 206.459 319.875 206.764 320.352C207.077 320.829 207.233 321.407 207.233 322.086C207.233 323.227 206.76 324.153 205.815 324.864C204.87 325.567 203.631 325.918 202.1 325.918C201.061 325.918 200.135 325.731 199.323 325.356C198.51 324.981 197.877 324.465 197.424 323.809C196.971 323.153 196.745 322.446 196.745 321.688H199.51C199.549 322.36 199.803 322.879 200.272 323.247C200.741 323.606 201.362 323.786 202.135 323.786C202.885 323.786 203.455 323.645 203.846 323.364C204.237 323.075 204.432 322.7 204.432 322.239Z" fill="#8162FF"/>
<path fill-rule="evenodd" clip-rule="evenodd" d="M81.7596 337.986L79.1096 335.302C69.6976 325.809 63.4839 319.548 63.4839 311.864C63.4839 305.602 67.9066 300.683 73.5355 300.683C76.7155 300.683 79.7675 302.329 81.7596 304.932C83.7516 302.329 86.8036 300.683 89.9836 300.683C95.6125 300.683 100.035 305.602 100.035 311.864C100.035 319.548 93.8215 325.809 84.4095 335.323L81.7596 337.986Z" fill="#8162FF"/>
<path d="M34 167.124C34 161.601 38.4772 157.124 44 157.124H283.707C289.23 157.124 293.707 161.601 293.707 167.124V233.033C293.707 238.556 289.23 243.033 283.707 243.033H44C38.4772 243.033 34 238.556 34 233.033V167.124Z" fill="white"/>
<path d="M34 167.124C34 161.601 38.4772 157.124 44 157.124H283.707C289.23 157.124 293.707 161.601 293.707 167.124V233.033C293.707 238.556 289.23 243.033 283.707 243.033H44C38.4772 243.033 34 238.556 34 233.033V167.124Z" fill="#8162FF" fill-opacity="0.2"/>
<path d="M143.281 208.124H140.328V200.542H132.699V208.124H129.734V191.061H132.699V198.163H140.328V191.061H143.281V208.124ZM146.088 201.667C146.088 200.425 146.334 199.307 146.827 198.315C147.319 197.315 148.01 196.55 148.901 196.018C149.791 195.479 150.815 195.21 151.971 195.21C153.682 195.21 155.069 195.76 156.131 196.862C157.202 197.964 157.78 199.425 157.866 201.245L157.877 201.913C157.877 203.163 157.635 204.28 157.151 205.264C156.674 206.249 155.987 207.01 155.088 207.55C154.198 208.089 153.166 208.358 151.995 208.358C150.205 208.358 148.772 207.764 147.694 206.577C146.623 205.382 146.088 203.792 146.088 201.807V201.667ZM148.936 201.913C148.936 203.218 149.205 204.241 149.745 204.983C150.284 205.718 151.034 206.085 151.995 206.085C152.955 206.085 153.702 205.71 154.233 204.96C154.772 204.21 155.041 203.112 155.041 201.667C155.041 200.385 154.764 199.37 154.209 198.62C153.663 197.87 152.916 197.495 151.971 197.495C151.041 197.495 150.303 197.866 149.756 198.608C149.209 199.343 148.936 200.444 148.936 201.913ZM163.063 195.444L163.145 196.768C164.036 195.729 165.255 195.21 166.802 195.21C168.497 195.21 169.657 195.858 170.282 197.155C171.204 195.858 172.501 195.21 174.173 195.21C175.571 195.21 176.61 195.596 177.29 196.37C177.977 197.143 178.329 198.284 178.345 199.792V208.124H175.497V199.874C175.497 199.069 175.321 198.479 174.97 198.104C174.618 197.729 174.036 197.542 173.223 197.542C172.575 197.542 172.044 197.718 171.63 198.069C171.223 198.413 170.938 198.866 170.774 199.428L170.786 208.124H167.938V199.78C167.899 198.288 167.138 197.542 165.653 197.542C164.513 197.542 163.704 198.007 163.227 198.936V208.124H160.38V195.444H163.063ZM186.952 208.358C185.148 208.358 183.683 207.792 182.558 206.659C181.441 205.518 180.882 204.003 180.882 202.112V201.76C180.882 200.495 181.124 199.366 181.609 198.374C182.101 197.374 182.788 196.596 183.671 196.042C184.554 195.487 185.538 195.21 186.624 195.21C188.351 195.21 189.683 195.76 190.62 196.862C191.566 197.964 192.038 199.522 192.038 201.538V202.686H183.753C183.839 203.733 184.187 204.561 184.796 205.171C185.413 205.78 186.187 206.085 187.116 206.085C188.421 206.085 189.484 205.557 190.304 204.503L191.839 205.968C191.331 206.725 190.652 207.315 189.8 207.737C188.956 208.151 188.007 208.358 186.952 208.358ZM186.612 197.495C185.831 197.495 185.198 197.768 184.714 198.315C184.237 198.862 183.933 199.624 183.8 200.6H189.226V200.389C189.163 199.436 188.909 198.718 188.464 198.233C188.019 197.741 187.402 197.495 186.612 197.495Z" fill="#8162FF"/>
<path d="M85 183.295L96.5 193.618V211.536H91.9V197.771H78.1V211.536H73.5V193.618L85 183.295ZM85 177.124L62 197.771H68.9V216.124H82.7V202.359H87.3V216.124H101.1V197.771H108L85 177.124Z" fill="#8162FF"/>
<rect x="42" y="14" width="58" height="58" rx="5" fill="#00C2FF"/>
<rect x="47" y="19" width="58" height="58" rx="5" fill="#AD00FF" fill-opacity="0.63"/>
<path d="M53.435 27.3289C53.713 27.0858 54.0812 26.9691 54.4502 27.007L84.3846 29.5919C85.0466 29.6644 85.5475 29.565 85.5474 30.2238V54.7215C86.7316 54.0205 88.0871 53.6535 89.4671 53.6604C93.0693 53.6604 96 55.979 96 58.8302C96 61.6813 93.0693 64 89.4672 64C85.8651 64 78.6372 61.4651 78.6372 58.6126C78.6372 58.6126 78.6372 38.9064 78.6372 37.9388C78.6372 35.8531 71.7269 43.4929 69.288 43.4929C66.8491 43.4929 59.7066 33.0552 59.7066 35.8531C59.7066 36.8959 59.7066 52.1327 59.7066 52.1327C60.8911 51.4332 62.2467 51.0675 63.6263 51.0755C67.2285 51.0755 70.1591 53.3942 70.1591 56.2453C70.1591 59.0964 67.2284 61.4151 63.6263 61.4151C60.0241 61.4151 53 59.0977 53 56.2453V42.6746V28.2918C53 27.9242 53.1582 27.574 53.435 27.3289Z" fill="white"/>
<rect x="42" y="14" width="58" height="58" rx="5" fill="#00C2FF"/>
<rect x="47" y="19" width="58" height="58" rx="5" fill="#AD00FF" fill-opacity="0.63"/>
<path d="M53.435 27.3289C53.713 27.0858 54.0812 26.9691 54.4502 27.007L84.3846 29.5919C85.0466 29.6644 85.5475 29.565 85.5474 30.2238V54.7215C86.7316 54.0205 88.0871 53.6535 89.4671 53.6604C93.0693 53.6604 96 55.979 96 58.8302C96 61.6813 93.0693 64 89.4672 64C85.8651 64 78.6372 61.4651 78.6372 58.6126C78.6372 58.6126 78.6372 38.9064 78.6372 37.9388C78.6372 35.8531 71.7269 43.4929 69.288 43.4929C66.8491 43.4929 59.7066 33.0552 59.7066 35.8531C59.7066 36.8959 59.7066 52.1327 59.7066 52.1327C60.8911 51.4332 62.2467 51.0675 63.6263 51.0755C67.2285 51.0755 70.1591 53.3942 70.1591 56.2453C70.1591 59.0964 67.2284 61.4151 63.6263 61.4151C60.0241 61.4151 53 59.0977 53 56.2453V42.6746V28.2918C53 27.9242 53.1582 27.574 53.435 27.3289Z" fill="white"/>
<path d="M137.883 30.4922V52.8281C137.883 55.3594 137.344 57.5547 136.266 59.4141C135.188 61.2578 133.641 62.6641 131.625 63.6328C129.609 64.6016 127.227 65.0859 124.477 65.0859C120.32 65.0859 117.047 64.0078 114.656 61.8516C112.266 59.6953 111.047 56.7422 111 52.9922V30.4922H119.273V53.1562C119.367 56.8906 121.102 58.7578 124.477 58.7578C126.18 58.7578 127.469 58.2891 128.344 57.3516C129.219 56.4141 129.656 54.8906 129.656 52.7812V30.4922H137.883Z" fill="url(#paint0_linear)"/>
<path d="M160.641 55.5469C160.641 54.3438 160.211 53.4062 159.352 52.7344C158.508 52.0625 157.016 51.3672 154.875 50.6484C152.734 49.9297 150.984 49.2344 149.625 48.5625C145.203 46.3906 142.992 43.4062 142.992 39.6094C142.992 37.7188 143.539 36.0547 144.633 34.6172C145.742 33.1641 147.305 32.0391 149.32 31.2422C151.336 30.4297 153.602 30.0234 156.117 30.0234C158.57 30.0234 160.766 30.4609 162.703 31.3359C164.656 32.2109 166.172 33.4609 167.25 35.0859C168.328 36.6953 168.867 38.5391 168.867 40.6172H160.664C160.664 39.2266 160.234 38.1484 159.375 37.3828C158.531 36.6172 157.383 36.2344 155.93 36.2344C154.461 36.2344 153.297 36.5625 152.438 37.2188C151.594 37.8594 151.172 38.6797 151.172 39.6797C151.172 40.5547 151.641 41.3516 152.578 42.0703C153.516 42.7734 155.164 43.5078 157.523 44.2734C159.883 45.0234 161.82 45.8359 163.336 46.7109C167.023 48.8359 168.867 51.7656 168.867 55.5C168.867 58.4844 167.742 60.8281 165.492 62.5312C163.242 64.2344 160.156 65.0859 156.234 65.0859C153.469 65.0859 150.961 64.5938 148.711 63.6094C146.477 62.6094 144.789 61.25 143.648 59.5312C142.523 57.7969 141.961 55.8047 141.961 53.5547H150.211C150.211 55.3828 150.68 56.7344 151.617 57.6094C152.57 58.4688 154.109 58.8984 156.234 58.8984C157.594 58.8984 158.664 58.6094 159.445 58.0312C160.242 57.4375 160.641 56.6094 160.641 55.5469Z" fill="url(#paint1_linear)"/>
<path d="M181.312 53.0391V64.6172H173.086V30.4922H186.703C189.312 30.4922 191.617 30.9766 193.617 31.9453C195.633 32.8984 197.188 34.2656 198.281 36.0469C199.391 37.8125 199.945 39.8203 199.945 42.0703C199.945 45.3984 198.75 48.0625 196.359 50.0625C193.984 52.0469 190.719 53.0391 186.562 53.0391H181.312ZM181.312 46.6875H186.703C188.297 46.6875 189.508 46.2891 190.336 45.4922C191.18 44.6953 191.602 43.5703 191.602 42.1172C191.602 40.5234 191.172 39.25 190.312 38.2969C189.453 37.3438 188.281 36.8594 186.797 36.8438H181.312V46.6875Z" fill="url(#paint2_linear)"/>
<path d="M219.562 58.2422H208.289L206.32 64.6172H197.531L210.047 30.4922H217.781L230.391 64.6172H221.555L219.562 58.2422ZM210.258 51.8906H217.594L213.914 40.0547L210.258 51.8906Z" fill="url(#paint3_linear)"/>
<path d="M259.992 53.0625C259.883 55.4375 259.242 57.5391 258.07 59.3672C256.898 61.1797 255.25 62.5859 253.125 63.5859C251.016 64.5859 248.602 65.0859 245.883 65.0859C241.398 65.0859 237.867 63.625 235.289 60.7031C232.711 57.7812 231.422 53.6562 231.422 48.3281V46.6406C231.422 43.2969 232 40.375 233.156 37.875C234.328 35.3594 236.008 33.4219 238.195 32.0625C240.383 30.6875 242.914 30 245.789 30C249.93 30 253.258 31.0938 255.773 33.2812C258.289 35.4531 259.719 38.4531 260.062 42.2812H251.859C251.797 40.2031 251.273 38.7109 250.289 37.8047C249.305 36.8984 247.805 36.4453 245.789 36.4453C243.742 36.4453 242.242 37.2109 241.289 38.7422C240.336 40.2734 239.836 42.7188 239.789 46.0781V48.4922C239.789 52.1328 240.242 54.7344 241.148 56.2969C242.07 57.8594 243.648 58.6406 245.883 58.6406C247.773 58.6406 249.219 58.1953 250.219 57.3047C251.219 56.4141 251.75 55 251.812 53.0625H259.992Z" fill="url(#paint4_linear)"/>
<path d="M285.047 50.1562H272.109V58.2891H287.391V64.6172H263.883V30.4922H287.438V36.8438H272.109V44.0391H285.047V50.1562Z" fill="url(#paint5_linear)"/>
<path d="M139.385 739.184H140.835V741.231H139.385V744H136.845V741.231H131.598L131.483 739.632L136.818 731.203H139.385V739.184ZM134.015 739.184H136.845V734.666L136.678 734.956L134.015 739.184ZM151.228 744H142.456V742.26L146.596 737.848C147.164 737.227 147.583 736.685 147.853 736.222C148.128 735.759 148.266 735.319 148.266 734.903C148.266 734.335 148.122 733.89 147.835 733.567C147.548 733.239 147.138 733.075 146.604 733.075C146.03 733.075 145.576 733.274 145.242 733.673C144.914 734.065 144.75 734.584 144.75 735.229H142.201C142.201 734.449 142.386 733.737 142.755 733.093C143.13 732.448 143.657 731.944 144.337 731.581C145.017 731.212 145.787 731.027 146.648 731.027C147.967 731.027 148.989 731.344 149.716 731.977C150.448 732.609 150.814 733.503 150.814 734.657C150.814 735.29 150.65 735.935 150.322 736.591C149.994 737.247 149.432 738.012 148.635 738.885L145.726 741.952H151.228V744ZM161.655 738.709C161.655 740.479 161.289 741.832 160.557 742.77C159.824 743.707 158.752 744.176 157.34 744.176C155.945 744.176 154.879 743.716 154.141 742.796C153.402 741.876 153.024 740.558 153.007 738.841V736.485C153.007 734.698 153.376 733.342 154.114 732.416C154.858 731.49 155.928 731.027 157.322 731.027C158.717 731.027 159.783 731.487 160.521 732.407C161.26 733.321 161.638 734.637 161.655 736.354V738.709ZM159.115 736.125C159.115 735.064 158.969 734.294 158.676 733.813C158.389 733.327 157.938 733.084 157.322 733.084C156.725 733.084 156.282 733.315 155.995 733.778C155.714 734.235 155.564 734.953 155.547 735.932V739.043C155.547 740.086 155.688 740.862 155.969 741.372C156.256 741.876 156.713 742.128 157.34 742.128C157.961 742.128 158.409 741.885 158.685 741.398C158.96 740.912 159.104 740.168 159.115 739.166V736.125ZM164.393 747.208L163.065 746.514L163.382 745.942C163.774 745.228 163.977 744.516 163.988 743.807V741.838H166.133L166.124 743.596C166.118 744.246 165.954 744.902 165.632 745.564C165.31 746.227 164.896 746.774 164.393 747.208ZM176.886 738.709C176.886 740.479 176.52 741.832 175.787 742.77C175.055 743.707 173.982 744.176 172.57 744.176C171.176 744.176 170.109 743.716 169.371 742.796C168.633 741.876 168.255 740.558 168.237 738.841V736.485C168.237 734.698 168.606 733.342 169.345 732.416C170.089 731.49 171.158 731.027 172.553 731.027C173.947 731.027 175.014 731.487 175.752 732.407C176.49 733.321 176.868 734.637 176.886 736.354V738.709ZM174.346 736.125C174.346 735.064 174.199 734.294 173.906 733.813C173.619 733.327 173.168 733.084 172.553 733.084C171.955 733.084 171.513 733.315 171.226 733.778C170.944 734.235 170.795 734.953 170.777 735.932V739.043C170.777 740.086 170.918 740.862 171.199 741.372C171.486 741.876 171.943 742.128 172.57 742.128C173.191 742.128 173.64 741.885 173.915 741.398C174.19 740.912 174.334 740.168 174.346 739.166V736.125ZM185.749 731.071V733.163H185.503C184.354 733.181 183.429 733.479 182.726 734.06C182.028 734.64 181.609 735.445 181.469 736.477C182.148 735.785 183.007 735.439 184.044 735.439C185.157 735.439 186.042 735.838 186.698 736.635C187.354 737.432 187.683 738.48 187.683 739.781C187.683 740.613 187.501 741.366 187.138 742.04C186.78 742.714 186.271 743.238 185.608 743.613C184.952 743.988 184.208 744.176 183.376 744.176C182.028 744.176 180.938 743.707 180.106 742.77C179.28 741.832 178.867 740.581 178.867 739.017V738.103C178.867 736.714 179.128 735.489 179.649 734.429C180.177 733.362 180.93 732.539 181.908 731.959C182.893 731.373 184.032 731.077 185.327 731.071H185.749ZM183.271 737.479C182.86 737.479 182.488 737.587 182.154 737.804C181.82 738.015 181.574 738.296 181.416 738.647V739.421C181.416 740.271 181.583 740.936 181.917 741.416C182.251 741.891 182.72 742.128 183.323 742.128C183.868 742.128 184.308 741.914 184.642 741.486C184.981 741.053 185.151 740.493 185.151 739.808C185.151 739.11 184.981 738.548 184.642 738.12C184.302 737.692 183.845 737.479 183.271 737.479ZM195.386 738.885C194.724 739.535 193.95 739.86 193.065 739.86C191.935 739.86 191.029 739.474 190.35 738.7C189.67 737.921 189.33 736.872 189.33 735.554C189.33 734.716 189.512 733.948 189.875 733.251C190.244 732.548 190.757 732.003 191.413 731.616C192.069 731.224 192.808 731.027 193.628 731.027C194.472 731.027 195.222 731.238 195.878 731.66C196.534 732.082 197.044 732.688 197.407 733.479C197.771 734.271 197.955 735.176 197.961 736.195V737.136C197.961 739.269 197.431 740.944 196.37 742.163C195.31 743.382 193.807 744.032 191.861 744.114L191.237 744.123V742.005L191.8 741.996C194.009 741.896 195.204 740.859 195.386 738.885ZM193.689 737.918C194.1 737.918 194.451 737.812 194.744 737.602C195.043 737.391 195.269 737.136 195.421 736.837V735.791C195.421 734.93 195.257 734.262 194.929 733.787C194.601 733.312 194.161 733.075 193.61 733.075C193.101 733.075 192.682 733.31 192.354 733.778C192.025 734.241 191.861 734.824 191.861 735.527C191.861 736.225 192.02 736.799 192.336 737.25C192.658 737.695 193.109 737.918 193.689 737.918Z" fill="#404040"/>
<path d="M90.7754 706.339H86.8555V717H84.2188V706.339H80.3516V704.203H90.7754V706.339ZM90.1465 712.157C90.1465 711.214 90.3281 710.373 90.6914 709.635C91.0547 708.896 91.5762 708.325 92.2559 707.921C92.9414 707.517 93.7354 707.314 94.6377 707.314C95.9209 707.314 96.9668 707.707 97.7754 708.492C98.5898 709.277 99.0439 710.344 99.1377 711.691L99.1553 712.342C99.1553 713.801 98.748 714.973 97.9336 715.857C97.1191 716.736 96.0264 717.176 94.6553 717.176C93.2842 717.176 92.1885 716.736 91.3682 715.857C90.5537 714.979 90.1465 713.783 90.1465 712.271V712.157ZM92.6865 712.342C92.6865 713.244 92.8564 713.936 93.1963 714.416C93.5361 714.891 94.0225 715.128 94.6553 715.128C95.2705 715.128 95.751 714.894 96.0967 714.425C96.4424 713.95 96.6152 713.194 96.6152 712.157C96.6152 711.272 96.4424 710.587 96.0967 710.101C95.751 709.614 95.2646 709.371 94.6377 709.371C94.0166 709.371 93.5361 709.614 93.1963 710.101C92.8564 710.581 92.6865 711.328 92.6865 712.342ZM104.011 705.152V707.49H105.637V709.354H104.011V714.1C104.011 714.451 104.078 714.703 104.213 714.855C104.348 715.008 104.605 715.084 104.986 715.084C105.268 715.084 105.517 715.063 105.733 715.022V716.947C105.235 717.1 104.723 717.176 104.195 717.176C102.414 717.176 101.506 716.276 101.471 714.478V709.354H100.082V707.49H101.471V705.152H104.011ZM112.812 717C112.695 716.771 112.61 716.487 112.558 716.147C111.942 716.833 111.143 717.176 110.158 717.176C109.227 717.176 108.453 716.906 107.838 716.367C107.229 715.828 106.924 715.148 106.924 714.328C106.924 713.32 107.296 712.547 108.04 712.008C108.79 711.469 109.871 711.196 111.283 711.19H112.452V710.646C112.452 710.206 112.338 709.854 112.109 709.591C111.887 709.327 111.532 709.195 111.046 709.195C110.618 709.195 110.281 709.298 110.035 709.503C109.795 709.708 109.675 709.989 109.675 710.347H107.135C107.135 709.796 107.305 709.286 107.645 708.817C107.984 708.349 108.465 707.982 109.086 707.719C109.707 707.449 110.404 707.314 111.178 707.314C112.35 707.314 113.278 707.61 113.964 708.202C114.655 708.788 115.001 709.614 115.001 710.681V714.803C115.007 715.705 115.133 716.388 115.379 716.851V717H112.812ZM110.712 715.233C111.087 715.233 111.433 715.151 111.749 714.987C112.065 714.817 112.3 714.592 112.452 714.311V712.676H111.503C110.231 712.676 109.555 713.115 109.473 713.994L109.464 714.144C109.464 714.46 109.575 714.721 109.798 714.926C110.021 715.131 110.325 715.233 110.712 715.233ZM119.883 717H117.334V703.5H119.883V717ZM129.77 714.882H135.368V717H127.133V704.203H129.77V714.882ZM139.652 717H137.104V707.49H139.652V717ZM136.954 705.029C136.954 704.648 137.08 704.335 137.332 704.089C137.59 703.843 137.938 703.72 138.378 703.72C138.812 703.72 139.157 703.843 139.415 704.089C139.673 704.335 139.802 704.648 139.802 705.029C139.802 705.416 139.67 705.732 139.406 705.979C139.148 706.225 138.806 706.348 138.378 706.348C137.95 706.348 137.604 706.225 137.341 705.979C137.083 705.732 136.954 705.416 136.954 705.029ZM147.153 714.372C147.153 714.062 146.998 713.818 146.688 713.643C146.383 713.461 145.891 713.3 145.211 713.159C142.949 712.685 141.818 711.724 141.818 710.276C141.818 709.433 142.167 708.729 142.864 708.167C143.567 707.599 144.484 707.314 145.615 707.314C146.822 707.314 147.786 707.599 148.507 708.167C149.233 708.735 149.597 709.474 149.597 710.382H147.057C147.057 710.019 146.939 709.72 146.705 709.485C146.471 709.245 146.104 709.125 145.606 709.125C145.179 709.125 144.848 709.222 144.613 709.415C144.379 709.608 144.262 709.854 144.262 710.153C144.262 710.435 144.394 710.663 144.657 710.839C144.927 711.009 145.378 711.158 146.011 711.287C146.644 711.41 147.177 711.551 147.61 711.709C148.952 712.201 149.623 713.054 149.623 714.267C149.623 715.134 149.251 715.837 148.507 716.376C147.763 716.909 146.802 717.176 145.624 717.176C144.827 717.176 144.118 717.035 143.497 716.754C142.882 716.467 142.398 716.077 142.047 715.585C141.695 715.087 141.52 714.551 141.52 713.977H143.928C143.951 714.428 144.118 714.773 144.429 715.014C144.739 715.254 145.155 715.374 145.677 715.374C146.163 715.374 146.529 715.283 146.775 715.102C147.027 714.914 147.153 714.671 147.153 714.372ZM154.558 705.152V707.49H156.184V709.354H154.558V714.1C154.558 714.451 154.625 714.703 154.76 714.855C154.895 715.008 155.152 715.084 155.533 715.084C155.814 715.084 156.063 715.063 156.28 715.022V716.947C155.782 717.1 155.27 717.176 154.742 717.176C152.961 717.176 152.053 716.276 152.018 714.478V709.354H150.629V707.49H152.018V705.152H154.558ZM162.226 717.176C160.831 717.176 159.694 716.748 158.815 715.893C157.942 715.037 157.506 713.897 157.506 712.474V712.228C157.506 711.272 157.69 710.42 158.06 709.67C158.429 708.914 158.95 708.334 159.624 707.93C160.304 707.52 161.077 707.314 161.944 707.314C163.245 707.314 164.268 707.725 165.012 708.545C165.762 709.365 166.137 710.528 166.137 712.034V713.071H160.081C160.163 713.692 160.409 714.19 160.819 714.565C161.235 714.94 161.76 715.128 162.393 715.128C163.371 715.128 164.136 714.773 164.687 714.064L165.935 715.462C165.554 716.001 165.038 716.423 164.388 716.728C163.737 717.026 163.017 717.176 162.226 717.176ZM161.936 709.371C161.432 709.371 161.021 709.541 160.705 709.881C160.395 710.221 160.195 710.707 160.107 711.34H163.641V711.138C163.629 710.575 163.477 710.142 163.184 709.837C162.891 709.526 162.475 709.371 161.936 709.371ZM170.175 707.49L170.254 708.589C170.934 707.739 171.845 707.314 172.987 707.314C173.995 707.314 174.745 707.61 175.237 708.202C175.729 708.794 175.981 709.679 175.993 710.856V717H173.453V710.918C173.453 710.379 173.336 709.989 173.102 709.749C172.867 709.503 172.478 709.38 171.933 709.38C171.218 709.38 170.682 709.685 170.324 710.294V717H167.784V707.49H170.175ZM180.857 717H178.309V707.49H180.857V717ZM178.159 705.029C178.159 704.648 178.285 704.335 178.537 704.089C178.795 703.843 179.144 703.72 179.583 703.72C180.017 703.72 180.362 703.843 180.62 704.089C180.878 704.335 181.007 704.648 181.007 705.029C181.007 705.416 180.875 705.732 180.611 705.979C180.354 706.225 180.011 706.348 179.583 706.348C179.155 706.348 178.81 706.225 178.546 705.979C178.288 705.732 178.159 705.416 178.159 705.029ZM185.546 707.49L185.625 708.589C186.305 707.739 187.216 707.314 188.358 707.314C189.366 707.314 190.116 707.61 190.608 708.202C191.101 708.794 191.353 709.679 191.364 710.856V717H188.824V710.918C188.824 710.379 188.707 709.989 188.473 709.749C188.238 709.503 187.849 709.38 187.304 709.38C186.589 709.38 186.053 709.685 185.695 710.294V717H183.155V707.49H185.546ZM193.179 712.175C193.179 710.716 193.524 709.541 194.216 708.65C194.913 707.76 195.851 707.314 197.028 707.314C198.071 707.314 198.883 707.672 199.463 708.387L199.568 707.49H201.871V716.684C201.871 717.516 201.681 718.239 201.3 718.854C200.925 719.47 200.395 719.938 199.709 720.261C199.023 720.583 198.221 720.744 197.301 720.744C196.604 720.744 195.924 720.604 195.262 720.322C194.6 720.047 194.099 719.689 193.759 719.25L194.884 717.703C195.517 718.412 196.284 718.767 197.187 718.767C197.86 718.767 198.385 718.585 198.76 718.222C199.135 717.864 199.322 717.354 199.322 716.692V716.183C198.736 716.845 197.966 717.176 197.011 717.176C195.868 717.176 194.942 716.73 194.233 715.84C193.53 714.943 193.179 713.757 193.179 712.28V712.175ZM195.719 712.359C195.719 713.221 195.892 713.897 196.237 714.39C196.583 714.876 197.058 715.119 197.661 715.119C198.435 715.119 198.988 714.829 199.322 714.249V710.25C198.982 709.67 198.435 709.38 197.679 709.38C197.069 709.38 196.589 709.629 196.237 710.127C195.892 710.625 195.719 711.369 195.719 712.359ZM218.086 706.339H214.166V717H211.529V706.339H207.662V704.203H218.086V706.339ZM222.361 717H219.812V707.49H222.361V717ZM219.663 705.029C219.663 704.648 219.789 704.335 220.041 704.089C220.299 703.843 220.647 703.72 221.087 703.72C221.521 703.72 221.866 703.843 222.124 704.089C222.382 704.335 222.511 704.648 222.511 705.029C222.511 705.416 222.379 705.732 222.115 705.979C221.857 706.225 221.515 706.348 221.087 706.348C220.659 706.348 220.313 706.225 220.05 705.979C219.792 705.732 219.663 705.416 219.663 705.029ZM227.094 707.49L227.173 708.554C227.847 707.728 228.758 707.314 229.906 707.314C231.131 707.314 231.972 707.798 232.429 708.765C233.097 707.798 234.049 707.314 235.285 707.314C236.316 707.314 237.084 707.616 237.588 708.22C238.092 708.817 238.344 709.72 238.344 710.927V717H235.795V710.936C235.795 710.396 235.689 710.004 235.479 709.758C235.268 709.506 234.896 709.38 234.362 709.38C233.601 709.38 233.073 709.743 232.78 710.47L232.789 717H230.249V710.944C230.249 710.394 230.141 709.995 229.924 709.749C229.707 709.503 229.338 709.38 228.816 709.38C228.096 709.38 227.574 709.679 227.252 710.276V717H224.712V707.49H227.094ZM244.931 717.176C243.536 717.176 242.399 716.748 241.521 715.893C240.647 715.037 240.211 713.897 240.211 712.474V712.228C240.211 711.272 240.396 710.42 240.765 709.67C241.134 708.914 241.655 708.334 242.329 707.93C243.009 707.52 243.782 707.314 244.649 707.314C245.95 707.314 246.973 707.725 247.717 708.545C248.467 709.365 248.842 710.528 248.842 712.034V713.071H242.786C242.868 713.692 243.114 714.19 243.524 714.565C243.94 714.94 244.465 715.128 245.098 715.128C246.076 715.128 246.841 714.773 247.392 714.064L248.64 715.462C248.259 716.001 247.743 716.423 247.093 716.728C246.442 717.026 245.722 717.176 244.931 717.176ZM244.641 709.371C244.137 709.371 243.727 709.541 243.41 709.881C243.1 710.221 242.9 710.707 242.812 711.34H246.346V711.138C246.334 710.575 246.182 710.142 245.889 709.837C245.596 709.526 245.18 709.371 244.641 709.371Z" fill="#6200EE"/>
<path d="M119.367 779.363H114.744L113.865 782H111.062L115.825 769.203H118.269L123.059 782H120.255L119.367 779.363ZM115.456 777.228H118.655L117.047 772.438L115.456 777.228ZM129.681 774.872C129.335 774.825 129.03 774.802 128.767 774.802C127.806 774.802 127.176 775.127 126.877 775.777V782H124.337V772.49H126.736L126.807 773.624C127.316 772.751 128.022 772.314 128.925 772.314C129.206 772.314 129.47 772.353 129.716 772.429L129.681 774.872ZM134.642 770.152V772.49H136.268V774.354H134.642V779.1C134.642 779.451 134.709 779.703 134.844 779.855C134.979 780.008 135.236 780.084 135.617 780.084C135.898 780.084 136.147 780.063 136.364 780.022V781.947C135.866 782.1 135.354 782.176 134.826 782.176C133.045 782.176 132.137 781.276 132.102 779.478V774.354H130.713V772.49H132.102V770.152H134.642ZM140.613 782H138.064V772.49H140.613V782ZM137.915 770.029C137.915 769.648 138.041 769.335 138.293 769.089C138.551 768.843 138.899 768.72 139.339 768.72C139.772 768.72 140.118 768.843 140.376 769.089C140.634 769.335 140.763 769.648 140.763 770.029C140.763 770.416 140.631 770.732 140.367 770.979C140.109 771.225 139.767 771.348 139.339 771.348C138.911 771.348 138.565 771.225 138.302 770.979C138.044 770.732 137.915 770.416 137.915 770.029ZM148.114 779.372C148.114 779.062 147.959 778.818 147.648 778.643C147.344 778.461 146.852 778.3 146.172 778.159C143.91 777.685 142.779 776.724 142.779 775.276C142.779 774.433 143.128 773.729 143.825 773.167C144.528 772.599 145.445 772.314 146.576 772.314C147.783 772.314 148.747 772.599 149.468 773.167C150.194 773.735 150.558 774.474 150.558 775.382H148.018C148.018 775.019 147.9 774.72 147.666 774.485C147.432 774.245 147.065 774.125 146.567 774.125C146.14 774.125 145.809 774.222 145.574 774.415C145.34 774.608 145.223 774.854 145.223 775.153C145.223 775.435 145.354 775.663 145.618 775.839C145.888 776.009 146.339 776.158 146.972 776.287C147.604 776.41 148.138 776.551 148.571 776.709C149.913 777.201 150.584 778.054 150.584 779.267C150.584 780.134 150.212 780.837 149.468 781.376C148.724 781.909 147.763 782.176 146.585 782.176C145.788 782.176 145.079 782.035 144.458 781.754C143.843 781.467 143.359 781.077 143.008 780.585C142.656 780.087 142.48 779.551 142.48 778.977H144.889C144.912 779.428 145.079 779.773 145.39 780.014C145.7 780.254 146.116 780.374 146.638 780.374C147.124 780.374 147.49 780.283 147.736 780.102C147.988 779.914 148.114 779.671 148.114 779.372ZM155.519 770.152V772.49H157.145V774.354H155.519V779.1C155.519 779.451 155.586 779.703 155.721 779.855C155.855 780.008 156.113 780.084 156.494 780.084C156.775 780.084 157.024 780.063 157.241 780.022V781.947C156.743 782.1 156.23 782.176 155.703 782.176C153.922 782.176 153.014 781.276 152.979 779.478V774.354H151.59V772.49H152.979V770.152H155.519ZM163.96 779.372C163.96 779.062 163.805 778.818 163.494 778.643C163.189 778.461 162.697 778.3 162.018 778.159C159.756 777.685 158.625 776.724 158.625 775.276C158.625 774.433 158.974 773.729 159.671 773.167C160.374 772.599 161.291 772.314 162.422 772.314C163.629 772.314 164.593 772.599 165.313 773.167C166.04 773.735 166.403 774.474 166.403 775.382H163.863C163.863 775.019 163.746 774.72 163.512 774.485C163.277 774.245 162.911 774.125 162.413 774.125C161.985 774.125 161.654 774.222 161.42 774.415C161.186 774.608 161.068 774.854 161.068 775.153C161.068 775.435 161.2 775.663 161.464 775.839C161.733 776.009 162.185 776.158 162.817 776.287C163.45 776.41 163.983 776.551 164.417 776.709C165.759 777.201 166.43 778.054 166.43 779.267C166.43 780.134 166.058 780.837 165.313 781.376C164.569 781.909 163.608 782.176 162.431 782.176C161.634 782.176 160.925 782.035 160.304 781.754C159.688 781.467 159.205 781.077 158.854 780.585C158.502 780.087 158.326 779.551 158.326 778.977H160.734C160.758 779.428 160.925 779.773 161.235 780.014C161.546 780.254 161.962 780.374 162.483 780.374C162.97 780.374 163.336 780.283 163.582 780.102C163.834 779.914 163.96 779.671 163.96 779.372ZM175.859 779.882H181.458V782H173.223V769.203H175.859V779.882ZM185.742 782H183.193V772.49H185.742V782ZM183.044 770.029C183.044 769.648 183.17 769.335 183.422 769.089C183.68 768.843 184.028 768.72 184.468 768.72C184.901 768.72 185.247 768.843 185.505 769.089C185.763 769.335 185.892 769.648 185.892 770.029C185.892 770.416 185.76 770.732 185.496 770.979C185.238 771.225 184.896 771.348 184.468 771.348C184.04 771.348 183.694 771.225 183.431 770.979C183.173 770.732 183.044 770.416 183.044 770.029ZM191.547 778.186L190.633 779.1V782H188.093V768.5H190.633V775.979L191.125 775.347L193.56 772.49H196.609L193.173 776.454L196.908 782H193.99L191.547 778.186ZM202.159 782.176C200.765 782.176 199.628 781.748 198.749 780.893C197.876 780.037 197.439 778.897 197.439 777.474V777.228C197.439 776.272 197.624 775.42 197.993 774.67C198.362 773.914 198.884 773.334 199.558 772.93C200.237 772.52 201.011 772.314 201.878 772.314C203.179 772.314 204.201 772.725 204.945 773.545C205.695 774.365 206.07 775.528 206.07 777.034V778.071H200.015C200.097 778.692 200.343 779.19 200.753 779.565C201.169 779.94 201.693 780.128 202.326 780.128C203.305 780.128 204.069 779.773 204.62 779.064L205.868 780.462C205.487 781.001 204.972 781.423 204.321 781.728C203.671 782.026 202.95 782.176 202.159 782.176ZM201.869 774.371C201.365 774.371 200.955 774.541 200.639 774.881C200.328 775.221 200.129 775.707 200.041 776.34H203.574V776.138C203.562 775.575 203.41 775.142 203.117 774.837C202.824 774.526 202.408 774.371 201.869 774.371ZM207.375 777.175C207.375 775.692 207.706 774.512 208.368 773.633C209.036 772.754 209.947 772.314 211.102 772.314C212.027 772.314 212.792 772.66 213.396 773.352V768.5H215.944V782H213.65L213.527 780.989C212.895 781.78 212.08 782.176 211.084 782.176C209.965 782.176 209.065 781.736 208.386 780.857C207.712 779.973 207.375 778.745 207.375 777.175ZM209.915 777.359C209.915 778.25 210.07 778.933 210.381 779.407C210.691 779.882 211.143 780.119 211.734 780.119C212.52 780.119 213.073 779.788 213.396 779.126V775.373C213.079 774.711 212.531 774.38 211.752 774.38C210.527 774.38 209.915 775.373 209.915 777.359Z" fill="#6200EE"/>
<path d="M155.04 809H152.5V799.209L149.468 800.149V798.084L154.768 796.186H155.04V809ZM159.834 802.707L160.572 796.203H167.744V798.321H162.655L162.339 801.072C162.942 800.75 163.584 800.589 164.264 800.589C165.482 800.589 166.438 800.967 167.129 801.723C167.82 802.479 168.166 803.536 168.166 804.896C168.166 805.722 167.99 806.463 167.639 807.119C167.293 807.77 166.795 808.276 166.145 808.64C165.494 808.997 164.727 809.176 163.842 809.176C163.068 809.176 162.351 809.021 161.688 808.71C161.026 808.394 160.502 807.951 160.115 807.383C159.734 806.814 159.532 806.167 159.509 805.44H162.022C162.075 805.974 162.26 806.39 162.576 806.688C162.898 806.981 163.317 807.128 163.833 807.128C164.407 807.128 164.85 806.923 165.16 806.513C165.471 806.097 165.626 805.511 165.626 804.755C165.626 804.028 165.447 803.472 165.09 803.085C164.732 802.698 164.226 802.505 163.569 802.505C162.966 802.505 162.477 802.663 162.102 802.979L161.855 803.208L159.834 802.707ZM178.813 809H170.042V807.26L174.182 802.848C174.75 802.227 175.169 801.685 175.438 801.222C175.714 800.759 175.852 800.319 175.852 799.903C175.852 799.335 175.708 798.89 175.421 798.567C175.134 798.239 174.724 798.075 174.19 798.075C173.616 798.075 173.162 798.274 172.828 798.673C172.5 799.065 172.336 799.584 172.336 800.229H169.787C169.787 799.449 169.972 798.737 170.341 798.093C170.716 797.448 171.243 796.944 171.923 796.581C172.603 796.212 173.373 796.027 174.234 796.027C175.553 796.027 176.575 796.344 177.302 796.977C178.034 797.609 178.4 798.503 178.4 799.657C178.4 800.29 178.236 800.935 177.908 801.591C177.58 802.247 177.018 803.012 176.221 803.885L173.312 806.952H178.813V809Z" fill="#404040"/>
<path d="M116.367 835.363H111.744L110.865 838H108.062L112.825 825.203H115.269L120.059 838H117.255L116.367 835.363ZM112.456 833.228H115.655L114.047 828.438L112.456 833.228ZM124.018 838H121.469V824.5H124.018V838ZM134.938 833.333C134.938 834.856 134.612 836.046 133.962 836.901C133.312 837.751 132.403 838.176 131.237 838.176C130.206 838.176 129.383 837.78 128.768 836.989L128.653 838H126.368V824.5H128.908V829.343C129.494 828.657 130.265 828.314 131.22 828.314C132.38 828.314 133.288 828.742 133.944 829.598C134.606 830.447 134.938 831.646 134.938 833.192V833.333ZM132.397 833.148C132.397 832.188 132.245 831.487 131.94 831.048C131.636 830.603 131.182 830.38 130.578 830.38C129.77 830.38 129.213 830.711 128.908 831.373V835.126C129.219 835.794 129.781 836.128 130.596 836.128C131.416 836.128 131.955 835.724 132.213 834.915C132.336 834.528 132.397 833.939 132.397 833.148ZM142.456 837.033C141.829 837.795 140.962 838.176 139.854 838.176C138.835 838.176 138.056 837.883 137.517 837.297C136.983 836.711 136.711 835.853 136.699 834.722V828.49H139.239V834.634C139.239 835.624 139.69 836.119 140.593 836.119C141.454 836.119 142.046 835.82 142.368 835.223V828.49H144.917V838H142.526L142.456 837.033ZM149.465 828.49L149.544 829.554C150.218 828.728 151.129 828.314 152.277 828.314C153.502 828.314 154.343 828.798 154.8 829.765C155.468 828.798 156.42 828.314 157.656 828.314C158.688 828.314 159.455 828.616 159.959 829.22C160.463 829.817 160.715 830.72 160.715 831.927V838H158.166V831.936C158.166 831.396 158.061 831.004 157.85 830.758C157.639 830.506 157.267 830.38 156.733 830.38C155.972 830.38 155.444 830.743 155.151 831.47L155.16 838H152.62V831.944C152.62 831.394 152.512 830.995 152.295 830.749C152.078 830.503 151.709 830.38 151.188 830.38C150.467 830.38 149.945 830.679 149.623 831.276V838H147.083V828.49H149.465ZM168.075 835.372C168.075 835.062 167.92 834.818 167.609 834.643C167.305 834.461 166.812 834.3 166.133 834.159C163.871 833.685 162.74 832.724 162.74 831.276C162.74 830.433 163.089 829.729 163.786 829.167C164.489 828.599 165.406 828.314 166.537 828.314C167.744 828.314 168.708 828.599 169.429 829.167C170.155 829.735 170.519 830.474 170.519 831.382H167.979C167.979 831.019 167.861 830.72 167.627 830.485C167.393 830.245 167.026 830.125 166.528 830.125C166.101 830.125 165.77 830.222 165.535 830.415C165.301 830.608 165.184 830.854 165.184 831.153C165.184 831.435 165.315 831.663 165.579 831.839C165.849 832.009 166.3 832.158 166.933 832.287C167.565 832.41 168.099 832.551 168.532 832.709C169.874 833.201 170.545 834.054 170.545 835.267C170.545 836.134 170.173 836.837 169.429 837.376C168.685 837.909 167.724 838.176 166.546 838.176C165.749 838.176 165.04 838.035 164.419 837.754C163.804 837.467 163.32 837.077 162.969 836.585C162.617 836.087 162.441 835.551 162.441 834.977H164.85C164.873 835.428 165.04 835.773 165.351 836.014C165.661 836.254 166.077 836.374 166.599 836.374C167.085 836.374 167.451 836.283 167.697 836.102C167.949 835.914 168.075 835.671 168.075 835.372ZM179.975 835.882H185.573V838H177.338V825.203H179.975V835.882ZM189.857 838H187.309V828.49H189.857V838ZM187.159 826.029C187.159 825.648 187.285 825.335 187.537 825.089C187.795 824.843 188.144 824.72 188.583 824.72C189.017 824.72 189.362 824.843 189.62 825.089C189.878 825.335 190.007 825.648 190.007 826.029C190.007 826.416 189.875 826.732 189.611 826.979C189.354 827.225 189.011 827.348 188.583 827.348C188.155 827.348 187.81 827.225 187.546 826.979C187.288 826.732 187.159 826.416 187.159 826.029ZM195.662 834.186L194.748 835.1V838H192.208V824.5H194.748V831.979L195.24 831.347L197.675 828.49H200.725L197.288 832.454L201.023 838H198.105L195.662 834.186ZM206.274 838.176C204.88 838.176 203.743 837.748 202.864 836.893C201.991 836.037 201.555 834.897 201.555 833.474V833.228C201.555 832.272 201.739 831.42 202.108 830.67C202.478 829.914 202.999 829.334 203.673 828.93C204.353 828.52 205.126 828.314 205.993 828.314C207.294 828.314 208.316 828.725 209.061 829.545C209.811 830.365 210.186 831.528 210.186 833.034V834.071H204.13C204.212 834.692 204.458 835.19 204.868 835.565C205.284 835.94 205.809 836.128 206.441 836.128C207.42 836.128 208.185 835.773 208.735 835.064L209.983 836.462C209.603 837.001 209.087 837.423 208.437 837.728C207.786 838.026 207.065 838.176 206.274 838.176ZM205.984 830.371C205.48 830.371 205.07 830.541 204.754 830.881C204.443 831.221 204.244 831.707 204.156 832.34H207.689V832.138C207.678 831.575 207.525 831.142 207.232 830.837C206.939 830.526 206.523 830.371 205.984 830.371ZM211.49 833.175C211.49 831.692 211.821 830.512 212.483 829.633C213.151 828.754 214.062 828.314 215.217 828.314C216.143 828.314 216.907 828.66 217.511 829.352V824.5H220.06V838H217.766L217.643 836.989C217.01 837.78 216.195 838.176 215.199 838.176C214.08 838.176 213.181 837.736 212.501 836.857C211.827 835.973 211.49 834.745 211.49 833.175ZM214.03 833.359C214.03 834.25 214.186 834.933 214.496 835.407C214.807 835.882 215.258 836.119 215.85 836.119C216.635 836.119 217.188 835.788 217.511 835.126V831.373C217.194 830.711 216.646 830.38 215.867 830.38C214.643 830.38 214.03 831.373 214.03 833.359Z" fill="#6200EE"/>
<path d="M150.248 860.707L150.986 854.203H158.158V856.321H153.069L152.753 859.072C153.356 858.75 153.998 858.589 154.678 858.589C155.896 858.589 156.852 858.967 157.543 859.723C158.234 860.479 158.58 861.536 158.58 862.896C158.58 863.722 158.404 864.463 158.053 865.119C157.707 865.77 157.209 866.276 156.559 866.64C155.908 866.997 155.141 867.176 154.256 867.176C153.482 867.176 152.765 867.021 152.103 866.71C151.44 866.394 150.916 865.951 150.529 865.383C150.148 864.814 149.946 864.167 149.923 863.44H152.437C152.489 863.974 152.674 864.39 152.99 864.688C153.312 864.981 153.731 865.128 154.247 865.128C154.821 865.128 155.264 864.923 155.574 864.513C155.885 864.097 156.04 863.511 156.04 862.755C156.04 862.028 155.861 861.472 155.504 861.085C155.146 860.698 154.64 860.505 153.983 860.505C153.38 860.505 152.891 860.663 152.516 860.979L152.27 861.208L150.248 860.707ZM168.797 857.604C168.797 858.226 168.642 858.776 168.331 859.257C168.021 859.737 167.593 860.121 167.048 860.408C167.669 860.707 168.161 861.12 168.524 861.647C168.888 862.169 169.069 862.784 169.069 863.493C169.069 864.63 168.683 865.529 167.909 866.191C167.136 866.848 166.084 867.176 164.754 867.176C163.424 867.176 162.369 866.845 161.59 866.183C160.811 865.521 160.421 864.624 160.421 863.493C160.421 862.784 160.603 862.166 160.966 861.639C161.329 861.111 161.818 860.701 162.434 860.408C161.889 860.121 161.461 859.737 161.15 859.257C160.846 858.776 160.693 858.226 160.693 857.604C160.693 856.515 161.057 855.647 161.783 855.003C162.51 854.353 163.497 854.027 164.745 854.027C165.987 854.027 166.972 854.35 167.698 854.994C168.431 855.633 168.797 856.503 168.797 857.604ZM166.521 863.309C166.521 862.752 166.359 862.307 166.037 861.973C165.715 861.639 165.281 861.472 164.736 861.472C164.197 861.472 163.767 861.639 163.444 861.973C163.122 862.301 162.961 862.746 162.961 863.309C162.961 863.854 163.119 864.293 163.436 864.627C163.752 864.961 164.191 865.128 164.754 865.128C165.305 865.128 165.735 864.967 166.046 864.645C166.362 864.322 166.521 863.877 166.521 863.309ZM166.257 857.728C166.257 857.229 166.125 856.831 165.861 856.532C165.598 856.228 165.226 856.075 164.745 856.075C164.271 856.075 163.901 856.222 163.638 856.515C163.374 856.808 163.242 857.212 163.242 857.728C163.242 858.237 163.374 858.647 163.638 858.958C163.901 859.269 164.273 859.424 164.754 859.424C165.234 859.424 165.604 859.269 165.861 858.958C166.125 858.647 166.257 858.237 166.257 857.728ZM173.626 859.477H174.979C175.624 859.477 176.102 859.315 176.412 858.993C176.723 858.671 176.878 858.243 176.878 857.71C176.878 857.194 176.723 856.793 176.412 856.506C176.107 856.219 175.686 856.075 175.146 856.075C174.66 856.075 174.253 856.21 173.925 856.479C173.597 856.743 173.433 857.089 173.433 857.517H170.893C170.893 856.849 171.071 856.251 171.429 855.724C171.792 855.19 172.296 854.774 172.94 854.476C173.591 854.177 174.306 854.027 175.085 854.027C176.438 854.027 177.499 854.353 178.267 855.003C179.034 855.647 179.418 856.538 179.418 857.675C179.418 858.261 179.239 858.8 178.882 859.292C178.524 859.784 178.056 860.162 177.476 860.426C178.196 860.684 178.732 861.07 179.084 861.586C179.441 862.102 179.62 862.711 179.62 863.414C179.62 864.551 179.204 865.462 178.372 866.147C177.546 866.833 176.45 867.176 175.085 867.176C173.808 867.176 172.762 866.839 171.947 866.165C171.139 865.491 170.734 864.601 170.734 863.493H173.274C173.274 863.974 173.453 864.366 173.811 864.671C174.174 864.976 174.619 865.128 175.146 865.128C175.75 865.128 176.222 864.97 176.562 864.653C176.907 864.331 177.08 863.906 177.08 863.379C177.08 862.102 176.377 861.463 174.971 861.463H173.626V859.477Z" fill="#404040"/>
<defs>
<linearGradient id="paint0_linear" x1="302.504" y1="50.6172" x2="47.504" y2="50.6172" gradientUnits="userSpaceOnUse">
<stop stop-color="#00C2FF"/>
<stop offset="0.0001" stop-color="#00C2FF"/>
<stop offset="1" stop-color="#B10DFF"/>
</linearGradient>
<linearGradient id="paint1_linear" x1="302.504" y1="50.6172" x2="47.504" y2="50.6172" gradientUnits="userSpaceOnUse">
<stop stop-color="#00C2FF"/>
<stop offset="0.0001" stop-color="#00C2FF"/>
<stop offset="1" stop-color="#B10DFF"/>
</linearGradient>
<linearGradient id="paint2_linear" x1="302.504" y1="50.6172" x2="47.504" y2="50.6172" gradientUnits="userSpaceOnUse">
<stop stop-color="#00C2FF"/>
<stop offset="0.0001" stop-color="#00C2FF"/>
<stop offset="1" stop-color="#B10DFF"/>
</linearGradient>
<linearGradient id="paint3_linear" x1="302.504" y1="50.6172" x2="47.504" y2="50.6172" gradientUnits="userSpaceOnUse">
<stop stop-color="#00C2FF"/>
<stop offset="0.0001" stop-color="#00C2FF"/>
<stop offset="1" stop-color="#B10DFF"/>
</linearGradient>
<linearGradient id="paint4_linear" x1="302.504" y1="50.6172" x2="47.504" y2="50.6172" gradientUnits="userSpaceOnUse">
<stop stop-color="#00C2FF"/>
<stop offset="0.0001" stop-color="#00C2FF"/>
<stop offset="1" stop-color="#B10DFF"/>
</linearGradient>
<linearGradient id="paint5_linear" x1="302.504" y1="50.6172" x2="47.504" y2="50.6172" gradientUnits="userSpaceOnUse">
<stop stop-color="#00C2FF"/>
<stop offset="0.0001" stop-color="#00C2FF"/>
<stop offset="1" stop-color="#B10DFF"/>
</linearGradient>
</defs>
</svg>
